solid cylinder_2k_12k
 facet normal  9.945218953682732e-01 1.045284632676538e-01 0.000000000000000e+00 
  outer loop 
   vertex  4.000000000000000e+03 2.000000000000000e+03 0.000000000000000e+00 
   vertex  3.956295201467611e+03 2.415823381635519e+03 0.000000000000000e+00 
   vertex  4.000000000000000e+03 2.000000000000000e+03 1.200000000000000e+04 
  endloop 
 endfacet 
 facet normal  -0.000000000000000e+00 -0.000000000000000e+00 -1.000000000000000e+00 
  outer loop 
   vertex  4.000000000000000e+03 2.000000000000000e+03 0.000000000000000e+00 
   vertex  2.000000000000000e+03 2.000000000000000e+03 0.000000000000000e+00 
   vertex  3.956295201467611e+03 2.415823381635519e+03 0.000000000000000e+00 
  endloop 
 endfacet 
 facet normal  9.945218953682732e-01 1.045284632676538e-01 -0.000000000000000e+00 
  outer loop 
   vertex  3.956295201467611e+03 2.415823381635519e+03 1.200000000000000e+04 
   vertex  4.000000000000000e+03 2.000000000000000e+03 1.200000000000000e+04 
   vertex  3.956295201467611e+03 2.415823381635519e+03 0.000000000000000e+00 
  endloop 
 endfacet 
 facet normal  0.000000000000000e+00 0.000000000000000e+00 1.000000000000000e+00 
  outer loop 
   vertex  3.956295201467611e+03 2.415823381635519e+03 1.200000000000000e+04 
   vertex  2.000000000000000e+03 2.000000000000000e+03 1.200000000000000e+04 
   vertex  4.000000000000000e+03 2.000000000000000e+03 1.200000000000000e+04 
  endloop 
 endfacet 
 facet normal  9.510565162951538e-01 3.090169943749471e-01 0.000000000000000e+00 
  outer loop 
   vertex  3.956295201467611e+03 2.415823381635519e+03 0.000000000000000e+00 
   vertex  3.827090915285202e+03 2.813473286151600e+03 0.000000000000000e+00 
   vertex  3.956295201467611e+03 2.415823381635519e+03 1.200000000000000e+04 
  endloop 
 endfacet 
 facet normal  0.000000000000000e+00 -0.000000000000000e+00 -1.000000000000000e+00 
  outer loop 
   vertex  3.956295201467611e+03 2.415823381635519e+03 0.000000000000000e+00 
   vertex  2.000000000000000e+03 2.000000000000000e+03 0.000000000000000e+00 
   vertex  3.827090915285202e+03 2.813473286151600e+03 0.000000000000000e+00 
  endloop 
 endfacet 
 facet normal  9.510565162951538e-01 3.090169943749471e-01 -0.000000000000000e+00 
  outer loop 
   vertex  3.827090915285202e+03 2.813473286151600e+03 1.200000000000000e+04 
   vertex  3.956295201467611e+03 2.415823381635519e+03 1.200000000000000e+04 
   vertex  3.827090915285202e+03 2.813473286151600e+03 0.000000000000000e+00 
  endloop 
 endfacet 
 facet normal  0.000000000000000e+00 0.000000000000000e+00 1.000000000000000e+00 
  outer loop 
   vertex  3.827090915285202e+03 2.813473286151600e+03 1.200000000000000e+04 
   vertex  2.000000000000000e+03 2.000000000000000e+03 1.200000000000000e+04 
   vertex  3.956295201467611e+03 2.415823381635519e+03 1.200000000000000e+04 
  endloop 
 endfacet 
 facet normal  8.660254037844387e-01 5.000000000000000e-01 0.000000000000000e+00 
  outer loop 
   vertex  3.827090915285202e+03 2.813473286151600e+03 0.000000000000000e+00 
   vertex  3.618033988749895e+03 3.175570504584946e+03 0.000000000000000e+00 
   vertex  3.827090915285202e+03 2.813473286151600e+03 1.200000000000000e+04 
  endloop 
 endfacet 
 facet normal  0.000000000000000e+00 -0.000000000000000e+00 -1.000000000000000e+00 
  outer loop 
   vertex  3.827090915285202e+03 2.813473286151600e+03 0.000000000000000e+00 
   vertex  2.000000000000000e+03 2.000000000000000e+03 0.000000000000000e+00 
   vertex  3.618033988749895e+03 3.175570504584946e+03 0.000000000000000e+00 
  endloop 
 endfacet 
 facet normal  8.660254037844387e-01 5.000000000000000e-01 -0.000000000000000e+00 
  outer loop 
   vertex  3.618033988749895e+03 3.175570504584946e+03 1.200000000000000e+04 
   vertex  3.827090915285202e+03 2.813473286151600e+03 1.200000000000000e+04 
   vertex  3.618033988749895e+03 3.175570504584946e+03 0.000000000000000e+00 
  endloop 
 endfacet 
 facet normal  0.000000000000000e+00 0.000000000000000e+00 1.000000000000000e+00 
  outer loop 
   vertex  3.618033988749895e+03 3.175570504584946e+03 1.200000000000000e+04 
   vertex  2.000000000000000e+03 2.000000000000000e+03 1.200000000000000e+04 
   vertex  3.827090915285202e+03 2.813473286151600e+03 1.200000000000000e+04 
  endloop 
 endfacet 
 facet normal  7.431448254773936e-01 6.691306063588589e-01 0.000000000000000e+00 
  outer loop 
   vertex  3.618033988749895e+03 3.175570504584946e+03 0.000000000000000e+00 
   vertex  3.338261212717716e+03 3.486289650954788e+03 0.000000000000000e+00 
   vertex  3.618033988749895e+03 3.175570504584946e+03 1.200000000000000e+04 
  endloop 
 endfacet 
 facet normal  0.000000000000000e+00 -0.000000000000000e+00 -1.000000000000000e+00 
  outer loop 
   vertex  3.618033988749895e+03 3.175570504584946e+03 0.000000000000000e+00 
   vertex  2.000000000000000e+03 2.000000000000000e+03 0.000000000000000e+00 
   vertex  3.338261212717716e+03 3.486289650954788e+03 0.000000000000000e+00 
  endloop 
 endfacet 
 facet normal  7.431448254773936e-01 6.691306063588589e-01 -0.000000000000000e+00 
  outer loop 
   vertex  3.338261212717716e+03 3.486289650954788e+03 1.200000000000000e+04 
   vertex  3.618033988749895e+03 3.175570504584946e+03 1.200000000000000e+04 
   vertex  3.338261212717716e+03 3.486289650954788e+03 0.000000000000000e+00 
  endloop 
 endfacet 
 facet normal  0.000000000000000e+00 0.000000000000000e+00 1.000000000000000e+00 
  outer loop 
   vertex  3.338261212717716e+03 3.486289650954788e+03 1.200000000000000e+04 
   vertex  2.000000000000000e+03 2.000000000000000e+03 1.200000000000000e+04 
   vertex  3.618033988749895e+03 3.175570504584946e+03 1.200000000000000e+04 
  endloop 
 endfacet 
 facet normal  5.877852522924736e-01 8.090169943749470e-01 0.000000000000000e+00 
  outer loop 
   vertex  3.338261212717716e+03 3.486289650954788e+03 0.000000000000000e+00 
   vertex  3.000000000000000e+03 3.732050807568877e+03 0.000000000000000e+00 
   vertex  3.338261212717716e+03 3.486289650954788e+03 1.200000000000000e+04 
  endloop 
 endfacet 
 facet normal  0.000000000000000e+00 -0.000000000000000e+00 -1.000000000000000e+00 
  outer loop 
   vertex  3.338261212717716e+03 3.486289650954788e+03 0.000000000000000e+00 
   vertex  2.000000000000000e+03 2.000000000000000e+03 0.000000000000000e+00 
   vertex  3.000000000000000e+03 3.732050807568877e+03 0.000000000000000e+00 
  endloop 
 endfacet 
 facet normal  5.877852522924736e-01 8.090169943749470e-01 -0.000000000000000e+00 
  outer loop 
   vertex  3.000000000000000e+03 3.732050807568877e+03 1.200000000000000e+04 
   vertex  3.338261212717716e+03 3.486289650954788e+03 1.200000000000000e+04 
   vertex  3.000000000000000e+03 3.732050807568877e+03 0.000000000000000e+00 
  endloop 
 endfacet 
 facet normal  0.000000000000000e+00 0.000000000000000e+00 1.000000000000000e+00 
  outer loop 
   vertex  3.000000000000000e+03 3.732050807568877e+03 1.200000000000000e+04 
   vertex  2.000000000000000e+03 2.000000000000000e+03 1.200000000000000e+04 
   vertex  3.338261212717716e+03 3.486289650954788e+03 1.200000000000000e+04 
  endloop 
 endfacet 
 facet normal  4.067366430757998e-01 9.135454576426011e-01 0.000000000000000e+00 
  outer loop 
   vertex  3.000000000000000e+03 3.732050807568877e+03 0.000000000000000e+00 
   vertex  2.618033988749895e+03 3.902113032590307e+03 0.000000000000000e+00 
   vertex  3.000000000000000e+03 3.732050807568877e+03 1.200000000000000e+04 
  endloop 
 endfacet 
 facet normal  0.000000000000000e+00 -0.000000000000000e+00 -1.000000000000000e+00 
  outer loop 
   vertex  3.000000000000000e+03 3.732050807568877e+03 0.000000000000000e+00 
   vertex  2.000000000000000e+03 2.000000000000000e+03 0.000000000000000e+00 
   vertex  2.618033988749895e+03 3.902113032590307e+03 0.000000000000000e+00 
  endloop 
 endfacet 
 facet normal  4.067366430757998e-01 9.135454576426011e-01 -0.000000000000000e+00 
  outer loop 
   vertex  2.618033988749895e+03 3.902113032590307e+03 1.200000000000000e+04 
   vertex  3.000000000000000e+03 3.732050807568877e+03 1.200000000000000e+04 
   vertex  2.618033988749895e+03 3.902113032590307e+03 0.000000000000000e+00 
  endloop 
 endfacet 
 facet normal  0.000000000000000e+00 0.000000000000000e+00 1.000000000000000e+00 
  outer loop 
   vertex  2.618033988749895e+03 3.902113032590307e+03 1.200000000000000e+04 
   vertex  2.000000000000000e+03 2.000000000000000e+03 1.200000000000000e+04 
   vertex  3.000000000000000e+03 3.732050807568877e+03 1.200000000000000e+04 
  endloop 
 endfacet 
 facet normal  2.079116908177601e-01 9.781476007338055e-01 0.000000000000000e+00 
  outer loop 
   vertex  2.618033988749895e+03 3.902113032590307e+03 0.000000000000000e+00 
   vertex  2.209056926535307e+03 3.989043790736547e+03 0.000000000000000e+00 
   vertex  2.618033988749895e+03 3.902113032590307e+03 1.200000000000000e+04 
  endloop 
 endfacet 
 facet normal  0.000000000000000e+00 -0.000000000000000e+00 -1.000000000000000e+00 
  outer loop 
   vertex  2.618033988749895e+03 3.902113032590307e+03 0.000000000000000e+00 
   vertex  2.000000000000000e+03 2.000000000000000e+03 0.000000000000000e+00 
   vertex  2.209056926535307e+03 3.989043790736547e+03 0.000000000000000e+00 
  endloop 
 endfacet 
 facet normal  2.079116908177601e-01 9.781476007338055e-01 -0.000000000000000e+00 
  outer loop 
   vertex  2.209056926535307e+03 3.989043790736547e+03 1.200000000000000e+04 
   vertex  2.618033988749895e+03 3.902113032590307e+03 1.200000000000000e+04 
   vertex  2.209056926535307e+03 3.989043790736547e+03 0.000000000000000e+00 
  endloop 
 endfacet 
 facet normal  0.000000000000000e+00 0.000000000000000e+00 1.000000000000000e+00 
  outer loop 
   vertex  2.209056926535307e+03 3.989043790736547e+03 1.200000000000000e+04 
   vertex  2.000000000000000e+03 2.000000000000000e+03 1.200000000000000e+04 
   vertex  2.618033988749895e+03 3.902113032590307e+03 1.200000000000000e+04 
  endloop 
 endfacet 
 facet normal  0.000000000000000e+00 1.000000000000000e+00 0.000000000000000e+00 
  outer loop 
   vertex  2.209056926535307e+03 3.989043790736547e+03 0.000000000000000e+00 
   vertex  1.790943073464693e+03 3.989043790736547e+03 0.000000000000000e+00 
   vertex  2.209056926535307e+03 3.989043790736547e+03 1.200000000000000e+04 
  endloop 
 endfacet 
 facet normal  0.000000000000000e+00 -0.000000000000000e+00 -1.000000000000000e+00 
  outer loop 
   vertex  2.209056926535307e+03 3.989043790736547e+03 0.000000000000000e+00 
   vertex  2.000000000000000e+03 2.000000000000000e+03 0.000000000000000e+00 
   vertex  1.790943073464693e+03 3.989043790736547e+03 0.000000000000000e+00 
  endloop 
 endfacet 
 facet normal  0.000000000000000e+00 1.000000000000000e+00 0.000000000000000e+00 
  outer loop 
   vertex  1.790943073464693e+03 3.989043790736547e+03 1.200000000000000e+04 
   vertex  2.209056926535307e+03 3.989043790736547e+03 1.200000000000000e+04 
   vertex  1.790943073464693e+03 3.989043790736547e+03 0.000000000000000e+00 
  endloop 
 endfacet 
 facet normal  0.000000000000000e+00 0.000000000000000e+00 1.000000000000000e+00 
  outer loop 
   vertex  1.790943073464693e+03 3.989043790736547e+03 1.200000000000000e+04 
   vertex  2.000000000000000e+03 2.000000000000000e+03 1.200000000000000e+04 
   vertex  2.209056926535307e+03 3.989043790736547e+03 1.200000000000000e+04 
  endloop 
 endfacet 
 facet normal  -2.079116908177591e-01 9.781476007338057e-01 0.000000000000000e+00 
  outer loop 
   vertex  1.790943073464693e+03 3.989043790736547e+03 0.000000000000000e+00 
   vertex  1.381966011250105e+03 3.902113032590307e+03 0.000000000000000e+00 
   vertex  1.790943073464693e+03 3.989043790736547e+03 1.200000000000000e+04 
  endloop 
 endfacet 
 facet normal  0.000000000000000e+00 0.000000000000000e+00 -1.000000000000000e+00 
  outer loop 
   vertex  1.790943073464693e+03 3.989043790736547e+03 0.000000000000000e+00 
   vertex  2.000000000000000e+03 2.000000000000000e+03 0.000000000000000e+00 
   vertex  1.381966011250105e+03 3.902113032590307e+03 0.000000000000000e+00 
  endloop 
 endfacet 
 facet normal  -2.079116908177591e-01 9.781476007338057e-01 0.000000000000000e+00 
  outer loop 
   vertex  1.381966011250105e+03 3.902113032590307e+03 1.200000000000000e+04 
   vertex  1.790943073464693e+03 3.989043790736547e+03 1.200000000000000e+04 
   vertex  1.381966011250105e+03 3.902113032590307e+03 0.000000000000000e+00 
  endloop 
 endfacet 
 facet normal  0.000000000000000e+00 0.000000000000000e+00 1.000000000000000e+00 
  outer loop 
   vertex  1.381966011250105e+03 3.902113032590307e+03 1.200000000000000e+04 
   vertex  2.000000000000000e+03 2.000000000000000e+03 1.200000000000000e+04 
   vertex  1.790943073464693e+03 3.989043790736547e+03 1.200000000000000e+04 
  endloop 
 endfacet 
 facet normal  -4.067366430758000e-01 9.135454576426011e-01 0.000000000000000e+00 
  outer loop 
   vertex  1.381966011250105e+03 3.902113032590307e+03 0.000000000000000e+00 
   vertex  1.000000000000000e+03 3.732050807568878e+03 0.000000000000000e+00 
   vertex  1.381966011250105e+03 3.902113032590307e+03 1.200000000000000e+04 
  endloop 
 endfacet 
 facet normal  0.000000000000000e+00 0.000000000000000e+00 -1.000000000000000e+00 
  outer loop 
   vertex  1.381966011250105e+03 3.902113032590307e+03 0.000000000000000e+00 
   vertex  2.000000000000000e+03 2.000000000000000e+03 0.000000000000000e+00 
   vertex  1.000000000000000e+03 3.732050807568878e+03 0.000000000000000e+00 
  endloop 
 endfacet 
 facet normal  -4.067366430758000e-01 9.135454576426011e-01 0.000000000000000e+00 
  outer loop 
   vertex  1.000000000000000e+03 3.732050807568878e+03 1.200000000000000e+04 
   vertex  1.381966011250105e+03 3.902113032590307e+03 1.200000000000000e+04 
   vertex  1.000000000000000e+03 3.732050807568878e+03 0.000000000000000e+00 
  endloop 
 endfacet 
 facet normal  0.000000000000000e+00 0.000000000000000e+00 1.000000000000000e+00 
  outer loop 
   vertex  1.000000000000000e+03 3.732050807568878e+03 1.200000000000000e+04 
   vertex  2.000000000000000e+03 2.000000000000000e+03 1.200000000000000e+04 
   vertex  1.381966011250105e+03 3.902113032590307e+03 1.200000000000000e+04 
  endloop 
 endfacet 
 facet normal  -5.877852522924729e-01 8.090169943749476e-01 0.000000000000000e+00 
  outer loop 
   vertex  1.000000000000000e+03 3.732050807568878e+03 0.000000000000000e+00 
   vertex  6.617387872822842e+02 3.486289650954789e+03 0.000000000000000e+00 
   vertex  1.000000000000000e+03 3.732050807568878e+03 1.200000000000000e+04 
  endloop 
 endfacet 
 facet normal  0.000000000000000e+00 0.000000000000000e+00 -1.000000000000000e+00 
  outer loop 
   vertex  1.000000000000000e+03 3.732050807568878e+03 0.000000000000000e+00 
   vertex  2.000000000000000e+03 2.000000000000000e+03 0.000000000000000e+00 
   vertex  6.617387872822842e+02 3.486289650954789e+03 0.000000000000000e+00 
  endloop 
 endfacet 
 facet normal  -5.877852522924729e-01 8.090169943749476e-01 0.000000000000000e+00 
  outer loop 
   vertex  6.617387872822842e+02 3.486289650954789e+03 1.200000000000000e+04 
   vertex  1.000000000000000e+03 3.732050807568878e+03 1.200000000000000e+04 
   vertex  6.617387872822842e+02 3.486289650954789e+03 0.000000000000000e+00 
  endloop 
 endfacet 
 facet normal  0.000000000000000e+00 0.000000000000000e+00 1.000000000000000e+00 
  outer loop 
   vertex  6.617387872822842e+02 3.486289650954789e+03 1.200000000000000e+04 
   vertex  2.000000000000000e+03 2.000000000000000e+03 1.200000000000000e+04 
   vertex  1.000000000000000e+03 3.732050807568878e+03 1.200000000000000e+04 
  endloop 
 endfacet 
 facet normal  -7.431448254773944e-01 6.691306063588582e-01 0.000000000000000e+00 
  outer loop 
   vertex  6.617387872822842e+02 3.486289650954789e+03 0.000000000000000e+00 
   vertex  3.819660112501053e+02 3.175570504584946e+03 0.000000000000000e+00 
   vertex  6.617387872822842e+02 3.486289650954789e+03 1.200000000000000e+04 
  endloop 
 endfacet 
 facet normal  0.000000000000000e+00 0.000000000000000e+00 -1.000000000000000e+00 
  outer loop 
   vertex  6.617387872822842e+02 3.486289650954789e+03 0.000000000000000e+00 
   vertex  2.000000000000000e+03 2.000000000000000e+03 0.000000000000000e+00 
   vertex  3.819660112501053e+02 3.175570504584946e+03 0.000000000000000e+00 
  endloop 
 endfacet 
 facet normal  -7.431448254773944e-01 6.691306063588582e-01 0.000000000000000e+00 
  outer loop 
   vertex  3.819660112501053e+02 3.175570504584946e+03 1.200000000000000e+04 
   vertex  6.617387872822842e+02 3.486289650954789e+03 1.200000000000000e+04 
   vertex  3.819660112501053e+02 3.175570504584946e+03 0.000000000000000e+00 
  endloop 
 endfacet 
 facet normal  0.000000000000000e+00 0.000000000000000e+00 1.000000000000000e+00 
  outer loop 
   vertex  3.819660112501053e+02 3.175570504584946e+03 1.200000000000000e+04 
   vertex  2.000000000000000e+03 2.000000000000000e+03 1.200000000000000e+04 
   vertex  6.617387872822842e+02 3.486289650954789e+03 1.200000000000000e+04 
  endloop 
 endfacet 
 facet normal  -8.660254037844387e-01 4.999999999999999e-01 0.000000000000000e+00 
  outer loop 
   vertex  3.819660112501053e+02 3.175570504584946e+03 0.000000000000000e+00 
   vertex  1.729090847147982e+02 2.813473286151600e+03 0.000000000000000e+00 
   vertex  3.819660112501053e+02 3.175570504584946e+03 1.200000000000000e+04 
  endloop 
 endfacet 
 facet normal  0.000000000000000e+00 0.000000000000000e+00 -1.000000000000000e+00 
  outer loop 
   vertex  3.819660112501053e+02 3.175570504584946e+03 0.000000000000000e+00 
   vertex  2.000000000000000e+03 2.000000000000000e+03 0.000000000000000e+00 
   vertex  1.729090847147982e+02 2.813473286151600e+03 0.000000000000000e+00 
  endloop 
 endfacet 
 facet normal  -8.660254037844387e-01 4.999999999999999e-01 0.000000000000000e+00 
  outer loop 
   vertex  1.729090847147982e+02 2.813473286151600e+03 1.200000000000000e+04 
   vertex  3.819660112501053e+02 3.175570504584946e+03 1.200000000000000e+04 
   vertex  1.729090847147982e+02 2.813473286151600e+03 0.000000000000000e+00 
  endloop 
 endfacet 
 facet normal  0.000000000000000e+00 0.000000000000000e+00 1.000000000000000e+00 
  outer loop 
   vertex  1.729090847147982e+02 2.813473286151600e+03 1.200000000000000e+04 
   vertex  2.000000000000000e+03 2.000000000000000e+03 1.200000000000000e+04 
   vertex  3.819660112501053e+02 3.175570504584946e+03 1.200000000000000e+04 
  endloop 
 endfacet 
 facet normal  -9.510565162951533e-01 3.090169943749479e-01 0.000000000000000e+00 
  outer loop 
   vertex  1.729090847147982e+02 2.813473286151600e+03 0.000000000000000e+00 
   vertex  4.370479853238862e+01 2.415823381635519e+03 0.000000000000000e+00 
   vertex  1.729090847147982e+02 2.813473286151600e+03 1.200000000000000e+04 
  endloop 
 endfacet 
 facet normal  0.000000000000000e+00 0.000000000000000e+00 -1.000000000000000e+00 
  outer loop 
   vertex  1.729090847147982e+02 2.813473286151600e+03 0.000000000000000e+00 
   vertex  2.000000000000000e+03 2.000000000000000e+03 0.000000000000000e+00 
   vertex  4.370479853238862e+01 2.415823381635519e+03 0.000000000000000e+00 
  endloop 
 endfacet 
 facet normal  -9.510565162951533e-01 3.090169943749479e-01 0.000000000000000e+00 
  outer loop 
   vertex  4.370479853238862e+01 2.415823381635519e+03 1.200000000000000e+04 
   vertex  1.729090847147982e+02 2.813473286151600e+03 1.200000000000000e+04 
   vertex  4.370479853238862e+01 2.415823381635519e+03 0.000000000000000e+00 
  endloop 
 endfacet 
 facet normal  0.000000000000000e+00 0.000000000000000e+00 1.000000000000000e+00 
  outer loop 
   vertex  4.370479853238862e+01 2.415823381635519e+03 1.200000000000000e+04 
   vertex  2.000000000000000e+03 2.000000000000000e+03 1.200000000000000e+04 
   vertex  1.729090847147982e+02 2.813473286151600e+03 1.200000000000000e+04 
  endloop 
 endfacet 
 facet normal  -9.945218953682734e-01 1.045284632676533e-01 0.000000000000000e+00 
  outer loop 
   vertex  4.370479853238862e+01 2.415823381635519e+03 0.000000000000000e+00 
   vertex  0.000000000000000e+00 2.000000000000000e+03 0.000000000000000e+00 
   vertex  4.370479853238862e+01 2.415823381635519e+03 1.200000000000000e+04 
  endloop 
 endfacet 
 facet normal  0.000000000000000e+00 0.000000000000000e+00 -1.000000000000000e+00 
  outer loop 
   vertex  4.370479853238862e+01 2.415823381635519e+03 0.000000000000000e+00 
   vertex  2.000000000000000e+03 2.000000000000000e+03 0.000000000000000e+00 
   vertex  0.000000000000000e+00 2.000000000000000e+03 0.000000000000000e+00 
  endloop 
 endfacet 
 facet normal  -9.945218953682734e-01 1.045284632676533e-01 0.000000000000000e+00 
  outer loop 
   vertex  0.000000000000000e+00 2.000000000000000e+03 1.200000000000000e+04 
   vertex  4.370479853238862e+01 2.415823381635519e+03 1.200000000000000e+04 
   vertex  0.000000000000000e+00 2.000000000000000e+03 0.000000000000000e+00 
  endloop 
 endfacet 
 facet normal  0.000000000000000e+00 0.000000000000000e+00 1.000000000000000e+00 
  outer loop 
   vertex  0.000000000000000e+00 2.000000000000000e+03 1.200000000000000e+04 
   vertex  2.000000000000000e+03 2.000000000000000e+03 1.200000000000000e+04 
   vertex  4.370479853238862e+01 2.415823381635519e+03 1.200000000000000e+04 
  endloop 
 endfacet 
 facet normal  -9.945218953682734e-01 -1.045284632676533e-01 -0.000000000000000e+00 
  outer loop 
   vertex  0.000000000000000e+00 2.000000000000000e+03 0.000000000000000e+00 
   vertex  4.370479853238862e+01 1.584176618364482e+03 0.000000000000000e+00 
   vertex  0.000000000000000e+00 2.000000000000000e+03 1.200000000000000e+04 
  endloop 
 endfacet 
 facet normal  0.000000000000000e+00 0.000000000000000e+00 -1.000000000000000e+00 
  outer loop 
   vertex  0.000000000000000e+00 2.000000000000000e+03 0.000000000000000e+00 
   vertex  2.000000000000000e+03 2.000000000000000e+03 0.000000000000000e+00 
   vertex  4.370479853238862e+01 1.584176618364482e+03 0.000000000000000e+00 
  endloop 
 endfacet 
 facet normal  -9.945218953682734e-01 -1.045284632676533e-01 0.000000000000000e+00 
  outer loop 
   vertex  4.370479853238862e+01 1.584176618364482e+03 1.200000000000000e+04 
   vertex  0.000000000000000e+00 2.000000000000000e+03 1.200000000000000e+04 
   vertex  4.370479853238862e+01 1.584176618364482e+03 0.000000000000000e+00 
  endloop 
 endfacet 
 facet normal  -0.000000000000000e+00 0.000000000000000e+00 1.000000000000000e+00 
  outer loop 
   vertex  4.370479853238862e+01 1.584176618364482e+03 1.200000000000000e+04 
   vertex  2.000000000000000e+03 2.000000000000000e+03 1.200000000000000e+04 
   vertex  0.000000000000000e+00 2.000000000000000e+03 1.200000000000000e+04 
  endloop 
 endfacet 
 facet normal  -9.510565162951535e-01 -3.090169943749474e-01 -0.000000000000000e+00 
  outer loop 
   vertex  4.370479853238862e+01 1.584176618364482e+03 0.000000000000000e+00 
   vertex  1.729090847147979e+02 1.186526713848401e+03 0.000000000000000e+00 
   vertex  4.370479853238862e+01 1.584176618364482e+03 1.200000000000000e+04 
  endloop 
 endfacet 
 facet normal  0.000000000000000e+00 0.000000000000000e+00 -1.000000000000000e+00 
  outer loop 
   vertex  4.370479853238862e+01 1.584176618364482e+03 0.000000000000000e+00 
   vertex  2.000000000000000e+03 2.000000000000000e+03 0.000000000000000e+00 
   vertex  1.729090847147979e+02 1.186526713848401e+03 0.000000000000000e+00 
  endloop 
 endfacet 
 facet normal  -9.510565162951535e-01 -3.090169943749474e-01 0.000000000000000e+00 
  outer loop 
   vertex  1.729090847147979e+02 1.186526713848401e+03 1.200000000000000e+04 
   vertex  4.370479853238862e+01 1.584176618364482e+03 1.200000000000000e+04 
   vertex  1.729090847147979e+02 1.186526713848401e+03 0.000000000000000e+00 
  endloop 
 endfacet 
 facet normal  -0.000000000000000e+00 0.000000000000000e+00 1.000000000000000e+00 
  outer loop 
   vertex  1.729090847147979e+02 1.186526713848401e+03 1.200000000000000e+04 
   vertex  2.000000000000000e+03 2.000000000000000e+03 1.200000000000000e+04 
   vertex  4.370479853238862e+01 1.584176618364482e+03 1.200000000000000e+04 
  endloop 
 endfacet 
 facet normal  -8.660254037844387e-01 -4.999999999999996e-01 -0.000000000000000e+00 
  outer loop 
   vertex  1.729090847147979e+02 1.186526713848401e+03 0.000000000000000e+00 
   vertex  3.819660112501051e+02 8.244294954150539e+02 0.000000000000000e+00 
   vertex  1.729090847147979e+02 1.186526713848401e+03 1.200000000000000e+04 
  endloop 
 endfacet 
 facet normal  0.000000000000000e+00 0.000000000000000e+00 -1.000000000000000e+00 
  outer loop 
   vertex  1.729090847147979e+02 1.186526713848401e+03 0.000000000000000e+00 
   vertex  2.000000000000000e+03 2.000000000000000e+03 0.000000000000000e+00 
   vertex  3.819660112501051e+02 8.244294954150539e+02 0.000000000000000e+00 
  endloop 
 endfacet 
 facet normal  -8.660254037844387e-01 -4.999999999999996e-01 0.000000000000000e+00 
  outer loop 
   vertex  3.819660112501051e+02 8.244294954150539e+02 1.200000000000000e+04 
   vertex  1.729090847147979e+02 1.186526713848401e+03 1.200000000000000e+04 
   vertex  3.819660112501051e+02 8.244294954150539e+02 0.000000000000000e+00 
  endloop 
 endfacet 
 facet normal  -0.000000000000000e+00 0.000000000000000e+00 1.000000000000000e+00 
  outer loop 
   vertex  3.819660112501051e+02 8.244294954150539e+02 1.200000000000000e+04 
   vertex  2.000000000000000e+03 2.000000000000000e+03 1.200000000000000e+04 
   vertex  1.729090847147979e+02 1.186526713848401e+03 1.200000000000000e+04 
  endloop 
 endfacet 
 facet normal  -7.431448254773947e-01 -6.691306063588577e-01 -0.000000000000000e+00 
  outer loop 
   vertex  3.819660112501051e+02 8.244294954150539e+02 0.000000000000000e+00 
   vertex  6.617387872822831e+02 5.137103490452118e+02 0.000000000000000e+00 
   vertex  3.819660112501051e+02 8.244294954150539e+02 1.200000000000000e+04 
  endloop 
 endfacet 
 facet normal  0.000000000000000e+00 0.000000000000000e+00 -1.000000000000000e+00 
  outer loop 
   vertex  3.819660112501051e+02 8.244294954150539e+02 0.000000000000000e+00 
   vertex  2.000000000000000e+03 2.000000000000000e+03 0.000000000000000e+00 
   vertex  6.617387872822831e+02 5.137103490452118e+02 0.000000000000000e+00 
  endloop 
 endfacet 
 facet normal  -7.431448254773947e-01 -6.691306063588577e-01 0.000000000000000e+00 
  outer loop 
   vertex  6.617387872822831e+02 5.137103490452118e+02 1.200000000000000e+04 
   vertex  3.819660112501051e+02 8.244294954150539e+02 1.200000000000000e+04 
   vertex  6.617387872822831e+02 5.137103490452118e+02 0.000000000000000e+00 
  endloop 
 endfacet 
 facet normal  -0.000000000000000e+00 0.000000000000000e+00 1.000000000000000e+00 
  outer loop 
   vertex  6.617387872822831e+02 5.137103490452118e+02 1.200000000000000e+04 
   vertex  2.000000000000000e+03 2.000000000000000e+03 1.200000000000000e+04 
   vertex  3.819660112501051e+02 8.244294954150539e+02 1.200000000000000e+04 
  endloop 
 endfacet 
 facet normal  -5.877852522924736e-01 -8.090169943749471e-01 -0.000000000000000e+00 
  outer loop 
   vertex  6.617387872822831e+02 5.137103490452118e+02 0.000000000000000e+00 
   vertex  9.999999999999991e+02 2.679491924311230e+02 0.000000000000000e+00 
   vertex  6.617387872822831e+02 5.137103490452118e+02 1.200000000000000e+04 
  endloop 
 endfacet 
 facet normal  0.000000000000000e+00 0.000000000000000e+00 -1.000000000000000e+00 
  outer loop 
   vertex  6.617387872822831e+02 5.137103490452118e+02 0.000000000000000e+00 
   vertex  2.000000000000000e+03 2.000000000000000e+03 0.000000000000000e+00 
   vertex  9.999999999999991e+02 2.679491924311230e+02 0.000000000000000e+00 
  endloop 
 endfacet 
 facet normal  -5.877852522924736e-01 -8.090169943749471e-01 0.000000000000000e+00 
  outer loop 
   vertex  9.999999999999991e+02 2.679491924311230e+02 1.200000000000000e+04 
   vertex  6.617387872822831e+02 5.137103490452118e+02 1.200000000000000e+04 
   vertex  9.999999999999991e+02 2.679491924311230e+02 0.000000000000000e+00 
  endloop 
 endfacet 
 facet normal  -0.000000000000000e+00 0.000000000000000e+00 1.000000000000000e+00 
  outer loop 
   vertex  9.999999999999991e+02 2.679491924311230e+02 1.200000000000000e+04 
   vertex  2.000000000000000e+03 2.000000000000000e+03 1.200000000000000e+04 
   vertex  6.617387872822831e+02 5.137103490452118e+02 1.200000000000000e+04 
  endloop 
 endfacet 
 facet normal  -4.067366430758002e-01 -9.135454576426009e-01 -0.000000000000000e+00 
  outer loop 
   vertex  9.999999999999991e+02 2.679491924311230e+02 0.000000000000000e+00 
   vertex  1.381966011250105e+03 9.788696740969294e+01 0.000000000000000e+00 
   vertex  9.999999999999991e+02 2.679491924311230e+02 1.200000000000000e+04 
  endloop 
 endfacet 
 facet normal  0.000000000000000e+00 0.000000000000000e+00 -1.000000000000000e+00 
  outer loop 
   vertex  9.999999999999991e+02 2.679491924311230e+02 0.000000000000000e+00 
   vertex  2.000000000000000e+03 2.000000000000000e+03 0.000000000000000e+00 
   vertex  1.381966011250105e+03 9.788696740969294e+01 0.000000000000000e+00 
  endloop 
 endfacet 
 facet normal  -4.067366430758002e-01 -9.135454576426009e-01 0.000000000000000e+00 
  outer loop 
   vertex  1.381966011250105e+03 9.788696740969294e+01 1.200000000000000e+04 
   vertex  9.999999999999991e+02 2.679491924311230e+02 1.200000000000000e+04 
   vertex  1.381966011250105e+03 9.788696740969294e+01 0.000000000000000e+00 
  endloop 
 endfacet 
 facet normal  -0.000000000000000e+00 0.000000000000000e+00 1.000000000000000e+00 
  outer loop 
   vertex  1.381966011250105e+03 9.788696740969294e+01 1.200000000000000e+04 
   vertex  2.000000000000000e+03 2.000000000000000e+03 1.200000000000000e+04 
   vertex  9.999999999999991e+02 2.679491924311230e+02 1.200000000000000e+04 
  endloop 
 endfacet 
 facet normal  -2.079116908177598e-01 -9.781476007338056e-01 -0.000000000000000e+00 
  outer loop 
   vertex  1.381966011250105e+03 9.788696740969294e+01 0.000000000000000e+00 
   vertex  1.790943073464691e+03 1.095620926345350e+01 0.000000000000000e+00 
   vertex  1.381966011250105e+03 9.788696740969294e+01 1.200000000000000e+04 
  endloop 
 endfacet 
 facet normal  0.000000000000000e+00 0.000000000000000e+00 -1.000000000000000e+00 
  outer loop 
   vertex  1.381966011250105e+03 9.788696740969294e+01 0.000000000000000e+00 
   vertex  2.000000000000000e+03 2.000000000000000e+03 0.000000000000000e+00 
   vertex  1.790943073464691e+03 1.095620926345350e+01 0.000000000000000e+00 
  endloop 
 endfacet 
 facet normal  -2.079116908177598e-01 -9.781476007338056e-01 0.000000000000000e+00 
  outer loop 
   vertex  1.790943073464691e+03 1.095620926345350e+01 1.200000000000000e+04 
   vertex  1.381966011250105e+03 9.788696740969294e+01 1.200000000000000e+04 
   vertex  1.790943073464691e+03 1.095620926345350e+01 0.000000000000000e+00 
  endloop 
 endfacet 
 facet normal  -0.000000000000000e+00 0.000000000000000e+00 1.000000000000000e+00 
  outer loop 
   vertex  1.790943073464691e+03 1.095620926345350e+01 1.200000000000000e+04 
   vertex  2.000000000000000e+03 2.000000000000000e+03 1.200000000000000e+04 
   vertex  1.381966011250105e+03 9.788696740969294e+01 1.200000000000000e+04 
  endloop 
 endfacet 
 facet normal  0.000000000000000e+00 -1.000000000000000e+00 0.000000000000000e+00 
  outer loop 
   vertex  1.790943073464691e+03 1.095620926345350e+01 0.000000000000000e+00 
   vertex  2.209056926535308e+03 1.095620926345350e+01 0.000000000000000e+00 
   vertex  1.790943073464691e+03 1.095620926345350e+01 1.200000000000000e+04 
  endloop 
 endfacet 
 facet normal  0.000000000000000e+00 0.000000000000000e+00 -1.000000000000000e+00 
  outer loop 
   vertex  1.790943073464691e+03 1.095620926345350e+01 0.000000000000000e+00 
   vertex  2.000000000000000e+03 2.000000000000000e+03 0.000000000000000e+00 
   vertex  2.209056926535308e+03 1.095620926345350e+01 0.000000000000000e+00 
  endloop 
 endfacet 
 facet normal  0.000000000000000e+00 -1.000000000000000e+00 0.000000000000000e+00 
  outer loop 
   vertex  2.209056926535308e+03 1.095620926345350e+01 1.200000000000000e+04 
   vertex  1.790943073464691e+03 1.095620926345350e+01 1.200000000000000e+04 
   vertex  2.209056926535308e+03 1.095620926345350e+01 0.000000000000000e+00 
  endloop 
 endfacet 
 facet normal  0.000000000000000e+00 -0.000000000000000e+00 1.000000000000000e+00 
  outer loop 
   vertex  2.209056926535308e+03 1.095620926345350e+01 1.200000000000000e+04 
   vertex  2.000000000000000e+03 2.000000000000000e+03 1.200000000000000e+04 
   vertex  1.790943073464691e+03 1.095620926345350e+01 1.200000000000000e+04 
  endloop 
 endfacet 
 facet normal  2.079116908177593e-01 -9.781476007338056e-01 0.000000000000000e+00 
  outer loop 
   vertex  2.209056926535308e+03 1.095620926345350e+01 0.000000000000000e+00 
   vertex  2.618033988749894e+03 9.788696740969272e+01 0.000000000000000e+00 
   vertex  2.209056926535308e+03 1.095620926345350e+01 1.200000000000000e+04 
  endloop 
 endfacet 
 facet normal  -0.000000000000000e+00 0.000000000000000e+00 -1.000000000000000e+00 
  outer loop 
   vertex  2.209056926535308e+03 1.095620926345350e+01 0.000000000000000e+00 
   vertex  2.000000000000000e+03 2.000000000000000e+03 0.000000000000000e+00 
   vertex  2.618033988749894e+03 9.788696740969272e+01 0.000000000000000e+00 
  endloop 
 endfacet 
 facet normal  2.079116908177593e-01 -9.781476007338056e-01 0.000000000000000e+00 
  outer loop 
   vertex  2.618033988749894e+03 9.788696740969272e+01 1.200000000000000e+04 
   vertex  2.209056926535308e+03 1.095620926345350e+01 1.200000000000000e+04 
   vertex  2.618033988749894e+03 9.788696740969272e+01 0.000000000000000e+00 
  endloop 
 endfacet 
 facet normal  0.000000000000000e+00 -0.000000000000000e+00 1.000000000000000e+00 
  outer loop 
   vertex  2.618033988749894e+03 9.788696740969272e+01 1.200000000000000e+04 
   vertex  2.000000000000000e+03 2.000000000000000e+03 1.200000000000000e+04 
   vertex  2.209056926535308e+03 1.095620926345350e+01 1.200000000000000e+04 
  endloop 
 endfacet 
 facet normal  4.067366430758004e-01 -9.135454576426009e-01 0.000000000000000e+00 
  outer loop 
   vertex  2.618033988749894e+03 9.788696740969272e+01 0.000000000000000e+00 
   vertex  3.000000000000000e+03 2.679491924311228e+02 0.000000000000000e+00 
   vertex  2.618033988749894e+03 9.788696740969272e+01 1.200000000000000e+04 
  endloop 
 endfacet 
 facet normal  -0.000000000000000e+00 0.000000000000000e+00 -1.000000000000000e+00 
  outer loop 
   vertex  2.618033988749894e+03 9.788696740969272e+01 0.000000000000000e+00 
   vertex  2.000000000000000e+03 2.000000000000000e+03 0.000000000000000e+00 
   vertex  3.000000000000000e+03 2.679491924311228e+02 0.000000000000000e+00 
  endloop 
 endfacet 
 facet normal  4.067366430758004e-01 -9.135454576426009e-01 0.000000000000000e+00 
  outer loop 
   vertex  3.000000000000000e+03 2.679491924311228e+02 1.200000000000000e+04 
   vertex  2.618033988749894e+03 9.788696740969272e+01 1.200000000000000e+04 
   vertex  3.000000000000000e+03 2.679491924311228e+02 0.000000000000000e+00 
  endloop 
 endfacet 
 facet normal  0.000000000000000e+00 -0.000000000000000e+00 1.000000000000000e+00 
  outer loop 
   vertex  3.000000000000000e+03 2.679491924311228e+02 1.200000000000000e+04 
   vertex  2.000000000000000e+03 2.000000000000000e+03 1.200000000000000e+04 
   vertex  2.618033988749894e+03 9.788696740969272e+01 1.200000000000000e+04 
  endloop 
 endfacet 
 facet normal  5.877852522924726e-01 -8.090169943749478e-01 0.000000000000000e+00 
  outer loop 
   vertex  3.000000000000000e+03 2.679491924311228e+02 0.000000000000000e+00 
   vertex  3.338261212717717e+03 5.137103490452118e+02 0.000000000000000e+00 
   vertex  3.000000000000000e+03 2.679491924311228e+02 1.200000000000000e+04 
  endloop 
 endfacet 
 facet normal  -0.000000000000000e+00 0.000000000000000e+00 -1.000000000000000e+00 
  outer loop 
   vertex  3.000000000000000e+03 2.679491924311228e+02 0.000000000000000e+00 
   vertex  2.000000000000000e+03 2.000000000000000e+03 0.000000000000000e+00 
   vertex  3.338261212717717e+03 5.137103490452118e+02 0.000000000000000e+00 
  endloop 
 endfacet 
 facet normal  5.877852522924726e-01 -8.090169943749478e-01 0.000000000000000e+00 
  outer loop 
   vertex  3.338261212717717e+03 5.137103490452118e+02 1.200000000000000e+04 
   vertex  3.000000000000000e+03 2.679491924311228e+02 1.200000000000000e+04 
   vertex  3.338261212717717e+03 5.137103490452118e+02 0.000000000000000e+00 
  endloop 
 endfacet 
 facet normal  0.000000000000000e+00 -0.000000000000000e+00 1.000000000000000e+00 
  outer loop 
   vertex  3.338261212717717e+03 5.137103490452118e+02 1.200000000000000e+04 
   vertex  2.000000000000000e+03 2.000000000000000e+03 1.200000000000000e+04 
   vertex  3.000000000000000e+03 2.679491924311228e+02 1.200000000000000e+04 
  endloop 
 endfacet 
 facet normal  7.431448254773942e-01 -6.691306063588583e-01 0.000000000000000e+00 
  outer loop 
   vertex  3.338261212717717e+03 5.137103490452118e+02 0.000000000000000e+00 
   vertex  3.618033988749895e+03 8.244294954150532e+02 0.000000000000000e+00 
   vertex  3.338261212717717e+03 5.137103490452118e+02 1.200000000000000e+04 
  endloop 
 endfacet 
 facet normal  -0.000000000000000e+00 0.000000000000000e+00 -1.000000000000000e+00 
  outer loop 
   vertex  3.338261212717717e+03 5.137103490452118e+02 0.000000000000000e+00 
   vertex  2.000000000000000e+03 2.000000000000000e+03 0.000000000000000e+00 
   vertex  3.618033988749895e+03 8.244294954150532e+02 0.000000000000000e+00 
  endloop 
 endfacet 
 facet normal  7.431448254773942e-01 -6.691306063588583e-01 0.000000000000000e+00 
  outer loop 
   vertex  3.618033988749895e+03 8.244294954150532e+02 1.200000000000000e+04 
   vertex  3.338261212717717e+03 5.137103490452118e+02 1.200000000000000e+04 
   vertex  3.618033988749895e+03 8.244294954150532e+02 0.000000000000000e+00 
  endloop 
 endfacet 
 facet normal  0.000000000000000e+00 -0.000000000000000e+00 1.000000000000000e+00 
  outer loop 
   vertex  3.618033988749895e+03 8.244294954150532e+02 1.200000000000000e+04 
   vertex  2.000000000000000e+03 2.000000000000000e+03 1.200000000000000e+04 
   vertex  3.338261212717717e+03 5.137103490452118e+02 1.200000000000000e+04 
  endloop 
 endfacet 
 facet normal  8.660254037844390e-01 -4.999999999999996e-01 0.000000000000000e+00 
  outer loop 
   vertex  3.618033988749895e+03 8.244294954150532e+02 0.000000000000000e+00 
   vertex  3.827090915285202e+03 1.186526713848400e+03 0.000000000000000e+00 
   vertex  3.618033988749895e+03 8.244294954150532e+02 1.200000000000000e+04 
  endloop 
 endfacet 
 facet normal  -0.000000000000000e+00 0.000000000000000e+00 -1.000000000000000e+00 
  outer loop 
   vertex  3.618033988749895e+03 8.244294954150532e+02 0.000000000000000e+00 
   vertex  2.000000000000000e+03 2.000000000000000e+03 0.000000000000000e+00 
   vertex  3.827090915285202e+03 1.186526713848400e+03 0.000000000000000e+00 
  endloop 
 endfacet 
 facet normal  8.660254037844390e-01 -4.999999999999996e-01 0.000000000000000e+00 
  outer loop 
   vertex  3.827090915285202e+03 1.186526713848400e+03 1.200000000000000e+04 
   vertex  3.618033988749895e+03 8.244294954150532e+02 1.200000000000000e+04 
   vertex  3.827090915285202e+03 1.186526713848400e+03 0.000000000000000e+00 
  endloop 
 endfacet 
 facet normal  0.000000000000000e+00 -0.000000000000000e+00 1.000000000000000e+00 
  outer loop 
   vertex  3.827090915285202e+03 1.186526713848400e+03 1.200000000000000e+04 
   vertex  2.000000000000000e+03 2.000000000000000e+03 1.200000000000000e+04 
   vertex  3.618033988749895e+03 8.244294954150532e+02 1.200000000000000e+04 
  endloop 
 endfacet 
 facet normal  9.510565162951534e-01 -3.090169943749478e-01 0.000000000000000e+00 
  outer loop 
   vertex  3.827090915285202e+03 1.186526713848400e+03 0.000000000000000e+00 
   vertex  3.956295201467611e+03 1.584176618364480e+03 0.000000000000000e+00 
   vertex  3.827090915285202e+03 1.186526713848400e+03 1.200000000000000e+04 
  endloop 
 endfacet 
 facet normal  -0.000000000000000e+00 0.000000000000000e+00 -1.000000000000000e+00 
  outer loop 
   vertex  3.827090915285202e+03 1.186526713848400e+03 0.000000000000000e+00 
   vertex  2.000000000000000e+03 2.000000000000000e+03 0.000000000000000e+00 
   vertex  3.956295201467611e+03 1.584176618364480e+03 0.000000000000000e+00 
  endloop 
 endfacet 
 facet normal  9.510565162951534e-01 -3.090169943749478e-01 0.000000000000000e+00 
  outer loop 
   vertex  3.956295201467611e+03 1.584176618364480e+03 1.200000000000000e+04 
   vertex  3.827090915285202e+03 1.186526713848400e+03 1.200000000000000e+04 
   vertex  3.956295201467611e+03 1.584176618364480e+03 0.000000000000000e+00 
  endloop 
 endfacet 
 facet normal  0.000000000000000e+00 -0.000000000000000e+00 1.000000000000000e+00 
  outer loop 
   vertex  3.956295201467611e+03 1.584176618364480e+03 1.200000000000000e+04 
   vertex  2.000000000000000e+03 2.000000000000000e+03 1.200000000000000e+04 
   vertex  3.827090915285202e+03 1.186526713848400e+03 1.200000000000000e+04 
  endloop 
 endfacet 
 facet normal  9.945218953682732e-01 -1.045284632676535e-01 0.000000000000000e+00 
  outer loop 
   vertex  3.956295201467611e+03 1.584176618364480e+03 0.000000000000000e+00 
   vertex  4.000000000000000e+03 2.000000000000000e+03 0.000000000000000e+00 
   vertex  3.956295201467611e+03 1.584176618364480e+03 1.200000000000000e+04 
  endloop 
 endfacet 
 facet normal  -0.000000000000000e+00 0.000000000000000e+00 -1.000000000000000e+00 
  outer loop 
   vertex  3.956295201467611e+03 1.584176618364480e+03 0.000000000000000e+00 
   vertex  2.000000000000000e+03 2.000000000000000e+03 0.000000000000000e+00 
   vertex  4.000000000000000e+03 2.000000000000000e+03 0.000000000000000e+00 
  endloop 
 endfacet 
 facet normal  9.945218953682732e-01 -1.045284632676535e-01 0.000000000000000e+00 
  outer loop 
   vertex  4.000000000000000e+03 2.000000000000000e+03 1.200000000000000e+04 
   vertex  3.956295201467611e+03 1.584176618364480e+03 1.200000000000000e+04 
   vertex  4.000000000000000e+03 2.000000000000000e+03 0.000000000000000e+00 
  endloop 
 endfacet 
 facet normal  0.000000000000000e+00 -0.000000000000000e+00 1.000000000000000e+00 
  outer loop 
   vertex  4.000000000000000e+03 2.000000000000000e+03 1.200000000000000e+04 
   vertex  2.000000000000000e+03 2.000000000000000e+03 1.200000000000000e+04 
   vertex  3.956295201467611e+03 1.584176618364480e+03 1.200000000000000e+04 
  endloop 
 endfacet 
endsolid