solid cylinder
 facet normal  -0.000000000000000e+00 -0.000000000000000e+00 -1.000000000000000e+00 
  outer loop 
   vertex  2.127000000000000e+03 1.063500000000000e+03 0.000000000000000e+00 
   vertex  1.063500000000000e+03 1.063500000000000e+03 0.000000000000000e+00 
   vertex  2.103759973380402e+03 1.284614083184687e+03 0.000000000000000e+00 
  endloop 
 endfacet 
 facet normal  0.000000000000000e+00 0.000000000000000e+00 1.000000000000000e+00 
  outer loop 
   vertex  2.103759973380402e+03 1.284614083184687e+03 6.381000000000000e+03 
   vertex  1.063500000000000e+03 1.063500000000000e+03 6.381000000000000e+03 
   vertex  2.127000000000000e+03 1.063500000000000e+03 6.381000000000000e+03 
  endloop 
 endfacet 
 facet normal  9.945218953682733e-01 1.045284632676538e-01 0.000000000000000e+00 
  outer loop 
   vertex  2.127000000000000e+03 1.063500000000000e+03 0.000000000000000e+00 
   vertex  2.103759973380402e+03 1.284614083184687e+03 0.000000000000000e+00 
   vertex  2.127000000000000e+03 1.063500000000000e+03 6.381000000000000e+03 
  endloop 
 endfacet 
 facet normal  9.945218953682733e-01 1.045284632676538e-01 -0.000000000000000e+00 
  outer loop 
   vertex  2.103759973380402e+03 1.284614083184687e+03 6.381000000000000e+03 
   vertex  2.127000000000000e+03 1.063500000000000e+03 6.381000000000000e+03 
   vertex  2.103759973380402e+03 1.284614083184687e+03 0.000000000000000e+00 
  endloop 
 endfacet 
 facet normal  0.000000000000000e+00 -0.000000000000000e+00 -1.000000000000000e+00 
  outer loop 
   vertex  2.103759973380402e+03 1.284614083184687e+03 0.000000000000000e+00 
   vertex  1.063500000000000e+03 1.063500000000000e+03 0.000000000000000e+00 
   vertex  2.035055594202906e+03 1.496064419911113e+03 0.000000000000000e+00 
  endloop 
 endfacet 
 facet normal  0.000000000000000e+00 0.000000000000000e+00 1.000000000000000e+00 
  outer loop 
   vertex  2.035055594202906e+03 1.496064419911113e+03 6.381000000000000e+03 
   vertex  1.063500000000000e+03 1.063500000000000e+03 6.381000000000000e+03 
   vertex  2.103759973380402e+03 1.284614083184687e+03 6.381000000000000e+03 
  endloop 
 endfacet 
 facet normal  9.510565162951535e-01 3.090169943749477e-01 0.000000000000000e+00 
  outer loop 
   vertex  2.103759973380402e+03 1.284614083184687e+03 0.000000000000000e+00 
   vertex  2.035055594202906e+03 1.496064419911113e+03 0.000000000000000e+00 
   vertex  2.103759973380402e+03 1.284614083184687e+03 6.381000000000000e+03 
  endloop 
 endfacet 
 facet normal  9.510565162951535e-01 3.090169943749477e-01 -0.000000000000000e+00 
  outer loop 
   vertex  2.035055594202906e+03 1.496064419911113e+03 6.381000000000000e+03 
   vertex  2.103759973380402e+03 1.284614083184687e+03 6.381000000000000e+03 
   vertex  2.035055594202906e+03 1.496064419911113e+03 0.000000000000000e+00 
  endloop 
 endfacet 
 facet normal  0.000000000000000e+00 -0.000000000000000e+00 -1.000000000000000e+00 
  outer loop 
   vertex  2.035055594202906e+03 1.496064419911113e+03 0.000000000000000e+00 
   vertex  1.063500000000000e+03 1.063500000000000e+03 0.000000000000000e+00 
   vertex  1.923889573517757e+03 1.688609615813045e+03 0.000000000000000e+00 
  endloop 
 endfacet 
 facet normal  0.000000000000000e+00 0.000000000000000e+00 1.000000000000000e+00 
  outer loop 
   vertex  1.923889573517757e+03 1.688609615813045e+03 6.381000000000000e+03 
   vertex  1.063500000000000e+03 1.063500000000000e+03 6.381000000000000e+03 
   vertex  2.035055594202906e+03 1.496064419911113e+03 6.381000000000000e+03 
  endloop 
 endfacet 
 facet normal  8.660254037844390e-01 4.999999999999993e-01 0.000000000000000e+00 
  outer loop 
   vertex  2.035055594202906e+03 1.496064419911113e+03 0.000000000000000e+00 
   vertex  1.923889573517757e+03 1.688609615813045e+03 0.000000000000000e+00 
   vertex  2.035055594202906e+03 1.496064419911113e+03 6.381000000000000e+03 
  endloop 
 endfacet 
 facet normal  8.660254037844390e-01 4.999999999999993e-01 -0.000000000000000e+00 
  outer loop 
   vertex  1.923889573517757e+03 1.688609615813045e+03 6.381000000000000e+03 
   vertex  2.035055594202906e+03 1.496064419911113e+03 6.381000000000000e+03 
   vertex  1.923889573517757e+03 1.688609615813045e+03 0.000000000000000e+00 
  endloop 
 endfacet 
 facet normal  0.000000000000000e+00 -0.000000000000000e+00 -1.000000000000000e+00 
  outer loop 
   vertex  1.923889573517757e+03 1.688609615813045e+03 0.000000000000000e+00 
   vertex  1.063500000000000e+03 1.063500000000000e+03 0.000000000000000e+00 
   vertex  1.775120399862646e+03 1.853834521895209e+03 0.000000000000000e+00 
  endloop 
 endfacet 
 facet normal  0.000000000000000e+00 0.000000000000000e+00 1.000000000000000e+00 
  outer loop 
   vertex  1.775120399862646e+03 1.853834521895209e+03 6.381000000000000e+03 
   vertex  1.063500000000000e+03 1.063500000000000e+03 6.381000000000000e+03 
   vertex  1.923889573517757e+03 1.688609615813045e+03 6.381000000000000e+03 
  endloop 
 endfacet 
 facet normal  7.431448254773942e-01 6.691306063588583e-01 0.000000000000000e+00 
  outer loop 
   vertex  1.923889573517757e+03 1.688609615813045e+03 0.000000000000000e+00 
   vertex  1.775120399862646e+03 1.853834521895209e+03 0.000000000000000e+00 
   vertex  1.923889573517757e+03 1.688609615813045e+03 6.381000000000000e+03 
  endloop 
 endfacet 
 facet normal  7.431448254773942e-01 6.691306063588583e-01 -0.000000000000000e+00 
  outer loop 
   vertex  1.775120399862646e+03 1.853834521895209e+03 6.381000000000000e+03 
   vertex  1.923889573517757e+03 1.688609615813045e+03 6.381000000000000e+03 
   vertex  1.775120399862646e+03 1.853834521895209e+03 0.000000000000000e+00 
  endloop 
 endfacet 
 facet normal  0.000000000000000e+00 -0.000000000000000e+00 -1.000000000000000e+00 
  outer loop 
   vertex  1.775120399862646e+03 1.853834521895209e+03 0.000000000000000e+00 
   vertex  1.063500000000000e+03 1.063500000000000e+03 0.000000000000000e+00 
   vertex  1.595250000000000e+03 1.984518016924751e+03 0.000000000000000e+00 
  endloop 
 endfacet 
 facet normal  0.000000000000000e+00 0.000000000000000e+00 1.000000000000000e+00 
  outer loop 
   vertex  1.595250000000000e+03 1.984518016924751e+03 6.381000000000000e+03 
   vertex  1.063500000000000e+03 1.063500000000000e+03 6.381000000000000e+03 
   vertex  1.775120399862646e+03 1.853834521895209e+03 6.381000000000000e+03 
  endloop 
 endfacet 
 facet normal  5.877852522924734e-01 8.090169943749472e-01 0.000000000000000e+00 
  outer loop 
   vertex  1.775120399862646e+03 1.853834521895209e+03 0.000000000000000e+00 
   vertex  1.595250000000000e+03 1.984518016924751e+03 0.000000000000000e+00 
   vertex  1.775120399862646e+03 1.853834521895209e+03 6.381000000000000e+03 
  endloop 
 endfacet 
 facet normal  5.877852522924734e-01 8.090169943749472e-01 -0.000000000000000e+00 
  outer loop 
   vertex  1.595250000000000e+03 1.984518016924751e+03 6.381000000000000e+03 
   vertex  1.775120399862646e+03 1.853834521895209e+03 6.381000000000000e+03 
   vertex  1.595250000000000e+03 1.984518016924751e+03 0.000000000000000e+00 
  endloop 
 endfacet 
 facet normal  0.000000000000000e+00 -0.000000000000000e+00 -1.000000000000000e+00 
  outer loop 
   vertex  1.595250000000000e+03 1.984518016924751e+03 0.000000000000000e+00 
   vertex  1.063500000000000e+03 1.063500000000000e+03 0.000000000000000e+00 
   vertex  1.392139573517757e+03 2.074948605079896e+03 0.000000000000000e+00 
  endloop 
 endfacet 
 facet normal  0.000000000000000e+00 0.000000000000000e+00 1.000000000000000e+00 
  outer loop 
   vertex  1.392139573517757e+03 2.074948605079896e+03 6.381000000000000e+03 
   vertex  1.063500000000000e+03 1.063500000000000e+03 6.381000000000000e+03 
   vertex  1.595250000000000e+03 1.984518016924751e+03 6.381000000000000e+03 
  endloop 
 endfacet 
 facet normal  4.067366430758007e-01 9.135454576426008e-01 0.000000000000000e+00 
  outer loop 
   vertex  1.595250000000000e+03 1.984518016924751e+03 0.000000000000000e+00 
   vertex  1.392139573517757e+03 2.074948605079896e+03 0.000000000000000e+00 
   vertex  1.595250000000000e+03 1.984518016924751e+03 6.381000000000000e+03 
  endloop 
 endfacet 
 facet normal  4.067366430758007e-01 9.135454576426008e-01 -0.000000000000000e+00 
  outer loop 
   vertex  1.392139573517757e+03 2.074948605079896e+03 6.381000000000000e+03 
   vertex  1.595250000000000e+03 1.984518016924751e+03 6.381000000000000e+03 
   vertex  1.392139573517757e+03 2.074948605079896e+03 0.000000000000000e+00 
  endloop 
 endfacet 
 facet normal  0.000000000000000e+00 -0.000000000000000e+00 -1.000000000000000e+00 
  outer loop 
   vertex  1.392139573517757e+03 2.074948605079896e+03 0.000000000000000e+00 
   vertex  1.063500000000000e+03 1.063500000000000e+03 0.000000000000000e+00 
   vertex  1.174666020685150e+03 2.121174035724159e+03 0.000000000000000e+00 
  endloop 
 endfacet 
 facet normal  0.000000000000000e+00 0.000000000000000e+00 1.000000000000000e+00 
  outer loop 
   vertex  1.174666020685150e+03 2.121174035724159e+03 6.381000000000000e+03 
   vertex  1.063500000000000e+03 1.063500000000000e+03 6.381000000000000e+03 
   vertex  1.392139573517757e+03 2.074948605079896e+03 6.381000000000000e+03 
  endloop 
 endfacet 
 facet normal  2.079116908177591e-01 9.781476007338056e-01 0.000000000000000e+00 
  outer loop 
   vertex  1.392139573517757e+03 2.074948605079896e+03 0.000000000000000e+00 
   vertex  1.174666020685150e+03 2.121174035724159e+03 0.000000000000000e+00 
   vertex  1.392139573517757e+03 2.074948605079896e+03 6.381000000000000e+03 
  endloop 
 endfacet 
 facet normal  2.079116908177591e-01 9.781476007338056e-01 -0.000000000000000e+00 
  outer loop 
   vertex  1.174666020685150e+03 2.121174035724159e+03 6.381000000000000e+03 
   vertex  1.392139573517757e+03 2.074948605079896e+03 6.381000000000000e+03 
   vertex  1.174666020685150e+03 2.121174035724159e+03 0.000000000000000e+00 
  endloop 
 endfacet 
 facet normal  0.000000000000000e+00 -0.000000000000000e+00 -1.000000000000000e+00 
  outer loop 
   vertex  1.174666020685150e+03 2.121174035724159e+03 0.000000000000000e+00 
   vertex  1.063500000000000e+03 1.063500000000000e+03 0.000000000000000e+00 
   vertex  9.523339793148507e+02 2.121174035724159e+03 0.000000000000000e+00 
  endloop 
 endfacet 
 facet normal  0.000000000000000e+00 0.000000000000000e+00 1.000000000000000e+00 
  outer loop 
   vertex  9.523339793148507e+02 2.121174035724159e+03 6.381000000000000e+03 
   vertex  1.063500000000000e+03 1.063500000000000e+03 6.381000000000000e+03 
   vertex  1.174666020685150e+03 2.121174035724159e+03 6.381000000000000e+03 
  endloop 
 endfacet 
 facet normal  0.000000000000000e+00 1.000000000000000e+00 0.000000000000000e+00 
  outer loop 
   vertex  1.174666020685150e+03 2.121174035724159e+03 0.000000000000000e+00 
   vertex  9.523339793148507e+02 2.121174035724159e+03 0.000000000000000e+00 
   vertex  1.174666020685150e+03 2.121174035724159e+03 6.381000000000000e+03 
  endloop 
 endfacet 
 facet normal  0.000000000000000e+00 1.000000000000000e+00 0.000000000000000e+00 
  outer loop 
   vertex  9.523339793148507e+02 2.121174035724159e+03 6.381000000000000e+03 
   vertex  1.174666020685150e+03 2.121174035724159e+03 6.381000000000000e+03 
   vertex  9.523339793148507e+02 2.121174035724159e+03 0.000000000000000e+00 
  endloop 
 endfacet 
 facet normal  0.000000000000000e+00 0.000000000000000e+00 -1.000000000000000e+00 
  outer loop 
   vertex  9.523339793148507e+02 2.121174035724159e+03 0.000000000000000e+00 
   vertex  1.063500000000000e+03 1.063500000000000e+03 0.000000000000000e+00 
   vertex  7.348604264822435e+02 2.074948605079896e+03 0.000000000000000e+00 
  endloop 
 endfacet 
 facet normal  0.000000000000000e+00 0.000000000000000e+00 1.000000000000000e+00 
  outer loop 
   vertex  7.348604264822435e+02 2.074948605079896e+03 6.381000000000000e+03 
   vertex  1.063500000000000e+03 1.063500000000000e+03 6.381000000000000e+03 
   vertex  9.523339793148507e+02 2.121174035724159e+03 6.381000000000000e+03 
  endloop 
 endfacet 
 facet normal  -2.079116908177590e-01 9.781476007338057e-01 0.000000000000000e+00 
  outer loop 
   vertex  9.523339793148507e+02 2.121174035724159e+03 0.000000000000000e+00 
   vertex  7.348604264822435e+02 2.074948605079896e+03 0.000000000000000e+00 
   vertex  9.523339793148507e+02 2.121174035724159e+03 6.381000000000000e+03 
  endloop 
 endfacet 
 facet normal  -2.079116908177590e-01 9.781476007338057e-01 0.000000000000000e+00 
  outer loop 
   vertex  7.348604264822435e+02 2.074948605079896e+03 6.381000000000000e+03 
   vertex  9.523339793148507e+02 2.121174035724159e+03 6.381000000000000e+03 
   vertex  7.348604264822435e+02 2.074948605079896e+03 0.000000000000000e+00 
  endloop 
 endfacet 
 facet normal  0.000000000000000e+00 0.000000000000000e+00 -1.000000000000000e+00 
  outer loop 
   vertex  7.348604264822435e+02 2.074948605079896e+03 0.000000000000000e+00 
   vertex  1.063500000000000e+03 1.063500000000000e+03 0.000000000000000e+00 
   vertex  5.317500000000002e+02 1.984518016924751e+03 0.000000000000000e+00 
  endloop 
 endfacet 
 facet normal  0.000000000000000e+00 0.000000000000000e+00 1.000000000000000e+00 
  outer loop 
   vertex  5.317500000000002e+02 1.984518016924751e+03 6.381000000000000e+03 
   vertex  1.063500000000000e+03 1.063500000000000e+03 6.381000000000000e+03 
   vertex  7.348604264822435e+02 2.074948605079896e+03 6.381000000000000e+03 
  endloop 
 endfacet 
 facet normal  -4.067366430758008e-01 9.135454576426006e-01 0.000000000000000e+00 
  outer loop 
   vertex  7.348604264822435e+02 2.074948605079896e+03 0.000000000000000e+00 
   vertex  5.317500000000002e+02 1.984518016924751e+03 0.000000000000000e+00 
   vertex  7.348604264822435e+02 2.074948605079896e+03 6.381000000000000e+03 
  endloop 
 endfacet 
 facet normal  -4.067366430758008e-01 9.135454576426006e-01 0.000000000000000e+00 
  outer loop 
   vertex  5.317500000000002e+02 1.984518016924751e+03 6.381000000000000e+03 
   vertex  7.348604264822435e+02 2.074948605079896e+03 6.381000000000000e+03 
   vertex  5.317500000000002e+02 1.984518016924751e+03 0.000000000000000e+00 
  endloop 
 endfacet 
 facet normal  0.000000000000000e+00 0.000000000000000e+00 -1.000000000000000e+00 
  outer loop 
   vertex  5.317500000000002e+02 1.984518016924751e+03 0.000000000000000e+00 
   vertex  1.063500000000000e+03 1.063500000000000e+03 0.000000000000000e+00 
   vertex  3.518796001373546e+02 1.853834521895209e+03 0.000000000000000e+00 
  endloop 
 endfacet 
 facet normal  0.000000000000000e+00 0.000000000000000e+00 1.000000000000000e+00 
  outer loop 
   vertex  3.518796001373546e+02 1.853834521895209e+03 6.381000000000000e+03 
   vertex  1.063500000000000e+03 1.063500000000000e+03 6.381000000000000e+03 
   vertex  5.317500000000002e+02 1.984518016924751e+03 6.381000000000000e+03 
  endloop 
 endfacet 
 facet normal  -5.877852522924726e-01 8.090169943749478e-01 0.000000000000000e+00 
  outer loop 
   vertex  5.317500000000002e+02 1.984518016924751e+03 0.000000000000000e+00 
   vertex  3.518796001373546e+02 1.853834521895209e+03 0.000000000000000e+00 
   vertex  5.317500000000002e+02 1.984518016924751e+03 6.381000000000000e+03 
  endloop 
 endfacet 
 facet normal  -5.877852522924726e-01 8.090169943749478e-01 0.000000000000000e+00 
  outer loop 
   vertex  3.518796001373546e+02 1.853834521895209e+03 6.381000000000000e+03 
   vertex  5.317500000000002e+02 1.984518016924751e+03 6.381000000000000e+03 
   vertex  3.518796001373546e+02 1.853834521895209e+03 0.000000000000000e+00 
  endloop 
 endfacet 
 facet normal  0.000000000000000e+00 0.000000000000000e+00 -1.000000000000000e+00 
  outer loop 
   vertex  3.518796001373546e+02 1.853834521895209e+03 0.000000000000000e+00 
   vertex  1.063500000000000e+03 1.063500000000000e+03 0.000000000000000e+00 
   vertex  2.031104264822435e+02 1.688609615813045e+03 0.000000000000000e+00 
  endloop 
 endfacet 
 facet normal  0.000000000000000e+00 0.000000000000000e+00 1.000000000000000e+00 
  outer loop 
   vertex  2.031104264822435e+02 1.688609615813045e+03 6.381000000000000e+03 
   vertex  1.063500000000000e+03 1.063500000000000e+03 6.381000000000000e+03 
   vertex  3.518796001373546e+02 1.853834521895209e+03 6.381000000000000e+03 
  endloop 
 endfacet 
 facet normal  -7.431448254773939e-01 6.691306063588586e-01 0.000000000000000e+00 
  outer loop 
   vertex  3.518796001373546e+02 1.853834521895209e+03 0.000000000000000e+00 
   vertex  2.031104264822435e+02 1.688609615813045e+03 0.000000000000000e+00 
   vertex  3.518796001373546e+02 1.853834521895209e+03 6.381000000000000e+03 
  endloop 
 endfacet 
 facet normal  -7.431448254773939e-01 6.691306063588586e-01 0.000000000000000e+00 
  outer loop 
   vertex  2.031104264822435e+02 1.688609615813045e+03 6.381000000000000e+03 
   vertex  3.518796001373546e+02 1.853834521895209e+03 6.381000000000000e+03 
   vertex  2.031104264822435e+02 1.688609615813045e+03 0.000000000000000e+00 
  endloop 
 endfacet 
 facet normal  0.000000000000000e+00 0.000000000000000e+00 -1.000000000000000e+00 
  outer loop 
   vertex  2.031104264822435e+02 1.688609615813045e+03 0.000000000000000e+00 
   vertex  1.063500000000000e+03 1.063500000000000e+03 0.000000000000000e+00 
   vertex  9.194440579709385e+01 1.496064419911113e+03 0.000000000000000e+00 
  endloop 
 endfacet 
 facet normal  0.000000000000000e+00 0.000000000000000e+00 1.000000000000000e+00 
  outer loop 
   vertex  9.194440579709385e+01 1.496064419911113e+03 6.381000000000000e+03 
   vertex  1.063500000000000e+03 1.063500000000000e+03 6.381000000000000e+03 
   vertex  2.031104264822435e+02 1.688609615813045e+03 6.381000000000000e+03 
  endloop 
 endfacet 
 facet normal  -8.660254037844385e-01 5.000000000000000e-01 0.000000000000000e+00 
  outer loop 
   vertex  2.031104264822435e+02 1.688609615813045e+03 0.000000000000000e+00 
   vertex  9.194440579709385e+01 1.496064419911113e+03 0.000000000000000e+00 
   vertex  2.031104264822435e+02 1.688609615813045e+03 6.381000000000000e+03 
  endloop 
 endfacet 
 facet normal  -8.660254037844385e-01 5.000000000000000e-01 0.000000000000000e+00 
  outer loop 
   vertex  9.194440579709385e+01 1.496064419911113e+03 6.381000000000000e+03 
   vertex  2.031104264822435e+02 1.688609615813045e+03 6.381000000000000e+03 
   vertex  9.194440579709385e+01 1.496064419911113e+03 0.000000000000000e+00 
  endloop 
 endfacet 
 facet normal  0.000000000000000e+00 0.000000000000000e+00 -1.000000000000000e+00 
  outer loop 
   vertex  9.194440579709385e+01 1.496064419911113e+03 0.000000000000000e+00 
   vertex  1.063500000000000e+03 1.063500000000000e+03 0.000000000000000e+00 
   vertex  2.324002661959776e+01 1.284614083184687e+03 0.000000000000000e+00 
  endloop 
 endfacet 
 facet normal  0.000000000000000e+00 0.000000000000000e+00 1.000000000000000e+00 
  outer loop 
   vertex  2.324002661959776e+01 1.284614083184687e+03 6.381000000000000e+03 
   vertex  1.063500000000000e+03 1.063500000000000e+03 6.381000000000000e+03 
   vertex  9.194440579709385e+01 1.496064419911113e+03 6.381000000000000e+03 
  endloop 
 endfacet 
 facet normal  -9.510565162951539e-01 3.090169943749468e-01 0.000000000000000e+00 
  outer loop 
   vertex  9.194440579709385e+01 1.496064419911113e+03 0.000000000000000e+00 
   vertex  2.324002661959776e+01 1.284614083184687e+03 0.000000000000000e+00 
   vertex  9.194440579709385e+01 1.496064419911113e+03 6.381000000000000e+03 
  endloop 
 endfacet 
 facet normal  -9.510565162951539e-01 3.090169943749468e-01 0.000000000000000e+00 
  outer loop 
   vertex  2.324002661959776e+01 1.284614083184687e+03 6.381000000000000e+03 
   vertex  9.194440579709385e+01 1.496064419911113e+03 6.381000000000000e+03 
   vertex  2.324002661959776e+01 1.284614083184687e+03 0.000000000000000e+00 
  endloop 
 endfacet 
 facet normal  0.000000000000000e+00 0.000000000000000e+00 -1.000000000000000e+00 
  outer loop 
   vertex  2.324002661959776e+01 1.284614083184687e+03 0.000000000000000e+00 
   vertex  1.063500000000000e+03 1.063500000000000e+03 0.000000000000000e+00 
   vertex  0.000000000000000e+00 1.063500000000000e+03 0.000000000000000e+00 
  endloop 
 endfacet 
 facet normal  0.000000000000000e+00 0.000000000000000e+00 1.000000000000000e+00 
  outer loop 
   vertex  0.000000000000000e+00 1.063500000000000e+03 6.381000000000000e+03 
   vertex  1.063500000000000e+03 1.063500000000000e+03 6.381000000000000e+03 
   vertex  2.324002661959776e+01 1.284614083184687e+03 6.381000000000000e+03 
  endloop 
 endfacet 
 facet normal  -9.945218953682733e-01 1.045284632676539e-01 0.000000000000000e+00 
  outer loop 
   vertex  2.324002661959776e+01 1.284614083184687e+03 0.000000000000000e+00 
   vertex  0.000000000000000e+00 1.063500000000000e+03 0.000000000000000e+00 
   vertex  2.324002661959776e+01 1.284614083184687e+03 6.381000000000000e+03 
  endloop 
 endfacet 
 facet normal  -9.945218953682733e-01 1.045284632676539e-01 0.000000000000000e+00 
  outer loop 
   vertex  0.000000000000000e+00 1.063500000000000e+03 6.381000000000000e+03 
   vertex  2.324002661959776e+01 1.284614083184687e+03 6.381000000000000e+03 
   vertex  0.000000000000000e+00 1.063500000000000e+03 0.000000000000000e+00 
  endloop 
 endfacet 
 facet normal  0.000000000000000e+00 0.000000000000000e+00 -1.000000000000000e+00 
  outer loop 
   vertex  0.000000000000000e+00 1.063500000000000e+03 0.000000000000000e+00 
   vertex  1.063500000000000e+03 1.063500000000000e+03 0.000000000000000e+00 
   vertex  2.324002661959776e+01 8.423859168153133e+02 0.000000000000000e+00 
  endloop 
 endfacet 
 facet normal  -0.000000000000000e+00 0.000000000000000e+00 1.000000000000000e+00 
  outer loop 
   vertex  2.324002661959776e+01 8.423859168153133e+02 6.381000000000000e+03 
   vertex  1.063500000000000e+03 1.063500000000000e+03 6.381000000000000e+03 
   vertex  0.000000000000000e+00 1.063500000000000e+03 6.381000000000000e+03 
  endloop 
 endfacet 
 facet normal  -9.945218953682733e-01 -1.045284632676538e-01 -0.000000000000000e+00 
  outer loop 
   vertex  0.000000000000000e+00 1.063500000000000e+03 0.000000000000000e+00 
   vertex  2.324002661959776e+01 8.423859168153133e+02 0.000000000000000e+00 
   vertex  0.000000000000000e+00 1.063500000000000e+03 6.381000000000000e+03 
  endloop 
 endfacet 
 facet normal  -9.945218953682733e-01 -1.045284632676538e-01 0.000000000000000e+00 
  outer loop 
   vertex  2.324002661959776e+01 8.423859168153133e+02 6.381000000000000e+03 
   vertex  0.000000000000000e+00 1.063500000000000e+03 6.381000000000000e+03 
   vertex  2.324002661959776e+01 8.423859168153133e+02 0.000000000000000e+00 
  endloop 
 endfacet 
 facet normal  0.000000000000000e+00 0.000000000000000e+00 -1.000000000000000e+00 
  outer loop 
   vertex  2.324002661959776e+01 8.423859168153133e+02 0.000000000000000e+00 
   vertex  1.063500000000000e+03 1.063500000000000e+03 0.000000000000000e+00 
   vertex  9.194440579709374e+01 6.309355800888868e+02 0.000000000000000e+00 
  endloop 
 endfacet 
 facet normal  -0.000000000000000e+00 0.000000000000000e+00 1.000000000000000e+00 
  outer loop 
   vertex  9.194440579709374e+01 6.309355800888868e+02 6.381000000000000e+03 
   vertex  1.063500000000000e+03 1.063500000000000e+03 6.381000000000000e+03 
   vertex  2.324002661959776e+01 8.423859168153133e+02 6.381000000000000e+03 
  endloop 
 endfacet 
 facet normal  -9.510565162951539e-01 -3.090169943749463e-01 -0.000000000000000e+00 
  outer loop 
   vertex  2.324002661959776e+01 8.423859168153133e+02 0.000000000000000e+00 
   vertex  9.194440579709374e+01 6.309355800888868e+02 0.000000000000000e+00 
   vertex  2.324002661959776e+01 8.423859168153133e+02 6.381000000000000e+03 
  endloop 
 endfacet 
 facet normal  -9.510565162951539e-01 -3.090169943749463e-01 0.000000000000000e+00 
  outer loop 
   vertex  9.194440579709374e+01 6.309355800888868e+02 6.381000000000000e+03 
   vertex  2.324002661959776e+01 8.423859168153133e+02 6.381000000000000e+03 
   vertex  9.194440579709374e+01 6.309355800888868e+02 0.000000000000000e+00 
  endloop 
 endfacet 
 facet normal  0.000000000000000e+00 0.000000000000000e+00 -1.000000000000000e+00 
  outer loop 
   vertex  9.194440579709374e+01 6.309355800888868e+02 0.000000000000000e+00 
   vertex  1.063500000000000e+03 1.063500000000000e+03 0.000000000000000e+00 
   vertex  2.031104264822434e+02 4.383903841869550e+02 0.000000000000000e+00 
  endloop 
 endfacet 
 facet normal  -0.000000000000000e+00 0.000000000000000e+00 1.000000000000000e+00 
  outer loop 
   vertex  2.031104264822434e+02 4.383903841869550e+02 6.381000000000000e+03 
   vertex  1.063500000000000e+03 1.063500000000000e+03 6.381000000000000e+03 
   vertex  9.194440579709374e+01 6.309355800888868e+02 6.381000000000000e+03 
  endloop 
 endfacet 
 facet normal  -8.660254037844386e-01 -5.000000000000003e-01 -0.000000000000000e+00 
  outer loop 
   vertex  9.194440579709374e+01 6.309355800888868e+02 0.000000000000000e+00 
   vertex  2.031104264822434e+02 4.383903841869550e+02 0.000000000000000e+00 
   vertex  9.194440579709374e+01 6.309355800888868e+02 6.381000000000000e+03 
  endloop 
 endfacet 
 facet normal  -8.660254037844386e-01 -5.000000000000003e-01 0.000000000000000e+00 
  outer loop 
   vertex  2.031104264822434e+02 4.383903841869550e+02 6.381000000000000e+03 
   vertex  9.194440579709374e+01 6.309355800888868e+02 6.381000000000000e+03 
   vertex  2.031104264822434e+02 4.383903841869550e+02 0.000000000000000e+00 
  endloop 
 endfacet 
 facet normal  0.000000000000000e+00 0.000000000000000e+00 -1.000000000000000e+00 
  outer loop 
   vertex  2.031104264822434e+02 4.383903841869550e+02 0.000000000000000e+00 
   vertex  1.063500000000000e+03 1.063500000000000e+03 0.000000000000000e+00 
   vertex  3.518796001373540e+02 2.731654781047914e+02 0.000000000000000e+00 
  endloop 
 endfacet 
 facet normal  -0.000000000000000e+00 0.000000000000000e+00 1.000000000000000e+00 
  outer loop 
   vertex  3.518796001373540e+02 2.731654781047914e+02 6.381000000000000e+03 
   vertex  1.063500000000000e+03 1.063500000000000e+03 6.381000000000000e+03 
   vertex  2.031104264822434e+02 4.383903841869550e+02 6.381000000000000e+03 
  endloop 
 endfacet 
 facet normal  -7.431448254773947e-01 -6.691306063588578e-01 -0.000000000000000e+00 
  outer loop 
   vertex  2.031104264822434e+02 4.383903841869550e+02 0.000000000000000e+00 
   vertex  3.518796001373540e+02 2.731654781047914e+02 0.000000000000000e+00 
   vertex  2.031104264822434e+02 4.383903841869550e+02 6.381000000000000e+03 
  endloop 
 endfacet 
 facet normal  -7.431448254773947e-01 -6.691306063588578e-01 0.000000000000000e+00 
  outer loop 
   vertex  3.518796001373540e+02 2.731654781047914e+02 6.381000000000000e+03 
   vertex  2.031104264822434e+02 4.383903841869550e+02 6.381000000000000e+03 
   vertex  3.518796001373540e+02 2.731654781047914e+02 0.000000000000000e+00 
  endloop 
 endfacet 
 facet normal  0.000000000000000e+00 0.000000000000000e+00 -1.000000000000000e+00 
  outer loop 
   vertex  3.518796001373540e+02 2.731654781047914e+02 0.000000000000000e+00 
   vertex  1.063500000000000e+03 1.063500000000000e+03 0.000000000000000e+00 
   vertex  5.317499999999995e+02 1.424819830752497e+02 0.000000000000000e+00 
  endloop 
 endfacet 
 facet normal  -0.000000000000000e+00 0.000000000000000e+00 1.000000000000000e+00 
  outer loop 
   vertex  5.317499999999995e+02 1.424819830752497e+02 6.381000000000000e+03 
   vertex  1.063500000000000e+03 1.063500000000000e+03 6.381000000000000e+03 
   vertex  3.518796001373540e+02 2.731654781047914e+02 6.381000000000000e+03 
  endloop 
 endfacet 
 facet normal  -5.877852522924736e-01 -8.090169943749471e-01 -0.000000000000000e+00 
  outer loop 
   vertex  3.518796001373540e+02 2.731654781047914e+02 0.000000000000000e+00 
   vertex  5.317499999999995e+02 1.424819830752497e+02 0.000000000000000e+00 
   vertex  3.518796001373540e+02 2.731654781047914e+02 6.381000000000000e+03 
  endloop 
 endfacet 
 facet normal  -5.877852522924736e-01 -8.090169943749471e-01 0.000000000000000e+00 
  outer loop 
   vertex  5.317499999999995e+02 1.424819830752497e+02 6.381000000000000e+03 
   vertex  3.518796001373540e+02 2.731654781047914e+02 6.381000000000000e+03 
   vertex  5.317499999999995e+02 1.424819830752497e+02 0.000000000000000e+00 
  endloop 
 endfacet 
 facet normal  0.000000000000000e+00 0.000000000000000e+00 -1.000000000000000e+00 
  outer loop 
   vertex  5.317499999999995e+02 1.424819830752497e+02 0.000000000000000e+00 
   vertex  1.063500000000000e+03 1.063500000000000e+03 0.000000000000000e+00 
   vertex  7.348604264822433e+02 5.205139492010426e+01 0.000000000000000e+00 
  endloop 
 endfacet 
 facet normal  -0.000000000000000e+00 0.000000000000000e+00 1.000000000000000e+00 
  outer loop 
   vertex  7.348604264822433e+02 5.205139492010426e+01 6.381000000000000e+03 
   vertex  1.063500000000000e+03 1.063500000000000e+03 6.381000000000000e+03 
   vertex  5.317499999999995e+02 1.424819830752497e+02 6.381000000000000e+03 
  endloop 
 endfacet 
 facet normal  -4.067366430758001e-01 -9.135454576426011e-01 -0.000000000000000e+00 
  outer loop 
   vertex  5.317499999999995e+02 1.424819830752497e+02 0.000000000000000e+00 
   vertex  7.348604264822433e+02 5.205139492010426e+01 0.000000000000000e+00 
   vertex  5.317499999999995e+02 1.424819830752497e+02 6.381000000000000e+03 
  endloop 
 endfacet 
 facet normal  -4.067366430758001e-01 -9.135454576426011e-01 0.000000000000000e+00 
  outer loop 
   vertex  7.348604264822433e+02 5.205139492010426e+01 6.381000000000000e+03 
   vertex  5.317499999999995e+02 1.424819830752497e+02 6.381000000000000e+03 
   vertex  7.348604264822433e+02 5.205139492010426e+01 0.000000000000000e+00 
  endloop 
 endfacet 
 facet normal  0.000000000000000e+00 0.000000000000000e+00 -1.000000000000000e+00 
  outer loop 
   vertex  7.348604264822433e+02 5.205139492010426e+01 0.000000000000000e+00 
   vertex  1.063500000000000e+03 1.063500000000000e+03 0.000000000000000e+00 
   vertex  9.523339793148498e+02 5.825964275841443e+00 0.000000000000000e+00 
  endloop 
 endfacet 
 facet normal  -0.000000000000000e+00 0.000000000000000e+00 1.000000000000000e+00 
  outer loop 
   vertex  9.523339793148498e+02 5.825964275841443e+00 6.381000000000000e+03 
   vertex  1.063500000000000e+03 1.063500000000000e+03 6.381000000000000e+03 
   vertex  7.348604264822433e+02 5.205139492010426e+01 6.381000000000000e+03 
  endloop 
 endfacet 
 facet normal  -2.079116908177596e-01 -9.781476007338056e-01 -0.000000000000000e+00 
  outer loop 
   vertex  7.348604264822433e+02 5.205139492010426e+01 0.000000000000000e+00 
   vertex  9.523339793148498e+02 5.825964275841443e+00 0.000000000000000e+00 
   vertex  7.348604264822433e+02 5.205139492010426e+01 6.381000000000000e+03 
  endloop 
 endfacet 
 facet normal  -2.079116908177596e-01 -9.781476007338056e-01 0.000000000000000e+00 
  outer loop 
   vertex  9.523339793148498e+02 5.825964275841443e+00 6.381000000000000e+03 
   vertex  7.348604264822433e+02 5.205139492010426e+01 6.381000000000000e+03 
   vertex  9.523339793148498e+02 5.825964275841443e+00 0.000000000000000e+00 
  endloop 
 endfacet 
 facet normal  0.000000000000000e+00 0.000000000000000e+00 -1.000000000000000e+00 
  outer loop 
   vertex  9.523339793148498e+02 5.825964275841443e+00 0.000000000000000e+00 
   vertex  1.063500000000000e+03 1.063500000000000e+03 0.000000000000000e+00 
   vertex  1.174666020685150e+03 5.825964275841443e+00 0.000000000000000e+00 
  endloop 
 endfacet 
 facet normal  0.000000000000000e+00 -0.000000000000000e+00 1.000000000000000e+00 
  outer loop 
   vertex  1.174666020685150e+03 5.825964275841443e+00 6.381000000000000e+03 
   vertex  1.063500000000000e+03 1.063500000000000e+03 6.381000000000000e+03 
   vertex  9.523339793148498e+02 5.825964275841443e+00 6.381000000000000e+03 
  endloop 
 endfacet 
 facet normal  0.000000000000000e+00 -1.000000000000000e+00 0.000000000000000e+00 
  outer loop 
   vertex  9.523339793148498e+02 5.825964275841443e+00 0.000000000000000e+00 
   vertex  1.174666020685150e+03 5.825964275841443e+00 0.000000000000000e+00 
   vertex  9.523339793148498e+02 5.825964275841443e+00 6.381000000000000e+03 
  endloop 
 endfacet 
 facet normal  0.000000000000000e+00 -1.000000000000000e+00 0.000000000000000e+00 
  outer loop 
   vertex  1.174666020685150e+03 5.825964275841443e+00 6.381000000000000e+03 
   vertex  9.523339793148498e+02 5.825964275841443e+00 6.381000000000000e+03 
   vertex  1.174666020685150e+03 5.825964275841443e+00 0.000000000000000e+00 
  endloop 
 endfacet 
 facet normal  -0.000000000000000e+00 0.000000000000000e+00 -1.000000000000000e+00 
  outer loop 
   vertex  1.174666020685150e+03 5.825964275841443e+00 0.000000000000000e+00 
   vertex  1.063500000000000e+03 1.063500000000000e+03 0.000000000000000e+00 
   vertex  1.392139573517756e+03 5.205139492010414e+01 0.000000000000000e+00 
  endloop 
 endfacet 
 facet normal  0.000000000000000e+00 -0.000000000000000e+00 1.000000000000000e+00 
  outer loop 
   vertex  1.392139573517756e+03 5.205139492010414e+01 6.381000000000000e+03 
   vertex  1.063500000000000e+03 1.063500000000000e+03 6.381000000000000e+03 
   vertex  1.174666020685150e+03 5.825964275841443e+00 6.381000000000000e+03 
  endloop 
 endfacet 
 facet normal  2.079116908177593e-01 -9.781476007338057e-01 0.000000000000000e+00 
  outer loop 
   vertex  1.174666020685150e+03 5.825964275841443e+00 0.000000000000000e+00 
   vertex  1.392139573517756e+03 5.205139492010414e+01 0.000000000000000e+00 
   vertex  1.174666020685150e+03 5.825964275841443e+00 6.381000000000000e+03 
  endloop 
 endfacet 
 facet normal  2.079116908177593e-01 -9.781476007338057e-01 0.000000000000000e+00 
  outer loop 
   vertex  1.392139573517756e+03 5.205139492010414e+01 6.381000000000000e+03 
   vertex  1.174666020685150e+03 5.825964275841443e+00 6.381000000000000e+03 
   vertex  1.392139573517756e+03 5.205139492010414e+01 0.000000000000000e+00 
  endloop 
 endfacet 
 facet normal  -0.000000000000000e+00 0.000000000000000e+00 -1.000000000000000e+00 
  outer loop 
   vertex  1.392139573517756e+03 5.205139492010414e+01 0.000000000000000e+00 
   vertex  1.063500000000000e+03 1.063500000000000e+03 0.000000000000000e+00 
   vertex  1.595250000000000e+03 1.424819830752496e+02 0.000000000000000e+00 
  endloop 
 endfacet 
 facet normal  0.000000000000000e+00 -0.000000000000000e+00 1.000000000000000e+00 
  outer loop 
   vertex  1.595250000000000e+03 1.424819830752496e+02 6.381000000000000e+03 
   vertex  1.063500000000000e+03 1.063500000000000e+03 6.381000000000000e+03 
   vertex  1.392139573517756e+03 5.205139492010414e+01 6.381000000000000e+03 
  endloop 
 endfacet 
 facet normal  4.067366430758003e-01 -9.135454576426010e-01 0.000000000000000e+00 
  outer loop 
   vertex  1.392139573517756e+03 5.205139492010414e+01 0.000000000000000e+00 
   vertex  1.595250000000000e+03 1.424819830752496e+02 0.000000000000000e+00 
   vertex  1.392139573517756e+03 5.205139492010414e+01 6.381000000000000e+03 
  endloop 
 endfacet 
 facet normal  4.067366430758003e-01 -9.135454576426010e-01 0.000000000000000e+00 
  outer loop 
   vertex  1.595250000000000e+03 1.424819830752496e+02 6.381000000000000e+03 
   vertex  1.392139573517756e+03 5.205139492010414e+01 6.381000000000000e+03 
   vertex  1.595250000000000e+03 1.424819830752496e+02 0.000000000000000e+00 
  endloop 
 endfacet 
 facet normal  -0.000000000000000e+00 0.000000000000000e+00 -1.000000000000000e+00 
  outer loop 
   vertex  1.595250000000000e+03 1.424819830752496e+02 0.000000000000000e+00 
   vertex  1.063500000000000e+03 1.063500000000000e+03 0.000000000000000e+00 
   vertex  1.775120399862646e+03 2.731654781047914e+02 0.000000000000000e+00 
  endloop 
 endfacet 
 facet normal  0.000000000000000e+00 -0.000000000000000e+00 1.000000000000000e+00 
  outer loop 
   vertex  1.775120399862646e+03 2.731654781047914e+02 6.381000000000000e+03 
   vertex  1.063500000000000e+03 1.063500000000000e+03 6.381000000000000e+03 
   vertex  1.595250000000000e+03 1.424819830752496e+02 6.381000000000000e+03 
  endloop 
 endfacet 
 facet normal  5.877852522924728e-01 -8.090169943749477e-01 0.000000000000000e+00 
  outer loop 
   vertex  1.595250000000000e+03 1.424819830752496e+02 0.000000000000000e+00 
   vertex  1.775120399862646e+03 2.731654781047914e+02 0.000000000000000e+00 
   vertex  1.595250000000000e+03 1.424819830752496e+02 6.381000000000000e+03 
  endloop 
 endfacet 
 facet normal  5.877852522924728e-01 -8.090169943749477e-01 0.000000000000000e+00 
  outer loop 
   vertex  1.775120399862646e+03 2.731654781047914e+02 6.381000000000000e+03 
   vertex  1.595250000000000e+03 1.424819830752496e+02 6.381000000000000e+03 
   vertex  1.775120399862646e+03 2.731654781047914e+02 0.000000000000000e+00 
  endloop 
 endfacet 
 facet normal  -0.000000000000000e+00 0.000000000000000e+00 -1.000000000000000e+00 
  outer loop 
   vertex  1.775120399862646e+03 2.731654781047914e+02 0.000000000000000e+00 
   vertex  1.063500000000000e+03 1.063500000000000e+03 0.000000000000000e+00 
   vertex  1.923889573517757e+03 4.383903841869546e+02 0.000000000000000e+00 
  endloop 
 endfacet 
 facet normal  0.000000000000000e+00 -0.000000000000000e+00 1.000000000000000e+00 
  outer loop 
   vertex  1.923889573517757e+03 4.383903841869546e+02 6.381000000000000e+03 
   vertex  1.063500000000000e+03 1.063500000000000e+03 6.381000000000000e+03 
   vertex  1.775120399862646e+03 2.731654781047914e+02 6.381000000000000e+03 
  endloop 
 endfacet 
 facet normal  7.431448254773942e-01 -6.691306063588582e-01 0.000000000000000e+00 
  outer loop 
   vertex  1.775120399862646e+03 2.731654781047914e+02 0.000000000000000e+00 
   vertex  1.923889573517757e+03 4.383903841869546e+02 0.000000000000000e+00 
   vertex  1.775120399862646e+03 2.731654781047914e+02 6.381000000000000e+03 
  endloop 
 endfacet 
 facet normal  7.431448254773942e-01 -6.691306063588582e-01 0.000000000000000e+00 
  outer loop 
   vertex  1.923889573517757e+03 4.383903841869546e+02 6.381000000000000e+03 
   vertex  1.775120399862646e+03 2.731654781047914e+02 6.381000000000000e+03 
   vertex  1.923889573517757e+03 4.383903841869546e+02 0.000000000000000e+00 
  endloop 
 endfacet 
 facet normal  -0.000000000000000e+00 0.000000000000000e+00 -1.000000000000000e+00 
  outer loop 
   vertex  1.923889573517757e+03 4.383903841869546e+02 0.000000000000000e+00 
   vertex  1.063500000000000e+03 1.063500000000000e+03 0.000000000000000e+00 
   vertex  2.035055594202906e+03 6.309355800888866e+02 0.000000000000000e+00 
  endloop 
 endfacet 
 facet normal  0.000000000000000e+00 -0.000000000000000e+00 1.000000000000000e+00 
  outer loop 
   vertex  2.035055594202906e+03 6.309355800888866e+02 6.381000000000000e+03 
   vertex  1.063500000000000e+03 1.063500000000000e+03 6.381000000000000e+03 
   vertex  1.923889573517757e+03 4.383903841869546e+02 6.381000000000000e+03 
  endloop 
 endfacet 
 facet normal  8.660254037844389e-01 -4.999999999999998e-01 0.000000000000000e+00 
  outer loop 
   vertex  1.923889573517757e+03 4.383903841869546e+02 0.000000000000000e+00 
   vertex  2.035055594202906e+03 6.309355800888866e+02 0.000000000000000e+00 
   vertex  1.923889573517757e+03 4.383903841869546e+02 6.381000000000000e+03 
  endloop 
 endfacet 
 facet normal  8.660254037844389e-01 -4.999999999999998e-01 0.000000000000000e+00 
  outer loop 
   vertex  2.035055594202906e+03 6.309355800888866e+02 6.381000000000000e+03 
   vertex  1.923889573517757e+03 4.383903841869546e+02 6.381000000000000e+03 
   vertex  2.035055594202906e+03 6.309355800888866e+02 0.000000000000000e+00 
  endloop 
 endfacet 
 facet normal  -0.000000000000000e+00 0.000000000000000e+00 -1.000000000000000e+00 
  outer loop 
   vertex  2.035055594202906e+03 6.309355800888866e+02 0.000000000000000e+00 
   vertex  1.063500000000000e+03 1.063500000000000e+03 0.000000000000000e+00 
   vertex  2.103759973380402e+03 8.423859168153124e+02 0.000000000000000e+00 
  endloop 
 endfacet 
 facet normal  0.000000000000000e+00 -0.000000000000000e+00 1.000000000000000e+00 
  outer loop 
   vertex  2.103759973380402e+03 8.423859168153124e+02 6.381000000000000e+03 
   vertex  1.063500000000000e+03 1.063500000000000e+03 6.381000000000000e+03 
   vertex  2.035055594202906e+03 6.309355800888866e+02 6.381000000000000e+03 
  endloop 
 endfacet 
 facet normal  9.510565162951535e-01 -3.090169943749477e-01 0.000000000000000e+00 
  outer loop 
   vertex  2.035055594202906e+03 6.309355800888866e+02 0.000000000000000e+00 
   vertex  2.103759973380402e+03 8.423859168153124e+02 0.000000000000000e+00 
   vertex  2.035055594202906e+03 6.309355800888866e+02 6.381000000000000e+03 
  endloop 
 endfacet 
 facet normal  9.510565162951535e-01 -3.090169943749477e-01 0.000000000000000e+00 
  outer loop 
   vertex  2.103759973380402e+03 8.423859168153124e+02 6.381000000000000e+03 
   vertex  2.035055594202906e+03 6.309355800888866e+02 6.381000000000000e+03 
   vertex  2.103759973380402e+03 8.423859168153124e+02 0.000000000000000e+00 
  endloop 
 endfacet 
 facet normal  -0.000000000000000e+00 0.000000000000000e+00 -1.000000000000000e+00 
  outer loop 
   vertex  2.103759973380402e+03 8.423859168153124e+02 0.000000000000000e+00 
   vertex  1.063500000000000e+03 1.063500000000000e+03 0.000000000000000e+00 
   vertex  2.127000000000000e+03 1.063500000000000e+03 0.000000000000000e+00 
  endloop 
 endfacet 
 facet normal  0.000000000000000e+00 -0.000000000000000e+00 1.000000000000000e+00 
  outer loop 
   vertex  2.127000000000000e+03 1.063500000000000e+03 6.381000000000000e+03 
   vertex  1.063500000000000e+03 1.063500000000000e+03 6.381000000000000e+03 
   vertex  2.103759973380402e+03 8.423859168153124e+02 6.381000000000000e+03 
  endloop 
 endfacet 
 facet normal  9.945218953682733e-01 -1.045284632676534e-01 0.000000000000000e+00 
  outer loop 
   vertex  2.103759973380402e+03 8.423859168153124e+02 0.000000000000000e+00 
   vertex  2.127000000000000e+03 1.063500000000000e+03 0.000000000000000e+00 
   vertex  2.103759973380402e+03 8.423859168153124e+02 6.381000000000000e+03 
  endloop 
 endfacet 
 facet normal  9.945218953682733e-01 -1.045284632676534e-01 0.000000000000000e+00 
  outer loop 
   vertex  2.127000000000000e+03 1.063500000000000e+03 6.381000000000000e+03 
   vertex  2.103759973380402e+03 8.423859168153124e+02 6.381000000000000e+03 
   vertex  2.127000000000000e+03 1.063500000000000e+03 0.000000000000000e+00 
  endloop 
 endfacet 
endsolid