solid cube
 facet normal  0.000000000000000e+00 -0.000000000000000e+00 -1.000000000000000e+00 
  outer loop 
   vertex  0.000000000000000e+00 0.000000000000000e+00 -5.000000000000000e+02 
   vertex  -5.000000000000000e+02 -5.000000000000000e+02 -5.000000000000000e+02 
   vertex  -5.000000000000000e+02 5.000000000000000e+02 -5.000000000000000e+02 
  endloop 
 endfacet 
 facet normal  0.000000000000000e+00 0.000000000000000e+00 -1.000000000000000e+00 
  outer loop 
   vertex  0.000000000000000e+00 0.000000000000000e+00 -5.000000000000000e+02 
   vertex  5.000000000000000e+02 -5.000000000000000e+02 -5.000000000000000e+02 
   vertex  -5.000000000000000e+02 -5.000000000000000e+02 -5.000000000000000e+02 
  endloop 
 endfacet 
 facet normal  0.000000000000000e+00 0.000000000000000e+00 -1.000000000000000e+00 
  outer loop 
   vertex  0.000000000000000e+00 0.000000000000000e+00 -5.000000000000000e+02 
   vertex  5.000000000000000e+02 5.000000000000000e+02 -5.000000000000000e+02 
   vertex  5.000000000000000e+02 -5.000000000000000e+02 -5.000000000000000e+02 
  endloop 
 endfacet 
 facet normal  -0.000000000000000e+00 0.000000000000000e+00 -1.000000000000000e+00 
  outer loop 
   vertex  0.000000000000000e+00 0.000000000000000e+00 -5.000000000000000e+02 
   vertex  -5.000000000000000e+02 5.000000000000000e+02 -5.000000000000000e+02 
   vertex  5.000000000000000e+02 5.000000000000000e+02 -5.000000000000000e+02 
  endloop 
 endfacet 
 facet normal  0.000000000000000e+00 0.000000000000000e+00 1.000000000000000e+00 
  outer loop 
   vertex  0.000000000000000e+00 0.000000000000000e+00 5.000000000000000e+02 
   vertex  -5.000000000000000e+02 -5.000000000000000e+02 5.000000000000000e+02 
   vertex  5.000000000000000e+02 -5.000000000000000e+02 5.000000000000000e+02 
  endloop 
 endfacet 
 facet normal  0.000000000000000e+00 0.000000000000000e+00 1.000000000000000e+00 
  outer loop 
   vertex  0.000000000000000e+00 0.000000000000000e+00 5.000000000000000e+02 
   vertex  5.000000000000000e+02 -5.000000000000000e+02 5.000000000000000e+02 
   vertex  5.000000000000000e+02 5.000000000000000e+02 5.000000000000000e+02 
  endloop 
 endfacet 
 facet normal  -0.000000000000000e+00 0.000000000000000e+00 1.000000000000000e+00 
  outer loop 
   vertex  0.000000000000000e+00 0.000000000000000e+00 5.000000000000000e+02 
   vertex  5.000000000000000e+02 5.000000000000000e+02 5.000000000000000e+02 
   vertex  -5.000000000000000e+02 5.000000000000000e+02 5.000000000000000e+02 
  endloop 
 endfacet 
 facet normal  0.000000000000000e+00 -0.000000000000000e+00 1.000000000000000e+00 
  outer loop 
   vertex  0.000000000000000e+00 0.000000000000000e+00 5.000000000000000e+02 
   vertex  -5.000000000000000e+02 5.000000000000000e+02 5.000000000000000e+02 
   vertex  -5.000000000000000e+02 -5.000000000000000e+02 5.000000000000000e+02 
  endloop 
 endfacet 
 facet normal  0.000000000000000e+00 -1.000000000000000e+00 0.000000000000000e+00 
  outer loop 
   vertex  0.000000000000000e+00 -5.000000000000000e+02 0.000000000000000e+00 
   vertex  -5.000000000000000e+02 -5.000000000000000e+02 5.000000000000000e+02 
   vertex  -5.000000000000000e+02 -5.000000000000000e+02 -5.000000000000000e+02 
  endloop 
 endfacet 
 facet normal  -0.000000000000000e+00 -1.000000000000000e+00 0.000000000000000e+00 
  outer loop 
   vertex  0.000000000000000e+00 -5.000000000000000e+02 0.000000000000000e+00 
   vertex  -5.000000000000000e+02 -5.000000000000000e+02 -5.000000000000000e+02 
   vertex  5.000000000000000e+02 -5.000000000000000e+02 -5.000000000000000e+02 
  endloop 
 endfacet 
 facet normal  0.000000000000000e+00 -1.000000000000000e+00 -0.000000000000000e+00 
  outer loop 
   vertex  0.000000000000000e+00 -5.000000000000000e+02 0.000000000000000e+00 
   vertex  5.000000000000000e+02 -5.000000000000000e+02 -5.000000000000000e+02 
   vertex  5.000000000000000e+02 -5.000000000000000e+02 5.000000000000000e+02 
  endloop 
 endfacet 
 facet normal  0.000000000000000e+00 -1.000000000000000e+00 0.000000000000000e+00 
  outer loop 
   vertex  0.000000000000000e+00 -5.000000000000000e+02 0.000000000000000e+00 
   vertex  5.000000000000000e+02 -5.000000000000000e+02 5.000000000000000e+02 
   vertex  -5.000000000000000e+02 -5.000000000000000e+02 5.000000000000000e+02 
  endloop 
 endfacet 
 facet normal  -0.000000000000000e+00 1.000000000000000e+00 0.000000000000000e+00 
  outer loop 
   vertex  0.000000000000000e+00 5.000000000000000e+02 0.000000000000000e+00 
   vertex  5.000000000000000e+02 5.000000000000000e+02 -5.000000000000000e+02 
   vertex  -5.000000000000000e+02 5.000000000000000e+02 -5.000000000000000e+02 
  endloop 
 endfacet 
 facet normal  0.000000000000000e+00 1.000000000000000e+00 0.000000000000000e+00 
  outer loop 
   vertex  0.000000000000000e+00 5.000000000000000e+02 0.000000000000000e+00 
   vertex  -5.000000000000000e+02 5.000000000000000e+02 -5.000000000000000e+02 
   vertex  -5.000000000000000e+02 5.000000000000000e+02 5.000000000000000e+02 
  endloop 
 endfacet 
 facet normal  0.000000000000000e+00 1.000000000000000e+00 0.000000000000000e+00 
  outer loop 
   vertex  0.000000000000000e+00 5.000000000000000e+02 0.000000000000000e+00 
   vertex  -5.000000000000000e+02 5.000000000000000e+02 5.000000000000000e+02 
   vertex  5.000000000000000e+02 5.000000000000000e+02 5.000000000000000e+02 
  endloop 
 endfacet 
 facet normal  0.000000000000000e+00 1.000000000000000e+00 -0.000000000000000e+00 
  outer loop 
   vertex  0.000000000000000e+00 5.000000000000000e+02 0.000000000000000e+00 
   vertex  5.000000000000000e+02 5.000000000000000e+02 5.000000000000000e+02 
   vertex  5.000000000000000e+02 5.000000000000000e+02 -5.000000000000000e+02 
  endloop 
 endfacet 
 facet normal  -1.000000000000000e+00 0.000000000000000e+00 -0.000000000000000e+00 
  outer loop 
   vertex  -5.000000000000000e+02 0.000000000000000e+00 0.000000000000000e+00 
   vertex  -5.000000000000000e+02 -5.000000000000000e+02 -5.000000000000000e+02 
   vertex  -5.000000000000000e+02 -5.000000000000000e+02 5.000000000000000e+02 
  endloop 
 endfacet 
 facet normal  -1.000000000000000e+00 -0.000000000000000e+00 0.000000000000000e+00 
  outer loop 
   vertex  -5.000000000000000e+02 0.000000000000000e+00 0.000000000000000e+00 
   vertex  -5.000000000000000e+02 -5.000000000000000e+02 5.000000000000000e+02 
   vertex  -5.000000000000000e+02 5.000000000000000e+02 5.000000000000000e+02 
  endloop 
 endfacet 
 facet normal  -1.000000000000000e+00 0.000000000000000e+00 0.000000000000000e+00 
  outer loop 
   vertex  -5.000000000000000e+02 0.000000000000000e+00 0.000000000000000e+00 
   vertex  -5.000000000000000e+02 5.000000000000000e+02 5.000000000000000e+02 
   vertex  -5.000000000000000e+02 5.000000000000000e+02 -5.000000000000000e+02 
  endloop 
 endfacet 
 facet normal  -1.000000000000000e+00 0.000000000000000e+00 0.000000000000000e+00 
  outer loop 
   vertex  -5.000000000000000e+02 0.000000000000000e+00 0.000000000000000e+00 
   vertex  -5.000000000000000e+02 5.000000000000000e+02 -5.000000000000000e+02 
   vertex  -5.000000000000000e+02 -5.000000000000000e+02 -5.000000000000000e+02 
  endloop 
 endfacet 
 facet normal  1.000000000000000e+00 0.000000000000000e+00 0.000000000000000e+00 
  outer loop 
   vertex  5.000000000000000e+02 0.000000000000000e+00 0.000000000000000e+00 
   vertex  5.000000000000000e+02 -5.000000000000000e+02 -5.000000000000000e+02 
   vertex  5.000000000000000e+02 5.000000000000000e+02 -5.000000000000000e+02 
  endloop 
 endfacet 
 facet normal  1.000000000000000e+00 0.000000000000000e+00 0.000000000000000e+00 
  outer loop 
   vertex  5.000000000000000e+02 0.000000000000000e+00 0.000000000000000e+00 
   vertex  5.000000000000000e+02 5.000000000000000e+02 -5.000000000000000e+02 
   vertex  5.000000000000000e+02 5.000000000000000e+02 5.000000000000000e+02 
  endloop 
 endfacet 
 facet normal  1.000000000000000e+00 -0.000000000000000e+00 0.000000000000000e+00 
  outer loop 
   vertex  5.000000000000000e+02 0.000000000000000e+00 0.000000000000000e+00 
   vertex  5.000000000000000e+02 5.000000000000000e+02 5.000000000000000e+02 
   vertex  5.000000000000000e+02 -5.000000000000000e+02 5.000000000000000e+02 
  endloop 
 endfacet 
 facet normal  1.000000000000000e+00 0.000000000000000e+00 -0.000000000000000e+00 
  outer loop 
   vertex  5.000000000000000e+02 0.000000000000000e+00 0.000000000000000e+00 
   vertex  5.000000000000000e+02 -5.000000000000000e+02 5.000000000000000e+02 
   vertex  5.000000000000000e+02 -5.000000000000000e+02 -5.000000000000000e+02 
  endloop 
 endfacet 
endsolid