solid cylinder
 facet normal  -0.000000000000000e+00 -0.000000000000000e+00 -1.000000000000000e+00 
  outer loop 
   vertex  1.587301587301587e+03 0.000000000000000e+00 0.000000000000000e+00 
   vertex  0.000000000000000e+00 0.000000000000000e+00 0.000000000000000e+00 
   vertex  1.552615239260009e+03 3.300185568535862e+02 0.000000000000000e+00 
  endloop 
 endfacet 
 facet normal  0.000000000000000e+00 0.000000000000000e+00 1.000000000000000e+00 
  outer loop 
   vertex  1.552615239260009e+03 3.300185568535862e+02 6.349206349206349e+03 
   vertex  0.000000000000000e+00 0.000000000000000e+00 6.349206349206349e+03 
   vertex  1.587301587301587e+03 0.000000000000000e+00 6.349206349206349e+03 
  endloop 
 endfacet 
 facet normal  9.945218953682734e-01 1.045284632676530e-01 0.000000000000000e+00 
  outer loop 
   vertex  1.587301587301587e+03 0.000000000000000e+00 0.000000000000000e+00 
   vertex  1.552615239260009e+03 3.300185568535862e+02 0.000000000000000e+00 
   vertex  1.587301587301587e+03 0.000000000000000e+00 6.349206349206349e+03 
  endloop 
 endfacet 
 facet normal  9.945218953682734e-01 1.045284632676530e-01 -0.000000000000000e+00 
  outer loop 
   vertex  1.552615239260009e+03 3.300185568535862e+02 6.349206349206349e+03 
   vertex  1.587301587301587e+03 0.000000000000000e+00 6.349206349206349e+03 
   vertex  1.552615239260009e+03 3.300185568535862e+02 0.000000000000000e+00 
  endloop 
 endfacet 
 facet normal  0.000000000000000e+00 -0.000000000000000e+00 -1.000000000000000e+00 
  outer loop 
   vertex  1.552615239260009e+03 3.300185568535862e+02 0.000000000000000e+00 
   vertex  0.000000000000000e+00 0.000000000000000e+00 0.000000000000000e+00 
   vertex  1.450072154988255e+03 6.456137191679368e+02 0.000000000000000e+00 
  endloop 
 endfacet 
 facet normal  0.000000000000000e+00 0.000000000000000e+00 1.000000000000000e+00 
  outer loop 
   vertex  1.450072154988255e+03 6.456137191679368e+02 6.349206349206349e+03 
   vertex  0.000000000000000e+00 0.000000000000000e+00 6.349206349206349e+03 
   vertex  1.552615239260009e+03 3.300185568535862e+02 6.349206349206349e+03 
  endloop 
 endfacet 
 facet normal  9.510565162951534e-01 3.090169943749479e-01 0.000000000000000e+00 
  outer loop 
   vertex  1.552615239260009e+03 3.300185568535862e+02 0.000000000000000e+00 
   vertex  1.450072154988255e+03 6.456137191679368e+02 0.000000000000000e+00 
   vertex  1.552615239260009e+03 3.300185568535862e+02 6.349206349206349e+03 
  endloop 
 endfacet 
 facet normal  9.510565162951534e-01 3.090169943749479e-01 -0.000000000000000e+00 
  outer loop 
   vertex  1.450072154988255e+03 6.456137191679368e+02 6.349206349206349e+03 
   vertex  1.552615239260009e+03 3.300185568535862e+02 6.349206349206349e+03 
   vertex  1.450072154988255e+03 6.456137191679368e+02 0.000000000000000e+00 
  endloop 
 endfacet 
 facet normal  0.000000000000000e+00 -0.000000000000000e+00 -1.000000000000000e+00 
  outer loop 
   vertex  1.450072154988255e+03 6.456137191679368e+02 0.000000000000000e+00 
   vertex  0.000000000000000e+00 0.000000000000000e+00 0.000000000000000e+00 
   vertex  1.284153959325313e+03 9.329924639563066e+02 0.000000000000000e+00 
  endloop 
 endfacet 
 facet normal  0.000000000000000e+00 0.000000000000000e+00 1.000000000000000e+00 
  outer loop 
   vertex  1.284153959325313e+03 9.329924639563066e+02 6.349206349206349e+03 
   vertex  0.000000000000000e+00 0.000000000000000e+00 6.349206349206349e+03 
   vertex  1.450072154988255e+03 6.456137191679368e+02 6.349206349206349e+03 
  endloop 
 endfacet 
 facet normal  8.660254037844387e-01 4.999999999999999e-01 0.000000000000000e+00 
  outer loop 
   vertex  1.450072154988255e+03 6.456137191679368e+02 0.000000000000000e+00 
   vertex  1.284153959325313e+03 9.329924639563066e+02 0.000000000000000e+00 
   vertex  1.450072154988255e+03 6.456137191679368e+02 6.349206349206349e+03 
  endloop 
 endfacet 
 facet normal  8.660254037844387e-01 4.999999999999999e-01 -0.000000000000000e+00 
  outer loop 
   vertex  1.284153959325313e+03 9.329924639563066e+02 6.349206349206349e+03 
   vertex  1.450072154988255e+03 6.456137191679368e+02 6.349206349206349e+03 
   vertex  1.284153959325313e+03 9.329924639563066e+02 0.000000000000000e+00 
  endloop 
 endfacet 
 facet normal  0.000000000000000e+00 -0.000000000000000e+00 -1.000000000000000e+00 
  outer loop 
   vertex  1.284153959325313e+03 9.329924639563066e+02 0.000000000000000e+00 
   vertex  0.000000000000000e+00 0.000000000000000e+00 0.000000000000000e+00 
   vertex  1.062112073585489e+03 1.179594961075229e+03 0.000000000000000e+00 
  endloop 
 endfacet 
 facet normal  0.000000000000000e+00 0.000000000000000e+00 1.000000000000000e+00 
  outer loop 
   vertex  1.062112073585489e+03 1.179594961075229e+03 6.349206349206349e+03 
   vertex  0.000000000000000e+00 0.000000000000000e+00 6.349206349206349e+03 
   vertex  1.284153959325313e+03 9.329924639563066e+02 6.349206349206349e+03 
  endloop 
 endfacet 
 facet normal  7.431448254773944e-01 6.691306063588581e-01 0.000000000000000e+00 
  outer loop 
   vertex  1.284153959325313e+03 9.329924639563066e+02 0.000000000000000e+00 
   vertex  1.062112073585489e+03 1.179594961075229e+03 0.000000000000000e+00 
   vertex  1.284153959325313e+03 9.329924639563066e+02 6.349206349206349e+03 
  endloop 
 endfacet 
 facet normal  7.431448254773944e-01 6.691306063588581e-01 -0.000000000000000e+00 
  outer loop 
   vertex  1.062112073585489e+03 1.179594961075229e+03 6.349206349206349e+03 
   vertex  1.284153959325313e+03 9.329924639563066e+02 6.349206349206349e+03 
   vertex  1.062112073585489e+03 1.179594961075229e+03 0.000000000000000e+00 
  endloop 
 endfacet 
 facet normal  0.000000000000000e+00 -0.000000000000000e+00 -1.000000000000000e+00 
  outer loop 
   vertex  1.062112073585489e+03 1.179594961075229e+03 0.000000000000000e+00 
   vertex  0.000000000000000e+00 0.000000000000000e+00 0.000000000000000e+00 
   vertex  7.936507936507938e+02 1.374643498070537e+03 0.000000000000000e+00 
  endloop 
 endfacet 
 facet normal  0.000000000000000e+00 0.000000000000000e+00 1.000000000000000e+00 
  outer loop 
   vertex  7.936507936507938e+02 1.374643498070537e+03 6.349206349206349e+03 
   vertex  0.000000000000000e+00 0.000000000000000e+00 6.349206349206349e+03 
   vertex  1.062112073585489e+03 1.179594961075229e+03 6.349206349206349e+03 
  endloop 
 endfacet 
 facet normal  5.877852522924731e-01 8.090169943749473e-01 0.000000000000000e+00 
  outer loop 
   vertex  1.062112073585489e+03 1.179594961075229e+03 0.000000000000000e+00 
   vertex  7.936507936507938e+02 1.374643498070537e+03 0.000000000000000e+00 
   vertex  1.062112073585489e+03 1.179594961075229e+03 6.349206349206349e+03 
  endloop 
 endfacet 
 facet normal  5.877852522924731e-01 8.090169943749473e-01 -0.000000000000000e+00 
  outer loop 
   vertex  7.936507936507938e+02 1.374643498070537e+03 6.349206349206349e+03 
   vertex  1.062112073585489e+03 1.179594961075229e+03 6.349206349206349e+03 
   vertex  7.936507936507938e+02 1.374643498070537e+03 0.000000000000000e+00 
  endloop 
 endfacet 
 facet normal  0.000000000000000e+00 -0.000000000000000e+00 -1.000000000000000e+00 
  outer loop 
   vertex  7.936507936507938e+02 1.374643498070537e+03 0.000000000000000e+00 
   vertex  0.000000000000000e+00 0.000000000000000e+00 0.000000000000000e+00 
   vertex  4.905031656745197e+02 1.509613517928815e+03 0.000000000000000e+00 
  endloop 
 endfacet 
 facet normal  0.000000000000000e+00 0.000000000000000e+00 1.000000000000000e+00 
  outer loop 
   vertex  4.905031656745197e+02 1.509613517928815e+03 6.349206349206349e+03 
   vertex  0.000000000000000e+00 0.000000000000000e+00 6.349206349206349e+03 
   vertex  7.936507936507938e+02 1.374643498070537e+03 6.349206349206349e+03 
  endloop 
 endfacet 
 facet normal  4.067366430758002e-01 9.135454576426010e-01 0.000000000000000e+00 
  outer loop 
   vertex  7.936507936507938e+02 1.374643498070537e+03 0.000000000000000e+00 
   vertex  4.905031656745197e+02 1.509613517928815e+03 0.000000000000000e+00 
   vertex  7.936507936507938e+02 1.374643498070537e+03 6.349206349206349e+03 
  endloop 
 endfacet 
 facet normal  4.067366430758002e-01 9.135454576426010e-01 -0.000000000000000e+00 
  outer loop 
   vertex  4.905031656745197e+02 1.509613517928815e+03 6.349206349206349e+03 
   vertex  7.936507936507938e+02 1.374643498070537e+03 6.349206349206349e+03 
   vertex  4.905031656745197e+02 1.509613517928815e+03 0.000000000000000e+00 
  endloop 
 endfacet 
 facet normal  0.000000000000000e+00 -0.000000000000000e+00 -1.000000000000000e+00 
  outer loop 
   vertex  4.905031656745197e+02 1.509613517928815e+03 0.000000000000000e+00 
   vertex  0.000000000000000e+00 0.000000000000000e+00 0.000000000000000e+00 
   vertex  1.659181956629420e+02 1.578606183124243e+03 0.000000000000000e+00 
  endloop 
 endfacet 
 facet normal  0.000000000000000e+00 0.000000000000000e+00 1.000000000000000e+00 
  outer loop 
   vertex  1.659181956629420e+02 1.578606183124243e+03 6.349206349206349e+03 
   vertex  0.000000000000000e+00 0.000000000000000e+00 6.349206349206349e+03 
   vertex  4.905031656745197e+02 1.509613517928815e+03 6.349206349206349e+03 
  endloop 
 endfacet 
 facet normal  2.079116908177591e-01 9.781476007338058e-01 0.000000000000000e+00 
  outer loop 
   vertex  4.905031656745197e+02 1.509613517928815e+03 0.000000000000000e+00 
   vertex  1.659181956629420e+02 1.578606183124243e+03 0.000000000000000e+00 
   vertex  4.905031656745197e+02 1.509613517928815e+03 6.349206349206349e+03 
  endloop 
 endfacet 
 facet normal  2.079116908177591e-01 9.781476007338058e-01 -0.000000000000000e+00 
  outer loop 
   vertex  1.659181956629420e+02 1.578606183124243e+03 6.349206349206349e+03 
   vertex  4.905031656745197e+02 1.509613517928815e+03 6.349206349206349e+03 
   vertex  1.659181956629420e+02 1.578606183124243e+03 0.000000000000000e+00 
  endloop 
 endfacet 
 facet normal  0.000000000000000e+00 -0.000000000000000e+00 -1.000000000000000e+00 
  outer loop 
   vertex  1.659181956629420e+02 1.578606183124243e+03 0.000000000000000e+00 
   vertex  0.000000000000000e+00 0.000000000000000e+00 0.000000000000000e+00 
   vertex  -1.659181956629418e+02 1.578606183124243e+03 0.000000000000000e+00 
  endloop 
 endfacet 
 facet normal  0.000000000000000e+00 0.000000000000000e+00 1.000000000000000e+00 
  outer loop 
   vertex  -1.659181956629418e+02 1.578606183124243e+03 6.349206349206349e+03 
   vertex  0.000000000000000e+00 0.000000000000000e+00 6.349206349206349e+03 
   vertex  1.659181956629420e+02 1.578606183124243e+03 6.349206349206349e+03 
  endloop 
 endfacet 
 facet normal  6.851981319310367e-16 1.000000000000000e+00 0.000000000000000e+00 
  outer loop 
   vertex  1.659181956629420e+02 1.578606183124243e+03 0.000000000000000e+00 
   vertex  -1.659181956629418e+02 1.578606183124243e+03 0.000000000000000e+00 
   vertex  1.659181956629420e+02 1.578606183124243e+03 6.349206349206349e+03 
  endloop 
 endfacet 
 facet normal  6.851981319310367e-16 1.000000000000000e+00 -0.000000000000000e+00 
  outer loop 
   vertex  -1.659181956629418e+02 1.578606183124243e+03 6.349206349206349e+03 
   vertex  1.659181956629420e+02 1.578606183124243e+03 6.349206349206349e+03 
   vertex  -1.659181956629418e+02 1.578606183124243e+03 0.000000000000000e+00 
  endloop 
 endfacet 
 facet normal  0.000000000000000e+00 0.000000000000000e+00 -1.000000000000000e+00 
  outer loop 
   vertex  -1.659181956629418e+02 1.578606183124243e+03 0.000000000000000e+00 
   vertex  0.000000000000000e+00 0.000000000000000e+00 0.000000000000000e+00 
   vertex  -4.905031656745196e+02 1.509613517928815e+03 0.000000000000000e+00 
  endloop 
 endfacet 
 facet normal  0.000000000000000e+00 0.000000000000000e+00 1.000000000000000e+00 
  outer loop 
   vertex  -4.905031656745196e+02 1.509613517928815e+03 6.349206349206349e+03 
   vertex  0.000000000000000e+00 0.000000000000000e+00 6.349206349206349e+03 
   vertex  -1.659181956629418e+02 1.578606183124243e+03 6.349206349206349e+03 
  endloop 
 endfacet 
 facet normal  -2.079116908177591e-01 9.781476007338058e-01 0.000000000000000e+00 
  outer loop 
   vertex  -1.659181956629418e+02 1.578606183124243e+03 0.000000000000000e+00 
   vertex  -4.905031656745196e+02 1.509613517928815e+03 0.000000000000000e+00 
   vertex  -1.659181956629418e+02 1.578606183124243e+03 6.349206349206349e+03 
  endloop 
 endfacet 
 facet normal  -2.079116908177591e-01 9.781476007338058e-01 0.000000000000000e+00 
  outer loop 
   vertex  -4.905031656745196e+02 1.509613517928815e+03 6.349206349206349e+03 
   vertex  -1.659181956629418e+02 1.578606183124243e+03 6.349206349206349e+03 
   vertex  -4.905031656745196e+02 1.509613517928815e+03 0.000000000000000e+00 
  endloop 
 endfacet 
 facet normal  0.000000000000000e+00 0.000000000000000e+00 -1.000000000000000e+00 
  outer loop 
   vertex  -4.905031656745196e+02 1.509613517928815e+03 0.000000000000000e+00 
   vertex  0.000000000000000e+00 0.000000000000000e+00 0.000000000000000e+00 
   vertex  -7.936507936507933e+02 1.374643498070538e+03 0.000000000000000e+00 
  endloop 
 endfacet 
 facet normal  0.000000000000000e+00 0.000000000000000e+00 1.000000000000000e+00 
  outer loop 
   vertex  -7.936507936507933e+02 1.374643498070538e+03 6.349206349206349e+03 
   vertex  0.000000000000000e+00 0.000000000000000e+00 6.349206349206349e+03 
   vertex  -4.905031656745196e+02 1.509613517928815e+03 6.349206349206349e+03 
  endloop 
 endfacet 
 facet normal  -4.067366430758006e-01 9.135454576426008e-01 0.000000000000000e+00 
  outer loop 
   vertex  -4.905031656745196e+02 1.509613517928815e+03 0.000000000000000e+00 
   vertex  -7.936507936507933e+02 1.374643498070538e+03 0.000000000000000e+00 
   vertex  -4.905031656745196e+02 1.509613517928815e+03 6.349206349206349e+03 
  endloop 
 endfacet 
 facet normal  -4.067366430758006e-01 9.135454576426008e-01 0.000000000000000e+00 
  outer loop 
   vertex  -7.936507936507933e+02 1.374643498070538e+03 6.349206349206349e+03 
   vertex  -4.905031656745196e+02 1.509613517928815e+03 6.349206349206349e+03 
   vertex  -7.936507936507933e+02 1.374643498070538e+03 0.000000000000000e+00 
  endloop 
 endfacet 
 facet normal  0.000000000000000e+00 0.000000000000000e+00 -1.000000000000000e+00 
  outer loop 
   vertex  -7.936507936507933e+02 1.374643498070538e+03 0.000000000000000e+00 
   vertex  0.000000000000000e+00 0.000000000000000e+00 0.000000000000000e+00 
   vertex  -1.062112073585489e+03 1.179594961075229e+03 0.000000000000000e+00 
  endloop 
 endfacet 
 facet normal  0.000000000000000e+00 0.000000000000000e+00 1.000000000000000e+00 
  outer loop 
   vertex  -1.062112073585489e+03 1.179594961075229e+03 6.349206349206349e+03 
   vertex  0.000000000000000e+00 0.000000000000000e+00 6.349206349206349e+03 
   vertex  -7.936507936507933e+02 1.374643498070538e+03 6.349206349206349e+03 
  endloop 
 endfacet 
 facet normal  -5.877852522924728e-01 8.090169943749476e-01 0.000000000000000e+00 
  outer loop 
   vertex  -7.936507936507933e+02 1.374643498070538e+03 0.000000000000000e+00 
   vertex  -1.062112073585489e+03 1.179594961075229e+03 0.000000000000000e+00 
   vertex  -7.936507936507933e+02 1.374643498070538e+03 6.349206349206349e+03 
  endloop 
 endfacet 
 facet normal  -5.877852522924728e-01 8.090169943749476e-01 0.000000000000000e+00 
  outer loop 
   vertex  -1.062112073585489e+03 1.179594961075229e+03 6.349206349206349e+03 
   vertex  -7.936507936507933e+02 1.374643498070538e+03 6.349206349206349e+03 
   vertex  -1.062112073585489e+03 1.179594961075229e+03 0.000000000000000e+00 
  endloop 
 endfacet 
 facet normal  0.000000000000000e+00 0.000000000000000e+00 -1.000000000000000e+00 
  outer loop 
   vertex  -1.062112073585489e+03 1.179594961075229e+03 0.000000000000000e+00 
   vertex  0.000000000000000e+00 0.000000000000000e+00 0.000000000000000e+00 
   vertex  -1.284153959325313e+03 9.329924639563067e+02 0.000000000000000e+00 
  endloop 
 endfacet 
 facet normal  0.000000000000000e+00 0.000000000000000e+00 1.000000000000000e+00 
  outer loop 
   vertex  -1.284153959325313e+03 9.329924639563067e+02 6.349206349206349e+03 
   vertex  0.000000000000000e+00 0.000000000000000e+00 6.349206349206349e+03 
   vertex  -1.062112073585489e+03 1.179594961075229e+03 6.349206349206349e+03 
  endloop 
 endfacet 
 facet normal  -7.431448254773938e-01 6.691306063588587e-01 0.000000000000000e+00 
  outer loop 
   vertex  -1.062112073585489e+03 1.179594961075229e+03 0.000000000000000e+00 
   vertex  -1.284153959325313e+03 9.329924639563067e+02 0.000000000000000e+00 
   vertex  -1.062112073585489e+03 1.179594961075229e+03 6.349206349206349e+03 
  endloop 
 endfacet 
 facet normal  -7.431448254773938e-01 6.691306063588587e-01 0.000000000000000e+00 
  outer loop 
   vertex  -1.284153959325313e+03 9.329924639563067e+02 6.349206349206349e+03 
   vertex  -1.062112073585489e+03 1.179594961075229e+03 6.349206349206349e+03 
   vertex  -1.284153959325313e+03 9.329924639563067e+02 0.000000000000000e+00 
  endloop 
 endfacet 
 facet normal  0.000000000000000e+00 0.000000000000000e+00 -1.000000000000000e+00 
  outer loop 
   vertex  -1.284153959325313e+03 9.329924639563067e+02 0.000000000000000e+00 
   vertex  0.000000000000000e+00 0.000000000000000e+00 0.000000000000000e+00 
   vertex  -1.450072154988256e+03 6.456137191679366e+02 0.000000000000000e+00 
  endloop 
 endfacet 
 facet normal  0.000000000000000e+00 0.000000000000000e+00 1.000000000000000e+00 
  outer loop 
   vertex  -1.450072154988256e+03 6.456137191679366e+02 6.349206349206349e+03 
   vertex  0.000000000000000e+00 0.000000000000000e+00 6.349206349206349e+03 
   vertex  -1.284153959325313e+03 9.329924639563067e+02 6.349206349206349e+03 
  endloop 
 endfacet 
 facet normal  -8.660254037844385e-01 5.000000000000000e-01 0.000000000000000e+00 
  outer loop 
   vertex  -1.284153959325313e+03 9.329924639563067e+02 0.000000000000000e+00 
   vertex  -1.450072154988256e+03 6.456137191679366e+02 0.000000000000000e+00 
   vertex  -1.284153959325313e+03 9.329924639563067e+02 6.349206349206349e+03 
  endloop 
 endfacet 
 facet normal  -8.660254037844385e-01 5.000000000000000e-01 0.000000000000000e+00 
  outer loop 
   vertex  -1.450072154988256e+03 6.456137191679366e+02 6.349206349206349e+03 
   vertex  -1.284153959325313e+03 9.329924639563067e+02 6.349206349206349e+03 
   vertex  -1.450072154988256e+03 6.456137191679366e+02 0.000000000000000e+00 
  endloop 
 endfacet 
 facet normal  0.000000000000000e+00 0.000000000000000e+00 -1.000000000000000e+00 
  outer loop 
   vertex  -1.450072154988256e+03 6.456137191679366e+02 0.000000000000000e+00 
   vertex  0.000000000000000e+00 0.000000000000000e+00 0.000000000000000e+00 
   vertex  -1.552615239260009e+03 3.300185568535862e+02 0.000000000000000e+00 
  endloop 
 endfacet 
 facet normal  0.000000000000000e+00 0.000000000000000e+00 1.000000000000000e+00 
  outer loop 
   vertex  -1.552615239260009e+03 3.300185568535862e+02 6.349206349206349e+03 
   vertex  0.000000000000000e+00 0.000000000000000e+00 6.349206349206349e+03 
   vertex  -1.450072154988256e+03 6.456137191679366e+02 6.349206349206349e+03 
  endloop 
 endfacet 
 facet normal  -9.510565162951536e-01 3.090169943749475e-01 0.000000000000000e+00 
  outer loop 
   vertex  -1.450072154988256e+03 6.456137191679366e+02 0.000000000000000e+00 
   vertex  -1.552615239260009e+03 3.300185568535862e+02 0.000000000000000e+00 
   vertex  -1.450072154988256e+03 6.456137191679366e+02 6.349206349206349e+03 
  endloop 
 endfacet 
 facet normal  -9.510565162951536e-01 3.090169943749475e-01 0.000000000000000e+00 
  outer loop 
   vertex  -1.552615239260009e+03 3.300185568535862e+02 6.349206349206349e+03 
   vertex  -1.450072154988256e+03 6.456137191679366e+02 6.349206349206349e+03 
   vertex  -1.552615239260009e+03 3.300185568535862e+02 0.000000000000000e+00 
  endloop 
 endfacet 
 facet normal  0.000000000000000e+00 0.000000000000000e+00 -1.000000000000000e+00 
  outer loop 
   vertex  -1.552615239260009e+03 3.300185568535862e+02 0.000000000000000e+00 
   vertex  0.000000000000000e+00 0.000000000000000e+00 0.000000000000000e+00 
   vertex  -1.587301587301587e+03 1.943883808170402e-13 0.000000000000000e+00 
  endloop 
 endfacet 
 facet normal  0.000000000000000e+00 0.000000000000000e+00 1.000000000000000e+00 
  outer loop 
   vertex  -1.587301587301587e+03 1.943883808170402e-13 6.349206349206349e+03 
   vertex  0.000000000000000e+00 0.000000000000000e+00 6.349206349206349e+03 
   vertex  -1.552615239260009e+03 3.300185568535862e+02 6.349206349206349e+03 
  endloop 
 endfacet 
 facet normal  -9.945218953682735e-01 1.045284632676531e-01 0.000000000000000e+00 
  outer loop 
   vertex  -1.552615239260009e+03 3.300185568535862e+02 0.000000000000000e+00 
   vertex  -1.587301587301587e+03 1.943883808170402e-13 0.000000000000000e+00 
   vertex  -1.552615239260009e+03 3.300185568535862e+02 6.349206349206349e+03 
  endloop 
 endfacet 
 facet normal  -9.945218953682735e-01 1.045284632676531e-01 0.000000000000000e+00 
  outer loop 
   vertex  -1.587301587301587e+03 1.943883808170402e-13 6.349206349206349e+03 
   vertex  -1.552615239260009e+03 3.300185568535862e+02 6.349206349206349e+03 
   vertex  -1.587301587301587e+03 1.943883808170402e-13 0.000000000000000e+00 
  endloop 
 endfacet 
 facet normal  0.000000000000000e+00 0.000000000000000e+00 -1.000000000000000e+00 
  outer loop 
   vertex  -1.587301587301587e+03 1.943883808170402e-13 0.000000000000000e+00 
   vertex  0.000000000000000e+00 0.000000000000000e+00 0.000000000000000e+00 
   vertex  -1.552615239260009e+03 -3.300185568535858e+02 0.000000000000000e+00 
  endloop 
 endfacet 
 facet normal  -0.000000000000000e+00 0.000000000000000e+00 1.000000000000000e+00 
  outer loop 
   vertex  -1.552615239260009e+03 -3.300185568535858e+02 6.349206349206349e+03 
   vertex  0.000000000000000e+00 0.000000000000000e+00 6.349206349206349e+03 
   vertex  -1.587301587301587e+03 1.943883808170402e-13 6.349206349206349e+03 
  endloop 
 endfacet 
 facet normal  -9.945218953682734e-01 -1.045284632676531e-01 -0.000000000000000e+00 
  outer loop 
   vertex  -1.587301587301587e+03 1.943883808170402e-13 0.000000000000000e+00 
   vertex  -1.552615239260009e+03 -3.300185568535858e+02 0.000000000000000e+00 
   vertex  -1.587301587301587e+03 1.943883808170402e-13 6.349206349206349e+03 
  endloop 
 endfacet 
 facet normal  -9.945218953682734e-01 -1.045284632676531e-01 0.000000000000000e+00 
  outer loop 
   vertex  -1.552615239260009e+03 -3.300185568535858e+02 6.349206349206349e+03 
   vertex  -1.587301587301587e+03 1.943883808170402e-13 6.349206349206349e+03 
   vertex  -1.552615239260009e+03 -3.300185568535858e+02 0.000000000000000e+00 
  endloop 
 endfacet 
 facet normal  0.000000000000000e+00 0.000000000000000e+00 -1.000000000000000e+00 
  outer loop 
   vertex  -1.552615239260009e+03 -3.300185568535858e+02 0.000000000000000e+00 
   vertex  0.000000000000000e+00 0.000000000000000e+00 0.000000000000000e+00 
   vertex  -1.450072154988256e+03 -6.456137191679362e+02 0.000000000000000e+00 
  endloop 
 endfacet 
 facet normal  -0.000000000000000e+00 0.000000000000000e+00 1.000000000000000e+00 
  outer loop 
   vertex  -1.450072154988256e+03 -6.456137191679362e+02 6.349206349206349e+03 
   vertex  0.000000000000000e+00 0.000000000000000e+00 6.349206349206349e+03 
   vertex  -1.552615239260009e+03 -3.300185568535858e+02 6.349206349206349e+03 
  endloop 
 endfacet 
 facet normal  -9.510565162951535e-01 -3.090169943749475e-01 -0.000000000000000e+00 
  outer loop 
   vertex  -1.552615239260009e+03 -3.300185568535858e+02 0.000000000000000e+00 
   vertex  -1.450072154988256e+03 -6.456137191679362e+02 0.000000000000000e+00 
   vertex  -1.552615239260009e+03 -3.300185568535858e+02 6.349206349206349e+03 
  endloop 
 endfacet 
 facet normal  -9.510565162951535e-01 -3.090169943749475e-01 0.000000000000000e+00 
  outer loop 
   vertex  -1.450072154988256e+03 -6.456137191679362e+02 6.349206349206349e+03 
   vertex  -1.552615239260009e+03 -3.300185568535858e+02 6.349206349206349e+03 
   vertex  -1.450072154988256e+03 -6.456137191679362e+02 0.000000000000000e+00 
  endloop 
 endfacet 
 facet normal  0.000000000000000e+00 0.000000000000000e+00 -1.000000000000000e+00 
  outer loop 
   vertex  -1.450072154988256e+03 -6.456137191679362e+02 0.000000000000000e+00 
   vertex  0.000000000000000e+00 0.000000000000000e+00 0.000000000000000e+00 
   vertex  -1.284153959325313e+03 -9.329924639563063e+02 0.000000000000000e+00 
  endloop 
 endfacet 
 facet normal  -0.000000000000000e+00 0.000000000000000e+00 1.000000000000000e+00 
  outer loop 
   vertex  -1.284153959325313e+03 -9.329924639563063e+02 6.349206349206349e+03 
   vertex  0.000000000000000e+00 0.000000000000000e+00 6.349206349206349e+03 
   vertex  -1.450072154988256e+03 -6.456137191679362e+02 6.349206349206349e+03 
  endloop 
 endfacet 
 facet normal  -8.660254037844385e-01 -5.000000000000000e-01 -0.000000000000000e+00 
  outer loop 
   vertex  -1.450072154988256e+03 -6.456137191679362e+02 0.000000000000000e+00 
   vertex  -1.284153959325313e+03 -9.329924639563063e+02 0.000000000000000e+00 
   vertex  -1.450072154988256e+03 -6.456137191679362e+02 6.349206349206349e+03 
  endloop 
 endfacet 
 facet normal  -8.660254037844385e-01 -5.000000000000000e-01 0.000000000000000e+00 
  outer loop 
   vertex  -1.284153959325313e+03 -9.329924639563063e+02 6.349206349206349e+03 
   vertex  -1.450072154988256e+03 -6.456137191679362e+02 6.349206349206349e+03 
   vertex  -1.284153959325313e+03 -9.329924639563063e+02 0.000000000000000e+00 
  endloop 
 endfacet 
 facet normal  0.000000000000000e+00 0.000000000000000e+00 -1.000000000000000e+00 
  outer loop 
   vertex  -1.284153959325313e+03 -9.329924639563063e+02 0.000000000000000e+00 
   vertex  0.000000000000000e+00 0.000000000000000e+00 0.000000000000000e+00 
   vertex  -1.062112073585489e+03 -1.179594961075229e+03 0.000000000000000e+00 
  endloop 
 endfacet 
 facet normal  -0.000000000000000e+00 0.000000000000000e+00 1.000000000000000e+00 
  outer loop 
   vertex  -1.062112073585489e+03 -1.179594961075229e+03 6.349206349206349e+03 
   vertex  0.000000000000000e+00 0.000000000000000e+00 6.349206349206349e+03 
   vertex  -1.284153959325313e+03 -9.329924639563063e+02 6.349206349206349e+03 
  endloop 
 endfacet 
 facet normal  -7.431448254773947e-01 -6.691306063588577e-01 -0.000000000000000e+00 
  outer loop 
   vertex  -1.284153959325313e+03 -9.329924639563063e+02 0.000000000000000e+00 
   vertex  -1.062112073585489e+03 -1.179594961075229e+03 0.000000000000000e+00 
   vertex  -1.284153959325313e+03 -9.329924639563063e+02 6.349206349206349e+03 
  endloop 
 endfacet 
 facet normal  -7.431448254773947e-01 -6.691306063588577e-01 0.000000000000000e+00 
  outer loop 
   vertex  -1.062112073585489e+03 -1.179594961075229e+03 6.349206349206349e+03 
   vertex  -1.284153959325313e+03 -9.329924639563063e+02 6.349206349206349e+03 
   vertex  -1.062112073585489e+03 -1.179594961075229e+03 0.000000000000000e+00 
  endloop 
 endfacet 
 facet normal  0.000000000000000e+00 0.000000000000000e+00 -1.000000000000000e+00 
  outer loop 
   vertex  -1.062112073585489e+03 -1.179594961075229e+03 0.000000000000000e+00 
   vertex  0.000000000000000e+00 0.000000000000000e+00 0.000000000000000e+00 
   vertex  -7.936507936507943e+02 -1.374643498070537e+03 0.000000000000000e+00 
  endloop 
 endfacet 
 facet normal  -0.000000000000000e+00 0.000000000000000e+00 1.000000000000000e+00 
  outer loop 
   vertex  -7.936507936507943e+02 -1.374643498070537e+03 6.349206349206349e+03 
   vertex  0.000000000000000e+00 0.000000000000000e+00 6.349206349206349e+03 
   vertex  -1.062112073585489e+03 -1.179594961075229e+03 6.349206349206349e+03 
  endloop 
 endfacet 
 facet normal  -5.877852522924735e-01 -8.090169943749472e-01 -0.000000000000000e+00 
  outer loop 
   vertex  -1.062112073585489e+03 -1.179594961075229e+03 0.000000000000000e+00 
   vertex  -7.936507936507943e+02 -1.374643498070537e+03 0.000000000000000e+00 
   vertex  -1.062112073585489e+03 -1.179594961075229e+03 6.349206349206349e+03 
  endloop 
 endfacet 
 facet normal  -5.877852522924735e-01 -8.090169943749472e-01 0.000000000000000e+00 
  outer loop 
   vertex  -7.936507936507943e+02 -1.374643498070537e+03 6.349206349206349e+03 
   vertex  -1.062112073585489e+03 -1.179594961075229e+03 6.349206349206349e+03 
   vertex  -7.936507936507943e+02 -1.374643498070537e+03 0.000000000000000e+00 
  endloop 
 endfacet 
 facet normal  0.000000000000000e+00 0.000000000000000e+00 -1.000000000000000e+00 
  outer loop 
   vertex  -7.936507936507943e+02 -1.374643498070537e+03 0.000000000000000e+00 
   vertex  0.000000000000000e+00 0.000000000000000e+00 0.000000000000000e+00 
   vertex  -4.905031656745199e+02 -1.509613517928815e+03 0.000000000000000e+00 
  endloop 
 endfacet 
 facet normal  -0.000000000000000e+00 0.000000000000000e+00 1.000000000000000e+00 
  outer loop 
   vertex  -4.905031656745199e+02 -1.509613517928815e+03 6.349206349206349e+03 
   vertex  0.000000000000000e+00 0.000000000000000e+00 6.349206349206349e+03 
   vertex  -7.936507936507943e+02 -1.374643498070537e+03 6.349206349206349e+03 
  endloop 
 endfacet 
 facet normal  -4.067366430758004e-01 -9.135454576426008e-01 -0.000000000000000e+00 
  outer loop 
   vertex  -7.936507936507943e+02 -1.374643498070537e+03 0.000000000000000e+00 
   vertex  -4.905031656745199e+02 -1.509613517928815e+03 0.000000000000000e+00 
   vertex  -7.936507936507943e+02 -1.374643498070537e+03 6.349206349206349e+03 
  endloop 
 endfacet 
 facet normal  -4.067366430758004e-01 -9.135454576426008e-01 0.000000000000000e+00 
  outer loop 
   vertex  -4.905031656745199e+02 -1.509613517928815e+03 6.349206349206349e+03 
   vertex  -7.936507936507943e+02 -1.374643498070537e+03 6.349206349206349e+03 
   vertex  -4.905031656745199e+02 -1.509613517928815e+03 0.000000000000000e+00 
  endloop 
 endfacet 
 facet normal  0.000000000000000e+00 0.000000000000000e+00 -1.000000000000000e+00 
  outer loop 
   vertex  -4.905031656745199e+02 -1.509613517928815e+03 0.000000000000000e+00 
   vertex  0.000000000000000e+00 0.000000000000000e+00 0.000000000000000e+00 
   vertex  -1.659181956629432e+02 -1.578606183124243e+03 0.000000000000000e+00 
  endloop 
 endfacet 
 facet normal  -0.000000000000000e+00 0.000000000000000e+00 1.000000000000000e+00 
  outer loop 
   vertex  -1.659181956629432e+02 -1.578606183124243e+03 6.349206349206349e+03 
   vertex  0.000000000000000e+00 0.000000000000000e+00 6.349206349206349e+03 
   vertex  -4.905031656745199e+02 -1.509613517928815e+03 6.349206349206349e+03 
  endloop 
 endfacet 
 facet normal  -2.079116908177598e-01 -9.781476007338056e-01 -0.000000000000000e+00 
  outer loop 
   vertex  -4.905031656745199e+02 -1.509613517928815e+03 0.000000000000000e+00 
   vertex  -1.659181956629432e+02 -1.578606183124243e+03 0.000000000000000e+00 
   vertex  -4.905031656745199e+02 -1.509613517928815e+03 6.349206349206349e+03 
  endloop 
 endfacet 
 facet normal  -2.079116908177598e-01 -9.781476007338056e-01 0.000000000000000e+00 
  outer loop 
   vertex  -1.659181956629432e+02 -1.578606183124243e+03 6.349206349206349e+03 
   vertex  -4.905031656745199e+02 -1.509613517928815e+03 6.349206349206349e+03 
   vertex  -1.659181956629432e+02 -1.578606183124243e+03 0.000000000000000e+00 
  endloop 
 endfacet 
 facet normal  0.000000000000000e+00 0.000000000000000e+00 -1.000000000000000e+00 
  outer loop 
   vertex  -1.659181956629432e+02 -1.578606183124243e+03 0.000000000000000e+00 
   vertex  0.000000000000000e+00 0.000000000000000e+00 0.000000000000000e+00 
   vertex  1.659181956629427e+02 -1.578606183124243e+03 0.000000000000000e+00 
  endloop 
 endfacet 
 facet normal  0.000000000000000e+00 -0.000000000000000e+00 1.000000000000000e+00 
  outer loop 
   vertex  1.659181956629427e+02 -1.578606183124243e+03 6.349206349206349e+03 
   vertex  0.000000000000000e+00 0.000000000000000e+00 6.349206349206349e+03 
   vertex  -1.659181956629432e+02 -1.578606183124243e+03 6.349206349206349e+03 
  endloop 
 endfacet 
 facet normal  0.000000000000000e+00 -1.000000000000000e+00 0.000000000000000e+00 
  outer loop 
   vertex  -1.659181956629432e+02 -1.578606183124243e+03 0.000000000000000e+00 
   vertex  1.659181956629427e+02 -1.578606183124243e+03 0.000000000000000e+00 
   vertex  -1.659181956629432e+02 -1.578606183124243e+03 6.349206349206349e+03 
  endloop 
 endfacet 
 facet normal  0.000000000000000e+00 -1.000000000000000e+00 0.000000000000000e+00 
  outer loop 
   vertex  1.659181956629427e+02 -1.578606183124243e+03 6.349206349206349e+03 
   vertex  -1.659181956629432e+02 -1.578606183124243e+03 6.349206349206349e+03 
   vertex  1.659181956629427e+02 -1.578606183124243e+03 0.000000000000000e+00 
  endloop 
 endfacet 
 facet normal  -0.000000000000000e+00 0.000000000000000e+00 -1.000000000000000e+00 
  outer loop 
   vertex  1.659181956629427e+02 -1.578606183124243e+03 0.000000000000000e+00 
   vertex  0.000000000000000e+00 0.000000000000000e+00 0.000000000000000e+00 
   vertex  4.905031656745194e+02 -1.509613517928815e+03 0.000000000000000e+00 
  endloop 
 endfacet 
 facet normal  0.000000000000000e+00 -0.000000000000000e+00 1.000000000000000e+00 
  outer loop 
   vertex  4.905031656745194e+02 -1.509613517928815e+03 6.349206349206349e+03 
   vertex  0.000000000000000e+00 0.000000000000000e+00 6.349206349206349e+03 
   vertex  1.659181956629427e+02 -1.578606183124243e+03 6.349206349206349e+03 
  endloop 
 endfacet 
 facet normal  2.079116908177590e-01 -9.781476007338056e-01 0.000000000000000e+00 
  outer loop 
   vertex  1.659181956629427e+02 -1.578606183124243e+03 0.000000000000000e+00 
   vertex  4.905031656745194e+02 -1.509613517928815e+03 0.000000000000000e+00 
   vertex  1.659181956629427e+02 -1.578606183124243e+03 6.349206349206349e+03 
  endloop 
 endfacet 
 facet normal  2.079116908177590e-01 -9.781476007338056e-01 0.000000000000000e+00 
  outer loop 
   vertex  4.905031656745194e+02 -1.509613517928815e+03 6.349206349206349e+03 
   vertex  1.659181956629427e+02 -1.578606183124243e+03 6.349206349206349e+03 
   vertex  4.905031656745194e+02 -1.509613517928815e+03 0.000000000000000e+00 
  endloop 
 endfacet 
 facet normal  -0.000000000000000e+00 0.000000000000000e+00 -1.000000000000000e+00 
  outer loop 
   vertex  4.905031656745194e+02 -1.509613517928815e+03 0.000000000000000e+00 
   vertex  0.000000000000000e+00 0.000000000000000e+00 0.000000000000000e+00 
   vertex  7.936507936507938e+02 -1.374643498070537e+03 0.000000000000000e+00 
  endloop 
 endfacet 
 facet normal  0.000000000000000e+00 -0.000000000000000e+00 1.000000000000000e+00 
  outer loop 
   vertex  7.936507936507938e+02 -1.374643498070537e+03 6.349206349206349e+03 
   vertex  0.000000000000000e+00 0.000000000000000e+00 6.349206349206349e+03 
   vertex  4.905031656745194e+02 -1.509613517928815e+03 6.349206349206349e+03 
  endloop 
 endfacet 
 facet normal  4.067366430758004e-01 -9.135454576426009e-01 0.000000000000000e+00 
  outer loop 
   vertex  4.905031656745194e+02 -1.509613517928815e+03 0.000000000000000e+00 
   vertex  7.936507936507938e+02 -1.374643498070537e+03 0.000000000000000e+00 
   vertex  4.905031656745194e+02 -1.509613517928815e+03 6.349206349206349e+03 
  endloop 
 endfacet 
 facet normal  4.067366430758004e-01 -9.135454576426009e-01 0.000000000000000e+00 
  outer loop 
   vertex  7.936507936507938e+02 -1.374643498070537e+03 6.349206349206349e+03 
   vertex  4.905031656745194e+02 -1.509613517928815e+03 6.349206349206349e+03 
   vertex  7.936507936507938e+02 -1.374643498070537e+03 0.000000000000000e+00 
  endloop 
 endfacet 
 facet normal  -0.000000000000000e+00 0.000000000000000e+00 -1.000000000000000e+00 
  outer loop 
   vertex  7.936507936507938e+02 -1.374643498070537e+03 0.000000000000000e+00 
   vertex  0.000000000000000e+00 0.000000000000000e+00 0.000000000000000e+00 
   vertex  1.062112073585489e+03 -1.179594961075229e+03 0.000000000000000e+00 
  endloop 
 endfacet 
 facet normal  0.000000000000000e+00 -0.000000000000000e+00 1.000000000000000e+00 
  outer loop 
   vertex  1.062112073585489e+03 -1.179594961075229e+03 6.349206349206349e+03 
   vertex  0.000000000000000e+00 0.000000000000000e+00 6.349206349206349e+03 
   vertex  7.936507936507938e+02 -1.374643498070537e+03 6.349206349206349e+03 
  endloop 
 endfacet 
 facet normal  5.877852522924732e-01 -8.090169943749473e-01 0.000000000000000e+00 
  outer loop 
   vertex  7.936507936507938e+02 -1.374643498070537e+03 0.000000000000000e+00 
   vertex  1.062112073585489e+03 -1.179594961075229e+03 0.000000000000000e+00 
   vertex  7.936507936507938e+02 -1.374643498070537e+03 6.349206349206349e+03 
  endloop 
 endfacet 
 facet normal  5.877852522924732e-01 -8.090169943749473e-01 0.000000000000000e+00 
  outer loop 
   vertex  1.062112073585489e+03 -1.179594961075229e+03 6.349206349206349e+03 
   vertex  7.936507936507938e+02 -1.374643498070537e+03 6.349206349206349e+03 
   vertex  1.062112073585489e+03 -1.179594961075229e+03 0.000000000000000e+00 
  endloop 
 endfacet 
 facet normal  -0.000000000000000e+00 0.000000000000000e+00 -1.000000000000000e+00 
  outer loop 
   vertex  1.062112073585489e+03 -1.179594961075229e+03 0.000000000000000e+00 
   vertex  0.000000000000000e+00 0.000000000000000e+00 0.000000000000000e+00 
   vertex  1.284153959325313e+03 -9.329924639563069e+02 0.000000000000000e+00 
  endloop 
 endfacet 
 facet normal  0.000000000000000e+00 -0.000000000000000e+00 1.000000000000000e+00 
  outer loop 
   vertex  1.284153959325313e+03 -9.329924639563069e+02 6.349206349206349e+03 
   vertex  0.000000000000000e+00 0.000000000000000e+00 6.349206349206349e+03 
   vertex  1.062112073585489e+03 -1.179594961075229e+03 6.349206349206349e+03 
  endloop 
 endfacet 
 facet normal  7.431448254773940e-01 -6.691306063588586e-01 0.000000000000000e+00 
  outer loop 
   vertex  1.062112073585489e+03 -1.179594961075229e+03 0.000000000000000e+00 
   vertex  1.284153959325313e+03 -9.329924639563069e+02 0.000000000000000e+00 
   vertex  1.062112073585489e+03 -1.179594961075229e+03 6.349206349206349e+03 
  endloop 
 endfacet 
 facet normal  7.431448254773940e-01 -6.691306063588586e-01 0.000000000000000e+00 
  outer loop 
   vertex  1.284153959325313e+03 -9.329924639563069e+02 6.349206349206349e+03 
   vertex  1.062112073585489e+03 -1.179594961075229e+03 6.349206349206349e+03 
   vertex  1.284153959325313e+03 -9.329924639563069e+02 0.000000000000000e+00 
  endloop 
 endfacet 
 facet normal  -0.000000000000000e+00 0.000000000000000e+00 -1.000000000000000e+00 
  outer loop 
   vertex  1.284153959325313e+03 -9.329924639563069e+02 0.000000000000000e+00 
   vertex  0.000000000000000e+00 0.000000000000000e+00 0.000000000000000e+00 
   vertex  1.450072154988256e+03 -6.456137191679368e+02 0.000000000000000e+00 
  endloop 
 endfacet 
 facet normal  0.000000000000000e+00 -0.000000000000000e+00 1.000000000000000e+00 
  outer loop 
   vertex  1.450072154988256e+03 -6.456137191679368e+02 6.349206349206349e+03 
   vertex  0.000000000000000e+00 0.000000000000000e+00 6.349206349206349e+03 
   vertex  1.284153959325313e+03 -9.329924639563069e+02 6.349206349206349e+03 
  endloop 
 endfacet 
 facet normal  8.660254037844385e-01 -5.000000000000000e-01 0.000000000000000e+00 
  outer loop 
   vertex  1.284153959325313e+03 -9.329924639563069e+02 0.000000000000000e+00 
   vertex  1.450072154988256e+03 -6.456137191679368e+02 0.000000000000000e+00 
   vertex  1.284153959325313e+03 -9.329924639563069e+02 6.349206349206349e+03 
  endloop 
 endfacet 
 facet normal  8.660254037844385e-01 -5.000000000000000e-01 0.000000000000000e+00 
  outer loop 
   vertex  1.450072154988256e+03 -6.456137191679368e+02 6.349206349206349e+03 
   vertex  1.284153959325313e+03 -9.329924639563069e+02 6.349206349206349e+03 
   vertex  1.450072154988256e+03 -6.456137191679368e+02 0.000000000000000e+00 
  endloop 
 endfacet 
 facet normal  -0.000000000000000e+00 0.000000000000000e+00 -1.000000000000000e+00 
  outer loop 
   vertex  1.450072154988256e+03 -6.456137191679368e+02 0.000000000000000e+00 
   vertex  0.000000000000000e+00 0.000000000000000e+00 0.000000000000000e+00 
   vertex  1.552615239260009e+03 -3.300185568535871e+02 0.000000000000000e+00 
  endloop 
 endfacet 
 facet normal  0.000000000000000e+00 -0.000000000000000e+00 1.000000000000000e+00 
  outer loop 
   vertex  1.552615239260009e+03 -3.300185568535871e+02 6.349206349206349e+03 
   vertex  0.000000000000000e+00 0.000000000000000e+00 6.349206349206349e+03 
   vertex  1.450072154988256e+03 -6.456137191679368e+02 6.349206349206349e+03 
  endloop 
 endfacet 
 facet normal  9.510565162951536e-01 -3.090169943749475e-01 0.000000000000000e+00 
  outer loop 
   vertex  1.450072154988256e+03 -6.456137191679368e+02 0.000000000000000e+00 
   vertex  1.552615239260009e+03 -3.300185568535871e+02 0.000000000000000e+00 
   vertex  1.450072154988256e+03 -6.456137191679368e+02 6.349206349206349e+03 
  endloop 
 endfacet 
 facet normal  9.510565162951536e-01 -3.090169943749475e-01 0.000000000000000e+00 
  outer loop 
   vertex  1.552615239260009e+03 -3.300185568535871e+02 6.349206349206349e+03 
   vertex  1.450072154988256e+03 -6.456137191679368e+02 6.349206349206349e+03 
   vertex  1.552615239260009e+03 -3.300185568535871e+02 0.000000000000000e+00 
  endloop 
 endfacet 
 facet normal  -0.000000000000000e+00 0.000000000000000e+00 -1.000000000000000e+00 
  outer loop 
   vertex  1.552615239260009e+03 -3.300185568535871e+02 0.000000000000000e+00 
   vertex  0.000000000000000e+00 0.000000000000000e+00 0.000000000000000e+00 
   vertex  1.587301587301587e+03 0.000000000000000e+00 0.000000000000000e+00 
  endloop 
 endfacet 
 facet normal  0.000000000000000e+00 -0.000000000000000e+00 1.000000000000000e+00 
  outer loop 
   vertex  1.587301587301587e+03 0.000000000000000e+00 6.349206349206349e+03 
   vertex  0.000000000000000e+00 0.000000000000000e+00 6.349206349206349e+03 
   vertex  1.552615239260009e+03 -3.300185568535871e+02 6.349206349206349e+03 
  endloop 
 endfacet 
 facet normal  9.945218953682733e-01 -1.045284632676534e-01 0.000000000000000e+00 
  outer loop 
   vertex  1.552615239260009e+03 -3.300185568535871e+02 0.000000000000000e+00 
   vertex  1.587301587301587e+03 0.000000000000000e+00 0.000000000000000e+00 
   vertex  1.552615239260009e+03 -3.300185568535871e+02 6.349206349206349e+03 
  endloop 
 endfacet 
 facet normal  9.945218953682733e-01 -1.045284632676534e-01 0.000000000000000e+00 
  outer loop 
   vertex  1.587301587301587e+03 0.000000000000000e+00 6.349206349206349e+03 
   vertex  1.552615239260009e+03 -3.300185568535871e+02 6.349206349206349e+03 
   vertex  1.587301587301587e+03 0.000000000000000e+00 0.000000000000000e+00 
  endloop 
 endfacet 
endsolid