solid prism
 facet normal  0.000000000000000e+00 -0.000000000000000e+00 -1.000000000000000e+00 
  outer loop 
   vertex  0.000000000000000e+00 0.000000000000000e+00 -2.000000000000000e+03 
   vertex  -1.000000000000000e+03 -2.000000000000000e+03 -2.000000000000000e+03 
   vertex  -1.000000000000000e+03 2.000000000000000e+03 -2.000000000000000e+03 
  endloop 
 endfacet 
 facet normal  0.000000000000000e+00 0.000000000000000e+00 -1.000000000000000e+00 
  outer loop 
   vertex  0.000000000000000e+00 0.000000000000000e+00 -2.000000000000000e+03 
   vertex  1.000000000000000e+03 -2.000000000000000e+03 -2.000000000000000e+03 
   vertex  -1.000000000000000e+03 -2.000000000000000e+03 -2.000000000000000e+03 
  endloop 
 endfacet 
 facet normal  0.000000000000000e+00 0.000000000000000e+00 -1.000000000000000e+00 
  outer loop 
   vertex  0.000000000000000e+00 0.000000000000000e+00 -2.000000000000000e+03 
   vertex  1.000000000000000e+03 2.000000000000000e+03 -2.000000000000000e+03 
   vertex  1.000000000000000e+03 -2.000000000000000e+03 -2.000000000000000e+03 
  endloop 
 endfacet 
 facet normal  -0.000000000000000e+00 0.000000000000000e+00 -1.000000000000000e+00 
  outer loop 
   vertex  0.000000000000000e+00 0.000000000000000e+00 -2.000000000000000e+03 
   vertex  -1.000000000000000e+03 2.000000000000000e+03 -2.000000000000000e+03 
   vertex  1.000000000000000e+03 2.000000000000000e+03 -2.000000000000000e+03 
  endloop 
 endfacet 
 facet normal  0.000000000000000e+00 0.000000000000000e+00 1.000000000000000e+00 
  outer loop 
   vertex  0.000000000000000e+00 0.000000000000000e+00 2.000000000000000e+03 
   vertex  -1.000000000000000e+03 -2.000000000000000e+03 2.000000000000000e+03 
   vertex  1.000000000000000e+03 -2.000000000000000e+03 2.000000000000000e+03 
  endloop 
 endfacet 
 facet normal  0.000000000000000e+00 0.000000000000000e+00 1.000000000000000e+00 
  outer loop 
   vertex  0.000000000000000e+00 0.000000000000000e+00 2.000000000000000e+03 
   vertex  1.000000000000000e+03 -2.000000000000000e+03 2.000000000000000e+03 
   vertex  1.000000000000000e+03 2.000000000000000e+03 2.000000000000000e+03 
  endloop 
 endfacet 
 facet normal  -0.000000000000000e+00 0.000000000000000e+00 1.000000000000000e+00 
  outer loop 
   vertex  0.000000000000000e+00 0.000000000000000e+00 2.000000000000000e+03 
   vertex  1.000000000000000e+03 2.000000000000000e+03 2.000000000000000e+03 
   vertex  -1.000000000000000e+03 2.000000000000000e+03 2.000000000000000e+03 
  endloop 
 endfacet 
 facet normal  0.000000000000000e+00 -0.000000000000000e+00 1.000000000000000e+00 
  outer loop 
   vertex  0.000000000000000e+00 0.000000000000000e+00 2.000000000000000e+03 
   vertex  -1.000000000000000e+03 2.000000000000000e+03 2.000000000000000e+03 
   vertex  -1.000000000000000e+03 -2.000000000000000e+03 2.000000000000000e+03 
  endloop 
 endfacet 
 facet normal  0.000000000000000e+00 -1.000000000000000e+00 0.000000000000000e+00 
  outer loop 
   vertex  0.000000000000000e+00 -2.000000000000000e+03 0.000000000000000e+00 
   vertex  -1.000000000000000e+03 -2.000000000000000e+03 2.000000000000000e+03 
   vertex  -1.000000000000000e+03 -2.000000000000000e+03 -2.000000000000000e+03 
  endloop 
 endfacet 
 facet normal  -0.000000000000000e+00 -1.000000000000000e+00 0.000000000000000e+00 
  outer loop 
   vertex  0.000000000000000e+00 -2.000000000000000e+03 0.000000000000000e+00 
   vertex  -1.000000000000000e+03 -2.000000000000000e+03 -2.000000000000000e+03 
   vertex  1.000000000000000e+03 -2.000000000000000e+03 -2.000000000000000e+03 
  endloop 
 endfacet 
 facet normal  0.000000000000000e+00 -1.000000000000000e+00 -0.000000000000000e+00 
  outer loop 
   vertex  0.000000000000000e+00 -2.000000000000000e+03 0.000000000000000e+00 
   vertex  1.000000000000000e+03 -2.000000000000000e+03 -2.000000000000000e+03 
   vertex  1.000000000000000e+03 -2.000000000000000e+03 2.000000000000000e+03 
  endloop 
 endfacet 
 facet normal  0.000000000000000e+00 -1.000000000000000e+00 0.000000000000000e+00 
  outer loop 
   vertex  0.000000000000000e+00 -2.000000000000000e+03 0.000000000000000e+00 
   vertex  1.000000000000000e+03 -2.000000000000000e+03 2.000000000000000e+03 
   vertex  -1.000000000000000e+03 -2.000000000000000e+03 2.000000000000000e+03 
  endloop 
 endfacet 
 facet normal  -0.000000000000000e+00 1.000000000000000e+00 0.000000000000000e+00 
  outer loop 
   vertex  0.000000000000000e+00 2.000000000000000e+03 0.000000000000000e+00 
   vertex  1.000000000000000e+03 2.000000000000000e+03 -2.000000000000000e+03 
   vertex  -1.000000000000000e+03 2.000000000000000e+03 -2.000000000000000e+03 
  endloop 
 endfacet 
 facet normal  0.000000000000000e+00 1.000000000000000e+00 0.000000000000000e+00 
  outer loop 
   vertex  0.000000000000000e+00 2.000000000000000e+03 0.000000000000000e+00 
   vertex  -1.000000000000000e+03 2.000000000000000e+03 -2.000000000000000e+03 
   vertex  -1.000000000000000e+03 2.000000000000000e+03 2.000000000000000e+03 
  endloop 
 endfacet 
 facet normal  0.000000000000000e+00 1.000000000000000e+00 0.000000000000000e+00 
  outer loop 
   vertex  0.000000000000000e+00 2.000000000000000e+03 0.000000000000000e+00 
   vertex  -1.000000000000000e+03 2.000000000000000e+03 2.000000000000000e+03 
   vertex  1.000000000000000e+03 2.000000000000000e+03 2.000000000000000e+03 
  endloop 
 endfacet 
 facet normal  0.000000000000000e+00 1.000000000000000e+00 -0.000000000000000e+00 
  outer loop 
   vertex  0.000000000000000e+00 2.000000000000000e+03 0.000000000000000e+00 
   vertex  1.000000000000000e+03 2.000000000000000e+03 2.000000000000000e+03 
   vertex  1.000000000000000e+03 2.000000000000000e+03 -2.000000000000000e+03 
  endloop 
 endfacet 
 facet normal  -1.000000000000000e+00 0.000000000000000e+00 -0.000000000000000e+00 
  outer loop 
   vertex  -1.000000000000000e+03 0.000000000000000e+00 0.000000000000000e+00 
   vertex  -1.000000000000000e+03 -2.000000000000000e+03 -2.000000000000000e+03 
   vertex  -1.000000000000000e+03 -2.000000000000000e+03 2.000000000000000e+03 
  endloop 
 endfacet 
 facet normal  -1.000000000000000e+00 -0.000000000000000e+00 0.000000000000000e+00 
  outer loop 
   vertex  -1.000000000000000e+03 0.000000000000000e+00 0.000000000000000e+00 
   vertex  -1.000000000000000e+03 -2.000000000000000e+03 2.000000000000000e+03 
   vertex  -1.000000000000000e+03 2.000000000000000e+03 2.000000000000000e+03 
  endloop 
 endfacet 
 facet normal  -1.000000000000000e+00 0.000000000000000e+00 0.000000000000000e+00 
  outer loop 
   vertex  -1.000000000000000e+03 0.000000000000000e+00 0.000000000000000e+00 
   vertex  -1.000000000000000e+03 2.000000000000000e+03 2.000000000000000e+03 
   vertex  -1.000000000000000e+03 2.000000000000000e+03 -2.000000000000000e+03 
  endloop 
 endfacet 
 facet normal  -1.000000000000000e+00 0.000000000000000e+00 0.000000000000000e+00 
  outer loop 
   vertex  -1.000000000000000e+03 0.000000000000000e+00 0.000000000000000e+00 
   vertex  -1.000000000000000e+03 2.000000000000000e+03 -2.000000000000000e+03 
   vertex  -1.000000000000000e+03 -2.000000000000000e+03 -2.000000000000000e+03 
  endloop 
 endfacet 
 facet normal  1.000000000000000e+00 0.000000000000000e+00 0.000000000000000e+00 
  outer loop 
   vertex  1.000000000000000e+03 0.000000000000000e+00 0.000000000000000e+00 
   vertex  1.000000000000000e+03 -2.000000000000000e+03 -2.000000000000000e+03 
   vertex  1.000000000000000e+03 2.000000000000000e+03 -2.000000000000000e+03 
  endloop 
 endfacet 
 facet normal  1.000000000000000e+00 0.000000000000000e+00 0.000000000000000e+00 
  outer loop 
   vertex  1.000000000000000e+03 0.000000000000000e+00 0.000000000000000e+00 
   vertex  1.000000000000000e+03 2.000000000000000e+03 -2.000000000000000e+03 
   vertex  1.000000000000000e+03 2.000000000000000e+03 2.000000000000000e+03 
  endloop 
 endfacet 
 facet normal  1.000000000000000e+00 -0.000000000000000e+00 0.000000000000000e+00 
  outer loop 
   vertex  1.000000000000000e+03 0.000000000000000e+00 0.000000000000000e+00 
   vertex  1.000000000000000e+03 2.000000000000000e+03 2.000000000000000e+03 
   vertex  1.000000000000000e+03 -2.000000000000000e+03 2.000000000000000e+03 
  endloop 
 endfacet 
 facet normal  1.000000000000000e+00 0.000000000000000e+00 -0.000000000000000e+00 
  outer loop 
   vertex  1.000000000000000e+03 0.000000000000000e+00 0.000000000000000e+00 
   vertex  1.000000000000000e+03 -2.000000000000000e+03 2.000000000000000e+03 
   vertex  1.000000000000000e+03 -2.000000000000000e+03 -2.000000000000000e+03 
  endloop 
 endfacet 
endsolid