solid cube
 facet normal  0.000000000000000e+00 0.000000000000000e+00 -1.000000000000000e+00 
  outer loop 
   vertex  -1.956000000000000e+03 -1.956000000000000e+03 -1.956000000000000e+03 
   vertex  -1.956000000000000e+03 1.956000000000000e+03 -1.956000000000000e+03 
   vertex  1.956000000000000e+03 -1.956000000000000e+03 -1.956000000000000e+03 
  endloop 
 endfacet 
 facet normal  -0.000000000000000e+00 -0.000000000000000e+00 -1.000000000000000e+00 
  outer loop 
   vertex  1.956000000000000e+03 -1.956000000000000e+03 -1.956000000000000e+03 
   vertex  -1.956000000000000e+03 1.956000000000000e+03 -1.956000000000000e+03 
   vertex  1.956000000000000e+03 1.956000000000000e+03 -1.956000000000000e+03 
  endloop 
 endfacet 
 facet normal  -0.000000000000000e+00 0.000000000000000e+00 1.000000000000000e+00 
  outer loop 
   vertex  -1.956000000000000e+03 -1.956000000000000e+03 1.956000000000000e+03 
   vertex  1.956000000000000e+03 -1.956000000000000e+03 1.956000000000000e+03 
   vertex  -1.956000000000000e+03 1.956000000000000e+03 1.956000000000000e+03 
  endloop 
 endfacet 
 facet normal  -0.000000000000000e+00 0.000000000000000e+00 1.000000000000000e+00 
  outer loop 
   vertex  1.956000000000000e+03 -1.956000000000000e+03 1.956000000000000e+03 
   vertex  1.956000000000000e+03 1.956000000000000e+03 1.956000000000000e+03 
   vertex  -1.956000000000000e+03 1.956000000000000e+03 1.956000000000000e+03 
  endloop 
 endfacet 
 facet normal  0.000000000000000e+00 -1.000000000000000e+00 -0.000000000000000e+00 
  outer loop 
   vertex  -1.956000000000000e+03 -1.956000000000000e+03 -1.956000000000000e+03 
   vertex  1.956000000000000e+03 -1.956000000000000e+03 -1.956000000000000e+03 
   vertex  1.956000000000000e+03 -1.956000000000000e+03 1.956000000000000e+03 
  endloop 
 endfacet 
 facet normal  0.000000000000000e+00 -1.000000000000000e+00 0.000000000000000e+00 
  outer loop 
   vertex  -1.956000000000000e+03 -1.956000000000000e+03 -1.956000000000000e+03 
   vertex  1.956000000000000e+03 -1.956000000000000e+03 1.956000000000000e+03 
   vertex  -1.956000000000000e+03 -1.956000000000000e+03 1.956000000000000e+03 
  endloop 
 endfacet 
 facet normal  -1.000000000000000e+00 0.000000000000000e+00 0.000000000000000e+00 
  outer loop 
   vertex  -1.956000000000000e+03 -1.956000000000000e+03 -1.956000000000000e+03 
   vertex  -1.956000000000000e+03 1.956000000000000e+03 1.956000000000000e+03 
   vertex  -1.956000000000000e+03 1.956000000000000e+03 -1.956000000000000e+03 
  endloop 
 endfacet 
 facet normal  -1.000000000000000e+00 -0.000000000000000e+00 0.000000000000000e+00 
  outer loop 
   vertex  -1.956000000000000e+03 -1.956000000000000e+03 -1.956000000000000e+03 
   vertex  -1.956000000000000e+03 -1.956000000000000e+03 1.956000000000000e+03 
   vertex  -1.956000000000000e+03 1.956000000000000e+03 1.956000000000000e+03 
  endloop 
 endfacet 
 facet normal  0.000000000000000e+00 1.000000000000000e+00 -0.000000000000000e+00 
  outer loop 
   vertex  -1.956000000000000e+03 1.956000000000000e+03 -1.956000000000000e+03 
   vertex  -1.956000000000000e+03 1.956000000000000e+03 1.956000000000000e+03 
   vertex  1.956000000000000e+03 1.956000000000000e+03 -1.956000000000000e+03 
  endloop 
 endfacet 
 facet normal  0.000000000000000e+00 1.000000000000000e+00 -0.000000000000000e+00 
  outer loop 
   vertex  -1.956000000000000e+03 1.956000000000000e+03 1.956000000000000e+03 
   vertex  1.956000000000000e+03 1.956000000000000e+03 1.956000000000000e+03 
   vertex  1.956000000000000e+03 1.956000000000000e+03 -1.956000000000000e+03 
  endloop 
 endfacet 
 facet normal  1.000000000000000e+00 -0.000000000000000e+00 0.000000000000000e+00 
  outer loop 
   vertex  1.956000000000000e+03 -1.956000000000000e+03 -1.956000000000000e+03 
   vertex  1.956000000000000e+03 1.956000000000000e+03 -1.956000000000000e+03 
   vertex  1.956000000000000e+03 1.956000000000000e+03 1.956000000000000e+03 
  endloop 
 endfacet 
 facet normal  1.000000000000000e+00 -0.000000000000000e+00 0.000000000000000e+00 
  outer loop 
   vertex  1.956000000000000e+03 -1.956000000000000e+03 -1.956000000000000e+03 
   vertex  1.956000000000000e+03 1.956000000000000e+03 1.956000000000000e+03 
   vertex  1.956000000000000e+03 -1.956000000000000e+03 1.956000000000000e+03 
  endloop 
 endfacet 
endsolid