solid cube
 facet normal  0.000000000000000e+00 -0.000000000000000e+00 -1.000000000000000e+00 
  outer loop 
   vertex  0.000000000000000e+00 0.000000000000000e+00 0.000000000000000e+00 
   vertex  -4.347850000000000e+03 -4.347850000000000e+03 0.000000000000000e+00 
   vertex  -4.347850000000000e+03 4.347850000000000e+03 0.000000000000000e+00 
  endloop 
 endfacet 
 facet normal  0.000000000000000e+00 0.000000000000000e+00 -1.000000000000000e+00 
  outer loop 
   vertex  0.000000000000000e+00 0.000000000000000e+00 0.000000000000000e+00 
   vertex  4.347850000000000e+03 -4.347850000000000e+03 0.000000000000000e+00 
   vertex  -4.347850000000000e+03 -4.347850000000000e+03 0.000000000000000e+00 
  endloop 
 endfacet 
 facet normal  0.000000000000000e+00 0.000000000000000e+00 -1.000000000000000e+00 
  outer loop 
   vertex  0.000000000000000e+00 0.000000000000000e+00 0.000000000000000e+00 
   vertex  4.347850000000000e+03 4.347850000000000e+03 0.000000000000000e+00 
   vertex  4.347850000000000e+03 -4.347850000000000e+03 0.000000000000000e+00 
  endloop 
 endfacet 
 facet normal  -0.000000000000000e+00 0.000000000000000e+00 -1.000000000000000e+00 
  outer loop 
   vertex  0.000000000000000e+00 0.000000000000000e+00 0.000000000000000e+00 
   vertex  -4.347850000000000e+03 4.347850000000000e+03 0.000000000000000e+00 
   vertex  4.347850000000000e+03 4.347850000000000e+03 0.000000000000000e+00 
  endloop 
 endfacet 
 facet normal  0.000000000000000e+00 0.000000000000000e+00 1.000000000000000e+00 
  outer loop 
   vertex  0.000000000000000e+00 0.000000000000000e+00 2.608710000000000e+04 
   vertex  -4.347850000000000e+03 -4.347850000000000e+03 2.608710000000000e+04 
   vertex  4.347850000000000e+03 -4.347850000000000e+03 2.608710000000000e+04 
  endloop 
 endfacet 
 facet normal  0.000000000000000e+00 0.000000000000000e+00 1.000000000000000e+00 
  outer loop 
   vertex  0.000000000000000e+00 0.000000000000000e+00 2.608710000000000e+04 
   vertex  4.347850000000000e+03 -4.347850000000000e+03 2.608710000000000e+04 
   vertex  4.347850000000000e+03 4.347850000000000e+03 2.608710000000000e+04 
  endloop 
 endfacet 
 facet normal  -0.000000000000000e+00 0.000000000000000e+00 1.000000000000000e+00 
  outer loop 
   vertex  0.000000000000000e+00 0.000000000000000e+00 2.608710000000000e+04 
   vertex  4.347850000000000e+03 4.347850000000000e+03 2.608710000000000e+04 
   vertex  -4.347850000000000e+03 4.347850000000000e+03 2.608710000000000e+04 
  endloop 
 endfacet 
 facet normal  0.000000000000000e+00 -0.000000000000000e+00 1.000000000000000e+00 
  outer loop 
   vertex  0.000000000000000e+00 0.000000000000000e+00 2.608710000000000e+04 
   vertex  -4.347850000000000e+03 4.347850000000000e+03 2.608710000000000e+04 
   vertex  -4.347850000000000e+03 -4.347850000000000e+03 2.608710000000000e+04 
  endloop 
 endfacet 
 facet normal  0.000000000000000e+00 -1.000000000000000e+00 0.000000000000000e+00 
  outer loop 
   vertex  0.000000000000000e+00 -4.347850000000000e+03 1.304355000000000e+04 
   vertex  -4.347850000000000e+03 -4.347850000000000e+03 2.608710000000000e+04 
   vertex  -4.347850000000000e+03 -4.347850000000000e+03 0.000000000000000e+00 
  endloop 
 endfacet 
 facet normal  -0.000000000000000e+00 -1.000000000000000e+00 0.000000000000000e+00 
  outer loop 
   vertex  0.000000000000000e+00 -4.347850000000000e+03 1.304355000000000e+04 
   vertex  -4.347850000000000e+03 -4.347850000000000e+03 0.000000000000000e+00 
   vertex  4.347850000000000e+03 -4.347850000000000e+03 0.000000000000000e+00 
  endloop 
 endfacet 
 facet normal  0.000000000000000e+00 -1.000000000000000e+00 -0.000000000000000e+00 
  outer loop 
   vertex  0.000000000000000e+00 -4.347850000000000e+03 1.304355000000000e+04 
   vertex  4.347850000000000e+03 -4.347850000000000e+03 0.000000000000000e+00 
   vertex  4.347850000000000e+03 -4.347850000000000e+03 2.608710000000000e+04 
  endloop 
 endfacet 
 facet normal  0.000000000000000e+00 -1.000000000000000e+00 0.000000000000000e+00 
  outer loop 
   vertex  0.000000000000000e+00 -4.347850000000000e+03 1.304355000000000e+04 
   vertex  4.347850000000000e+03 -4.347850000000000e+03 2.608710000000000e+04 
   vertex  -4.347850000000000e+03 -4.347850000000000e+03 2.608710000000000e+04 
  endloop 
 endfacet 
 facet normal  -0.000000000000000e+00 1.000000000000000e+00 0.000000000000000e+00 
  outer loop 
   vertex  0.000000000000000e+00 4.347850000000000e+03 1.304355000000000e+04 
   vertex  4.347850000000000e+03 4.347850000000000e+03 0.000000000000000e+00 
   vertex  -4.347850000000000e+03 4.347850000000000e+03 0.000000000000000e+00 
  endloop 
 endfacet 
 facet normal  0.000000000000000e+00 1.000000000000000e+00 0.000000000000000e+00 
  outer loop 
   vertex  0.000000000000000e+00 4.347850000000000e+03 1.304355000000000e+04 
   vertex  -4.347850000000000e+03 4.347850000000000e+03 0.000000000000000e+00 
   vertex  -4.347850000000000e+03 4.347850000000000e+03 2.608710000000000e+04 
  endloop 
 endfacet 
 facet normal  0.000000000000000e+00 1.000000000000000e+00 0.000000000000000e+00 
  outer loop 
   vertex  0.000000000000000e+00 4.347850000000000e+03 1.304355000000000e+04 
   vertex  -4.347850000000000e+03 4.347850000000000e+03 2.608710000000000e+04 
   vertex  4.347850000000000e+03 4.347850000000000e+03 2.608710000000000e+04 
  endloop 
 endfacet 
 facet normal  0.000000000000000e+00 1.000000000000000e+00 -0.000000000000000e+00 
  outer loop 
   vertex  0.000000000000000e+00 4.347850000000000e+03 1.304355000000000e+04 
   vertex  4.347850000000000e+03 4.347850000000000e+03 2.608710000000000e+04 
   vertex  4.347850000000000e+03 4.347850000000000e+03 0.000000000000000e+00 
  endloop 
 endfacet 
 facet normal  -1.000000000000000e+00 0.000000000000000e+00 -0.000000000000000e+00 
  outer loop 
   vertex  -4.347850000000000e+03 0.000000000000000e+00 1.304355000000000e+04 
   vertex  -4.347850000000000e+03 -4.347850000000000e+03 0.000000000000000e+00 
   vertex  -4.347850000000000e+03 -4.347850000000000e+03 2.608710000000000e+04 
  endloop 
 endfacet 
 facet normal  -1.000000000000000e+00 -0.000000000000000e+00 0.000000000000000e+00 
  outer loop 
   vertex  -4.347850000000000e+03 0.000000000000000e+00 1.304355000000000e+04 
   vertex  -4.347850000000000e+03 -4.347850000000000e+03 2.608710000000000e+04 
   vertex  -4.347850000000000e+03 4.347850000000000e+03 2.608710000000000e+04 
  endloop 
 endfacet 
 facet normal  -1.000000000000000e+00 0.000000000000000e+00 0.000000000000000e+00 
  outer loop 
   vertex  -4.347850000000000e+03 0.000000000000000e+00 1.304355000000000e+04 
   vertex  -4.347850000000000e+03 4.347850000000000e+03 2.608710000000000e+04 
   vertex  -4.347850000000000e+03 4.347850000000000e+03 0.000000000000000e+00 
  endloop 
 endfacet 
 facet normal  -1.000000000000000e+00 0.000000000000000e+00 0.000000000000000e+00 
  outer loop 
   vertex  -4.347850000000000e+03 0.000000000000000e+00 1.304355000000000e+04 
   vertex  -4.347850000000000e+03 4.347850000000000e+03 0.000000000000000e+00 
   vertex  -4.347850000000000e+03 -4.347850000000000e+03 0.000000000000000e+00 
  endloop 
 endfacet 
 facet normal  1.000000000000000e+00 0.000000000000000e+00 0.000000000000000e+00 
  outer loop 
   vertex  4.347850000000000e+03 0.000000000000000e+00 1.304355000000000e+04 
   vertex  4.347850000000000e+03 -4.347850000000000e+03 0.000000000000000e+00 
   vertex  4.347850000000000e+03 4.347850000000000e+03 0.000000000000000e+00 
  endloop 
 endfacet 
 facet normal  1.000000000000000e+00 0.000000000000000e+00 0.000000000000000e+00 
  outer loop 
   vertex  4.347850000000000e+03 0.000000000000000e+00 1.304355000000000e+04 
   vertex  4.347850000000000e+03 4.347850000000000e+03 0.000000000000000e+00 
   vertex  4.347850000000000e+03 4.347850000000000e+03 2.608710000000000e+04 
  endloop 
 endfacet 
 facet normal  1.000000000000000e+00 -0.000000000000000e+00 0.000000000000000e+00 
  outer loop 
   vertex  4.347850000000000e+03 0.000000000000000e+00 1.304355000000000e+04 
   vertex  4.347850000000000e+03 4.347850000000000e+03 2.608710000000000e+04 
   vertex  4.347850000000000e+03 -4.347850000000000e+03 2.608710000000000e+04 
  endloop 
 endfacet 
 facet normal  1.000000000000000e+00 0.000000000000000e+00 -0.000000000000000e+00 
  outer loop 
   vertex  4.347850000000000e+03 0.000000000000000e+00 1.304355000000000e+04 
   vertex  4.347850000000000e+03 -4.347850000000000e+03 2.608710000000000e+04 
   vertex  4.347850000000000e+03 -4.347850000000000e+03 0.000000000000000e+00 
  endloop 
 endfacet 
endsolid