solid cylinder
 facet normal  -0.000000000000000e+00 -0.000000000000000e+00 -1.000000000000000e+00 
  outer loop 
   vertex  1.587301587301587e+02 0.000000000000000e+00 0.000000000000000e+00 
   vertex  0.000000000000000e+00 0.000000000000000e+00 0.000000000000000e+00 
   vertex  1.552615239260009e+02 3.300185568535862e+01 0.000000000000000e+00 
  endloop 
 endfacet 
 facet normal  0.000000000000000e+00 0.000000000000000e+00 1.000000000000000e+00 
  outer loop 
   vertex  1.552615239260009e+02 3.300185568535862e+01 4.761904761904762e+02 
   vertex  0.000000000000000e+00 0.000000000000000e+00 4.761904761904762e+02 
   vertex  1.587301587301587e+02 0.000000000000000e+00 4.761904761904762e+02 
  endloop 
 endfacet 
 facet normal  9.945218953682734e-01 1.045284632676533e-01 0.000000000000000e+00 
  outer loop 
   vertex  1.587301587301587e+02 0.000000000000000e+00 0.000000000000000e+00 
   vertex  1.552615239260009e+02 3.300185568535862e+01 0.000000000000000e+00 
   vertex  1.587301587301587e+02 0.000000000000000e+00 4.761904761904762e+02 
  endloop 
 endfacet 
 facet normal  9.945218953682734e-01 1.045284632676533e-01 -0.000000000000000e+00 
  outer loop 
   vertex  1.552615239260009e+02 3.300185568535862e+01 4.761904761904762e+02 
   vertex  1.587301587301587e+02 0.000000000000000e+00 4.761904761904762e+02 
   vertex  1.552615239260009e+02 3.300185568535862e+01 0.000000000000000e+00 
  endloop 
 endfacet 
 facet normal  0.000000000000000e+00 -0.000000000000000e+00 -1.000000000000000e+00 
  outer loop 
   vertex  1.552615239260009e+02 3.300185568535862e+01 0.000000000000000e+00 
   vertex  0.000000000000000e+00 0.000000000000000e+00 0.000000000000000e+00 
   vertex  1.450072154988255e+02 6.456137191679368e+01 0.000000000000000e+00 
  endloop 
 endfacet 
 facet normal  0.000000000000000e+00 0.000000000000000e+00 1.000000000000000e+00 
  outer loop 
   vertex  1.450072154988255e+02 6.456137191679368e+01 4.761904761904762e+02 
   vertex  0.000000000000000e+00 0.000000000000000e+00 4.761904761904762e+02 
   vertex  1.552615239260009e+02 3.300185568535862e+01 4.761904761904762e+02 
  endloop 
 endfacet 
 facet normal  9.510565162951534e-01 3.090169943749480e-01 0.000000000000000e+00 
  outer loop 
   vertex  1.552615239260009e+02 3.300185568535862e+01 0.000000000000000e+00 
   vertex  1.450072154988255e+02 6.456137191679368e+01 0.000000000000000e+00 
   vertex  1.552615239260009e+02 3.300185568535862e+01 4.761904761904762e+02 
  endloop 
 endfacet 
 facet normal  9.510565162951534e-01 3.090169943749480e-01 -0.000000000000000e+00 
  outer loop 
   vertex  1.450072154988255e+02 6.456137191679368e+01 4.761904761904762e+02 
   vertex  1.552615239260009e+02 3.300185568535862e+01 4.761904761904762e+02 
   vertex  1.450072154988255e+02 6.456137191679368e+01 0.000000000000000e+00 
  endloop 
 endfacet 
 facet normal  0.000000000000000e+00 -0.000000000000000e+00 -1.000000000000000e+00 
  outer loop 
   vertex  1.450072154988255e+02 6.456137191679368e+01 0.000000000000000e+00 
   vertex  0.000000000000000e+00 0.000000000000000e+00 0.000000000000000e+00 
   vertex  1.284153959325313e+02 9.329924639563066e+01 0.000000000000000e+00 
  endloop 
 endfacet 
 facet normal  0.000000000000000e+00 0.000000000000000e+00 1.000000000000000e+00 
  outer loop 
   vertex  1.284153959325313e+02 9.329924639563066e+01 4.761904761904762e+02 
   vertex  0.000000000000000e+00 0.000000000000000e+00 4.761904761904762e+02 
   vertex  1.450072154988255e+02 6.456137191679368e+01 4.761904761904762e+02 
  endloop 
 endfacet 
 facet normal  8.660254037844389e-01 4.999999999999996e-01 0.000000000000000e+00 
  outer loop 
   vertex  1.450072154988255e+02 6.456137191679368e+01 0.000000000000000e+00 
   vertex  1.284153959325313e+02 9.329924639563066e+01 0.000000000000000e+00 
   vertex  1.450072154988255e+02 6.456137191679368e+01 4.761904761904762e+02 
  endloop 
 endfacet 
 facet normal  8.660254037844389e-01 4.999999999999996e-01 -0.000000000000000e+00 
  outer loop 
   vertex  1.284153959325313e+02 9.329924639563066e+01 4.761904761904762e+02 
   vertex  1.450072154988255e+02 6.456137191679368e+01 4.761904761904762e+02 
   vertex  1.284153959325313e+02 9.329924639563066e+01 0.000000000000000e+00 
  endloop 
 endfacet 
 facet normal  0.000000000000000e+00 -0.000000000000000e+00 -1.000000000000000e+00 
  outer loop 
   vertex  1.284153959325313e+02 9.329924639563066e+01 0.000000000000000e+00 
   vertex  0.000000000000000e+00 0.000000000000000e+00 0.000000000000000e+00 
   vertex  1.062112073585489e+02 1.179594961075229e+02 0.000000000000000e+00 
  endloop 
 endfacet 
 facet normal  0.000000000000000e+00 0.000000000000000e+00 1.000000000000000e+00 
  outer loop 
   vertex  1.062112073585489e+02 1.179594961075229e+02 4.761904761904762e+02 
   vertex  0.000000000000000e+00 0.000000000000000e+00 4.761904761904762e+02 
   vertex  1.284153959325313e+02 9.329924639563066e+01 4.761904761904762e+02 
  endloop 
 endfacet 
 facet normal  7.431448254773942e-01 6.691306063588581e-01 0.000000000000000e+00 
  outer loop 
   vertex  1.284153959325313e+02 9.329924639563066e+01 0.000000000000000e+00 
   vertex  1.062112073585489e+02 1.179594961075229e+02 0.000000000000000e+00 
   vertex  1.284153959325313e+02 9.329924639563066e+01 4.761904761904762e+02 
  endloop 
 endfacet 
 facet normal  7.431448254773942e-01 6.691306063588581e-01 -0.000000000000000e+00 
  outer loop 
   vertex  1.062112073585489e+02 1.179594961075229e+02 4.761904761904762e+02 
   vertex  1.284153959325313e+02 9.329924639563066e+01 4.761904761904762e+02 
   vertex  1.062112073585489e+02 1.179594961075229e+02 0.000000000000000e+00 
  endloop 
 endfacet 
 facet normal  0.000000000000000e+00 -0.000000000000000e+00 -1.000000000000000e+00 
  outer loop 
   vertex  1.062112073585489e+02 1.179594961075229e+02 0.000000000000000e+00 
   vertex  0.000000000000000e+00 0.000000000000000e+00 0.000000000000000e+00 
   vertex  7.936507936507938e+01 1.374643498070537e+02 0.000000000000000e+00 
  endloop 
 endfacet 
 facet normal  0.000000000000000e+00 0.000000000000000e+00 1.000000000000000e+00 
  outer loop 
   vertex  7.936507936507938e+01 1.374643498070537e+02 4.761904761904762e+02 
   vertex  0.000000000000000e+00 0.000000000000000e+00 4.761904761904762e+02 
   vertex  1.062112073585489e+02 1.179594961075229e+02 4.761904761904762e+02 
  endloop 
 endfacet 
 facet normal  5.877852522924728e-01 8.090169943749476e-01 0.000000000000000e+00 
  outer loop 
   vertex  1.062112073585489e+02 1.179594961075229e+02 0.000000000000000e+00 
   vertex  7.936507936507938e+01 1.374643498070537e+02 0.000000000000000e+00 
   vertex  1.062112073585489e+02 1.179594961075229e+02 4.761904761904762e+02 
  endloop 
 endfacet 
 facet normal  5.877852522924728e-01 8.090169943749476e-01 -0.000000000000000e+00 
  outer loop 
   vertex  7.936507936507938e+01 1.374643498070537e+02 4.761904761904762e+02 
   vertex  1.062112073585489e+02 1.179594961075229e+02 4.761904761904762e+02 
   vertex  7.936507936507938e+01 1.374643498070537e+02 0.000000000000000e+00 
  endloop 
 endfacet 
 facet normal  0.000000000000000e+00 -0.000000000000000e+00 -1.000000000000000e+00 
  outer loop 
   vertex  7.936507936507938e+01 1.374643498070537e+02 0.000000000000000e+00 
   vertex  0.000000000000000e+00 0.000000000000000e+00 0.000000000000000e+00 
   vertex  4.905031656745198e+01 1.509613517928815e+02 0.000000000000000e+00 
  endloop 
 endfacet 
 facet normal  0.000000000000000e+00 0.000000000000000e+00 1.000000000000000e+00 
  outer loop 
   vertex  4.905031656745198e+01 1.509613517928815e+02 4.761904761904762e+02 
   vertex  0.000000000000000e+00 0.000000000000000e+00 4.761904761904762e+02 
   vertex  7.936507936507938e+01 1.374643498070537e+02 4.761904761904762e+02 
  endloop 
 endfacet 
 facet normal  4.067366430758004e-01 9.135454576426008e-01 0.000000000000000e+00 
  outer loop 
   vertex  7.936507936507938e+01 1.374643498070537e+02 0.000000000000000e+00 
   vertex  4.905031656745198e+01 1.509613517928815e+02 0.000000000000000e+00 
   vertex  7.936507936507938e+01 1.374643498070537e+02 4.761904761904762e+02 
  endloop 
 endfacet 
 facet normal  4.067366430758004e-01 9.135454576426008e-01 -0.000000000000000e+00 
  outer loop 
   vertex  4.905031656745198e+01 1.509613517928815e+02 4.761904761904762e+02 
   vertex  7.936507936507938e+01 1.374643498070537e+02 4.761904761904762e+02 
   vertex  4.905031656745198e+01 1.509613517928815e+02 0.000000000000000e+00 
  endloop 
 endfacet 
 facet normal  0.000000000000000e+00 -0.000000000000000e+00 -1.000000000000000e+00 
  outer loop 
   vertex  4.905031656745198e+01 1.509613517928815e+02 0.000000000000000e+00 
   vertex  0.000000000000000e+00 0.000000000000000e+00 0.000000000000000e+00 
   vertex  1.659181956629420e+01 1.578606183124244e+02 0.000000000000000e+00 
  endloop 
 endfacet 
 facet normal  0.000000000000000e+00 0.000000000000000e+00 1.000000000000000e+00 
  outer loop 
   vertex  1.659181956629420e+01 1.578606183124244e+02 4.761904761904762e+02 
   vertex  0.000000000000000e+00 0.000000000000000e+00 4.761904761904762e+02 
   vertex  4.905031656745198e+01 1.509613517928815e+02 4.761904761904762e+02 
  endloop 
 endfacet 
 facet normal  2.079116908177597e-01 9.781476007338056e-01 0.000000000000000e+00 
  outer loop 
   vertex  4.905031656745198e+01 1.509613517928815e+02 0.000000000000000e+00 
   vertex  1.659181956629420e+01 1.578606183124244e+02 0.000000000000000e+00 
   vertex  4.905031656745198e+01 1.509613517928815e+02 4.761904761904762e+02 
  endloop 
 endfacet 
 facet normal  2.079116908177597e-01 9.781476007338056e-01 -0.000000000000000e+00 
  outer loop 
   vertex  1.659181956629420e+01 1.578606183124244e+02 4.761904761904762e+02 
   vertex  4.905031656745198e+01 1.509613517928815e+02 4.761904761904762e+02 
   vertex  1.659181956629420e+01 1.578606183124244e+02 0.000000000000000e+00 
  endloop 
 endfacet 
 facet normal  0.000000000000000e+00 -0.000000000000000e+00 -1.000000000000000e+00 
  outer loop 
   vertex  1.659181956629420e+01 1.578606183124244e+02 0.000000000000000e+00 
   vertex  0.000000000000000e+00 0.000000000000000e+00 0.000000000000000e+00 
   vertex  -1.659181956629418e+01 1.578606183124244e+02 0.000000000000000e+00 
  endloop 
 endfacet 
 facet normal  0.000000000000000e+00 0.000000000000000e+00 1.000000000000000e+00 
  outer loop 
   vertex  -1.659181956629418e+01 1.578606183124244e+02 4.761904761904762e+02 
   vertex  0.000000000000000e+00 0.000000000000000e+00 4.761904761904762e+02 
   vertex  1.659181956629420e+01 1.578606183124244e+02 4.761904761904762e+02 
  endloop 
 endfacet 
 facet normal  0.000000000000000e+00 1.000000000000000e+00 0.000000000000000e+00 
  outer loop 
   vertex  1.659181956629420e+01 1.578606183124244e+02 0.000000000000000e+00 
   vertex  -1.659181956629418e+01 1.578606183124244e+02 0.000000000000000e+00 
   vertex  1.659181956629420e+01 1.578606183124244e+02 4.761904761904762e+02 
  endloop 
 endfacet 
 facet normal  0.000000000000000e+00 1.000000000000000e+00 0.000000000000000e+00 
  outer loop 
   vertex  -1.659181956629418e+01 1.578606183124244e+02 4.761904761904762e+02 
   vertex  1.659181956629420e+01 1.578606183124244e+02 4.761904761904762e+02 
   vertex  -1.659181956629418e+01 1.578606183124244e+02 0.000000000000000e+00 
  endloop 
 endfacet 
 facet normal  0.000000000000000e+00 0.000000000000000e+00 -1.000000000000000e+00 
  outer loop 
   vertex  -1.659181956629418e+01 1.578606183124244e+02 0.000000000000000e+00 
   vertex  0.000000000000000e+00 0.000000000000000e+00 0.000000000000000e+00 
   vertex  -4.905031656745196e+01 1.509613517928815e+02 0.000000000000000e+00 
  endloop 
 endfacet 
 facet normal  0.000000000000000e+00 0.000000000000000e+00 1.000000000000000e+00 
  outer loop 
   vertex  -4.905031656745196e+01 1.509613517928815e+02 4.761904761904762e+02 
   vertex  0.000000000000000e+00 0.000000000000000e+00 4.761904761904762e+02 
   vertex  -1.659181956629418e+01 1.578606183124244e+02 4.761904761904762e+02 
  endloop 
 endfacet 
 facet normal  -2.079116908177589e-01 9.781476007338058e-01 0.000000000000000e+00 
  outer loop 
   vertex  -1.659181956629418e+01 1.578606183124244e+02 0.000000000000000e+00 
   vertex  -4.905031656745196e+01 1.509613517928815e+02 0.000000000000000e+00 
   vertex  -1.659181956629418e+01 1.578606183124244e+02 4.761904761904762e+02 
  endloop 
 endfacet 
 facet normal  -2.079116908177589e-01 9.781476007338058e-01 0.000000000000000e+00 
  outer loop 
   vertex  -4.905031656745196e+01 1.509613517928815e+02 4.761904761904762e+02 
   vertex  -1.659181956629418e+01 1.578606183124244e+02 4.761904761904762e+02 
   vertex  -4.905031656745196e+01 1.509613517928815e+02 0.000000000000000e+00 
  endloop 
 endfacet 
 facet normal  0.000000000000000e+00 0.000000000000000e+00 -1.000000000000000e+00 
  outer loop 
   vertex  -4.905031656745196e+01 1.509613517928815e+02 0.000000000000000e+00 
   vertex  0.000000000000000e+00 0.000000000000000e+00 0.000000000000000e+00 
   vertex  -7.936507936507934e+01 1.374643498070538e+02 0.000000000000000e+00 
  endloop 
 endfacet 
 facet normal  0.000000000000000e+00 0.000000000000000e+00 1.000000000000000e+00 
  outer loop 
   vertex  -7.936507936507934e+01 1.374643498070538e+02 4.761904761904762e+02 
   vertex  0.000000000000000e+00 0.000000000000000e+00 4.761904761904762e+02 
   vertex  -4.905031656745196e+01 1.509613517928815e+02 4.761904761904762e+02 
  endloop 
 endfacet 
 facet normal  -4.067366430758007e-01 9.135454576426008e-01 0.000000000000000e+00 
  outer loop 
   vertex  -4.905031656745196e+01 1.509613517928815e+02 0.000000000000000e+00 
   vertex  -7.936507936507934e+01 1.374643498070538e+02 0.000000000000000e+00 
   vertex  -4.905031656745196e+01 1.509613517928815e+02 4.761904761904762e+02 
  endloop 
 endfacet 
 facet normal  -4.067366430758007e-01 9.135454576426008e-01 0.000000000000000e+00 
  outer loop 
   vertex  -7.936507936507934e+01 1.374643498070538e+02 4.761904761904762e+02 
   vertex  -4.905031656745196e+01 1.509613517928815e+02 4.761904761904762e+02 
   vertex  -7.936507936507934e+01 1.374643498070538e+02 0.000000000000000e+00 
  endloop 
 endfacet 
 facet normal  0.000000000000000e+00 0.000000000000000e+00 -1.000000000000000e+00 
  outer loop 
   vertex  -7.936507936507934e+01 1.374643498070538e+02 0.000000000000000e+00 
   vertex  0.000000000000000e+00 0.000000000000000e+00 0.000000000000000e+00 
   vertex  -1.062112073585489e+02 1.179594961075229e+02 0.000000000000000e+00 
  endloop 
 endfacet 
 facet normal  0.000000000000000e+00 0.000000000000000e+00 1.000000000000000e+00 
  outer loop 
   vertex  -1.062112073585489e+02 1.179594961075229e+02 4.761904761904762e+02 
   vertex  0.000000000000000e+00 0.000000000000000e+00 4.761904761904762e+02 
   vertex  -7.936507936507934e+01 1.374643498070538e+02 4.761904761904762e+02 
  endloop 
 endfacet 
 facet normal  -5.877852522924728e-01 8.090169943749477e-01 0.000000000000000e+00 
  outer loop 
   vertex  -7.936507936507934e+01 1.374643498070538e+02 0.000000000000000e+00 
   vertex  -1.062112073585489e+02 1.179594961075229e+02 0.000000000000000e+00 
   vertex  -7.936507936507934e+01 1.374643498070538e+02 4.761904761904762e+02 
  endloop 
 endfacet 
 facet normal  -5.877852522924728e-01 8.090169943749477e-01 0.000000000000000e+00 
  outer loop 
   vertex  -1.062112073585489e+02 1.179594961075229e+02 4.761904761904762e+02 
   vertex  -7.936507936507934e+01 1.374643498070538e+02 4.761904761904762e+02 
   vertex  -1.062112073585489e+02 1.179594961075229e+02 0.000000000000000e+00 
  endloop 
 endfacet 
 facet normal  0.000000000000000e+00 0.000000000000000e+00 -1.000000000000000e+00 
  outer loop 
   vertex  -1.062112073585489e+02 1.179594961075229e+02 0.000000000000000e+00 
   vertex  0.000000000000000e+00 0.000000000000000e+00 0.000000000000000e+00 
   vertex  -1.284153959325313e+02 9.329924639563068e+01 0.000000000000000e+00 
  endloop 
 endfacet 
 facet normal  0.000000000000000e+00 0.000000000000000e+00 1.000000000000000e+00 
  outer loop 
   vertex  -1.284153959325313e+02 9.329924639563068e+01 4.761904761904762e+02 
   vertex  0.000000000000000e+00 0.000000000000000e+00 4.761904761904762e+02 
   vertex  -1.062112073585489e+02 1.179594961075229e+02 4.761904761904762e+02 
  endloop 
 endfacet 
 facet normal  -7.431448254773938e-01 6.691306063588586e-01 0.000000000000000e+00 
  outer loop 
   vertex  -1.062112073585489e+02 1.179594961075229e+02 0.000000000000000e+00 
   vertex  -1.284153959325313e+02 9.329924639563068e+01 0.000000000000000e+00 
   vertex  -1.062112073585489e+02 1.179594961075229e+02 4.761904761904762e+02 
  endloop 
 endfacet 
 facet normal  -7.431448254773938e-01 6.691306063588586e-01 0.000000000000000e+00 
  outer loop 
   vertex  -1.284153959325313e+02 9.329924639563068e+01 4.761904761904762e+02 
   vertex  -1.062112073585489e+02 1.179594961075229e+02 4.761904761904762e+02 
   vertex  -1.284153959325313e+02 9.329924639563068e+01 0.000000000000000e+00 
  endloop 
 endfacet 
 facet normal  0.000000000000000e+00 0.000000000000000e+00 -1.000000000000000e+00 
  outer loop 
   vertex  -1.284153959325313e+02 9.329924639563068e+01 0.000000000000000e+00 
   vertex  0.000000000000000e+00 0.000000000000000e+00 0.000000000000000e+00 
   vertex  -1.450072154988256e+02 6.456137191679366e+01 0.000000000000000e+00 
  endloop 
 endfacet 
 facet normal  0.000000000000000e+00 0.000000000000000e+00 1.000000000000000e+00 
  outer loop 
   vertex  -1.450072154988256e+02 6.456137191679366e+01 4.761904761904762e+02 
   vertex  0.000000000000000e+00 0.000000000000000e+00 4.761904761904762e+02 
   vertex  -1.284153959325313e+02 9.329924639563068e+01 4.761904761904762e+02 
  endloop 
 endfacet 
 facet normal  -8.660254037844387e-01 4.999999999999999e-01 0.000000000000000e+00 
  outer loop 
   vertex  -1.284153959325313e+02 9.329924639563068e+01 0.000000000000000e+00 
   vertex  -1.450072154988256e+02 6.456137191679366e+01 0.000000000000000e+00 
   vertex  -1.284153959325313e+02 9.329924639563068e+01 4.761904761904762e+02 
  endloop 
 endfacet 
 facet normal  -8.660254037844387e-01 4.999999999999999e-01 0.000000000000000e+00 
  outer loop 
   vertex  -1.450072154988256e+02 6.456137191679366e+01 4.761904761904762e+02 
   vertex  -1.284153959325313e+02 9.329924639563068e+01 4.761904761904762e+02 
   vertex  -1.450072154988256e+02 6.456137191679366e+01 0.000000000000000e+00 
  endloop 
 endfacet 
 facet normal  0.000000000000000e+00 0.000000000000000e+00 -1.000000000000000e+00 
  outer loop 
   vertex  -1.450072154988256e+02 6.456137191679366e+01 0.000000000000000e+00 
   vertex  0.000000000000000e+00 0.000000000000000e+00 0.000000000000000e+00 
   vertex  -1.552615239260009e+02 3.300185568535862e+01 0.000000000000000e+00 
  endloop 
 endfacet 
 facet normal  0.000000000000000e+00 0.000000000000000e+00 1.000000000000000e+00 
  outer loop 
   vertex  -1.552615239260009e+02 3.300185568535862e+01 4.761904761904762e+02 
   vertex  0.000000000000000e+00 0.000000000000000e+00 4.761904761904762e+02 
   vertex  -1.450072154988256e+02 6.456137191679366e+01 4.761904761904762e+02 
  endloop 
 endfacet 
 facet normal  -9.510565162951536e-01 3.090169943749473e-01 0.000000000000000e+00 
  outer loop 
   vertex  -1.450072154988256e+02 6.456137191679366e+01 0.000000000000000e+00 
   vertex  -1.552615239260009e+02 3.300185568535862e+01 0.000000000000000e+00 
   vertex  -1.450072154988256e+02 6.456137191679366e+01 4.761904761904762e+02 
  endloop 
 endfacet 
 facet normal  -9.510565162951536e-01 3.090169943749473e-01 0.000000000000000e+00 
  outer loop 
   vertex  -1.552615239260009e+02 3.300185568535862e+01 4.761904761904762e+02 
   vertex  -1.450072154988256e+02 6.456137191679366e+01 4.761904761904762e+02 
   vertex  -1.552615239260009e+02 3.300185568535862e+01 0.000000000000000e+00 
  endloop 
 endfacet 
 facet normal  0.000000000000000e+00 0.000000000000000e+00 -1.000000000000000e+00 
  outer loop 
   vertex  -1.552615239260009e+02 3.300185568535862e+01 0.000000000000000e+00 
   vertex  0.000000000000000e+00 0.000000000000000e+00 0.000000000000000e+00 
   vertex  -1.587301587301587e+02 1.943883808170402e-14 0.000000000000000e+00 
  endloop 
 endfacet 
 facet normal  0.000000000000000e+00 0.000000000000000e+00 1.000000000000000e+00 
  outer loop 
   vertex  -1.587301587301587e+02 1.943883808170402e-14 4.761904761904762e+02 
   vertex  0.000000000000000e+00 0.000000000000000e+00 4.761904761904762e+02 
   vertex  -1.552615239260009e+02 3.300185568535862e+01 4.761904761904762e+02 
  endloop 
 endfacet 
 facet normal  -9.945218953682734e-01 1.045284632676534e-01 0.000000000000000e+00 
  outer loop 
   vertex  -1.552615239260009e+02 3.300185568535862e+01 0.000000000000000e+00 
   vertex  -1.587301587301587e+02 1.943883808170402e-14 0.000000000000000e+00 
   vertex  -1.552615239260009e+02 3.300185568535862e+01 4.761904761904762e+02 
  endloop 
 endfacet 
 facet normal  -9.945218953682734e-01 1.045284632676534e-01 0.000000000000000e+00 
  outer loop 
   vertex  -1.587301587301587e+02 1.943883808170402e-14 4.761904761904762e+02 
   vertex  -1.552615239260009e+02 3.300185568535862e+01 4.761904761904762e+02 
   vertex  -1.587301587301587e+02 1.943883808170402e-14 0.000000000000000e+00 
  endloop 
 endfacet 
 facet normal  0.000000000000000e+00 0.000000000000000e+00 -1.000000000000000e+00 
  outer loop 
   vertex  -1.587301587301587e+02 1.943883808170402e-14 0.000000000000000e+00 
   vertex  0.000000000000000e+00 0.000000000000000e+00 0.000000000000000e+00 
   vertex  -1.552615239260009e+02 -3.300185568535858e+01 0.000000000000000e+00 
  endloop 
 endfacet 
 facet normal  -0.000000000000000e+00 0.000000000000000e+00 1.000000000000000e+00 
  outer loop 
   vertex  -1.552615239260009e+02 -3.300185568535858e+01 4.761904761904762e+02 
   vertex  0.000000000000000e+00 0.000000000000000e+00 4.761904761904762e+02 
   vertex  -1.587301587301587e+02 1.943883808170402e-14 4.761904761904762e+02 
  endloop 
 endfacet 
 facet normal  -9.945218953682734e-01 -1.045284632676534e-01 -0.000000000000000e+00 
  outer loop 
   vertex  -1.587301587301587e+02 1.943883808170402e-14 0.000000000000000e+00 
   vertex  -1.552615239260009e+02 -3.300185568535858e+01 0.000000000000000e+00 
   vertex  -1.587301587301587e+02 1.943883808170402e-14 4.761904761904762e+02 
  endloop 
 endfacet 
 facet normal  -9.945218953682734e-01 -1.045284632676534e-01 0.000000000000000e+00 
  outer loop 
   vertex  -1.552615239260009e+02 -3.300185568535858e+01 4.761904761904762e+02 
   vertex  -1.587301587301587e+02 1.943883808170402e-14 4.761904761904762e+02 
   vertex  -1.552615239260009e+02 -3.300185568535858e+01 0.000000000000000e+00 
  endloop 
 endfacet 
 facet normal  0.000000000000000e+00 0.000000000000000e+00 -1.000000000000000e+00 
  outer loop 
   vertex  -1.552615239260009e+02 -3.300185568535858e+01 0.000000000000000e+00 
   vertex  0.000000000000000e+00 0.000000000000000e+00 0.000000000000000e+00 
   vertex  -1.450072154988256e+02 -6.456137191679362e+01 0.000000000000000e+00 
  endloop 
 endfacet 
 facet normal  -0.000000000000000e+00 0.000000000000000e+00 1.000000000000000e+00 
  outer loop 
   vertex  -1.450072154988256e+02 -6.456137191679362e+01 4.761904761904762e+02 
   vertex  0.000000000000000e+00 0.000000000000000e+00 4.761904761904762e+02 
   vertex  -1.552615239260009e+02 -3.300185568535858e+01 4.761904761904762e+02 
  endloop 
 endfacet 
 facet normal  -9.510565162951539e-01 -3.090169943749466e-01 -0.000000000000000e+00 
  outer loop 
   vertex  -1.552615239260009e+02 -3.300185568535858e+01 0.000000000000000e+00 
   vertex  -1.450072154988256e+02 -6.456137191679362e+01 0.000000000000000e+00 
   vertex  -1.552615239260009e+02 -3.300185568535858e+01 4.761904761904762e+02 
  endloop 
 endfacet 
 facet normal  -9.510565162951539e-01 -3.090169943749466e-01 0.000000000000000e+00 
  outer loop 
   vertex  -1.450072154988256e+02 -6.456137191679362e+01 4.761904761904762e+02 
   vertex  -1.552615239260009e+02 -3.300185568535858e+01 4.761904761904762e+02 
   vertex  -1.450072154988256e+02 -6.456137191679362e+01 0.000000000000000e+00 
  endloop 
 endfacet 
 facet normal  0.000000000000000e+00 0.000000000000000e+00 -1.000000000000000e+00 
  outer loop 
   vertex  -1.450072154988256e+02 -6.456137191679362e+01 0.000000000000000e+00 
   vertex  0.000000000000000e+00 0.000000000000000e+00 0.000000000000000e+00 
   vertex  -1.284153959325313e+02 -9.329924639563065e+01 0.000000000000000e+00 
  endloop 
 endfacet 
 facet normal  -0.000000000000000e+00 0.000000000000000e+00 1.000000000000000e+00 
  outer loop 
   vertex  -1.284153959325313e+02 -9.329924639563065e+01 4.761904761904762e+02 
   vertex  0.000000000000000e+00 0.000000000000000e+00 4.761904761904762e+02 
   vertex  -1.450072154988256e+02 -6.456137191679362e+01 4.761904761904762e+02 
  endloop 
 endfacet 
 facet normal  -8.660254037844385e-01 -5.000000000000003e-01 -0.000000000000000e+00 
  outer loop 
   vertex  -1.450072154988256e+02 -6.456137191679362e+01 0.000000000000000e+00 
   vertex  -1.284153959325313e+02 -9.329924639563065e+01 0.000000000000000e+00 
   vertex  -1.450072154988256e+02 -6.456137191679362e+01 4.761904761904762e+02 
  endloop 
 endfacet 
 facet normal  -8.660254037844385e-01 -5.000000000000003e-01 0.000000000000000e+00 
  outer loop 
   vertex  -1.284153959325313e+02 -9.329924639563065e+01 4.761904761904762e+02 
   vertex  -1.450072154988256e+02 -6.456137191679362e+01 4.761904761904762e+02 
   vertex  -1.284153959325313e+02 -9.329924639563065e+01 0.000000000000000e+00 
  endloop 
 endfacet 
 facet normal  0.000000000000000e+00 0.000000000000000e+00 -1.000000000000000e+00 
  outer loop 
   vertex  -1.284153959325313e+02 -9.329924639563065e+01 0.000000000000000e+00 
   vertex  0.000000000000000e+00 0.000000000000000e+00 0.000000000000000e+00 
   vertex  -1.062112073585490e+02 -1.179594961075229e+02 0.000000000000000e+00 
  endloop 
 endfacet 
 facet normal  -0.000000000000000e+00 0.000000000000000e+00 1.000000000000000e+00 
  outer loop 
   vertex  -1.062112073585490e+02 -1.179594961075229e+02 4.761904761904762e+02 
   vertex  0.000000000000000e+00 0.000000000000000e+00 4.761904761904762e+02 
   vertex  -1.284153959325313e+02 -9.329924639563065e+01 4.761904761904762e+02 
  endloop 
 endfacet 
 facet normal  -7.431448254773945e-01 -6.691306063588579e-01 -0.000000000000000e+00 
  outer loop 
   vertex  -1.284153959325313e+02 -9.329924639563065e+01 0.000000000000000e+00 
   vertex  -1.062112073585490e+02 -1.179594961075229e+02 0.000000000000000e+00 
   vertex  -1.284153959325313e+02 -9.329924639563065e+01 4.761904761904762e+02 
  endloop 
 endfacet 
 facet normal  -7.431448254773945e-01 -6.691306063588579e-01 0.000000000000000e+00 
  outer loop 
   vertex  -1.062112073585490e+02 -1.179594961075229e+02 4.761904761904762e+02 
   vertex  -1.284153959325313e+02 -9.329924639563065e+01 4.761904761904762e+02 
   vertex  -1.062112073585490e+02 -1.179594961075229e+02 0.000000000000000e+00 
  endloop 
 endfacet 
 facet normal  0.000000000000000e+00 0.000000000000000e+00 -1.000000000000000e+00 
  outer loop 
   vertex  -1.062112073585490e+02 -1.179594961075229e+02 0.000000000000000e+00 
   vertex  0.000000000000000e+00 0.000000000000000e+00 0.000000000000000e+00 
   vertex  -7.936507936507944e+01 -1.374643498070537e+02 0.000000000000000e+00 
  endloop 
 endfacet 
 facet normal  -0.000000000000000e+00 0.000000000000000e+00 1.000000000000000e+00 
  outer loop 
   vertex  -7.936507936507944e+01 -1.374643498070537e+02 4.761904761904762e+02 
   vertex  0.000000000000000e+00 0.000000000000000e+00 4.761904761904762e+02 
   vertex  -1.062112073585490e+02 -1.179594961075229e+02 4.761904761904762e+02 
  endloop 
 endfacet 
 facet normal  -5.877852522924738e-01 -8.090169943749469e-01 -0.000000000000000e+00 
  outer loop 
   vertex  -1.062112073585490e+02 -1.179594961075229e+02 0.000000000000000e+00 
   vertex  -7.936507936507944e+01 -1.374643498070537e+02 0.000000000000000e+00 
   vertex  -1.062112073585490e+02 -1.179594961075229e+02 4.761904761904762e+02 
  endloop 
 endfacet 
 facet normal  -5.877852522924738e-01 -8.090169943749469e-01 0.000000000000000e+00 
  outer loop 
   vertex  -7.936507936507944e+01 -1.374643498070537e+02 4.761904761904762e+02 
   vertex  -1.062112073585490e+02 -1.179594961075229e+02 4.761904761904762e+02 
   vertex  -7.936507936507944e+01 -1.374643498070537e+02 0.000000000000000e+00 
  endloop 
 endfacet 
 facet normal  0.000000000000000e+00 0.000000000000000e+00 -1.000000000000000e+00 
  outer loop 
   vertex  -7.936507936507944e+01 -1.374643498070537e+02 0.000000000000000e+00 
   vertex  0.000000000000000e+00 0.000000000000000e+00 0.000000000000000e+00 
   vertex  -4.905031656745199e+01 -1.509613517928815e+02 0.000000000000000e+00 
  endloop 
 endfacet 
 facet normal  -0.000000000000000e+00 0.000000000000000e+00 1.000000000000000e+00 
  outer loop 
   vertex  -4.905031656745199e+01 -1.509613517928815e+02 4.761904761904762e+02 
   vertex  0.000000000000000e+00 0.000000000000000e+00 4.761904761904762e+02 
   vertex  -7.936507936507944e+01 -1.374643498070537e+02 4.761904761904762e+02 
  endloop 
 endfacet 
 facet normal  -4.067366430757999e-01 -9.135454576426010e-01 -0.000000000000000e+00 
  outer loop 
   vertex  -7.936507936507944e+01 -1.374643498070537e+02 0.000000000000000e+00 
   vertex  -4.905031656745199e+01 -1.509613517928815e+02 0.000000000000000e+00 
   vertex  -7.936507936507944e+01 -1.374643498070537e+02 4.761904761904762e+02 
  endloop 
 endfacet 
 facet normal  -4.067366430757999e-01 -9.135454576426010e-01 0.000000000000000e+00 
  outer loop 
   vertex  -4.905031656745199e+01 -1.509613517928815e+02 4.761904761904762e+02 
   vertex  -7.936507936507944e+01 -1.374643498070537e+02 4.761904761904762e+02 
   vertex  -4.905031656745199e+01 -1.509613517928815e+02 0.000000000000000e+00 
  endloop 
 endfacet 
 facet normal  0.000000000000000e+00 0.000000000000000e+00 -1.000000000000000e+00 
  outer loop 
   vertex  -4.905031656745199e+01 -1.509613517928815e+02 0.000000000000000e+00 
   vertex  0.000000000000000e+00 0.000000000000000e+00 0.000000000000000e+00 
   vertex  -1.659181956629432e+01 -1.578606183124244e+02 0.000000000000000e+00 
  endloop 
 endfacet 
 facet normal  -0.000000000000000e+00 0.000000000000000e+00 1.000000000000000e+00 
  outer loop 
   vertex  -1.659181956629432e+01 -1.578606183124244e+02 4.761904761904762e+02 
   vertex  0.000000000000000e+00 0.000000000000000e+00 4.761904761904762e+02 
   vertex  -4.905031656745199e+01 -1.509613517928815e+02 4.761904761904762e+02 
  endloop 
 endfacet 
 facet normal  -2.079116908177604e-01 -9.781476007338054e-01 -0.000000000000000e+00 
  outer loop 
   vertex  -4.905031656745199e+01 -1.509613517928815e+02 0.000000000000000e+00 
   vertex  -1.659181956629432e+01 -1.578606183124244e+02 0.000000000000000e+00 
   vertex  -4.905031656745199e+01 -1.509613517928815e+02 4.761904761904762e+02 
  endloop 
 endfacet 
 facet normal  -2.079116908177604e-01 -9.781476007338054e-01 0.000000000000000e+00 
  outer loop 
   vertex  -1.659181956629432e+01 -1.578606183124244e+02 4.761904761904762e+02 
   vertex  -4.905031656745199e+01 -1.509613517928815e+02 4.761904761904762e+02 
   vertex  -1.659181956629432e+01 -1.578606183124244e+02 0.000000000000000e+00 
  endloop 
 endfacet 
 facet normal  0.000000000000000e+00 0.000000000000000e+00 -1.000000000000000e+00 
  outer loop 
   vertex  -1.659181956629432e+01 -1.578606183124244e+02 0.000000000000000e+00 
   vertex  0.000000000000000e+00 0.000000000000000e+00 0.000000000000000e+00 
   vertex  1.659181956629427e+01 -1.578606183124244e+02 0.000000000000000e+00 
  endloop 
 endfacet 
 facet normal  0.000000000000000e+00 -0.000000000000000e+00 1.000000000000000e+00 
  outer loop 
   vertex  1.659181956629427e+01 -1.578606183124244e+02 4.761904761904762e+02 
   vertex  0.000000000000000e+00 0.000000000000000e+00 4.761904761904762e+02 
   vertex  -1.659181956629432e+01 -1.578606183124244e+02 4.761904761904762e+02 
  endloop 
 endfacet 
 facet normal  0.000000000000000e+00 -1.000000000000000e+00 0.000000000000000e+00 
  outer loop 
   vertex  -1.659181956629432e+01 -1.578606183124244e+02 0.000000000000000e+00 
   vertex  1.659181956629427e+01 -1.578606183124244e+02 0.000000000000000e+00 
   vertex  -1.659181956629432e+01 -1.578606183124244e+02 4.761904761904762e+02 
  endloop 
 endfacet 
 facet normal  0.000000000000000e+00 -1.000000000000000e+00 0.000000000000000e+00 
  outer loop 
   vertex  1.659181956629427e+01 -1.578606183124244e+02 4.761904761904762e+02 
   vertex  -1.659181956629432e+01 -1.578606183124244e+02 4.761904761904762e+02 
   vertex  1.659181956629427e+01 -1.578606183124244e+02 0.000000000000000e+00 
  endloop 
 endfacet 
 facet normal  -0.000000000000000e+00 0.000000000000000e+00 -1.000000000000000e+00 
  outer loop 
   vertex  1.659181956629427e+01 -1.578606183124244e+02 0.000000000000000e+00 
   vertex  0.000000000000000e+00 0.000000000000000e+00 0.000000000000000e+00 
   vertex  4.905031656745194e+01 -1.509613517928815e+02 0.000000000000000e+00 
  endloop 
 endfacet 
 facet normal  0.000000000000000e+00 -0.000000000000000e+00 1.000000000000000e+00 
  outer loop 
   vertex  4.905031656745194e+01 -1.509613517928815e+02 4.761904761904762e+02 
   vertex  0.000000000000000e+00 0.000000000000000e+00 4.761904761904762e+02 
   vertex  1.659181956629427e+01 -1.578606183124244e+02 4.761904761904762e+02 
  endloop 
 endfacet 
 facet normal  2.079116908177595e-01 -9.781476007338056e-01 0.000000000000000e+00 
  outer loop 
   vertex  1.659181956629427e+01 -1.578606183124244e+02 0.000000000000000e+00 
   vertex  4.905031656745194e+01 -1.509613517928815e+02 0.000000000000000e+00 
   vertex  1.659181956629427e+01 -1.578606183124244e+02 4.761904761904762e+02 
  endloop 
 endfacet 
 facet normal  2.079116908177595e-01 -9.781476007338056e-01 0.000000000000000e+00 
  outer loop 
   vertex  4.905031656745194e+01 -1.509613517928815e+02 4.761904761904762e+02 
   vertex  1.659181956629427e+01 -1.578606183124244e+02 4.761904761904762e+02 
   vertex  4.905031656745194e+01 -1.509613517928815e+02 0.000000000000000e+00 
  endloop 
 endfacet 
 facet normal  -0.000000000000000e+00 0.000000000000000e+00 -1.000000000000000e+00 
  outer loop 
   vertex  4.905031656745194e+01 -1.509613517928815e+02 0.000000000000000e+00 
   vertex  0.000000000000000e+00 0.000000000000000e+00 0.000000000000000e+00 
   vertex  7.936507936507938e+01 -1.374643498070537e+02 0.000000000000000e+00 
  endloop 
 endfacet 
 facet normal  0.000000000000000e+00 -0.000000000000000e+00 1.000000000000000e+00 
  outer loop 
   vertex  7.936507936507938e+01 -1.374643498070537e+02 4.761904761904762e+02 
   vertex  0.000000000000000e+00 0.000000000000000e+00 4.761904761904762e+02 
   vertex  4.905031656745194e+01 -1.509613517928815e+02 4.761904761904762e+02 
  endloop 
 endfacet 
 facet normal  4.067366430758008e-01 -9.135454576426006e-01 0.000000000000000e+00 
  outer loop 
   vertex  4.905031656745194e+01 -1.509613517928815e+02 0.000000000000000e+00 
   vertex  7.936507936507938e+01 -1.374643498070537e+02 0.000000000000000e+00 
   vertex  4.905031656745194e+01 -1.509613517928815e+02 4.761904761904762e+02 
  endloop 
 endfacet 
 facet normal  4.067366430758008e-01 -9.135454576426006e-01 0.000000000000000e+00 
  outer loop 
   vertex  7.936507936507938e+01 -1.374643498070537e+02 4.761904761904762e+02 
   vertex  4.905031656745194e+01 -1.509613517928815e+02 4.761904761904762e+02 
   vertex  7.936507936507938e+01 -1.374643498070537e+02 0.000000000000000e+00 
  endloop 
 endfacet 
 facet normal  -0.000000000000000e+00 0.000000000000000e+00 -1.000000000000000e+00 
  outer loop 
   vertex  7.936507936507938e+01 -1.374643498070537e+02 0.000000000000000e+00 
   vertex  0.000000000000000e+00 0.000000000000000e+00 0.000000000000000e+00 
   vertex  1.062112073585490e+02 -1.179594961075229e+02 0.000000000000000e+00 
  endloop 
 endfacet 
 facet normal  0.000000000000000e+00 -0.000000000000000e+00 1.000000000000000e+00 
  outer loop 
   vertex  1.062112073585490e+02 -1.179594961075229e+02 4.761904761904762e+02 
   vertex  0.000000000000000e+00 0.000000000000000e+00 4.761904761904762e+02 
   vertex  7.936507936507938e+01 -1.374643498070537e+02 4.761904761904762e+02 
  endloop 
 endfacet 
 facet normal  5.877852522924730e-01 -8.090169943749475e-01 0.000000000000000e+00 
  outer loop 
   vertex  7.936507936507938e+01 -1.374643498070537e+02 0.000000000000000e+00 
   vertex  1.062112073585490e+02 -1.179594961075229e+02 0.000000000000000e+00 
   vertex  7.936507936507938e+01 -1.374643498070537e+02 4.761904761904762e+02 
  endloop 
 endfacet 
 facet normal  5.877852522924730e-01 -8.090169943749475e-01 0.000000000000000e+00 
  outer loop 
   vertex  1.062112073585490e+02 -1.179594961075229e+02 4.761904761904762e+02 
   vertex  7.936507936507938e+01 -1.374643498070537e+02 4.761904761904762e+02 
   vertex  1.062112073585490e+02 -1.179594961075229e+02 0.000000000000000e+00 
  endloop 
 endfacet 
 facet normal  -0.000000000000000e+00 0.000000000000000e+00 -1.000000000000000e+00 
  outer loop 
   vertex  1.062112073585490e+02 -1.179594961075229e+02 0.000000000000000e+00 
   vertex  0.000000000000000e+00 0.000000000000000e+00 0.000000000000000e+00 
   vertex  1.284153959325313e+02 -9.329924639563069e+01 0.000000000000000e+00 
  endloop 
 endfacet 
 facet normal  0.000000000000000e+00 -0.000000000000000e+00 1.000000000000000e+00 
  outer loop 
   vertex  1.284153959325313e+02 -9.329924639563069e+01 4.761904761904762e+02 
   vertex  0.000000000000000e+00 0.000000000000000e+00 4.761904761904762e+02 
   vertex  1.062112073585490e+02 -1.179594961075229e+02 4.761904761904762e+02 
  endloop 
 endfacet 
 facet normal  7.431448254773939e-01 -6.691306063588586e-01 0.000000000000000e+00 
  outer loop 
   vertex  1.062112073585490e+02 -1.179594961075229e+02 0.000000000000000e+00 
   vertex  1.284153959325313e+02 -9.329924639563069e+01 0.000000000000000e+00 
   vertex  1.062112073585490e+02 -1.179594961075229e+02 4.761904761904762e+02 
  endloop 
 endfacet 
 facet normal  7.431448254773939e-01 -6.691306063588586e-01 0.000000000000000e+00 
  outer loop 
   vertex  1.284153959325313e+02 -9.329924639563069e+01 4.761904761904762e+02 
   vertex  1.062112073585490e+02 -1.179594961075229e+02 4.761904761904762e+02 
   vertex  1.284153959325313e+02 -9.329924639563069e+01 0.000000000000000e+00 
  endloop 
 endfacet 
 facet normal  -0.000000000000000e+00 0.000000000000000e+00 -1.000000000000000e+00 
  outer loop 
   vertex  1.284153959325313e+02 -9.329924639563069e+01 0.000000000000000e+00 
   vertex  0.000000000000000e+00 0.000000000000000e+00 0.000000000000000e+00 
   vertex  1.450072154988256e+02 -6.456137191679368e+01 0.000000000000000e+00 
  endloop 
 endfacet 
 facet normal  0.000000000000000e+00 -0.000000000000000e+00 1.000000000000000e+00 
  outer loop 
   vertex  1.450072154988256e+02 -6.456137191679368e+01 4.761904761904762e+02 
   vertex  0.000000000000000e+00 0.000000000000000e+00 4.761904761904762e+02 
   vertex  1.284153959325313e+02 -9.329924639563069e+01 4.761904761904762e+02 
  endloop 
 endfacet 
 facet normal  8.660254037844387e-01 -4.999999999999999e-01 0.000000000000000e+00 
  outer loop 
   vertex  1.284153959325313e+02 -9.329924639563069e+01 0.000000000000000e+00 
   vertex  1.450072154988256e+02 -6.456137191679368e+01 0.000000000000000e+00 
   vertex  1.284153959325313e+02 -9.329924639563069e+01 4.761904761904762e+02 
  endloop 
 endfacet 
 facet normal  8.660254037844387e-01 -4.999999999999999e-01 0.000000000000000e+00 
  outer loop 
   vertex  1.450072154988256e+02 -6.456137191679368e+01 4.761904761904762e+02 
   vertex  1.284153959325313e+02 -9.329924639563069e+01 4.761904761904762e+02 
   vertex  1.450072154988256e+02 -6.456137191679368e+01 0.000000000000000e+00 
  endloop 
 endfacet 
 facet normal  -0.000000000000000e+00 0.000000000000000e+00 -1.000000000000000e+00 
  outer loop 
   vertex  1.450072154988256e+02 -6.456137191679368e+01 0.000000000000000e+00 
   vertex  0.000000000000000e+00 0.000000000000000e+00 0.000000000000000e+00 
   vertex  1.552615239260009e+02 -3.300185568535871e+01 0.000000000000000e+00 
  endloop 
 endfacet 
 facet normal  0.000000000000000e+00 -0.000000000000000e+00 1.000000000000000e+00 
  outer loop 
   vertex  1.552615239260009e+02 -3.300185568535871e+01 4.761904761904762e+02 
   vertex  0.000000000000000e+00 0.000000000000000e+00 4.761904761904762e+02 
   vertex  1.450072154988256e+02 -6.456137191679368e+01 4.761904761904762e+02 
  endloop 
 endfacet 
 facet normal  9.510565162951536e-01 -3.090169943749472e-01 0.000000000000000e+00 
  outer loop 
   vertex  1.450072154988256e+02 -6.456137191679368e+01 0.000000000000000e+00 
   vertex  1.552615239260009e+02 -3.300185568535871e+01 0.000000000000000e+00 
   vertex  1.450072154988256e+02 -6.456137191679368e+01 4.761904761904762e+02 
  endloop 
 endfacet 
 facet normal  9.510565162951536e-01 -3.090169943749472e-01 0.000000000000000e+00 
  outer loop 
   vertex  1.552615239260009e+02 -3.300185568535871e+01 4.761904761904762e+02 
   vertex  1.450072154988256e+02 -6.456137191679368e+01 4.761904761904762e+02 
   vertex  1.552615239260009e+02 -3.300185568535871e+01 0.000000000000000e+00 
  endloop 
 endfacet 
 facet normal  -0.000000000000000e+00 0.000000000000000e+00 -1.000000000000000e+00 
  outer loop 
   vertex  1.552615239260009e+02 -3.300185568535871e+01 0.000000000000000e+00 
   vertex  0.000000000000000e+00 0.000000000000000e+00 0.000000000000000e+00 
   vertex  1.587301587301587e+02 0.000000000000000e+00 0.000000000000000e+00 
  endloop 
 endfacet 
 facet normal  0.000000000000000e+00 -0.000000000000000e+00 1.000000000000000e+00 
  outer loop 
   vertex  1.587301587301587e+02 0.000000000000000e+00 4.761904761904762e+02 
   vertex  0.000000000000000e+00 0.000000000000000e+00 4.761904761904762e+02 
   vertex  1.552615239260009e+02 -3.300185568535871e+01 4.761904761904762e+02 
  endloop 
 endfacet 
 facet normal  9.945218953682733e-01 -1.045284632676539e-01 0.000000000000000e+00 
  outer loop 
   vertex  1.552615239260009e+02 -3.300185568535871e+01 0.000000000000000e+00 
   vertex  1.587301587301587e+02 0.000000000000000e+00 0.000000000000000e+00 
   vertex  1.552615239260009e+02 -3.300185568535871e+01 4.761904761904762e+02 
  endloop 
 endfacet 
 facet normal  9.945218953682733e-01 -1.045284632676539e-01 0.000000000000000e+00 
  outer loop 
   vertex  1.587301587301587e+02 0.000000000000000e+00 4.761904761904762e+02 
   vertex  1.552615239260009e+02 -3.300185568535871e+01 4.761904761904762e+02 
   vertex  1.587301587301587e+02 0.000000000000000e+00 0.000000000000000e+00 
  endloop 
 endfacet 
endsolid