solid cylinder
 facet normal  -0.000000000000000e+00 -0.000000000000000e+00 -1.000000000000000e+00 
  outer loop 
   vertex  1.587301587301587e+04 0.000000000000000e+00 0.000000000000000e+00 
   vertex  0.000000000000000e+00 0.000000000000000e+00 0.000000000000000e+00 
   vertex  1.552615239260009e+04 3.300185568535862e+03 0.000000000000000e+00 
  endloop 
 endfacet 
 facet normal  0.000000000000000e+00 0.000000000000000e+00 1.000000000000000e+00 
  outer loop 
   vertex  1.552615239260009e+04 3.300185568535862e+03 4.761904761904763e+04 
   vertex  0.000000000000000e+00 0.000000000000000e+00 4.761904761904763e+04 
   vertex  1.587301587301587e+04 0.000000000000000e+00 4.761904761904763e+04 
  endloop 
 endfacet 
 facet normal  9.945218953682733e-01 1.045284632676532e-01 0.000000000000000e+00 
  outer loop 
   vertex  1.587301587301587e+04 0.000000000000000e+00 0.000000000000000e+00 
   vertex  1.552615239260009e+04 3.300185568535862e+03 0.000000000000000e+00 
   vertex  1.587301587301587e+04 0.000000000000000e+00 4.761904761904763e+04 
  endloop 
 endfacet 
 facet normal  9.945218953682733e-01 1.045284632676532e-01 -0.000000000000000e+00 
  outer loop 
   vertex  1.552615239260009e+04 3.300185568535862e+03 4.761904761904763e+04 
   vertex  1.587301587301587e+04 0.000000000000000e+00 4.761904761904763e+04 
   vertex  1.552615239260009e+04 3.300185568535862e+03 0.000000000000000e+00 
  endloop 
 endfacet 
 facet normal  0.000000000000000e+00 -0.000000000000000e+00 -1.000000000000000e+00 
  outer loop 
   vertex  1.552615239260009e+04 3.300185568535862e+03 0.000000000000000e+00 
   vertex  0.000000000000000e+00 0.000000000000000e+00 0.000000000000000e+00 
   vertex  1.450072154988256e+04 6.456137191679368e+03 0.000000000000000e+00 
  endloop 
 endfacet 
 facet normal  0.000000000000000e+00 0.000000000000000e+00 1.000000000000000e+00 
  outer loop 
   vertex  1.450072154988256e+04 6.456137191679368e+03 4.761904761904763e+04 
   vertex  0.000000000000000e+00 0.000000000000000e+00 4.761904761904763e+04 
   vertex  1.552615239260009e+04 3.300185568535862e+03 4.761904761904763e+04 
  endloop 
 endfacet 
 facet normal  9.510565162951534e-01 3.090169943749477e-01 0.000000000000000e+00 
  outer loop 
   vertex  1.552615239260009e+04 3.300185568535862e+03 0.000000000000000e+00 
   vertex  1.450072154988256e+04 6.456137191679368e+03 0.000000000000000e+00 
   vertex  1.552615239260009e+04 3.300185568535862e+03 4.761904761904763e+04 
  endloop 
 endfacet 
 facet normal  9.510565162951534e-01 3.090169943749477e-01 -0.000000000000000e+00 
  outer loop 
   vertex  1.450072154988256e+04 6.456137191679368e+03 4.761904761904763e+04 
   vertex  1.552615239260009e+04 3.300185568535862e+03 4.761904761904763e+04 
   vertex  1.450072154988256e+04 6.456137191679368e+03 0.000000000000000e+00 
  endloop 
 endfacet 
 facet normal  0.000000000000000e+00 -0.000000000000000e+00 -1.000000000000000e+00 
  outer loop 
   vertex  1.450072154988256e+04 6.456137191679368e+03 0.000000000000000e+00 
   vertex  0.000000000000000e+00 0.000000000000000e+00 0.000000000000000e+00 
   vertex  1.284153959325314e+04 9.329924639563067e+03 0.000000000000000e+00 
  endloop 
 endfacet 
 facet normal  0.000000000000000e+00 0.000000000000000e+00 1.000000000000000e+00 
  outer loop 
   vertex  1.284153959325314e+04 9.329924639563067e+03 4.761904761904763e+04 
   vertex  0.000000000000000e+00 0.000000000000000e+00 4.761904761904763e+04 
   vertex  1.450072154988256e+04 6.456137191679368e+03 4.761904761904763e+04 
  endloop 
 endfacet 
 facet normal  8.660254037844389e-01 4.999999999999996e-01 0.000000000000000e+00 
  outer loop 
   vertex  1.450072154988256e+04 6.456137191679368e+03 0.000000000000000e+00 
   vertex  1.284153959325314e+04 9.329924639563067e+03 0.000000000000000e+00 
   vertex  1.450072154988256e+04 6.456137191679368e+03 4.761904761904763e+04 
  endloop 
 endfacet 
 facet normal  8.660254037844389e-01 4.999999999999996e-01 -0.000000000000000e+00 
  outer loop 
   vertex  1.284153959325314e+04 9.329924639563067e+03 4.761904761904763e+04 
   vertex  1.450072154988256e+04 6.456137191679368e+03 4.761904761904763e+04 
   vertex  1.284153959325314e+04 9.329924639563067e+03 0.000000000000000e+00 
  endloop 
 endfacet 
 facet normal  0.000000000000000e+00 -0.000000000000000e+00 -1.000000000000000e+00 
  outer loop 
   vertex  1.284153959325314e+04 9.329924639563067e+03 0.000000000000000e+00 
   vertex  0.000000000000000e+00 0.000000000000000e+00 0.000000000000000e+00 
   vertex  1.062112073585489e+04 1.179594961075229e+04 0.000000000000000e+00 
  endloop 
 endfacet 
 facet normal  0.000000000000000e+00 0.000000000000000e+00 1.000000000000000e+00 
  outer loop 
   vertex  1.062112073585489e+04 1.179594961075229e+04 4.761904761904763e+04 
   vertex  0.000000000000000e+00 0.000000000000000e+00 4.761904761904763e+04 
   vertex  1.284153959325314e+04 9.329924639563067e+03 4.761904761904763e+04 
  endloop 
 endfacet 
 facet normal  7.431448254773942e-01 6.691306063588583e-01 0.000000000000000e+00 
  outer loop 
   vertex  1.284153959325314e+04 9.329924639563067e+03 0.000000000000000e+00 
   vertex  1.062112073585489e+04 1.179594961075229e+04 0.000000000000000e+00 
   vertex  1.284153959325314e+04 9.329924639563067e+03 4.761904761904763e+04 
  endloop 
 endfacet 
 facet normal  7.431448254773942e-01 6.691306063588583e-01 -0.000000000000000e+00 
  outer loop 
   vertex  1.062112073585489e+04 1.179594961075229e+04 4.761904761904763e+04 
   vertex  1.284153959325314e+04 9.329924639563067e+03 4.761904761904763e+04 
   vertex  1.062112073585489e+04 1.179594961075229e+04 0.000000000000000e+00 
  endloop 
 endfacet 
 facet normal  0.000000000000000e+00 -0.000000000000000e+00 -1.000000000000000e+00 
  outer loop 
   vertex  1.062112073585489e+04 1.179594961075229e+04 0.000000000000000e+00 
   vertex  0.000000000000000e+00 0.000000000000000e+00 0.000000000000000e+00 
   vertex  7.936507936507939e+03 1.374643498070538e+04 0.000000000000000e+00 
  endloop 
 endfacet 
 facet normal  0.000000000000000e+00 0.000000000000000e+00 1.000000000000000e+00 
  outer loop 
   vertex  7.936507936507939e+03 1.374643498070538e+04 4.761904761904763e+04 
   vertex  0.000000000000000e+00 0.000000000000000e+00 4.761904761904763e+04 
   vertex  1.062112073585489e+04 1.179594961075229e+04 4.761904761904763e+04 
  endloop 
 endfacet 
 facet normal  5.877852522924732e-01 8.090169943749472e-01 0.000000000000000e+00 
  outer loop 
   vertex  1.062112073585489e+04 1.179594961075229e+04 0.000000000000000e+00 
   vertex  7.936507936507939e+03 1.374643498070538e+04 0.000000000000000e+00 
   vertex  1.062112073585489e+04 1.179594961075229e+04 4.761904761904763e+04 
  endloop 
 endfacet 
 facet normal  5.877852522924732e-01 8.090169943749472e-01 -0.000000000000000e+00 
  outer loop 
   vertex  7.936507936507939e+03 1.374643498070538e+04 4.761904761904763e+04 
   vertex  1.062112073585489e+04 1.179594961075229e+04 4.761904761904763e+04 
   vertex  7.936507936507939e+03 1.374643498070538e+04 0.000000000000000e+00 
  endloop 
 endfacet 
 facet normal  0.000000000000000e+00 -0.000000000000000e+00 -1.000000000000000e+00 
  outer loop 
   vertex  7.936507936507939e+03 1.374643498070538e+04 0.000000000000000e+00 
   vertex  0.000000000000000e+00 0.000000000000000e+00 0.000000000000000e+00 
   vertex  4.905031656745198e+03 1.509613517928815e+04 0.000000000000000e+00 
  endloop 
 endfacet 
 facet normal  0.000000000000000e+00 0.000000000000000e+00 1.000000000000000e+00 
  outer loop 
   vertex  4.905031656745198e+03 1.509613517928815e+04 4.761904761904763e+04 
   vertex  0.000000000000000e+00 0.000000000000000e+00 4.761904761904763e+04 
   vertex  7.936507936507939e+03 1.374643498070538e+04 4.761904761904763e+04 
  endloop 
 endfacet 
 facet normal  4.067366430757997e-01 9.135454576426011e-01 0.000000000000000e+00 
  outer loop 
   vertex  7.936507936507939e+03 1.374643498070538e+04 0.000000000000000e+00 
   vertex  4.905031656745198e+03 1.509613517928815e+04 0.000000000000000e+00 
   vertex  7.936507936507939e+03 1.374643498070538e+04 4.761904761904763e+04 
  endloop 
 endfacet 
 facet normal  4.067366430757997e-01 9.135454576426011e-01 -0.000000000000000e+00 
  outer loop 
   vertex  4.905031656745198e+03 1.509613517928815e+04 4.761904761904763e+04 
   vertex  7.936507936507939e+03 1.374643498070538e+04 4.761904761904763e+04 
   vertex  4.905031656745198e+03 1.509613517928815e+04 0.000000000000000e+00 
  endloop 
 endfacet 
 facet normal  0.000000000000000e+00 -0.000000000000000e+00 -1.000000000000000e+00 
  outer loop 
   vertex  4.905031656745198e+03 1.509613517928815e+04 0.000000000000000e+00 
   vertex  0.000000000000000e+00 0.000000000000000e+00 0.000000000000000e+00 
   vertex  1.659181956629420e+03 1.578606183124243e+04 0.000000000000000e+00 
  endloop 
 endfacet 
 facet normal  0.000000000000000e+00 0.000000000000000e+00 1.000000000000000e+00 
  outer loop 
   vertex  1.659181956629420e+03 1.578606183124243e+04 4.761904761904763e+04 
   vertex  0.000000000000000e+00 0.000000000000000e+00 4.761904761904763e+04 
   vertex  4.905031656745198e+03 1.509613517928815e+04 4.761904761904763e+04 
  endloop 
 endfacet 
 facet normal  2.079116908177591e-01 9.781476007338057e-01 0.000000000000000e+00 
  outer loop 
   vertex  4.905031656745198e+03 1.509613517928815e+04 0.000000000000000e+00 
   vertex  1.659181956629420e+03 1.578606183124243e+04 0.000000000000000e+00 
   vertex  4.905031656745198e+03 1.509613517928815e+04 4.761904761904763e+04 
  endloop 
 endfacet 
 facet normal  2.079116908177591e-01 9.781476007338057e-01 -0.000000000000000e+00 
  outer loop 
   vertex  1.659181956629420e+03 1.578606183124243e+04 4.761904761904763e+04 
   vertex  4.905031656745198e+03 1.509613517928815e+04 4.761904761904763e+04 
   vertex  1.659181956629420e+03 1.578606183124243e+04 0.000000000000000e+00 
  endloop 
 endfacet 
 facet normal  0.000000000000000e+00 -0.000000000000000e+00 -1.000000000000000e+00 
  outer loop 
   vertex  1.659181956629420e+03 1.578606183124243e+04 0.000000000000000e+00 
   vertex  0.000000000000000e+00 0.000000000000000e+00 0.000000000000000e+00 
   vertex  -1.659181956629418e+03 1.578606183124244e+04 0.000000000000000e+00 
  endloop 
 endfacet 
 facet normal  0.000000000000000e+00 0.000000000000000e+00 1.000000000000000e+00 
  outer loop 
   vertex  -1.659181956629418e+03 1.578606183124244e+04 4.761904761904763e+04 
   vertex  0.000000000000000e+00 0.000000000000000e+00 4.761904761904763e+04 
   vertex  1.659181956629420e+03 1.578606183124243e+04 4.761904761904763e+04 
  endloop 
 endfacet 
 facet normal  5.481585055448293e-16 1.000000000000000e+00 0.000000000000000e+00 
  outer loop 
   vertex  1.659181956629420e+03 1.578606183124243e+04 0.000000000000000e+00 
   vertex  -1.659181956629418e+03 1.578606183124244e+04 0.000000000000000e+00 
   vertex  1.659181956629420e+03 1.578606183124243e+04 4.761904761904763e+04 
  endloop 
 endfacet 
 facet normal  5.481585055448293e-16 1.000000000000000e+00 -0.000000000000000e+00 
  outer loop 
   vertex  -1.659181956629418e+03 1.578606183124244e+04 4.761904761904763e+04 
   vertex  1.659181956629420e+03 1.578606183124243e+04 4.761904761904763e+04 
   vertex  -1.659181956629418e+03 1.578606183124244e+04 0.000000000000000e+00 
  endloop 
 endfacet 
 facet normal  0.000000000000000e+00 0.000000000000000e+00 -1.000000000000000e+00 
  outer loop 
   vertex  -1.659181956629418e+03 1.578606183124244e+04 0.000000000000000e+00 
   vertex  0.000000000000000e+00 0.000000000000000e+00 0.000000000000000e+00 
   vertex  -4.905031656745196e+03 1.509613517928815e+04 0.000000000000000e+00 
  endloop 
 endfacet 
 facet normal  0.000000000000000e+00 0.000000000000000e+00 1.000000000000000e+00 
  outer loop 
   vertex  -4.905031656745196e+03 1.509613517928815e+04 4.761904761904763e+04 
   vertex  0.000000000000000e+00 0.000000000000000e+00 4.761904761904763e+04 
   vertex  -1.659181956629418e+03 1.578606183124244e+04 4.761904761904763e+04 
  endloop 
 endfacet 
 facet normal  -2.079116908177591e-01 9.781476007338057e-01 0.000000000000000e+00 
  outer loop 
   vertex  -1.659181956629418e+03 1.578606183124244e+04 0.000000000000000e+00 
   vertex  -4.905031656745196e+03 1.509613517928815e+04 0.000000000000000e+00 
   vertex  -1.659181956629418e+03 1.578606183124244e+04 4.761904761904763e+04 
  endloop 
 endfacet 
 facet normal  -2.079116908177591e-01 9.781476007338057e-01 0.000000000000000e+00 
  outer loop 
   vertex  -4.905031656745196e+03 1.509613517928815e+04 4.761904761904763e+04 
   vertex  -1.659181956629418e+03 1.578606183124244e+04 4.761904761904763e+04 
   vertex  -4.905031656745196e+03 1.509613517928815e+04 0.000000000000000e+00 
  endloop 
 endfacet 
 facet normal  0.000000000000000e+00 0.000000000000000e+00 -1.000000000000000e+00 
  outer loop 
   vertex  -4.905031656745196e+03 1.509613517928815e+04 0.000000000000000e+00 
   vertex  0.000000000000000e+00 0.000000000000000e+00 0.000000000000000e+00 
   vertex  -7.936507936507934e+03 1.374643498070538e+04 0.000000000000000e+00 
  endloop 
 endfacet 
 facet normal  0.000000000000000e+00 0.000000000000000e+00 1.000000000000000e+00 
  outer loop 
   vertex  -7.936507936507934e+03 1.374643498070538e+04 4.761904761904763e+04 
   vertex  0.000000000000000e+00 0.000000000000000e+00 4.761904761904763e+04 
   vertex  -4.905031656745196e+03 1.509613517928815e+04 4.761904761904763e+04 
  endloop 
 endfacet 
 facet normal  -4.067366430758006e-01 9.135454576426006e-01 0.000000000000000e+00 
  outer loop 
   vertex  -4.905031656745196e+03 1.509613517928815e+04 0.000000000000000e+00 
   vertex  -7.936507936507934e+03 1.374643498070538e+04 0.000000000000000e+00 
   vertex  -4.905031656745196e+03 1.509613517928815e+04 4.761904761904763e+04 
  endloop 
 endfacet 
 facet normal  -4.067366430758006e-01 9.135454576426006e-01 0.000000000000000e+00 
  outer loop 
   vertex  -7.936507936507934e+03 1.374643498070538e+04 4.761904761904763e+04 
   vertex  -4.905031656745196e+03 1.509613517928815e+04 4.761904761904763e+04 
   vertex  -7.936507936507934e+03 1.374643498070538e+04 0.000000000000000e+00 
  endloop 
 endfacet 
 facet normal  0.000000000000000e+00 0.000000000000000e+00 -1.000000000000000e+00 
  outer loop 
   vertex  -7.936507936507934e+03 1.374643498070538e+04 0.000000000000000e+00 
   vertex  0.000000000000000e+00 0.000000000000000e+00 0.000000000000000e+00 
   vertex  -1.062112073585489e+04 1.179594961075229e+04 0.000000000000000e+00 
  endloop 
 endfacet 
 facet normal  0.000000000000000e+00 0.000000000000000e+00 1.000000000000000e+00 
  outer loop 
   vertex  -1.062112073585489e+04 1.179594961075229e+04 4.761904761904763e+04 
   vertex  0.000000000000000e+00 0.000000000000000e+00 4.761904761904763e+04 
   vertex  -7.936507936507934e+03 1.374643498070538e+04 4.761904761904763e+04 
  endloop 
 endfacet 
 facet normal  -5.877852522924726e-01 8.090169943749478e-01 0.000000000000000e+00 
  outer loop 
   vertex  -7.936507936507934e+03 1.374643498070538e+04 0.000000000000000e+00 
   vertex  -1.062112073585489e+04 1.179594961075229e+04 0.000000000000000e+00 
   vertex  -7.936507936507934e+03 1.374643498070538e+04 4.761904761904763e+04 
  endloop 
 endfacet 
 facet normal  -5.877852522924726e-01 8.090169943749478e-01 0.000000000000000e+00 
  outer loop 
   vertex  -1.062112073585489e+04 1.179594961075229e+04 4.761904761904763e+04 
   vertex  -7.936507936507934e+03 1.374643498070538e+04 4.761904761904763e+04 
   vertex  -1.062112073585489e+04 1.179594961075229e+04 0.000000000000000e+00 
  endloop 
 endfacet 
 facet normal  0.000000000000000e+00 0.000000000000000e+00 -1.000000000000000e+00 
  outer loop 
   vertex  -1.062112073585489e+04 1.179594961075229e+04 0.000000000000000e+00 
   vertex  0.000000000000000e+00 0.000000000000000e+00 0.000000000000000e+00 
   vertex  -1.284153959325313e+04 9.329924639563069e+03 0.000000000000000e+00 
  endloop 
 endfacet 
 facet normal  0.000000000000000e+00 0.000000000000000e+00 1.000000000000000e+00 
  outer loop 
   vertex  -1.284153959325313e+04 9.329924639563069e+03 4.761904761904763e+04 
   vertex  0.000000000000000e+00 0.000000000000000e+00 4.761904761904763e+04 
   vertex  -1.062112073585489e+04 1.179594961075229e+04 4.761904761904763e+04 
  endloop 
 endfacet 
 facet normal  -7.431448254773938e-01 6.691306063588586e-01 0.000000000000000e+00 
  outer loop 
   vertex  -1.062112073585489e+04 1.179594961075229e+04 0.000000000000000e+00 
   vertex  -1.284153959325313e+04 9.329924639563069e+03 0.000000000000000e+00 
   vertex  -1.062112073585489e+04 1.179594961075229e+04 4.761904761904763e+04 
  endloop 
 endfacet 
 facet normal  -7.431448254773938e-01 6.691306063588586e-01 0.000000000000000e+00 
  outer loop 
   vertex  -1.284153959325313e+04 9.329924639563069e+03 4.761904761904763e+04 
   vertex  -1.062112073585489e+04 1.179594961075229e+04 4.761904761904763e+04 
   vertex  -1.284153959325313e+04 9.329924639563069e+03 0.000000000000000e+00 
  endloop 
 endfacet 
 facet normal  0.000000000000000e+00 0.000000000000000e+00 -1.000000000000000e+00 
  outer loop 
   vertex  -1.284153959325313e+04 9.329924639563069e+03 0.000000000000000e+00 
   vertex  0.000000000000000e+00 0.000000000000000e+00 0.000000000000000e+00 
   vertex  -1.450072154988256e+04 6.456137191679366e+03 0.000000000000000e+00 
  endloop 
 endfacet 
 facet normal  0.000000000000000e+00 0.000000000000000e+00 1.000000000000000e+00 
  outer loop 
   vertex  -1.450072154988256e+04 6.456137191679366e+03 4.761904761904763e+04 
   vertex  0.000000000000000e+00 0.000000000000000e+00 4.761904761904763e+04 
   vertex  -1.284153959325313e+04 9.329924639563069e+03 4.761904761904763e+04 
  endloop 
 endfacet 
 facet normal  -8.660254037844387e-01 5.000000000000000e-01 0.000000000000000e+00 
  outer loop 
   vertex  -1.284153959325313e+04 9.329924639563069e+03 0.000000000000000e+00 
   vertex  -1.450072154988256e+04 6.456137191679366e+03 0.000000000000000e+00 
   vertex  -1.284153959325313e+04 9.329924639563069e+03 4.761904761904763e+04 
  endloop 
 endfacet 
 facet normal  -8.660254037844387e-01 5.000000000000000e-01 0.000000000000000e+00 
  outer loop 
   vertex  -1.450072154988256e+04 6.456137191679366e+03 4.761904761904763e+04 
   vertex  -1.284153959325313e+04 9.329924639563069e+03 4.761904761904763e+04 
   vertex  -1.450072154988256e+04 6.456137191679366e+03 0.000000000000000e+00 
  endloop 
 endfacet 
 facet normal  0.000000000000000e+00 0.000000000000000e+00 -1.000000000000000e+00 
  outer loop 
   vertex  -1.450072154988256e+04 6.456137191679366e+03 0.000000000000000e+00 
   vertex  0.000000000000000e+00 0.000000000000000e+00 0.000000000000000e+00 
   vertex  -1.552615239260009e+04 3.300185568535862e+03 0.000000000000000e+00 
  endloop 
 endfacet 
 facet normal  0.000000000000000e+00 0.000000000000000e+00 1.000000000000000e+00 
  outer loop 
   vertex  -1.552615239260009e+04 3.300185568535862e+03 4.761904761904763e+04 
   vertex  0.000000000000000e+00 0.000000000000000e+00 4.761904761904763e+04 
   vertex  -1.450072154988256e+04 6.456137191679366e+03 4.761904761904763e+04 
  endloop 
 endfacet 
 facet normal  -9.510565162951535e-01 3.090169943749474e-01 0.000000000000000e+00 
  outer loop 
   vertex  -1.450072154988256e+04 6.456137191679366e+03 0.000000000000000e+00 
   vertex  -1.552615239260009e+04 3.300185568535862e+03 0.000000000000000e+00 
   vertex  -1.450072154988256e+04 6.456137191679366e+03 4.761904761904763e+04 
  endloop 
 endfacet 
 facet normal  -9.510565162951535e-01 3.090169943749474e-01 0.000000000000000e+00 
  outer loop 
   vertex  -1.552615239260009e+04 3.300185568535862e+03 4.761904761904763e+04 
   vertex  -1.450072154988256e+04 6.456137191679366e+03 4.761904761904763e+04 
   vertex  -1.552615239260009e+04 3.300185568535862e+03 0.000000000000000e+00 
  endloop 
 endfacet 
 facet normal  0.000000000000000e+00 0.000000000000000e+00 -1.000000000000000e+00 
  outer loop 
   vertex  -1.552615239260009e+04 3.300185568535862e+03 0.000000000000000e+00 
   vertex  0.000000000000000e+00 0.000000000000000e+00 0.000000000000000e+00 
   vertex  -1.587301587301587e+04 1.943883808170402e-12 0.000000000000000e+00 
  endloop 
 endfacet 
 facet normal  0.000000000000000e+00 0.000000000000000e+00 1.000000000000000e+00 
  outer loop 
   vertex  -1.587301587301587e+04 1.943883808170402e-12 4.761904761904763e+04 
   vertex  0.000000000000000e+00 0.000000000000000e+00 4.761904761904763e+04 
   vertex  -1.552615239260009e+04 3.300185568535862e+03 4.761904761904763e+04 
  endloop 
 endfacet 
 facet normal  -9.945218953682733e-01 1.045284632676533e-01 0.000000000000000e+00 
  outer loop 
   vertex  -1.552615239260009e+04 3.300185568535862e+03 0.000000000000000e+00 
   vertex  -1.587301587301587e+04 1.943883808170402e-12 0.000000000000000e+00 
   vertex  -1.552615239260009e+04 3.300185568535862e+03 4.761904761904763e+04 
  endloop 
 endfacet 
 facet normal  -9.945218953682733e-01 1.045284632676533e-01 0.000000000000000e+00 
  outer loop 
   vertex  -1.587301587301587e+04 1.943883808170402e-12 4.761904761904763e+04 
   vertex  -1.552615239260009e+04 3.300185568535862e+03 4.761904761904763e+04 
   vertex  -1.587301587301587e+04 1.943883808170402e-12 0.000000000000000e+00 
  endloop 
 endfacet 
 facet normal  0.000000000000000e+00 0.000000000000000e+00 -1.000000000000000e+00 
  outer loop 
   vertex  -1.587301587301587e+04 1.943883808170402e-12 0.000000000000000e+00 
   vertex  0.000000000000000e+00 0.000000000000000e+00 0.000000000000000e+00 
   vertex  -1.552615239260009e+04 -3.300185568535859e+03 0.000000000000000e+00 
  endloop 
 endfacet 
 facet normal  -0.000000000000000e+00 0.000000000000000e+00 1.000000000000000e+00 
  outer loop 
   vertex  -1.552615239260009e+04 -3.300185568535859e+03 4.761904761904763e+04 
   vertex  0.000000000000000e+00 0.000000000000000e+00 4.761904761904763e+04 
   vertex  -1.587301587301587e+04 1.943883808170402e-12 4.761904761904763e+04 
  endloop 
 endfacet 
 facet normal  -9.945218953682733e-01 -1.045284632676533e-01 -0.000000000000000e+00 
  outer loop 
   vertex  -1.587301587301587e+04 1.943883808170402e-12 0.000000000000000e+00 
   vertex  -1.552615239260009e+04 -3.300185568535859e+03 0.000000000000000e+00 
   vertex  -1.587301587301587e+04 1.943883808170402e-12 4.761904761904763e+04 
  endloop 
 endfacet 
 facet normal  -9.945218953682733e-01 -1.045284632676533e-01 0.000000000000000e+00 
  outer loop 
   vertex  -1.552615239260009e+04 -3.300185568535859e+03 4.761904761904763e+04 
   vertex  -1.587301587301587e+04 1.943883808170402e-12 4.761904761904763e+04 
   vertex  -1.552615239260009e+04 -3.300185568535859e+03 0.000000000000000e+00 
  endloop 
 endfacet 
 facet normal  0.000000000000000e+00 0.000000000000000e+00 -1.000000000000000e+00 
  outer loop 
   vertex  -1.552615239260009e+04 -3.300185568535859e+03 0.000000000000000e+00 
   vertex  0.000000000000000e+00 0.000000000000000e+00 0.000000000000000e+00 
   vertex  -1.450072154988256e+04 -6.456137191679363e+03 0.000000000000000e+00 
  endloop 
 endfacet 
 facet normal  -0.000000000000000e+00 0.000000000000000e+00 1.000000000000000e+00 
  outer loop 
   vertex  -1.450072154988256e+04 -6.456137191679363e+03 4.761904761904763e+04 
   vertex  0.000000000000000e+00 0.000000000000000e+00 4.761904761904763e+04 
   vertex  -1.552615239260009e+04 -3.300185568535859e+03 4.761904761904763e+04 
  endloop 
 endfacet 
 facet normal  -9.510565162951538e-01 -3.090169943749468e-01 -0.000000000000000e+00 
  outer loop 
   vertex  -1.552615239260009e+04 -3.300185568535859e+03 0.000000000000000e+00 
   vertex  -1.450072154988256e+04 -6.456137191679363e+03 0.000000000000000e+00 
   vertex  -1.552615239260009e+04 -3.300185568535859e+03 4.761904761904763e+04 
  endloop 
 endfacet 
 facet normal  -9.510565162951538e-01 -3.090169943749468e-01 0.000000000000000e+00 
  outer loop 
   vertex  -1.450072154988256e+04 -6.456137191679363e+03 4.761904761904763e+04 
   vertex  -1.552615239260009e+04 -3.300185568535859e+03 4.761904761904763e+04 
   vertex  -1.450072154988256e+04 -6.456137191679363e+03 0.000000000000000e+00 
  endloop 
 endfacet 
 facet normal  0.000000000000000e+00 0.000000000000000e+00 -1.000000000000000e+00 
  outer loop 
   vertex  -1.450072154988256e+04 -6.456137191679363e+03 0.000000000000000e+00 
   vertex  0.000000000000000e+00 0.000000000000000e+00 0.000000000000000e+00 
   vertex  -1.284153959325314e+04 -9.329924639563065e+03 0.000000000000000e+00 
  endloop 
 endfacet 
 facet normal  -0.000000000000000e+00 0.000000000000000e+00 1.000000000000000e+00 
  outer loop 
   vertex  -1.284153959325314e+04 -9.329924639563065e+03 4.761904761904763e+04 
   vertex  0.000000000000000e+00 0.000000000000000e+00 4.761904761904763e+04 
   vertex  -1.450072154988256e+04 -6.456137191679363e+03 4.761904761904763e+04 
  endloop 
 endfacet 
 facet normal  -8.660254037844387e-01 -5.000000000000001e-01 -0.000000000000000e+00 
  outer loop 
   vertex  -1.450072154988256e+04 -6.456137191679363e+03 0.000000000000000e+00 
   vertex  -1.284153959325314e+04 -9.329924639563065e+03 0.000000000000000e+00 
   vertex  -1.450072154988256e+04 -6.456137191679363e+03 4.761904761904763e+04 
  endloop 
 endfacet 
 facet normal  -8.660254037844387e-01 -5.000000000000001e-01 0.000000000000000e+00 
  outer loop 
   vertex  -1.284153959325314e+04 -9.329924639563065e+03 4.761904761904763e+04 
   vertex  -1.450072154988256e+04 -6.456137191679363e+03 4.761904761904763e+04 
   vertex  -1.284153959325314e+04 -9.329924639563065e+03 0.000000000000000e+00 
  endloop 
 endfacet 
 facet normal  0.000000000000000e+00 0.000000000000000e+00 -1.000000000000000e+00 
  outer loop 
   vertex  -1.284153959325314e+04 -9.329924639563065e+03 0.000000000000000e+00 
   vertex  0.000000000000000e+00 0.000000000000000e+00 0.000000000000000e+00 
   vertex  -1.062112073585490e+04 -1.179594961075229e+04 0.000000000000000e+00 
  endloop 
 endfacet 
 facet normal  -0.000000000000000e+00 0.000000000000000e+00 1.000000000000000e+00 
  outer loop 
   vertex  -1.062112073585490e+04 -1.179594961075229e+04 4.761904761904763e+04 
   vertex  0.000000000000000e+00 0.000000000000000e+00 4.761904761904763e+04 
   vertex  -1.284153959325314e+04 -9.329924639563065e+03 4.761904761904763e+04 
  endloop 
 endfacet 
 facet normal  -7.431448254773942e-01 -6.691306063588582e-01 -0.000000000000000e+00 
  outer loop 
   vertex  -1.284153959325314e+04 -9.329924639563065e+03 0.000000000000000e+00 
   vertex  -1.062112073585490e+04 -1.179594961075229e+04 0.000000000000000e+00 
   vertex  -1.284153959325314e+04 -9.329924639563065e+03 4.761904761904763e+04 
  endloop 
 endfacet 
 facet normal  -7.431448254773942e-01 -6.691306063588582e-01 0.000000000000000e+00 
  outer loop 
   vertex  -1.062112073585490e+04 -1.179594961075229e+04 4.761904761904763e+04 
   vertex  -1.284153959325314e+04 -9.329924639563065e+03 4.761904761904763e+04 
   vertex  -1.062112073585490e+04 -1.179594961075229e+04 0.000000000000000e+00 
  endloop 
 endfacet 
 facet normal  0.000000000000000e+00 0.000000000000000e+00 -1.000000000000000e+00 
  outer loop 
   vertex  -1.062112073585490e+04 -1.179594961075229e+04 0.000000000000000e+00 
   vertex  0.000000000000000e+00 0.000000000000000e+00 0.000000000000000e+00 
   vertex  -7.936507936507945e+03 -1.374643498070537e+04 0.000000000000000e+00 
  endloop 
 endfacet 
 facet normal  -0.000000000000000e+00 0.000000000000000e+00 1.000000000000000e+00 
  outer loop 
   vertex  -7.936507936507945e+03 -1.374643498070537e+04 4.761904761904763e+04 
   vertex  0.000000000000000e+00 0.000000000000000e+00 4.761904761904763e+04 
   vertex  -1.062112073585490e+04 -1.179594961075229e+04 4.761904761904763e+04 
  endloop 
 endfacet 
 facet normal  -5.877852522924742e-01 -8.090169943749467e-01 -0.000000000000000e+00 
  outer loop 
   vertex  -1.062112073585490e+04 -1.179594961075229e+04 0.000000000000000e+00 
   vertex  -7.936507936507945e+03 -1.374643498070537e+04 0.000000000000000e+00 
   vertex  -1.062112073585490e+04 -1.179594961075229e+04 4.761904761904763e+04 
  endloop 
 endfacet 
 facet normal  -5.877852522924742e-01 -8.090169943749467e-01 0.000000000000000e+00 
  outer loop 
   vertex  -7.936507936507945e+03 -1.374643498070537e+04 4.761904761904763e+04 
   vertex  -1.062112073585490e+04 -1.179594961075229e+04 4.761904761904763e+04 
   vertex  -7.936507936507945e+03 -1.374643498070537e+04 0.000000000000000e+00 
  endloop 
 endfacet 
 facet normal  0.000000000000000e+00 0.000000000000000e+00 -1.000000000000000e+00 
  outer loop 
   vertex  -7.936507936507945e+03 -1.374643498070537e+04 0.000000000000000e+00 
   vertex  0.000000000000000e+00 0.000000000000000e+00 0.000000000000000e+00 
   vertex  -4.905031656745200e+03 -1.509613517928815e+04 0.000000000000000e+00 
  endloop 
 endfacet 
 facet normal  -0.000000000000000e+00 0.000000000000000e+00 1.000000000000000e+00 
  outer loop 
   vertex  -4.905031656745200e+03 -1.509613517928815e+04 4.761904761904763e+04 
   vertex  0.000000000000000e+00 0.000000000000000e+00 4.761904761904763e+04 
   vertex  -7.936507936507945e+03 -1.374643498070537e+04 4.761904761904763e+04 
  endloop 
 endfacet 
 facet normal  -4.067366430757998e-01 -9.135454576426010e-01 -0.000000000000000e+00 
  outer loop 
   vertex  -7.936507936507945e+03 -1.374643498070537e+04 0.000000000000000e+00 
   vertex  -4.905031656745200e+03 -1.509613517928815e+04 0.000000000000000e+00 
   vertex  -7.936507936507945e+03 -1.374643498070537e+04 4.761904761904763e+04 
  endloop 
 endfacet 
 facet normal  -4.067366430757998e-01 -9.135454576426010e-01 0.000000000000000e+00 
  outer loop 
   vertex  -4.905031656745200e+03 -1.509613517928815e+04 4.761904761904763e+04 
   vertex  -7.936507936507945e+03 -1.374643498070537e+04 4.761904761904763e+04 
   vertex  -4.905031656745200e+03 -1.509613517928815e+04 0.000000000000000e+00 
  endloop 
 endfacet 
 facet normal  0.000000000000000e+00 0.000000000000000e+00 -1.000000000000000e+00 
  outer loop 
   vertex  -4.905031656745200e+03 -1.509613517928815e+04 0.000000000000000e+00 
   vertex  0.000000000000000e+00 0.000000000000000e+00 0.000000000000000e+00 
   vertex  -1.659181956629433e+03 -1.578606183124243e+04 0.000000000000000e+00 
  endloop 
 endfacet 
 facet normal  -0.000000000000000e+00 0.000000000000000e+00 1.000000000000000e+00 
  outer loop 
   vertex  -1.659181956629433e+03 -1.578606183124243e+04 4.761904761904763e+04 
   vertex  0.000000000000000e+00 0.000000000000000e+00 4.761904761904763e+04 
   vertex  -4.905031656745200e+03 -1.509613517928815e+04 4.761904761904763e+04 
  endloop 
 endfacet 
 facet normal  -2.079116908177598e-01 -9.781476007338055e-01 -0.000000000000000e+00 
  outer loop 
   vertex  -4.905031656745200e+03 -1.509613517928815e+04 0.000000000000000e+00 
   vertex  -1.659181956629433e+03 -1.578606183124243e+04 0.000000000000000e+00 
   vertex  -4.905031656745200e+03 -1.509613517928815e+04 4.761904761904763e+04 
  endloop 
 endfacet 
 facet normal  -2.079116908177598e-01 -9.781476007338055e-01 0.000000000000000e+00 
  outer loop 
   vertex  -1.659181956629433e+03 -1.578606183124243e+04 4.761904761904763e+04 
   vertex  -4.905031656745200e+03 -1.509613517928815e+04 4.761904761904763e+04 
   vertex  -1.659181956629433e+03 -1.578606183124243e+04 0.000000000000000e+00 
  endloop 
 endfacet 
 facet normal  0.000000000000000e+00 0.000000000000000e+00 -1.000000000000000e+00 
  outer loop 
   vertex  -1.659181956629433e+03 -1.578606183124243e+04 0.000000000000000e+00 
   vertex  0.000000000000000e+00 0.000000000000000e+00 0.000000000000000e+00 
   vertex  1.659181956629427e+03 -1.578606183124243e+04 0.000000000000000e+00 
  endloop 
 endfacet 
 facet normal  0.000000000000000e+00 -0.000000000000000e+00 1.000000000000000e+00 
  outer loop 
   vertex  1.659181956629427e+03 -1.578606183124243e+04 4.761904761904763e+04 
   vertex  0.000000000000000e+00 0.000000000000000e+00 4.761904761904763e+04 
   vertex  -1.659181956629433e+03 -1.578606183124243e+04 4.761904761904763e+04 
  endloop 
 endfacet 
 facet normal  0.000000000000000e+00 -1.000000000000000e+00 0.000000000000000e+00 
  outer loop 
   vertex  -1.659181956629433e+03 -1.578606183124243e+04 0.000000000000000e+00 
   vertex  1.659181956629427e+03 -1.578606183124243e+04 0.000000000000000e+00 
   vertex  -1.659181956629433e+03 -1.578606183124243e+04 4.761904761904763e+04 
  endloop 
 endfacet 
 facet normal  0.000000000000000e+00 -1.000000000000000e+00 0.000000000000000e+00 
  outer loop 
   vertex  1.659181956629427e+03 -1.578606183124243e+04 4.761904761904763e+04 
   vertex  -1.659181956629433e+03 -1.578606183124243e+04 4.761904761904763e+04 
   vertex  1.659181956629427e+03 -1.578606183124243e+04 0.000000000000000e+00 
  endloop 
 endfacet 
 facet normal  -0.000000000000000e+00 0.000000000000000e+00 -1.000000000000000e+00 
  outer loop 
   vertex  1.659181956629427e+03 -1.578606183124243e+04 0.000000000000000e+00 
   vertex  0.000000000000000e+00 0.000000000000000e+00 0.000000000000000e+00 
   vertex  4.905031656745195e+03 -1.509613517928815e+04 0.000000000000000e+00 
  endloop 
 endfacet 
 facet normal  0.000000000000000e+00 -0.000000000000000e+00 1.000000000000000e+00 
  outer loop 
   vertex  4.905031656745195e+03 -1.509613517928815e+04 4.761904761904763e+04 
   vertex  0.000000000000000e+00 0.000000000000000e+00 4.761904761904763e+04 
   vertex  1.659181956629427e+03 -1.578606183124243e+04 4.761904761904763e+04 
  endloop 
 endfacet 
 facet normal  2.079116908177593e-01 -9.781476007338057e-01 0.000000000000000e+00 
  outer loop 
   vertex  1.659181956629427e+03 -1.578606183124243e+04 0.000000000000000e+00 
   vertex  4.905031656745195e+03 -1.509613517928815e+04 0.000000000000000e+00 
   vertex  1.659181956629427e+03 -1.578606183124243e+04 4.761904761904763e+04 
  endloop 
 endfacet 
 facet normal  2.079116908177593e-01 -9.781476007338057e-01 0.000000000000000e+00 
  outer loop 
   vertex  4.905031656745195e+03 -1.509613517928815e+04 4.761904761904763e+04 
   vertex  1.659181956629427e+03 -1.578606183124243e+04 4.761904761904763e+04 
   vertex  4.905031656745195e+03 -1.509613517928815e+04 0.000000000000000e+00 
  endloop 
 endfacet 
 facet normal  -0.000000000000000e+00 0.000000000000000e+00 -1.000000000000000e+00 
  outer loop 
   vertex  4.905031656745195e+03 -1.509613517928815e+04 0.000000000000000e+00 
   vertex  0.000000000000000e+00 0.000000000000000e+00 0.000000000000000e+00 
   vertex  7.936507936507939e+03 -1.374643498070538e+04 0.000000000000000e+00 
  endloop 
 endfacet 
 facet normal  0.000000000000000e+00 -0.000000000000000e+00 1.000000000000000e+00 
  outer loop 
   vertex  7.936507936507939e+03 -1.374643498070538e+04 4.761904761904763e+04 
   vertex  0.000000000000000e+00 0.000000000000000e+00 4.761904761904763e+04 
   vertex  4.905031656745195e+03 -1.509613517928815e+04 4.761904761904763e+04 
  endloop 
 endfacet 
 facet normal  4.067366430757998e-01 -9.135454576426010e-01 0.000000000000000e+00 
  outer loop 
   vertex  4.905031656745195e+03 -1.509613517928815e+04 0.000000000000000e+00 
   vertex  7.936507936507939e+03 -1.374643498070538e+04 0.000000000000000e+00 
   vertex  4.905031656745195e+03 -1.509613517928815e+04 4.761904761904763e+04 
  endloop 
 endfacet 
 facet normal  4.067366430757998e-01 -9.135454576426010e-01 0.000000000000000e+00 
  outer loop 
   vertex  7.936507936507939e+03 -1.374643498070538e+04 4.761904761904763e+04 
   vertex  4.905031656745195e+03 -1.509613517928815e+04 4.761904761904763e+04 
   vertex  7.936507936507939e+03 -1.374643498070538e+04 0.000000000000000e+00 
  endloop 
 endfacet 
 facet normal  -0.000000000000000e+00 0.000000000000000e+00 -1.000000000000000e+00 
  outer loop 
   vertex  7.936507936507939e+03 -1.374643498070538e+04 0.000000000000000e+00 
   vertex  0.000000000000000e+00 0.000000000000000e+00 0.000000000000000e+00 
   vertex  1.062112073585490e+04 -1.179594961075229e+04 0.000000000000000e+00 
  endloop 
 endfacet 
 facet normal  0.000000000000000e+00 -0.000000000000000e+00 1.000000000000000e+00 
  outer loop 
   vertex  1.062112073585490e+04 -1.179594961075229e+04 4.761904761904763e+04 
   vertex  0.000000000000000e+00 0.000000000000000e+00 4.761904761904763e+04 
   vertex  7.936507936507939e+03 -1.374643498070538e+04 4.761904761904763e+04 
  endloop 
 endfacet 
 facet normal  5.877852522924739e-01 -8.090169943749469e-01 0.000000000000000e+00 
  outer loop 
   vertex  7.936507936507939e+03 -1.374643498070538e+04 0.000000000000000e+00 
   vertex  1.062112073585490e+04 -1.179594961075229e+04 0.000000000000000e+00 
   vertex  7.936507936507939e+03 -1.374643498070538e+04 4.761904761904763e+04 
  endloop 
 endfacet 
 facet normal  5.877852522924739e-01 -8.090169943749469e-01 0.000000000000000e+00 
  outer loop 
   vertex  1.062112073585490e+04 -1.179594961075229e+04 4.761904761904763e+04 
   vertex  7.936507936507939e+03 -1.374643498070538e+04 4.761904761904763e+04 
   vertex  1.062112073585490e+04 -1.179594961075229e+04 0.000000000000000e+00 
  endloop 
 endfacet 
 facet normal  -0.000000000000000e+00 0.000000000000000e+00 -1.000000000000000e+00 
  outer loop 
   vertex  1.062112073585490e+04 -1.179594961075229e+04 0.000000000000000e+00 
   vertex  0.000000000000000e+00 0.000000000000000e+00 0.000000000000000e+00 
   vertex  1.284153959325313e+04 -9.329924639563071e+03 0.000000000000000e+00 
  endloop 
 endfacet 
 facet normal  0.000000000000000e+00 -0.000000000000000e+00 1.000000000000000e+00 
  outer loop 
   vertex  1.284153959325313e+04 -9.329924639563071e+03 4.761904761904763e+04 
   vertex  0.000000000000000e+00 0.000000000000000e+00 4.761904761904763e+04 
   vertex  1.062112073585490e+04 -1.179594961075229e+04 4.761904761904763e+04 
  endloop 
 endfacet 
 facet normal  7.431448254773937e-01 -6.691306063588587e-01 0.000000000000000e+00 
  outer loop 
   vertex  1.062112073585490e+04 -1.179594961075229e+04 0.000000000000000e+00 
   vertex  1.284153959325313e+04 -9.329924639563071e+03 0.000000000000000e+00 
   vertex  1.062112073585490e+04 -1.179594961075229e+04 4.761904761904763e+04 
  endloop 
 endfacet 
 facet normal  7.431448254773937e-01 -6.691306063588587e-01 0.000000000000000e+00 
  outer loop 
   vertex  1.284153959325313e+04 -9.329924639563071e+03 4.761904761904763e+04 
   vertex  1.062112073585490e+04 -1.179594961075229e+04 4.761904761904763e+04 
   vertex  1.284153959325313e+04 -9.329924639563071e+03 0.000000000000000e+00 
  endloop 
 endfacet 
 facet normal  -0.000000000000000e+00 0.000000000000000e+00 -1.000000000000000e+00 
  outer loop 
   vertex  1.284153959325313e+04 -9.329924639563071e+03 0.000000000000000e+00 
   vertex  0.000000000000000e+00 0.000000000000000e+00 0.000000000000000e+00 
   vertex  1.450072154988256e+04 -6.456137191679368e+03 0.000000000000000e+00 
  endloop 
 endfacet 
 facet normal  0.000000000000000e+00 -0.000000000000000e+00 1.000000000000000e+00 
  outer loop 
   vertex  1.450072154988256e+04 -6.456137191679368e+03 4.761904761904763e+04 
   vertex  0.000000000000000e+00 0.000000000000000e+00 4.761904761904763e+04 
   vertex  1.284153959325313e+04 -9.329924639563071e+03 4.761904761904763e+04 
  endloop 
 endfacet 
 facet normal  8.660254037844387e-01 -5.000000000000000e-01 0.000000000000000e+00 
  outer loop 
   vertex  1.284153959325313e+04 -9.329924639563071e+03 0.000000000000000e+00 
   vertex  1.450072154988256e+04 -6.456137191679368e+03 0.000000000000000e+00 
   vertex  1.284153959325313e+04 -9.329924639563071e+03 4.761904761904763e+04 
  endloop 
 endfacet 
 facet normal  8.660254037844387e-01 -5.000000000000000e-01 0.000000000000000e+00 
  outer loop 
   vertex  1.450072154988256e+04 -6.456137191679368e+03 4.761904761904763e+04 
   vertex  1.284153959325313e+04 -9.329924639563071e+03 4.761904761904763e+04 
   vertex  1.450072154988256e+04 -6.456137191679368e+03 0.000000000000000e+00 
  endloop 
 endfacet 
 facet normal  -0.000000000000000e+00 0.000000000000000e+00 -1.000000000000000e+00 
  outer loop 
   vertex  1.450072154988256e+04 -6.456137191679368e+03 0.000000000000000e+00 
   vertex  0.000000000000000e+00 0.000000000000000e+00 0.000000000000000e+00 
   vertex  1.552615239260009e+04 -3.300185568535871e+03 0.000000000000000e+00 
  endloop 
 endfacet 
 facet normal  0.000000000000000e+00 -0.000000000000000e+00 1.000000000000000e+00 
  outer loop 
   vertex  1.552615239260009e+04 -3.300185568535871e+03 4.761904761904763e+04 
   vertex  0.000000000000000e+00 0.000000000000000e+00 4.761904761904763e+04 
   vertex  1.450072154988256e+04 -6.456137191679368e+03 4.761904761904763e+04 
  endloop 
 endfacet 
 facet normal  9.510565162951536e-01 -3.090169943749475e-01 0.000000000000000e+00 
  outer loop 
   vertex  1.450072154988256e+04 -6.456137191679368e+03 0.000000000000000e+00 
   vertex  1.552615239260009e+04 -3.300185568535871e+03 0.000000000000000e+00 
   vertex  1.450072154988256e+04 -6.456137191679368e+03 4.761904761904763e+04 
  endloop 
 endfacet 
 facet normal  9.510565162951536e-01 -3.090169943749475e-01 0.000000000000000e+00 
  outer loop 
   vertex  1.552615239260009e+04 -3.300185568535871e+03 4.761904761904763e+04 
   vertex  1.450072154988256e+04 -6.456137191679368e+03 4.761904761904763e+04 
   vertex  1.552615239260009e+04 -3.300185568535871e+03 0.000000000000000e+00 
  endloop 
 endfacet 
 facet normal  -0.000000000000000e+00 0.000000000000000e+00 -1.000000000000000e+00 
  outer loop 
   vertex  1.552615239260009e+04 -3.300185568535871e+03 0.000000000000000e+00 
   vertex  0.000000000000000e+00 0.000000000000000e+00 0.000000000000000e+00 
   vertex  1.587301587301587e+04 0.000000000000000e+00 0.000000000000000e+00 
  endloop 
 endfacet 
 facet normal  0.000000000000000e+00 -0.000000000000000e+00 1.000000000000000e+00 
  outer loop 
   vertex  1.587301587301587e+04 0.000000000000000e+00 4.761904761904763e+04 
   vertex  0.000000000000000e+00 0.000000000000000e+00 4.761904761904763e+04 
   vertex  1.552615239260009e+04 -3.300185568535871e+03 4.761904761904763e+04 
  endloop 
 endfacet 
 facet normal  9.945218953682733e-01 -1.045284632676535e-01 0.000000000000000e+00 
  outer loop 
   vertex  1.552615239260009e+04 -3.300185568535871e+03 0.000000000000000e+00 
   vertex  1.587301587301587e+04 0.000000000000000e+00 0.000000000000000e+00 
   vertex  1.552615239260009e+04 -3.300185568535871e+03 4.761904761904763e+04 
  endloop 
 endfacet 
 facet normal  9.945218953682733e-01 -1.045284632676535e-01 0.000000000000000e+00 
  outer loop 
   vertex  1.587301587301587e+04 0.000000000000000e+00 4.761904761904763e+04 
   vertex  1.552615239260009e+04 -3.300185568535871e+03 4.761904761904763e+04 
   vertex  1.587301587301587e+04 0.000000000000000e+00 0.000000000000000e+00 
  endloop 
 endfacet 
endsolid