solid cylinder
 facet normal  -0.000000000000000e+00 -0.000000000000000e+00 -1.000000000000000e+00 
  outer loop 
   vertex  8.768853034023150e+02 0.000000000000000e+00 0.000000000000000e+00 
   vertex  0.000000000000000e+00 0.000000000000000e+00 0.000000000000000e+00 
   vertex  8.577232556417097e+02 1.823147060836192e+02 0.000000000000000e+00 
  endloop 
 endfacet 
 facet normal  0.000000000000000e+00 0.000000000000000e+00 1.000000000000000e+00 
  outer loop 
   vertex  8.577232556417097e+02 1.823147060836192e+02 3.507541213609260e+03 
   vertex  0.000000000000000e+00 0.000000000000000e+00 3.507541213609260e+03 
   vertex  8.768853034023150e+02 0.000000000000000e+00 3.507541213609260e+03 
  endloop 
 endfacet 
 facet normal  9.945218953682734e-01 1.045284632676533e-01 0.000000000000000e+00 
  outer loop 
   vertex  8.768853034023150e+02 0.000000000000000e+00 0.000000000000000e+00 
   vertex  8.577232556417097e+02 1.823147060836192e+02 0.000000000000000e+00 
   vertex  8.768853034023150e+02 0.000000000000000e+00 3.507541213609260e+03 
  endloop 
 endfacet 
 facet normal  9.945218953682734e-01 1.045284632676533e-01 -0.000000000000000e+00 
  outer loop 
   vertex  8.577232556417097e+02 1.823147060836192e+02 3.507541213609260e+03 
   vertex  8.768853034023150e+02 0.000000000000000e+00 3.507541213609260e+03 
   vertex  8.577232556417097e+02 1.823147060836192e+02 0.000000000000000e+00 
  endloop 
 endfacet 
 facet normal  0.000000000000000e+00 -0.000000000000000e+00 -1.000000000000000e+00 
  outer loop 
   vertex  8.577232556417097e+02 1.823147060836192e+02 0.000000000000000e+00 
   vertex  0.000000000000000e+00 0.000000000000000e+00 0.000000000000000e+00 
   vertex  8.010745857967388e+02 3.566613846683621e+02 0.000000000000000e+00 
  endloop 
 endfacet 
 facet normal  0.000000000000000e+00 0.000000000000000e+00 1.000000000000000e+00 
  outer loop 
   vertex  8.010745857967388e+02 3.566613846683621e+02 3.507541213609260e+03 
   vertex  0.000000000000000e+00 0.000000000000000e+00 3.507541213609260e+03 
   vertex  8.577232556417097e+02 1.823147060836192e+02 3.507541213609260e+03 
  endloop 
 endfacet 
 facet normal  9.510565162951535e-01 3.090169943749477e-01 0.000000000000000e+00 
  outer loop 
   vertex  8.577232556417097e+02 1.823147060836192e+02 0.000000000000000e+00 
   vertex  8.010745857967388e+02 3.566613846683621e+02 0.000000000000000e+00 
   vertex  8.577232556417097e+02 1.823147060836192e+02 3.507541213609260e+03 
  endloop 
 endfacet 
 facet normal  9.510565162951535e-01 3.090169943749477e-01 -0.000000000000000e+00 
  outer loop 
   vertex  8.010745857967388e+02 3.566613846683621e+02 3.507541213609260e+03 
   vertex  8.577232556417097e+02 1.823147060836192e+02 3.507541213609260e+03 
   vertex  8.010745857967388e+02 3.566613846683621e+02 0.000000000000000e+00 
  endloop 
 endfacet 
 facet normal  0.000000000000000e+00 -0.000000000000000e+00 -1.000000000000000e+00 
  outer loop 
   vertex  8.010745857967388e+02 3.566613846683621e+02 0.000000000000000e+00 
   vertex  0.000000000000000e+00 0.000000000000000e+00 0.000000000000000e+00 
   vertex  7.094151125701047e+02 5.154202492918915e+02 0.000000000000000e+00 
  endloop 
 endfacet 
 facet normal  0.000000000000000e+00 0.000000000000000e+00 1.000000000000000e+00 
  outer loop 
   vertex  7.094151125701047e+02 5.154202492918915e+02 3.507541213609260e+03 
   vertex  0.000000000000000e+00 0.000000000000000e+00 3.507541213609260e+03 
   vertex  8.010745857967388e+02 3.566613846683621e+02 3.507541213609260e+03 
  endloop 
 endfacet 
 facet normal  8.660254037844386e-01 5.000000000000001e-01 0.000000000000000e+00 
  outer loop 
   vertex  8.010745857967388e+02 3.566613846683621e+02 0.000000000000000e+00 
   vertex  7.094151125701047e+02 5.154202492918915e+02 0.000000000000000e+00 
   vertex  8.010745857967388e+02 3.566613846683621e+02 3.507541213609260e+03 
  endloop 
 endfacet 
 facet normal  8.660254037844386e-01 5.000000000000001e-01 -0.000000000000000e+00 
  outer loop 
   vertex  7.094151125701047e+02 5.154202492918915e+02 3.507541213609260e+03 
   vertex  8.010745857967388e+02 3.566613846683621e+02 3.507541213609260e+03 
   vertex  7.094151125701047e+02 5.154202492918915e+02 0.000000000000000e+00 
  endloop 
 endfacet 
 facet normal  0.000000000000000e+00 -0.000000000000000e+00 -1.000000000000000e+00 
  outer loop 
   vertex  7.094151125701047e+02 5.154202492918915e+02 0.000000000000000e+00 
   vertex  0.000000000000000e+00 0.000000000000000e+00 0.000000000000000e+00 
   vertex  5.867507947727624e+02 6.516527757606053e+02 0.000000000000000e+00 
  endloop 
 endfacet 
 facet normal  0.000000000000000e+00 0.000000000000000e+00 1.000000000000000e+00 
  outer loop 
   vertex  5.867507947727624e+02 6.516527757606053e+02 3.507541213609260e+03 
   vertex  0.000000000000000e+00 0.000000000000000e+00 3.507541213609260e+03 
   vertex  7.094151125701047e+02 5.154202492918915e+02 3.507541213609260e+03 
  endloop 
 endfacet 
 facet normal  7.431448254773946e-01 6.691306063588577e-01 0.000000000000000e+00 
  outer loop 
   vertex  7.094151125701047e+02 5.154202492918915e+02 0.000000000000000e+00 
   vertex  5.867507947727624e+02 6.516527757606053e+02 0.000000000000000e+00 
   vertex  7.094151125701047e+02 5.154202492918915e+02 3.507541213609260e+03 
  endloop 
 endfacet 
 facet normal  7.431448254773946e-01 6.691306063588577e-01 -0.000000000000000e+00 
  outer loop 
   vertex  5.867507947727624e+02 6.516527757606053e+02 3.507541213609260e+03 
   vertex  7.094151125701047e+02 5.154202492918915e+02 3.507541213609260e+03 
   vertex  5.867507947727624e+02 6.516527757606053e+02 0.000000000000000e+00 
  endloop 
 endfacet 
 facet normal  0.000000000000000e+00 -0.000000000000000e+00 -1.000000000000000e+00 
  outer loop 
   vertex  5.867507947727624e+02 6.516527757606053e+02 0.000000000000000e+00 
   vertex  0.000000000000000e+00 0.000000000000000e+00 0.000000000000000e+00 
   vertex  4.384426517011576e+02 7.594049489516298e+02 0.000000000000000e+00 
  endloop 
 endfacet 
 facet normal  0.000000000000000e+00 0.000000000000000e+00 1.000000000000000e+00 
  outer loop 
   vertex  4.384426517011576e+02 7.594049489516298e+02 3.507541213609260e+03 
   vertex  0.000000000000000e+00 0.000000000000000e+00 3.507541213609260e+03 
   vertex  5.867507947727624e+02 6.516527757606053e+02 3.507541213609260e+03 
  endloop 
 endfacet 
 facet normal  5.877852522924729e-01 8.090169943749477e-01 0.000000000000000e+00 
  outer loop 
   vertex  5.867507947727624e+02 6.516527757606053e+02 0.000000000000000e+00 
   vertex  4.384426517011576e+02 7.594049489516298e+02 0.000000000000000e+00 
   vertex  5.867507947727624e+02 6.516527757606053e+02 3.507541213609260e+03 
  endloop 
 endfacet 
 facet normal  5.877852522924729e-01 8.090169943749477e-01 -0.000000000000000e+00 
  outer loop 
   vertex  4.384426517011576e+02 7.594049489516298e+02 3.507541213609260e+03 
   vertex  5.867507947727624e+02 6.516527757606053e+02 3.507541213609260e+03 
   vertex  4.384426517011576e+02 7.594049489516298e+02 0.000000000000000e+00 
  endloop 
 endfacet 
 facet normal  0.000000000000000e+00 -0.000000000000000e+00 -1.000000000000000e+00 
  outer loop 
   vertex  4.384426517011576e+02 7.594049489516298e+02 0.000000000000000e+00 
   vertex  0.000000000000000e+00 0.000000000000000e+00 0.000000000000000e+00 
   vertex  2.709724608689473e+02 8.339674818442245e+02 0.000000000000000e+00 
  endloop 
 endfacet 
 facet normal  0.000000000000000e+00 0.000000000000000e+00 1.000000000000000e+00 
  outer loop 
   vertex  2.709724608689473e+02 8.339674818442245e+02 3.507541213609260e+03 
   vertex  0.000000000000000e+00 0.000000000000000e+00 3.507541213609260e+03 
   vertex  4.384426517011576e+02 7.594049489516298e+02 3.507541213609260e+03 
  endloop 
 endfacet 
 facet normal  4.067366430758004e-01 9.135454576426008e-01 0.000000000000000e+00 
  outer loop 
   vertex  4.384426517011576e+02 7.594049489516298e+02 0.000000000000000e+00 
   vertex  2.709724608689473e+02 8.339674818442245e+02 0.000000000000000e+00 
   vertex  4.384426517011576e+02 7.594049489516298e+02 3.507541213609260e+03 
  endloop 
 endfacet 
 facet normal  4.067366430758004e-01 9.135454576426008e-01 -0.000000000000000e+00 
  outer loop 
   vertex  2.709724608689473e+02 8.339674818442245e+02 3.507541213609260e+03 
   vertex  4.384426517011576e+02 7.594049489516298e+02 3.507541213609260e+03 
   vertex  2.709724608689473e+02 8.339674818442245e+02 0.000000000000000e+00 
  endloop 
 endfacet 
 facet normal  0.000000000000000e+00 -0.000000000000000e+00 -1.000000000000000e+00 
  outer loop 
   vertex  2.709724608689473e+02 8.339674818442245e+02 0.000000000000000e+00 
   vertex  0.000000000000000e+00 0.000000000000000e+00 0.000000000000000e+00 
   vertex  9.165947322663403e+01 8.720816339602537e+02 0.000000000000000e+00 
  endloop 
 endfacet 
 facet normal  0.000000000000000e+00 0.000000000000000e+00 1.000000000000000e+00 
  outer loop 
   vertex  9.165947322663403e+01 8.720816339602537e+02 3.507541213609260e+03 
   vertex  0.000000000000000e+00 0.000000000000000e+00 3.507541213609260e+03 
   vertex  2.709724608689473e+02 8.339674818442245e+02 3.507541213609260e+03 
  endloop 
 endfacet 
 facet normal  2.079116908177591e-01 9.781476007338057e-01 0.000000000000000e+00 
  outer loop 
   vertex  2.709724608689473e+02 8.339674818442245e+02 0.000000000000000e+00 
   vertex  9.165947322663403e+01 8.720816339602537e+02 0.000000000000000e+00 
   vertex  2.709724608689473e+02 8.339674818442245e+02 3.507541213609260e+03 
  endloop 
 endfacet 
 facet normal  2.079116908177591e-01 9.781476007338057e-01 -0.000000000000000e+00 
  outer loop 
   vertex  9.165947322663403e+01 8.720816339602537e+02 3.507541213609260e+03 
   vertex  2.709724608689473e+02 8.339674818442245e+02 3.507541213609260e+03 
   vertex  9.165947322663403e+01 8.720816339602537e+02 0.000000000000000e+00 
  endloop 
 endfacet 
 facet normal  0.000000000000000e+00 -0.000000000000000e+00 -1.000000000000000e+00 
  outer loop 
   vertex  9.165947322663403e+01 8.720816339602537e+02 0.000000000000000e+00 
   vertex  0.000000000000000e+00 0.000000000000000e+00 0.000000000000000e+00 
   vertex  -9.165947322663393e+01 8.720816339602538e+02 0.000000000000000e+00 
  endloop 
 endfacet 
 facet normal  0.000000000000000e+00 0.000000000000000e+00 1.000000000000000e+00 
  outer loop 
   vertex  -9.165947322663393e+01 8.720816339602538e+02 3.507541213609260e+03 
   vertex  0.000000000000000e+00 0.000000000000000e+00 3.507541213609260e+03 
   vertex  9.165947322663403e+01 8.720816339602537e+02 3.507541213609260e+03 
  endloop 
 endfacet 
 facet normal  6.201586902017097e-16 1.000000000000000e+00 0.000000000000000e+00 
  outer loop 
   vertex  9.165947322663403e+01 8.720816339602537e+02 0.000000000000000e+00 
   vertex  -9.165947322663393e+01 8.720816339602538e+02 0.000000000000000e+00 
   vertex  9.165947322663403e+01 8.720816339602537e+02 3.507541213609260e+03 
  endloop 
 endfacet 
 facet normal  6.201586902017097e-16 1.000000000000000e+00 -0.000000000000000e+00 
  outer loop 
   vertex  -9.165947322663393e+01 8.720816339602538e+02 3.507541213609260e+03 
   vertex  9.165947322663403e+01 8.720816339602537e+02 3.507541213609260e+03 
   vertex  -9.165947322663393e+01 8.720816339602538e+02 0.000000000000000e+00 
  endloop 
 endfacet 
 facet normal  0.000000000000000e+00 0.000000000000000e+00 -1.000000000000000e+00 
  outer loop 
   vertex  -9.165947322663393e+01 8.720816339602538e+02 0.000000000000000e+00 
   vertex  0.000000000000000e+00 0.000000000000000e+00 0.000000000000000e+00 
   vertex  -2.709724608689472e+02 8.339674818442245e+02 0.000000000000000e+00 
  endloop 
 endfacet 
 facet normal  0.000000000000000e+00 0.000000000000000e+00 1.000000000000000e+00 
  outer loop 
   vertex  -2.709724608689472e+02 8.339674818442245e+02 3.507541213609260e+03 
   vertex  0.000000000000000e+00 0.000000000000000e+00 3.507541213609260e+03 
   vertex  -9.165947322663393e+01 8.720816339602538e+02 3.507541213609260e+03 
  endloop 
 endfacet 
 facet normal  -2.079116908177598e-01 9.781476007338057e-01 0.000000000000000e+00 
  outer loop 
   vertex  -9.165947322663393e+01 8.720816339602538e+02 0.000000000000000e+00 
   vertex  -2.709724608689472e+02 8.339674818442245e+02 0.000000000000000e+00 
   vertex  -9.165947322663393e+01 8.720816339602538e+02 3.507541213609260e+03 
  endloop 
 endfacet 
 facet normal  -2.079116908177598e-01 9.781476007338057e-01 0.000000000000000e+00 
  outer loop 
   vertex  -2.709724608689472e+02 8.339674818442245e+02 3.507541213609260e+03 
   vertex  -9.165947322663393e+01 8.720816339602538e+02 3.507541213609260e+03 
   vertex  -2.709724608689472e+02 8.339674818442245e+02 0.000000000000000e+00 
  endloop 
 endfacet 
 facet normal  0.000000000000000e+00 0.000000000000000e+00 -1.000000000000000e+00 
  outer loop 
   vertex  -2.709724608689472e+02 8.339674818442245e+02 0.000000000000000e+00 
   vertex  0.000000000000000e+00 0.000000000000000e+00 0.000000000000000e+00 
   vertex  -4.384426517011573e+02 7.594049489516299e+02 0.000000000000000e+00 
  endloop 
 endfacet 
 facet normal  0.000000000000000e+00 0.000000000000000e+00 1.000000000000000e+00 
  outer loop 
   vertex  -4.384426517011573e+02 7.594049489516299e+02 3.507541213609260e+03 
   vertex  0.000000000000000e+00 0.000000000000000e+00 3.507541213609260e+03 
   vertex  -2.709724608689472e+02 8.339674818442245e+02 3.507541213609260e+03 
  endloop 
 endfacet 
 facet normal  -4.067366430758003e-01 9.135454576426009e-01 0.000000000000000e+00 
  outer loop 
   vertex  -2.709724608689472e+02 8.339674818442245e+02 0.000000000000000e+00 
   vertex  -4.384426517011573e+02 7.594049489516299e+02 0.000000000000000e+00 
   vertex  -2.709724608689472e+02 8.339674818442245e+02 3.507541213609260e+03 
  endloop 
 endfacet 
 facet normal  -4.067366430758003e-01 9.135454576426009e-01 0.000000000000000e+00 
  outer loop 
   vertex  -4.384426517011573e+02 7.594049489516299e+02 3.507541213609260e+03 
   vertex  -2.709724608689472e+02 8.339674818442245e+02 3.507541213609260e+03 
   vertex  -4.384426517011573e+02 7.594049489516299e+02 0.000000000000000e+00 
  endloop 
 endfacet 
 facet normal  0.000000000000000e+00 0.000000000000000e+00 -1.000000000000000e+00 
  outer loop 
   vertex  -4.384426517011573e+02 7.594049489516299e+02 0.000000000000000e+00 
   vertex  0.000000000000000e+00 0.000000000000000e+00 0.000000000000000e+00 
   vertex  -5.867507947727621e+02 6.516527757606054e+02 0.000000000000000e+00 
  endloop 
 endfacet 
 facet normal  0.000000000000000e+00 0.000000000000000e+00 1.000000000000000e+00 
  outer loop 
   vertex  -5.867507947727621e+02 6.516527757606054e+02 3.507541213609260e+03 
   vertex  0.000000000000000e+00 0.000000000000000e+00 3.507541213609260e+03 
   vertex  -4.384426517011573e+02 7.594049489516299e+02 3.507541213609260e+03 
  endloop 
 endfacet 
 facet normal  -5.877852522924729e-01 8.090169943749475e-01 0.000000000000000e+00 
  outer loop 
   vertex  -4.384426517011573e+02 7.594049489516299e+02 0.000000000000000e+00 
   vertex  -5.867507947727621e+02 6.516527757606054e+02 0.000000000000000e+00 
   vertex  -4.384426517011573e+02 7.594049489516299e+02 3.507541213609260e+03 
  endloop 
 endfacet 
 facet normal  -5.877852522924729e-01 8.090169943749475e-01 0.000000000000000e+00 
  outer loop 
   vertex  -5.867507947727621e+02 6.516527757606054e+02 3.507541213609260e+03 
   vertex  -4.384426517011573e+02 7.594049489516299e+02 3.507541213609260e+03 
   vertex  -5.867507947727621e+02 6.516527757606054e+02 0.000000000000000e+00 
  endloop 
 endfacet 
 facet normal  0.000000000000000e+00 0.000000000000000e+00 -1.000000000000000e+00 
  outer loop 
   vertex  -5.867507947727621e+02 6.516527757606054e+02 0.000000000000000e+00 
   vertex  0.000000000000000e+00 0.000000000000000e+00 0.000000000000000e+00 
   vertex  -7.094151125701047e+02 5.154202492918917e+02 0.000000000000000e+00 
  endloop 
 endfacet 
 facet normal  0.000000000000000e+00 0.000000000000000e+00 1.000000000000000e+00 
  outer loop 
   vertex  -7.094151125701047e+02 5.154202492918917e+02 3.507541213609260e+03 
   vertex  0.000000000000000e+00 0.000000000000000e+00 3.507541213609260e+03 
   vertex  -5.867507947727621e+02 6.516527757606054e+02 3.507541213609260e+03 
  endloop 
 endfacet 
 facet normal  -7.431448254773937e-01 6.691306063588588e-01 0.000000000000000e+00 
  outer loop 
   vertex  -5.867507947727621e+02 6.516527757606054e+02 0.000000000000000e+00 
   vertex  -7.094151125701047e+02 5.154202492918917e+02 0.000000000000000e+00 
   vertex  -5.867507947727621e+02 6.516527757606054e+02 3.507541213609260e+03 
  endloop 
 endfacet 
 facet normal  -7.431448254773937e-01 6.691306063588588e-01 0.000000000000000e+00 
  outer loop 
   vertex  -7.094151125701047e+02 5.154202492918917e+02 3.507541213609260e+03 
   vertex  -5.867507947727621e+02 6.516527757606054e+02 3.507541213609260e+03 
   vertex  -7.094151125701047e+02 5.154202492918917e+02 0.000000000000000e+00 
  endloop 
 endfacet 
 facet normal  0.000000000000000e+00 0.000000000000000e+00 -1.000000000000000e+00 
  outer loop 
   vertex  -7.094151125701047e+02 5.154202492918917e+02 0.000000000000000e+00 
   vertex  0.000000000000000e+00 0.000000000000000e+00 0.000000000000000e+00 
   vertex  -8.010745857967389e+02 3.566613846683620e+02 0.000000000000000e+00 
  endloop 
 endfacet 
 facet normal  0.000000000000000e+00 0.000000000000000e+00 1.000000000000000e+00 
  outer loop 
   vertex  -8.010745857967389e+02 3.566613846683620e+02 3.507541213609260e+03 
   vertex  0.000000000000000e+00 0.000000000000000e+00 3.507541213609260e+03 
   vertex  -7.094151125701047e+02 5.154202492918917e+02 3.507541213609260e+03 
  endloop 
 endfacet 
 facet normal  -8.660254037844386e-01 5.000000000000000e-01 0.000000000000000e+00 
  outer loop 
   vertex  -7.094151125701047e+02 5.154202492918917e+02 0.000000000000000e+00 
   vertex  -8.010745857967389e+02 3.566613846683620e+02 0.000000000000000e+00 
   vertex  -7.094151125701047e+02 5.154202492918917e+02 3.507541213609260e+03 
  endloop 
 endfacet 
 facet normal  -8.660254037844386e-01 5.000000000000000e-01 0.000000000000000e+00 
  outer loop 
   vertex  -8.010745857967389e+02 3.566613846683620e+02 3.507541213609260e+03 
   vertex  -7.094151125701047e+02 5.154202492918917e+02 3.507541213609260e+03 
   vertex  -8.010745857967389e+02 3.566613846683620e+02 0.000000000000000e+00 
  endloop 
 endfacet 
 facet normal  0.000000000000000e+00 0.000000000000000e+00 -1.000000000000000e+00 
  outer loop 
   vertex  -8.010745857967389e+02 3.566613846683620e+02 0.000000000000000e+00 
   vertex  0.000000000000000e+00 0.000000000000000e+00 0.000000000000000e+00 
   vertex  -8.577232556417097e+02 1.823147060836192e+02 0.000000000000000e+00 
  endloop 
 endfacet 
 facet normal  0.000000000000000e+00 0.000000000000000e+00 1.000000000000000e+00 
  outer loop 
   vertex  -8.577232556417097e+02 1.823147060836192e+02 3.507541213609260e+03 
   vertex  0.000000000000000e+00 0.000000000000000e+00 3.507541213609260e+03 
   vertex  -8.010745857967389e+02 3.566613846683620e+02 3.507541213609260e+03 
  endloop 
 endfacet 
 facet normal  -9.510565162951535e-01 3.090169943749472e-01 0.000000000000000e+00 
  outer loop 
   vertex  -8.010745857967389e+02 3.566613846683620e+02 0.000000000000000e+00 
   vertex  -8.577232556417097e+02 1.823147060836192e+02 0.000000000000000e+00 
   vertex  -8.010745857967389e+02 3.566613846683620e+02 3.507541213609260e+03 
  endloop 
 endfacet 
 facet normal  -9.510565162951535e-01 3.090169943749472e-01 0.000000000000000e+00 
  outer loop 
   vertex  -8.577232556417097e+02 1.823147060836192e+02 3.507541213609260e+03 
   vertex  -8.010745857967389e+02 3.566613846683620e+02 3.507541213609260e+03 
   vertex  -8.577232556417097e+02 1.823147060836192e+02 0.000000000000000e+00 
  endloop 
 endfacet 
 facet normal  0.000000000000000e+00 0.000000000000000e+00 -1.000000000000000e+00 
  outer loop 
   vertex  -8.577232556417097e+02 1.823147060836192e+02 0.000000000000000e+00 
   vertex  0.000000000000000e+00 0.000000000000000e+00 0.000000000000000e+00 
   vertex  -8.768853034023150e+02 1.073874780031001e-13 0.000000000000000e+00 
  endloop 
 endfacet 
 facet normal  0.000000000000000e+00 0.000000000000000e+00 1.000000000000000e+00 
  outer loop 
   vertex  -8.768853034023150e+02 1.073874780031001e-13 3.507541213609260e+03 
   vertex  0.000000000000000e+00 0.000000000000000e+00 3.507541213609260e+03 
   vertex  -8.577232556417097e+02 1.823147060836192e+02 3.507541213609260e+03 
  endloop 
 endfacet 
 facet normal  -9.945218953682734e-01 1.045284632676533e-01 0.000000000000000e+00 
  outer loop 
   vertex  -8.577232556417097e+02 1.823147060836192e+02 0.000000000000000e+00 
   vertex  -8.768853034023150e+02 1.073874780031001e-13 0.000000000000000e+00 
   vertex  -8.577232556417097e+02 1.823147060836192e+02 3.507541213609260e+03 
  endloop 
 endfacet 
 facet normal  -9.945218953682734e-01 1.045284632676533e-01 0.000000000000000e+00 
  outer loop 
   vertex  -8.768853034023150e+02 1.073874780031001e-13 3.507541213609260e+03 
   vertex  -8.577232556417097e+02 1.823147060836192e+02 3.507541213609260e+03 
   vertex  -8.768853034023150e+02 1.073874780031001e-13 0.000000000000000e+00 
  endloop 
 endfacet 
 facet normal  0.000000000000000e+00 0.000000000000000e+00 -1.000000000000000e+00 
  outer loop 
   vertex  -8.768853034023150e+02 1.073874780031001e-13 0.000000000000000e+00 
   vertex  0.000000000000000e+00 0.000000000000000e+00 0.000000000000000e+00 
   vertex  -8.577232556417097e+02 -1.823147060836190e+02 0.000000000000000e+00 
  endloop 
 endfacet 
 facet normal  -0.000000000000000e+00 0.000000000000000e+00 1.000000000000000e+00 
  outer loop 
   vertex  -8.577232556417097e+02 -1.823147060836190e+02 3.507541213609260e+03 
   vertex  0.000000000000000e+00 0.000000000000000e+00 3.507541213609260e+03 
   vertex  -8.768853034023150e+02 1.073874780031001e-13 3.507541213609260e+03 
  endloop 
 endfacet 
 facet normal  -9.945218953682734e-01 -1.045284632676533e-01 -0.000000000000000e+00 
  outer loop 
   vertex  -8.768853034023150e+02 1.073874780031001e-13 0.000000000000000e+00 
   vertex  -8.577232556417097e+02 -1.823147060836190e+02 0.000000000000000e+00 
   vertex  -8.768853034023150e+02 1.073874780031001e-13 3.507541213609260e+03 
  endloop 
 endfacet 
 facet normal  -9.945218953682734e-01 -1.045284632676533e-01 0.000000000000000e+00 
  outer loop 
   vertex  -8.577232556417097e+02 -1.823147060836190e+02 3.507541213609260e+03 
   vertex  -8.768853034023150e+02 1.073874780031001e-13 3.507541213609260e+03 
   vertex  -8.577232556417097e+02 -1.823147060836190e+02 0.000000000000000e+00 
  endloop 
 endfacet 
 facet normal  0.000000000000000e+00 0.000000000000000e+00 -1.000000000000000e+00 
  outer loop 
   vertex  -8.577232556417097e+02 -1.823147060836190e+02 0.000000000000000e+00 
   vertex  0.000000000000000e+00 0.000000000000000e+00 0.000000000000000e+00 
   vertex  -8.010745857967389e+02 -3.566613846683618e+02 0.000000000000000e+00 
  endloop 
 endfacet 
 facet normal  -0.000000000000000e+00 0.000000000000000e+00 1.000000000000000e+00 
  outer loop 
   vertex  -8.010745857967389e+02 -3.566613846683618e+02 3.507541213609260e+03 
   vertex  0.000000000000000e+00 0.000000000000000e+00 3.507541213609260e+03 
   vertex  -8.577232556417097e+02 -1.823147060836190e+02 3.507541213609260e+03 
  endloop 
 endfacet 
 facet normal  -9.510565162951538e-01 -3.090169943749472e-01 -0.000000000000000e+00 
  outer loop 
   vertex  -8.577232556417097e+02 -1.823147060836190e+02 0.000000000000000e+00 
   vertex  -8.010745857967389e+02 -3.566613846683618e+02 0.000000000000000e+00 
   vertex  -8.577232556417097e+02 -1.823147060836190e+02 3.507541213609260e+03 
  endloop 
 endfacet 
 facet normal  -9.510565162951538e-01 -3.090169943749472e-01 0.000000000000000e+00 
  outer loop 
   vertex  -8.010745857967389e+02 -3.566613846683618e+02 3.507541213609260e+03 
   vertex  -8.577232556417097e+02 -1.823147060836190e+02 3.507541213609260e+03 
   vertex  -8.010745857967389e+02 -3.566613846683618e+02 0.000000000000000e+00 
  endloop 
 endfacet 
 facet normal  0.000000000000000e+00 0.000000000000000e+00 -1.000000000000000e+00 
  outer loop 
   vertex  -8.010745857967389e+02 -3.566613846683618e+02 0.000000000000000e+00 
   vertex  0.000000000000000e+00 0.000000000000000e+00 0.000000000000000e+00 
   vertex  -7.094151125701047e+02 -5.154202492918914e+02 0.000000000000000e+00 
  endloop 
 endfacet 
 facet normal  -0.000000000000000e+00 0.000000000000000e+00 1.000000000000000e+00 
  outer loop 
   vertex  -7.094151125701047e+02 -5.154202492918914e+02 3.507541213609260e+03 
   vertex  0.000000000000000e+00 0.000000000000000e+00 3.507541213609260e+03 
   vertex  -8.010745857967389e+02 -3.566613846683618e+02 3.507541213609260e+03 
  endloop 
 endfacet 
 facet normal  -8.660254037844385e-01 -5.000000000000002e-01 -0.000000000000000e+00 
  outer loop 
   vertex  -8.010745857967389e+02 -3.566613846683618e+02 0.000000000000000e+00 
   vertex  -7.094151125701047e+02 -5.154202492918914e+02 0.000000000000000e+00 
   vertex  -8.010745857967389e+02 -3.566613846683618e+02 3.507541213609260e+03 
  endloop 
 endfacet 
 facet normal  -8.660254037844385e-01 -5.000000000000002e-01 0.000000000000000e+00 
  outer loop 
   vertex  -7.094151125701047e+02 -5.154202492918914e+02 3.507541213609260e+03 
   vertex  -8.010745857967389e+02 -3.566613846683618e+02 3.507541213609260e+03 
   vertex  -7.094151125701047e+02 -5.154202492918914e+02 0.000000000000000e+00 
  endloop 
 endfacet 
 facet normal  0.000000000000000e+00 0.000000000000000e+00 -1.000000000000000e+00 
  outer loop 
   vertex  -7.094151125701047e+02 -5.154202492918914e+02 0.000000000000000e+00 
   vertex  0.000000000000000e+00 0.000000000000000e+00 0.000000000000000e+00 
   vertex  -5.867507947727626e+02 -6.516527757606051e+02 0.000000000000000e+00 
  endloop 
 endfacet 
 facet normal  -0.000000000000000e+00 0.000000000000000e+00 1.000000000000000e+00 
  outer loop 
   vertex  -5.867507947727626e+02 -6.516527757606051e+02 3.507541213609260e+03 
   vertex  0.000000000000000e+00 0.000000000000000e+00 3.507541213609260e+03 
   vertex  -7.094151125701047e+02 -5.154202492918914e+02 3.507541213609260e+03 
  endloop 
 endfacet 
 facet normal  -7.431448254773946e-01 -6.691306063588577e-01 -0.000000000000000e+00 
  outer loop 
   vertex  -7.094151125701047e+02 -5.154202492918914e+02 0.000000000000000e+00 
   vertex  -5.867507947727626e+02 -6.516527757606051e+02 0.000000000000000e+00 
   vertex  -7.094151125701047e+02 -5.154202492918914e+02 3.507541213609260e+03 
  endloop 
 endfacet 
 facet normal  -7.431448254773946e-01 -6.691306063588577e-01 0.000000000000000e+00 
  outer loop 
   vertex  -5.867507947727626e+02 -6.516527757606051e+02 3.507541213609260e+03 
   vertex  -7.094151125701047e+02 -5.154202492918914e+02 3.507541213609260e+03 
   vertex  -5.867507947727626e+02 -6.516527757606051e+02 0.000000000000000e+00 
  endloop 
 endfacet 
 facet normal  0.000000000000000e+00 0.000000000000000e+00 -1.000000000000000e+00 
  outer loop 
   vertex  -5.867507947727626e+02 -6.516527757606051e+02 0.000000000000000e+00 
   vertex  0.000000000000000e+00 0.000000000000000e+00 0.000000000000000e+00 
   vertex  -4.384426517011579e+02 -7.594049489516296e+02 0.000000000000000e+00 
  endloop 
 endfacet 
 facet normal  -0.000000000000000e+00 0.000000000000000e+00 1.000000000000000e+00 
  outer loop 
   vertex  -4.384426517011579e+02 -7.594049489516296e+02 3.507541213609260e+03 
   vertex  0.000000000000000e+00 0.000000000000000e+00 3.507541213609260e+03 
   vertex  -5.867507947727626e+02 -6.516527757606051e+02 3.507541213609260e+03 
  endloop 
 endfacet 
 facet normal  -5.877852522924737e-01 -8.090169943749471e-01 -0.000000000000000e+00 
  outer loop 
   vertex  -5.867507947727626e+02 -6.516527757606051e+02 0.000000000000000e+00 
   vertex  -4.384426517011579e+02 -7.594049489516296e+02 0.000000000000000e+00 
   vertex  -5.867507947727626e+02 -6.516527757606051e+02 3.507541213609260e+03 
  endloop 
 endfacet 
 facet normal  -5.877852522924737e-01 -8.090169943749471e-01 0.000000000000000e+00 
  outer loop 
   vertex  -4.384426517011579e+02 -7.594049489516296e+02 3.507541213609260e+03 
   vertex  -5.867507947727626e+02 -6.516527757606051e+02 3.507541213609260e+03 
   vertex  -4.384426517011579e+02 -7.594049489516296e+02 0.000000000000000e+00 
  endloop 
 endfacet 
 facet normal  0.000000000000000e+00 0.000000000000000e+00 -1.000000000000000e+00 
  outer loop 
   vertex  -4.384426517011579e+02 -7.594049489516296e+02 0.000000000000000e+00 
   vertex  0.000000000000000e+00 0.000000000000000e+00 0.000000000000000e+00 
   vertex  -2.709724608689473e+02 -8.339674818442245e+02 0.000000000000000e+00 
  endloop 
 endfacet 
 facet normal  -0.000000000000000e+00 0.000000000000000e+00 1.000000000000000e+00 
  outer loop 
   vertex  -2.709724608689473e+02 -8.339674818442245e+02 3.507541213609260e+03 
   vertex  0.000000000000000e+00 0.000000000000000e+00 3.507541213609260e+03 
   vertex  -4.384426517011579e+02 -7.594049489516296e+02 3.507541213609260e+03 
  endloop 
 endfacet 
 facet normal  -4.067366430758005e-01 -9.135454576426009e-01 -0.000000000000000e+00 
  outer loop 
   vertex  -4.384426517011579e+02 -7.594049489516296e+02 0.000000000000000e+00 
   vertex  -2.709724608689473e+02 -8.339674818442245e+02 0.000000000000000e+00 
   vertex  -4.384426517011579e+02 -7.594049489516296e+02 3.507541213609260e+03 
  endloop 
 endfacet 
 facet normal  -4.067366430758005e-01 -9.135454576426009e-01 0.000000000000000e+00 
  outer loop 
   vertex  -2.709724608689473e+02 -8.339674818442245e+02 3.507541213609260e+03 
   vertex  -4.384426517011579e+02 -7.594049489516296e+02 3.507541213609260e+03 
   vertex  -2.709724608689473e+02 -8.339674818442245e+02 0.000000000000000e+00 
  endloop 
 endfacet 
 facet normal  0.000000000000000e+00 0.000000000000000e+00 -1.000000000000000e+00 
  outer loop 
   vertex  -2.709724608689473e+02 -8.339674818442245e+02 0.000000000000000e+00 
   vertex  0.000000000000000e+00 0.000000000000000e+00 0.000000000000000e+00 
   vertex  -9.165947322663472e+01 -8.720816339602537e+02 0.000000000000000e+00 
  endloop 
 endfacet 
 facet normal  -0.000000000000000e+00 0.000000000000000e+00 1.000000000000000e+00 
  outer loop 
   vertex  -9.165947322663472e+01 -8.720816339602537e+02 3.507541213609260e+03 
   vertex  0.000000000000000e+00 0.000000000000000e+00 3.507541213609260e+03 
   vertex  -2.709724608689473e+02 -8.339674818442245e+02 3.507541213609260e+03 
  endloop 
 endfacet 
 facet normal  -2.079116908177599e-01 -9.781476007338057e-01 -0.000000000000000e+00 
  outer loop 
   vertex  -2.709724608689473e+02 -8.339674818442245e+02 0.000000000000000e+00 
   vertex  -9.165947322663472e+01 -8.720816339602537e+02 0.000000000000000e+00 
   vertex  -2.709724608689473e+02 -8.339674818442245e+02 3.507541213609260e+03 
  endloop 
 endfacet 
 facet normal  -2.079116908177599e-01 -9.781476007338057e-01 0.000000000000000e+00 
  outer loop 
   vertex  -9.165947322663472e+01 -8.720816339602537e+02 3.507541213609260e+03 
   vertex  -2.709724608689473e+02 -8.339674818442245e+02 3.507541213609260e+03 
   vertex  -9.165947322663472e+01 -8.720816339602537e+02 0.000000000000000e+00 
  endloop 
 endfacet 
 facet normal  0.000000000000000e+00 0.000000000000000e+00 -1.000000000000000e+00 
  outer loop 
   vertex  -9.165947322663472e+01 -8.720816339602537e+02 0.000000000000000e+00 
   vertex  0.000000000000000e+00 0.000000000000000e+00 0.000000000000000e+00 
   vertex  9.165947322663440e+01 -8.720816339602537e+02 0.000000000000000e+00 
  endloop 
 endfacet 
 facet normal  0.000000000000000e+00 -0.000000000000000e+00 1.000000000000000e+00 
  outer loop 
   vertex  9.165947322663440e+01 -8.720816339602537e+02 3.507541213609260e+03 
   vertex  0.000000000000000e+00 0.000000000000000e+00 3.507541213609260e+03 
   vertex  -9.165947322663472e+01 -8.720816339602537e+02 3.507541213609260e+03 
  endloop 
 endfacet 
 facet normal  0.000000000000000e+00 -1.000000000000000e+00 0.000000000000000e+00 
  outer loop 
   vertex  -9.165947322663472e+01 -8.720816339602537e+02 0.000000000000000e+00 
   vertex  9.165947322663440e+01 -8.720816339602537e+02 0.000000000000000e+00 
   vertex  -9.165947322663472e+01 -8.720816339602537e+02 3.507541213609260e+03 
  endloop 
 endfacet 
 facet normal  0.000000000000000e+00 -1.000000000000000e+00 0.000000000000000e+00 
  outer loop 
   vertex  9.165947322663440e+01 -8.720816339602537e+02 3.507541213609260e+03 
   vertex  -9.165947322663472e+01 -8.720816339602537e+02 3.507541213609260e+03 
   vertex  9.165947322663440e+01 -8.720816339602537e+02 0.000000000000000e+00 
  endloop 
 endfacet 
 facet normal  -0.000000000000000e+00 0.000000000000000e+00 -1.000000000000000e+00 
  outer loop 
   vertex  9.165947322663440e+01 -8.720816339602537e+02 0.000000000000000e+00 
   vertex  0.000000000000000e+00 0.000000000000000e+00 0.000000000000000e+00 
   vertex  2.709724608689471e+02 -8.339674818442245e+02 0.000000000000000e+00 
  endloop 
 endfacet 
 facet normal  0.000000000000000e+00 -0.000000000000000e+00 1.000000000000000e+00 
  outer loop 
   vertex  2.709724608689471e+02 -8.339674818442245e+02 3.507541213609260e+03 
   vertex  0.000000000000000e+00 0.000000000000000e+00 3.507541213609260e+03 
   vertex  9.165947322663440e+01 -8.720816339602537e+02 3.507541213609260e+03 
  endloop 
 endfacet 
 facet normal  2.079116908177599e-01 -9.781476007338057e-01 0.000000000000000e+00 
  outer loop 
   vertex  9.165947322663440e+01 -8.720816339602537e+02 0.000000000000000e+00 
   vertex  2.709724608689471e+02 -8.339674818442245e+02 0.000000000000000e+00 
   vertex  9.165947322663440e+01 -8.720816339602537e+02 3.507541213609260e+03 
  endloop 
 endfacet 
 facet normal  2.079116908177599e-01 -9.781476007338057e-01 0.000000000000000e+00 
  outer loop 
   vertex  2.709724608689471e+02 -8.339674818442245e+02 3.507541213609260e+03 
   vertex  9.165947322663440e+01 -8.720816339602537e+02 3.507541213609260e+03 
   vertex  2.709724608689471e+02 -8.339674818442245e+02 0.000000000000000e+00 
  endloop 
 endfacet 
 facet normal  -0.000000000000000e+00 0.000000000000000e+00 -1.000000000000000e+00 
  outer loop 
   vertex  2.709724608689471e+02 -8.339674818442245e+02 0.000000000000000e+00 
   vertex  0.000000000000000e+00 0.000000000000000e+00 0.000000000000000e+00 
   vertex  4.384426517011576e+02 -7.594049489516298e+02 0.000000000000000e+00 
  endloop 
 endfacet 
 facet normal  0.000000000000000e+00 -0.000000000000000e+00 1.000000000000000e+00 
  outer loop 
   vertex  4.384426517011576e+02 -7.594049489516298e+02 3.507541213609260e+03 
   vertex  0.000000000000000e+00 0.000000000000000e+00 3.507541213609260e+03 
   vertex  2.709724608689471e+02 -8.339674818442245e+02 3.507541213609260e+03 
  endloop 
 endfacet 
 facet normal  4.067366430758000e-01 -9.135454576426011e-01 0.000000000000000e+00 
  outer loop 
   vertex  2.709724608689471e+02 -8.339674818442245e+02 0.000000000000000e+00 
   vertex  4.384426517011576e+02 -7.594049489516298e+02 0.000000000000000e+00 
   vertex  2.709724608689471e+02 -8.339674818442245e+02 3.507541213609260e+03 
  endloop 
 endfacet 
 facet normal  4.067366430758000e-01 -9.135454576426011e-01 0.000000000000000e+00 
  outer loop 
   vertex  4.384426517011576e+02 -7.594049489516298e+02 3.507541213609260e+03 
   vertex  2.709724608689471e+02 -8.339674818442245e+02 3.507541213609260e+03 
   vertex  4.384426517011576e+02 -7.594049489516298e+02 0.000000000000000e+00 
  endloop 
 endfacet 
 facet normal  -0.000000000000000e+00 0.000000000000000e+00 -1.000000000000000e+00 
  outer loop 
   vertex  4.384426517011576e+02 -7.594049489516298e+02 0.000000000000000e+00 
   vertex  0.000000000000000e+00 0.000000000000000e+00 0.000000000000000e+00 
   vertex  5.867507947727626e+02 -6.516527757606051e+02 0.000000000000000e+00 
  endloop 
 endfacet 
 facet normal  0.000000000000000e+00 -0.000000000000000e+00 1.000000000000000e+00 
  outer loop 
   vertex  5.867507947727626e+02 -6.516527757606051e+02 3.507541213609260e+03 
   vertex  0.000000000000000e+00 0.000000000000000e+00 3.507541213609260e+03 
   vertex  4.384426517011576e+02 -7.594049489516298e+02 3.507541213609260e+03 
  endloop 
 endfacet 
 facet normal  5.877852522924734e-01 -8.090169943749473e-01 0.000000000000000e+00 
  outer loop 
   vertex  4.384426517011576e+02 -7.594049489516298e+02 0.000000000000000e+00 
   vertex  5.867507947727626e+02 -6.516527757606051e+02 0.000000000000000e+00 
   vertex  4.384426517011576e+02 -7.594049489516298e+02 3.507541213609260e+03 
  endloop 
 endfacet 
 facet normal  5.877852522924734e-01 -8.090169943749473e-01 0.000000000000000e+00 
  outer loop 
   vertex  5.867507947727626e+02 -6.516527757606051e+02 3.507541213609260e+03 
   vertex  4.384426517011576e+02 -7.594049489516298e+02 3.507541213609260e+03 
   vertex  5.867507947727626e+02 -6.516527757606051e+02 0.000000000000000e+00 
  endloop 
 endfacet 
 facet normal  -0.000000000000000e+00 0.000000000000000e+00 -1.000000000000000e+00 
  outer loop 
   vertex  5.867507947727626e+02 -6.516527757606051e+02 0.000000000000000e+00 
   vertex  0.000000000000000e+00 0.000000000000000e+00 0.000000000000000e+00 
   vertex  7.094151125701047e+02 -5.154202492918918e+02 0.000000000000000e+00 
  endloop 
 endfacet 
 facet normal  0.000000000000000e+00 -0.000000000000000e+00 1.000000000000000e+00 
  outer loop 
   vertex  7.094151125701047e+02 -5.154202492918918e+02 3.507541213609260e+03 
   vertex  0.000000000000000e+00 0.000000000000000e+00 3.507541213609260e+03 
   vertex  5.867507947727626e+02 -6.516527757606051e+02 3.507541213609260e+03 
  endloop 
 endfacet 
 facet normal  7.431448254773938e-01 -6.691306063588588e-01 0.000000000000000e+00 
  outer loop 
   vertex  5.867507947727626e+02 -6.516527757606051e+02 0.000000000000000e+00 
   vertex  7.094151125701047e+02 -5.154202492918918e+02 0.000000000000000e+00 
   vertex  5.867507947727626e+02 -6.516527757606051e+02 3.507541213609260e+03 
  endloop 
 endfacet 
 facet normal  7.431448254773938e-01 -6.691306063588588e-01 0.000000000000000e+00 
  outer loop 
   vertex  7.094151125701047e+02 -5.154202492918918e+02 3.507541213609260e+03 
   vertex  5.867507947727626e+02 -6.516527757606051e+02 3.507541213609260e+03 
   vertex  7.094151125701047e+02 -5.154202492918918e+02 0.000000000000000e+00 
  endloop 
 endfacet 
 facet normal  -0.000000000000000e+00 0.000000000000000e+00 -1.000000000000000e+00 
  outer loop 
   vertex  7.094151125701047e+02 -5.154202492918918e+02 0.000000000000000e+00 
   vertex  0.000000000000000e+00 0.000000000000000e+00 0.000000000000000e+00 
   vertex  8.010745857967389e+02 -3.566613846683621e+02 0.000000000000000e+00 
  endloop 
 endfacet 
 facet normal  0.000000000000000e+00 -0.000000000000000e+00 1.000000000000000e+00 
  outer loop 
   vertex  8.010745857967389e+02 -3.566613846683621e+02 3.507541213609260e+03 
   vertex  0.000000000000000e+00 0.000000000000000e+00 3.507541213609260e+03 
   vertex  7.094151125701047e+02 -5.154202492918918e+02 3.507541213609260e+03 
  endloop 
 endfacet 
 facet normal  8.660254037844386e-01 -5.000000000000000e-01 0.000000000000000e+00 
  outer loop 
   vertex  7.094151125701047e+02 -5.154202492918918e+02 0.000000000000000e+00 
   vertex  8.010745857967389e+02 -3.566613846683621e+02 0.000000000000000e+00 
   vertex  7.094151125701047e+02 -5.154202492918918e+02 3.507541213609260e+03 
  endloop 
 endfacet 
 facet normal  8.660254037844386e-01 -5.000000000000000e-01 0.000000000000000e+00 
  outer loop 
   vertex  8.010745857967389e+02 -3.566613846683621e+02 3.507541213609260e+03 
   vertex  7.094151125701047e+02 -5.154202492918918e+02 3.507541213609260e+03 
   vertex  8.010745857967389e+02 -3.566613846683621e+02 0.000000000000000e+00 
  endloop 
 endfacet 
 facet normal  -0.000000000000000e+00 0.000000000000000e+00 -1.000000000000000e+00 
  outer loop 
   vertex  8.010745857967389e+02 -3.566613846683621e+02 0.000000000000000e+00 
   vertex  0.000000000000000e+00 0.000000000000000e+00 0.000000000000000e+00 
   vertex  8.577232556417096e+02 -1.823147060836197e+02 0.000000000000000e+00 
  endloop 
 endfacet 
 facet normal  0.000000000000000e+00 -0.000000000000000e+00 1.000000000000000e+00 
  outer loop 
   vertex  8.577232556417096e+02 -1.823147060836197e+02 3.507541213609260e+03 
   vertex  0.000000000000000e+00 0.000000000000000e+00 3.507541213609260e+03 
   vertex  8.010745857967389e+02 -3.566613846683621e+02 3.507541213609260e+03 
  endloop 
 endfacet 
 facet normal  9.510565162951536e-01 -3.090169943749473e-01 0.000000000000000e+00 
  outer loop 
   vertex  8.010745857967389e+02 -3.566613846683621e+02 0.000000000000000e+00 
   vertex  8.577232556417096e+02 -1.823147060836197e+02 0.000000000000000e+00 
   vertex  8.010745857967389e+02 -3.566613846683621e+02 3.507541213609260e+03 
  endloop 
 endfacet 
 facet normal  9.510565162951536e-01 -3.090169943749473e-01 0.000000000000000e+00 
  outer loop 
   vertex  8.577232556417096e+02 -1.823147060836197e+02 3.507541213609260e+03 
   vertex  8.010745857967389e+02 -3.566613846683621e+02 3.507541213609260e+03 
   vertex  8.577232556417096e+02 -1.823147060836197e+02 0.000000000000000e+00 
  endloop 
 endfacet 
 facet normal  -0.000000000000000e+00 0.000000000000000e+00 -1.000000000000000e+00 
  outer loop 
   vertex  8.577232556417096e+02 -1.823147060836197e+02 0.000000000000000e+00 
   vertex  0.000000000000000e+00 0.000000000000000e+00 0.000000000000000e+00 
   vertex  8.768853034023150e+02 0.000000000000000e+00 0.000000000000000e+00 
  endloop 
 endfacet 
 facet normal  0.000000000000000e+00 -0.000000000000000e+00 1.000000000000000e+00 
  outer loop 
   vertex  8.768853034023150e+02 0.000000000000000e+00 3.507541213609260e+03 
   vertex  0.000000000000000e+00 0.000000000000000e+00 3.507541213609260e+03 
   vertex  8.577232556417096e+02 -1.823147060836197e+02 3.507541213609260e+03 
  endloop 
 endfacet 
 facet normal  9.945218953682734e-01 -1.045284632676536e-01 0.000000000000000e+00 
  outer loop 
   vertex  8.577232556417096e+02 -1.823147060836197e+02 0.000000000000000e+00 
   vertex  8.768853034023150e+02 0.000000000000000e+00 0.000000000000000e+00 
   vertex  8.577232556417096e+02 -1.823147060836197e+02 3.507541213609260e+03 
  endloop 
 endfacet 
 facet normal  9.945218953682734e-01 -1.045284632676536e-01 0.000000000000000e+00 
  outer loop 
   vertex  8.768853034023150e+02 0.000000000000000e+00 3.507541213609260e+03 
   vertex  8.577232556417096e+02 -1.823147060836197e+02 3.507541213609260e+03 
   vertex  8.768853034023150e+02 0.000000000000000e+00 0.000000000000000e+00 
  endloop 
 endfacet 
endsolid