solid cube
 facet normal  0.000000000000000e+00 -0.000000000000000e+00 -1.000000000000000e+00 
  outer loop 
   vertex  0.000000000000000e+00 0.000000000000000e+00 -2.500000000000000e+02 
   vertex  -2.500000000000000e+02 -2.500000000000000e+02 -2.500000000000000e+02 
   vertex  -2.500000000000000e+02 2.500000000000000e+02 -2.500000000000000e+02 
  endloop 
 endfacet 
 facet normal  0.000000000000000e+00 0.000000000000000e+00 -1.000000000000000e+00 
  outer loop 
   vertex  0.000000000000000e+00 0.000000000000000e+00 -2.500000000000000e+02 
   vertex  2.500000000000000e+02 -2.500000000000000e+02 -2.500000000000000e+02 
   vertex  -2.500000000000000e+02 -2.500000000000000e+02 -2.500000000000000e+02 
  endloop 
 endfacet 
 facet normal  0.000000000000000e+00 0.000000000000000e+00 -1.000000000000000e+00 
  outer loop 
   vertex  0.000000000000000e+00 0.000000000000000e+00 -2.500000000000000e+02 
   vertex  2.500000000000000e+02 2.500000000000000e+02 -2.500000000000000e+02 
   vertex  2.500000000000000e+02 -2.500000000000000e+02 -2.500000000000000e+02 
  endloop 
 endfacet 
 facet normal  -0.000000000000000e+00 0.000000000000000e+00 -1.000000000000000e+00 
  outer loop 
   vertex  0.000000000000000e+00 0.000000000000000e+00 -2.500000000000000e+02 
   vertex  -2.500000000000000e+02 2.500000000000000e+02 -2.500000000000000e+02 
   vertex  2.500000000000000e+02 2.500000000000000e+02 -2.500000000000000e+02 
  endloop 
 endfacet 
 facet normal  0.000000000000000e+00 0.000000000000000e+00 1.000000000000000e+00 
  outer loop 
   vertex  0.000000000000000e+00 0.000000000000000e+00 2.500000000000000e+02 
   vertex  -2.500000000000000e+02 -2.500000000000000e+02 2.500000000000000e+02 
   vertex  2.500000000000000e+02 -2.500000000000000e+02 2.500000000000000e+02 
  endloop 
 endfacet 
 facet normal  0.000000000000000e+00 0.000000000000000e+00 1.000000000000000e+00 
  outer loop 
   vertex  0.000000000000000e+00 0.000000000000000e+00 2.500000000000000e+02 
   vertex  2.500000000000000e+02 -2.500000000000000e+02 2.500000000000000e+02 
   vertex  2.500000000000000e+02 2.500000000000000e+02 2.500000000000000e+02 
  endloop 
 endfacet 
 facet normal  -0.000000000000000e+00 0.000000000000000e+00 1.000000000000000e+00 
  outer loop 
   vertex  0.000000000000000e+00 0.000000000000000e+00 2.500000000000000e+02 
   vertex  2.500000000000000e+02 2.500000000000000e+02 2.500000000000000e+02 
   vertex  -2.500000000000000e+02 2.500000000000000e+02 2.500000000000000e+02 
  endloop 
 endfacet 
 facet normal  0.000000000000000e+00 -0.000000000000000e+00 1.000000000000000e+00 
  outer loop 
   vertex  0.000000000000000e+00 0.000000000000000e+00 2.500000000000000e+02 
   vertex  -2.500000000000000e+02 2.500000000000000e+02 2.500000000000000e+02 
   vertex  -2.500000000000000e+02 -2.500000000000000e+02 2.500000000000000e+02 
  endloop 
 endfacet 
 facet normal  0.000000000000000e+00 -1.000000000000000e+00 0.000000000000000e+00 
  outer loop 
   vertex  0.000000000000000e+00 -2.500000000000000e+02 0.000000000000000e+00 
   vertex  -2.500000000000000e+02 -2.500000000000000e+02 2.500000000000000e+02 
   vertex  -2.500000000000000e+02 -2.500000000000000e+02 -2.500000000000000e+02 
  endloop 
 endfacet 
 facet normal  -0.000000000000000e+00 -1.000000000000000e+00 0.000000000000000e+00 
  outer loop 
   vertex  0.000000000000000e+00 -2.500000000000000e+02 0.000000000000000e+00 
   vertex  -2.500000000000000e+02 -2.500000000000000e+02 -2.500000000000000e+02 
   vertex  2.500000000000000e+02 -2.500000000000000e+02 -2.500000000000000e+02 
  endloop 
 endfacet 
 facet normal  0.000000000000000e+00 -1.000000000000000e+00 -0.000000000000000e+00 
  outer loop 
   vertex  0.000000000000000e+00 -2.500000000000000e+02 0.000000000000000e+00 
   vertex  2.500000000000000e+02 -2.500000000000000e+02 -2.500000000000000e+02 
   vertex  2.500000000000000e+02 -2.500000000000000e+02 2.500000000000000e+02 
  endloop 
 endfacet 
 facet normal  0.000000000000000e+00 -1.000000000000000e+00 0.000000000000000e+00 
  outer loop 
   vertex  0.000000000000000e+00 -2.500000000000000e+02 0.000000000000000e+00 
   vertex  2.500000000000000e+02 -2.500000000000000e+02 2.500000000000000e+02 
   vertex  -2.500000000000000e+02 -2.500000000000000e+02 2.500000000000000e+02 
  endloop 
 endfacet 
 facet normal  -0.000000000000000e+00 1.000000000000000e+00 0.000000000000000e+00 
  outer loop 
   vertex  0.000000000000000e+00 2.500000000000000e+02 0.000000000000000e+00 
   vertex  2.500000000000000e+02 2.500000000000000e+02 -2.500000000000000e+02 
   vertex  -2.500000000000000e+02 2.500000000000000e+02 -2.500000000000000e+02 
  endloop 
 endfacet 
 facet normal  0.000000000000000e+00 1.000000000000000e+00 0.000000000000000e+00 
  outer loop 
   vertex  0.000000000000000e+00 2.500000000000000e+02 0.000000000000000e+00 
   vertex  -2.500000000000000e+02 2.500000000000000e+02 -2.500000000000000e+02 
   vertex  -2.500000000000000e+02 2.500000000000000e+02 2.500000000000000e+02 
  endloop 
 endfacet 
 facet normal  0.000000000000000e+00 1.000000000000000e+00 0.000000000000000e+00 
  outer loop 
   vertex  0.000000000000000e+00 2.500000000000000e+02 0.000000000000000e+00 
   vertex  -2.500000000000000e+02 2.500000000000000e+02 2.500000000000000e+02 
   vertex  2.500000000000000e+02 2.500000000000000e+02 2.500000000000000e+02 
  endloop 
 endfacet 
 facet normal  0.000000000000000e+00 1.000000000000000e+00 -0.000000000000000e+00 
  outer loop 
   vertex  0.000000000000000e+00 2.500000000000000e+02 0.000000000000000e+00 
   vertex  2.500000000000000e+02 2.500000000000000e+02 2.500000000000000e+02 
   vertex  2.500000000000000e+02 2.500000000000000e+02 -2.500000000000000e+02 
  endloop 
 endfacet 
 facet normal  -1.000000000000000e+00 0.000000000000000e+00 -0.000000000000000e+00 
  outer loop 
   vertex  -2.500000000000000e+02 0.000000000000000e+00 0.000000000000000e+00 
   vertex  -2.500000000000000e+02 -2.500000000000000e+02 -2.500000000000000e+02 
   vertex  -2.500000000000000e+02 -2.500000000000000e+02 2.500000000000000e+02 
  endloop 
 endfacet 
 facet normal  -1.000000000000000e+00 -0.000000000000000e+00 0.000000000000000e+00 
  outer loop 
   vertex  -2.500000000000000e+02 0.000000000000000e+00 0.000000000000000e+00 
   vertex  -2.500000000000000e+02 -2.500000000000000e+02 2.500000000000000e+02 
   vertex  -2.500000000000000e+02 2.500000000000000e+02 2.500000000000000e+02 
  endloop 
 endfacet 
 facet normal  -1.000000000000000e+00 0.000000000000000e+00 0.000000000000000e+00 
  outer loop 
   vertex  -2.500000000000000e+02 0.000000000000000e+00 0.000000000000000e+00 
   vertex  -2.500000000000000e+02 2.500000000000000e+02 2.500000000000000e+02 
   vertex  -2.500000000000000e+02 2.500000000000000e+02 -2.500000000000000e+02 
  endloop 
 endfacet 
 facet normal  -1.000000000000000e+00 0.000000000000000e+00 0.000000000000000e+00 
  outer loop 
   vertex  -2.500000000000000e+02 0.000000000000000e+00 0.000000000000000e+00 
   vertex  -2.500000000000000e+02 2.500000000000000e+02 -2.500000000000000e+02 
   vertex  -2.500000000000000e+02 -2.500000000000000e+02 -2.500000000000000e+02 
  endloop 
 endfacet 
 facet normal  1.000000000000000e+00 0.000000000000000e+00 0.000000000000000e+00 
  outer loop 
   vertex  2.500000000000000e+02 0.000000000000000e+00 0.000000000000000e+00 
   vertex  2.500000000000000e+02 -2.500000000000000e+02 -2.500000000000000e+02 
   vertex  2.500000000000000e+02 2.500000000000000e+02 -2.500000000000000e+02 
  endloop 
 endfacet 
 facet normal  1.000000000000000e+00 0.000000000000000e+00 0.000000000000000e+00 
  outer loop 
   vertex  2.500000000000000e+02 0.000000000000000e+00 0.000000000000000e+00 
   vertex  2.500000000000000e+02 2.500000000000000e+02 -2.500000000000000e+02 
   vertex  2.500000000000000e+02 2.500000000000000e+02 2.500000000000000e+02 
  endloop 
 endfacet 
 facet normal  1.000000000000000e+00 -0.000000000000000e+00 0.000000000000000e+00 
  outer loop 
   vertex  2.500000000000000e+02 0.000000000000000e+00 0.000000000000000e+00 
   vertex  2.500000000000000e+02 2.500000000000000e+02 2.500000000000000e+02 
   vertex  2.500000000000000e+02 -2.500000000000000e+02 2.500000000000000e+02 
  endloop 
 endfacet 
 facet normal  1.000000000000000e+00 0.000000000000000e+00 -0.000000000000000e+00 
  outer loop 
   vertex  2.500000000000000e+02 0.000000000000000e+00 0.000000000000000e+00 
   vertex  2.500000000000000e+02 -2.500000000000000e+02 2.500000000000000e+02 
   vertex  2.500000000000000e+02 -2.500000000000000e+02 -2.500000000000000e+02 
  endloop 
 endfacet 
endsolid