solid cylinder
 facet normal  -0.000000000000000e+00 -0.000000000000000e+00 -1.000000000000000e+00 
  outer loop 
   vertex  1.000000000000000e+03 0.000000000000000e+00 0.000000000000000e+00 
   vertex  0.000000000000000e+00 0.000000000000000e+00 0.000000000000000e+00 
   vertex  9.781476007338057e+02 2.079116908177593e+02 0.000000000000000e+00 
  endloop 
 endfacet 
 facet normal  0.000000000000000e+00 0.000000000000000e+00 1.000000000000000e+00 
  outer loop 
   vertex  9.781476007338057e+02 2.079116908177593e+02 4.000000000000000e+03 
   vertex  0.000000000000000e+00 0.000000000000000e+00 4.000000000000000e+03 
   vertex  1.000000000000000e+03 0.000000000000000e+00 4.000000000000000e+03 
  endloop 
 endfacet 
 facet normal  9.945218953682734e-01 1.045284632676532e-01 0.000000000000000e+00 
  outer loop 
   vertex  1.000000000000000e+03 0.000000000000000e+00 0.000000000000000e+00 
   vertex  9.781476007338057e+02 2.079116908177593e+02 0.000000000000000e+00 
   vertex  1.000000000000000e+03 0.000000000000000e+00 4.000000000000000e+03 
  endloop 
 endfacet 
 facet normal  9.945218953682734e-01 1.045284632676532e-01 -0.000000000000000e+00 
  outer loop 
   vertex  9.781476007338057e+02 2.079116908177593e+02 4.000000000000000e+03 
   vertex  1.000000000000000e+03 0.000000000000000e+00 4.000000000000000e+03 
   vertex  9.781476007338057e+02 2.079116908177593e+02 0.000000000000000e+00 
  endloop 
 endfacet 
 facet normal  0.000000000000000e+00 -0.000000000000000e+00 -1.000000000000000e+00 
  outer loop 
   vertex  9.781476007338057e+02 2.079116908177593e+02 0.000000000000000e+00 
   vertex  0.000000000000000e+00 0.000000000000000e+00 0.000000000000000e+00 
   vertex  9.135454576426009e+02 4.067366430758001e+02 0.000000000000000e+00 
  endloop 
 endfacet 
 facet normal  0.000000000000000e+00 0.000000000000000e+00 1.000000000000000e+00 
  outer loop 
   vertex  9.135454576426009e+02 4.067366430758001e+02 4.000000000000000e+03 
   vertex  0.000000000000000e+00 0.000000000000000e+00 4.000000000000000e+03 
   vertex  9.781476007338057e+02 2.079116908177593e+02 4.000000000000000e+03 
  endloop 
 endfacet 
 facet normal  9.510565162951535e-01 3.090169943749476e-01 0.000000000000000e+00 
  outer loop 
   vertex  9.781476007338057e+02 2.079116908177593e+02 0.000000000000000e+00 
   vertex  9.135454576426009e+02 4.067366430758001e+02 0.000000000000000e+00 
   vertex  9.781476007338057e+02 2.079116908177593e+02 4.000000000000000e+03 
  endloop 
 endfacet 
 facet normal  9.510565162951535e-01 3.090169943749476e-01 -0.000000000000000e+00 
  outer loop 
   vertex  9.135454576426009e+02 4.067366430758001e+02 4.000000000000000e+03 
   vertex  9.781476007338057e+02 2.079116908177593e+02 4.000000000000000e+03 
   vertex  9.135454576426009e+02 4.067366430758001e+02 0.000000000000000e+00 
  endloop 
 endfacet 
 facet normal  0.000000000000000e+00 -0.000000000000000e+00 -1.000000000000000e+00 
  outer loop 
   vertex  9.135454576426009e+02 4.067366430758001e+02 0.000000000000000e+00 
   vertex  0.000000000000000e+00 0.000000000000000e+00 0.000000000000000e+00 
   vertex  8.090169943749474e+02 5.877852522924732e+02 0.000000000000000e+00 
  endloop 
 endfacet 
 facet normal  0.000000000000000e+00 0.000000000000000e+00 1.000000000000000e+00 
  outer loop 
   vertex  8.090169943749474e+02 5.877852522924732e+02 4.000000000000000e+03 
   vertex  0.000000000000000e+00 0.000000000000000e+00 4.000000000000000e+03 
   vertex  9.135454576426009e+02 4.067366430758001e+02 4.000000000000000e+03 
  endloop 
 endfacet 
 facet normal  8.660254037844387e-01 4.999999999999998e-01 0.000000000000000e+00 
  outer loop 
   vertex  9.135454576426009e+02 4.067366430758001e+02 0.000000000000000e+00 
   vertex  8.090169943749474e+02 5.877852522924732e+02 0.000000000000000e+00 
   vertex  9.135454576426009e+02 4.067366430758001e+02 4.000000000000000e+03 
  endloop 
 endfacet 
 facet normal  8.660254037844387e-01 4.999999999999998e-01 -0.000000000000000e+00 
  outer loop 
   vertex  8.090169943749474e+02 5.877852522924732e+02 4.000000000000000e+03 
   vertex  9.135454576426009e+02 4.067366430758001e+02 4.000000000000000e+03 
   vertex  8.090169943749474e+02 5.877852522924732e+02 0.000000000000000e+00 
  endloop 
 endfacet 
 facet normal  0.000000000000000e+00 -0.000000000000000e+00 -1.000000000000000e+00 
  outer loop 
   vertex  8.090169943749474e+02 5.877852522924732e+02 0.000000000000000e+00 
   vertex  0.000000000000000e+00 0.000000000000000e+00 0.000000000000000e+00 
   vertex  6.691306063588582e+02 7.431448254773942e+02 0.000000000000000e+00 
  endloop 
 endfacet 
 facet normal  0.000000000000000e+00 0.000000000000000e+00 1.000000000000000e+00 
  outer loop 
   vertex  6.691306063588582e+02 7.431448254773942e+02 4.000000000000000e+03 
   vertex  0.000000000000000e+00 0.000000000000000e+00 4.000000000000000e+03 
   vertex  8.090169943749474e+02 5.877852522924732e+02 4.000000000000000e+03 
  endloop 
 endfacet 
 facet normal  7.431448254773941e-01 6.691306063588583e-01 0.000000000000000e+00 
  outer loop 
   vertex  8.090169943749474e+02 5.877852522924732e+02 0.000000000000000e+00 
   vertex  6.691306063588582e+02 7.431448254773942e+02 0.000000000000000e+00 
   vertex  8.090169943749474e+02 5.877852522924732e+02 4.000000000000000e+03 
  endloop 
 endfacet 
 facet normal  7.431448254773941e-01 6.691306063588583e-01 -0.000000000000000e+00 
  outer loop 
   vertex  6.691306063588582e+02 7.431448254773942e+02 4.000000000000000e+03 
   vertex  8.090169943749474e+02 5.877852522924732e+02 4.000000000000000e+03 
   vertex  6.691306063588582e+02 7.431448254773942e+02 0.000000000000000e+00 
  endloop 
 endfacet 
 facet normal  0.000000000000000e+00 -0.000000000000000e+00 -1.000000000000000e+00 
  outer loop 
   vertex  6.691306063588582e+02 7.431448254773942e+02 0.000000000000000e+00 
   vertex  0.000000000000000e+00 0.000000000000000e+00 0.000000000000000e+00 
   vertex  5.000000000000001e+02 8.660254037844386e+02 0.000000000000000e+00 
  endloop 
 endfacet 
 facet normal  0.000000000000000e+00 0.000000000000000e+00 1.000000000000000e+00 
  outer loop 
   vertex  5.000000000000001e+02 8.660254037844386e+02 4.000000000000000e+03 
   vertex  0.000000000000000e+00 0.000000000000000e+00 4.000000000000000e+03 
   vertex  6.691306063588582e+02 7.431448254773942e+02 4.000000000000000e+03 
  endloop 
 endfacet 
 facet normal  5.877852522924734e-01 8.090169943749473e-01 0.000000000000000e+00 
  outer loop 
   vertex  6.691306063588582e+02 7.431448254773942e+02 0.000000000000000e+00 
   vertex  5.000000000000001e+02 8.660254037844386e+02 0.000000000000000e+00 
   vertex  6.691306063588582e+02 7.431448254773942e+02 4.000000000000000e+03 
  endloop 
 endfacet 
 facet normal  5.877852522924734e-01 8.090169943749473e-01 -0.000000000000000e+00 
  outer loop 
   vertex  5.000000000000001e+02 8.660254037844386e+02 4.000000000000000e+03 
   vertex  6.691306063588582e+02 7.431448254773942e+02 4.000000000000000e+03 
   vertex  5.000000000000001e+02 8.660254037844386e+02 0.000000000000000e+00 
  endloop 
 endfacet 
 facet normal  0.000000000000000e+00 -0.000000000000000e+00 -1.000000000000000e+00 
  outer loop 
   vertex  5.000000000000001e+02 8.660254037844386e+02 0.000000000000000e+00 
   vertex  0.000000000000000e+00 0.000000000000000e+00 0.000000000000000e+00 
   vertex  3.090169943749474e+02 9.510565162951535e+02 0.000000000000000e+00 
  endloop 
 endfacet 
 facet normal  0.000000000000000e+00 0.000000000000000e+00 1.000000000000000e+00 
  outer loop 
   vertex  3.090169943749474e+02 9.510565162951535e+02 4.000000000000000e+03 
   vertex  0.000000000000000e+00 0.000000000000000e+00 4.000000000000000e+03 
   vertex  5.000000000000001e+02 8.660254037844386e+02 4.000000000000000e+03 
  endloop 
 endfacet 
 facet normal  4.067366430758000e-01 9.135454576426010e-01 0.000000000000000e+00 
  outer loop 
   vertex  5.000000000000001e+02 8.660254037844386e+02 0.000000000000000e+00 
   vertex  3.090169943749474e+02 9.510565162951535e+02 0.000000000000000e+00 
   vertex  5.000000000000001e+02 8.660254037844386e+02 4.000000000000000e+03 
  endloop 
 endfacet 
 facet normal  4.067366430758000e-01 9.135454576426010e-01 -0.000000000000000e+00 
  outer loop 
   vertex  3.090169943749474e+02 9.510565162951535e+02 4.000000000000000e+03 
   vertex  5.000000000000001e+02 8.660254037844386e+02 4.000000000000000e+03 
   vertex  3.090169943749474e+02 9.510565162951535e+02 0.000000000000000e+00 
  endloop 
 endfacet 
 facet normal  0.000000000000000e+00 -0.000000000000000e+00 -1.000000000000000e+00 
  outer loop 
   vertex  3.090169943749474e+02 9.510565162951535e+02 0.000000000000000e+00 
   vertex  0.000000000000000e+00 0.000000000000000e+00 0.000000000000000e+00 
   vertex  1.045284632676534e+02 9.945218953682732e+02 0.000000000000000e+00 
  endloop 
 endfacet 
 facet normal  0.000000000000000e+00 0.000000000000000e+00 1.000000000000000e+00 
  outer loop 
   vertex  1.045284632676534e+02 9.945218953682732e+02 4.000000000000000e+03 
   vertex  0.000000000000000e+00 0.000000000000000e+00 4.000000000000000e+03 
   vertex  3.090169943749474e+02 9.510565162951535e+02 4.000000000000000e+03 
  endloop 
 endfacet 
 facet normal  2.079116908177591e-01 9.781476007338056e-01 0.000000000000000e+00 
  outer loop 
   vertex  3.090169943749474e+02 9.510565162951535e+02 0.000000000000000e+00 
   vertex  1.045284632676534e+02 9.945218953682732e+02 0.000000000000000e+00 
   vertex  3.090169943749474e+02 9.510565162951535e+02 4.000000000000000e+03 
  endloop 
 endfacet 
 facet normal  2.079116908177591e-01 9.781476007338056e-01 -0.000000000000000e+00 
  outer loop 
   vertex  1.045284632676534e+02 9.945218953682732e+02 4.000000000000000e+03 
   vertex  3.090169943749474e+02 9.510565162951535e+02 4.000000000000000e+03 
   vertex  1.045284632676534e+02 9.945218953682732e+02 0.000000000000000e+00 
  endloop 
 endfacet 
 facet normal  0.000000000000000e+00 -0.000000000000000e+00 -1.000000000000000e+00 
  outer loop 
   vertex  1.045284632676534e+02 9.945218953682732e+02 0.000000000000000e+00 
   vertex  0.000000000000000e+00 0.000000000000000e+00 0.000000000000000e+00 
   vertex  -1.045284632676533e+02 9.945218953682734e+02 0.000000000000000e+00 
  endloop 
 endfacet 
 facet normal  0.000000000000000e+00 0.000000000000000e+00 1.000000000000000e+00 
  outer loop 
   vertex  -1.045284632676533e+02 9.945218953682734e+02 4.000000000000000e+03 
   vertex  0.000000000000000e+00 0.000000000000000e+00 4.000000000000000e+03 
   vertex  1.045284632676534e+02 9.945218953682732e+02 4.000000000000000e+03 
  endloop 
 endfacet 
 facet normal  5.438080412151085e-16 1.000000000000000e+00 0.000000000000000e+00 
  outer loop 
   vertex  1.045284632676534e+02 9.945218953682732e+02 0.000000000000000e+00 
   vertex  -1.045284632676533e+02 9.945218953682734e+02 0.000000000000000e+00 
   vertex  1.045284632676534e+02 9.945218953682732e+02 4.000000000000000e+03 
  endloop 
 endfacet 
 facet normal  5.438080412151085e-16 1.000000000000000e+00 -0.000000000000000e+00 
  outer loop 
   vertex  -1.045284632676533e+02 9.945218953682734e+02 4.000000000000000e+03 
   vertex  1.045284632676534e+02 9.945218953682732e+02 4.000000000000000e+03 
   vertex  -1.045284632676533e+02 9.945218953682734e+02 0.000000000000000e+00 
  endloop 
 endfacet 
 facet normal  0.000000000000000e+00 0.000000000000000e+00 -1.000000000000000e+00 
  outer loop 
   vertex  -1.045284632676533e+02 9.945218953682734e+02 0.000000000000000e+00 
   vertex  0.000000000000000e+00 0.000000000000000e+00 0.000000000000000e+00 
   vertex  -3.090169943749473e+02 9.510565162951536e+02 0.000000000000000e+00 
  endloop 
 endfacet 
 facet normal  0.000000000000000e+00 0.000000000000000e+00 1.000000000000000e+00 
  outer loop 
   vertex  -3.090169943749473e+02 9.510565162951536e+02 4.000000000000000e+03 
   vertex  0.000000000000000e+00 0.000000000000000e+00 4.000000000000000e+03 
   vertex  -1.045284632676533e+02 9.945218953682734e+02 4.000000000000000e+03 
  endloop 
 endfacet 
 facet normal  -2.079116908177591e-01 9.781476007338056e-01 0.000000000000000e+00 
  outer loop 
   vertex  -1.045284632676533e+02 9.945218953682734e+02 0.000000000000000e+00 
   vertex  -3.090169943749473e+02 9.510565162951536e+02 0.000000000000000e+00 
   vertex  -1.045284632676533e+02 9.945218953682734e+02 4.000000000000000e+03 
  endloop 
 endfacet 
 facet normal  -2.079116908177591e-01 9.781476007338056e-01 0.000000000000000e+00 
  outer loop 
   vertex  -3.090169943749473e+02 9.510565162951536e+02 4.000000000000000e+03 
   vertex  -1.045284632676533e+02 9.945218953682734e+02 4.000000000000000e+03 
   vertex  -3.090169943749473e+02 9.510565162951536e+02 0.000000000000000e+00 
  endloop 
 endfacet 
 facet normal  0.000000000000000e+00 0.000000000000000e+00 -1.000000000000000e+00 
  outer loop 
   vertex  -3.090169943749473e+02 9.510565162951536e+02 0.000000000000000e+00 
   vertex  0.000000000000000e+00 0.000000000000000e+00 0.000000000000000e+00 
   vertex  -4.999999999999998e+02 8.660254037844387e+02 0.000000000000000e+00 
  endloop 
 endfacet 
 facet normal  0.000000000000000e+00 0.000000000000000e+00 1.000000000000000e+00 
  outer loop 
   vertex  -4.999999999999998e+02 8.660254037844387e+02 4.000000000000000e+03 
   vertex  0.000000000000000e+00 0.000000000000000e+00 4.000000000000000e+03 
   vertex  -3.090169943749473e+02 9.510565162951536e+02 4.000000000000000e+03 
  endloop 
 endfacet 
 facet normal  -4.067366430758005e-01 9.135454576426008e-01 0.000000000000000e+00 
  outer loop 
   vertex  -3.090169943749473e+02 9.510565162951536e+02 0.000000000000000e+00 
   vertex  -4.999999999999998e+02 8.660254037844387e+02 0.000000000000000e+00 
   vertex  -3.090169943749473e+02 9.510565162951536e+02 4.000000000000000e+03 
  endloop 
 endfacet 
 facet normal  -4.067366430758005e-01 9.135454576426008e-01 0.000000000000000e+00 
  outer loop 
   vertex  -4.999999999999998e+02 8.660254037844387e+02 4.000000000000000e+03 
   vertex  -3.090169943749473e+02 9.510565162951536e+02 4.000000000000000e+03 
   vertex  -4.999999999999998e+02 8.660254037844387e+02 0.000000000000000e+00 
  endloop 
 endfacet 
 facet normal  0.000000000000000e+00 0.000000000000000e+00 -1.000000000000000e+00 
  outer loop 
   vertex  -4.999999999999998e+02 8.660254037844387e+02 0.000000000000000e+00 
   vertex  0.000000000000000e+00 0.000000000000000e+00 0.000000000000000e+00 
   vertex  -6.691306063588579e+02 7.431448254773944e+02 0.000000000000000e+00 
  endloop 
 endfacet 
 facet normal  0.000000000000000e+00 0.000000000000000e+00 1.000000000000000e+00 
  outer loop 
   vertex  -6.691306063588579e+02 7.431448254773944e+02 4.000000000000000e+03 
   vertex  0.000000000000000e+00 0.000000000000000e+00 4.000000000000000e+03 
   vertex  -4.999999999999998e+02 8.660254037844387e+02 4.000000000000000e+03 
  endloop 
 endfacet 
 facet normal  -5.877852522924729e-01 8.090169943749476e-01 0.000000000000000e+00 
  outer loop 
   vertex  -4.999999999999998e+02 8.660254037844387e+02 0.000000000000000e+00 
   vertex  -6.691306063588579e+02 7.431448254773944e+02 0.000000000000000e+00 
   vertex  -4.999999999999998e+02 8.660254037844387e+02 4.000000000000000e+03 
  endloop 
 endfacet 
 facet normal  -5.877852522924729e-01 8.090169943749476e-01 0.000000000000000e+00 
  outer loop 
   vertex  -6.691306063588579e+02 7.431448254773944e+02 4.000000000000000e+03 
   vertex  -4.999999999999998e+02 8.660254037844387e+02 4.000000000000000e+03 
   vertex  -6.691306063588579e+02 7.431448254773944e+02 0.000000000000000e+00 
  endloop 
 endfacet 
 facet normal  0.000000000000000e+00 0.000000000000000e+00 -1.000000000000000e+00 
  outer loop 
   vertex  -6.691306063588579e+02 7.431448254773944e+02 0.000000000000000e+00 
   vertex  0.000000000000000e+00 0.000000000000000e+00 0.000000000000000e+00 
   vertex  -8.090169943749473e+02 5.877852522924733e+02 0.000000000000000e+00 
  endloop 
 endfacet 
 facet normal  0.000000000000000e+00 0.000000000000000e+00 1.000000000000000e+00 
  outer loop 
   vertex  -8.090169943749473e+02 5.877852522924733e+02 4.000000000000000e+03 
   vertex  0.000000000000000e+00 0.000000000000000e+00 4.000000000000000e+03 
   vertex  -6.691306063588579e+02 7.431448254773944e+02 4.000000000000000e+03 
  endloop 
 endfacet 
 facet normal  -7.431448254773938e-01 6.691306063588587e-01 0.000000000000000e+00 
  outer loop 
   vertex  -6.691306063588579e+02 7.431448254773944e+02 0.000000000000000e+00 
   vertex  -8.090169943749473e+02 5.877852522924733e+02 0.000000000000000e+00 
   vertex  -6.691306063588579e+02 7.431448254773944e+02 4.000000000000000e+03 
  endloop 
 endfacet 
 facet normal  -7.431448254773938e-01 6.691306063588587e-01 0.000000000000000e+00 
  outer loop 
   vertex  -8.090169943749473e+02 5.877852522924733e+02 4.000000000000000e+03 
   vertex  -6.691306063588579e+02 7.431448254773944e+02 4.000000000000000e+03 
   vertex  -8.090169943749473e+02 5.877852522924733e+02 0.000000000000000e+00 
  endloop 
 endfacet 
 facet normal  0.000000000000000e+00 0.000000000000000e+00 -1.000000000000000e+00 
  outer loop 
   vertex  -8.090169943749473e+02 5.877852522924733e+02 0.000000000000000e+00 
   vertex  0.000000000000000e+00 0.000000000000000e+00 0.000000000000000e+00 
   vertex  -9.135454576426009e+02 4.067366430758000e+02 0.000000000000000e+00 
  endloop 
 endfacet 
 facet normal  0.000000000000000e+00 0.000000000000000e+00 1.000000000000000e+00 
  outer loop 
   vertex  -9.135454576426009e+02 4.067366430758000e+02 4.000000000000000e+03 
   vertex  0.000000000000000e+00 0.000000000000000e+00 4.000000000000000e+03 
   vertex  -8.090169943749473e+02 5.877852522924733e+02 4.000000000000000e+03 
  endloop 
 endfacet 
 facet normal  -8.660254037844386e-01 4.999999999999997e-01 0.000000000000000e+00 
  outer loop 
   vertex  -8.090169943749473e+02 5.877852522924733e+02 0.000000000000000e+00 
   vertex  -9.135454576426009e+02 4.067366430758000e+02 0.000000000000000e+00 
   vertex  -8.090169943749473e+02 5.877852522924733e+02 4.000000000000000e+03 
  endloop 
 endfacet 
 facet normal  -8.660254037844386e-01 4.999999999999997e-01 0.000000000000000e+00 
  outer loop 
   vertex  -9.135454576426009e+02 4.067366430758000e+02 4.000000000000000e+03 
   vertex  -8.090169943749473e+02 5.877852522924733e+02 4.000000000000000e+03 
   vertex  -9.135454576426009e+02 4.067366430758000e+02 0.000000000000000e+00 
  endloop 
 endfacet 
 facet normal  0.000000000000000e+00 0.000000000000000e+00 -1.000000000000000e+00 
  outer loop 
   vertex  -9.135454576426009e+02 4.067366430758000e+02 0.000000000000000e+00 
   vertex  0.000000000000000e+00 0.000000000000000e+00 0.000000000000000e+00 
   vertex  -9.781476007338057e+02 2.079116908177593e+02 0.000000000000000e+00 
  endloop 
 endfacet 
 facet normal  0.000000000000000e+00 0.000000000000000e+00 1.000000000000000e+00 
  outer loop 
   vertex  -9.781476007338057e+02 2.079116908177593e+02 4.000000000000000e+03 
   vertex  0.000000000000000e+00 0.000000000000000e+00 4.000000000000000e+03 
   vertex  -9.135454576426009e+02 4.067366430758000e+02 4.000000000000000e+03 
  endloop 
 endfacet 
 facet normal  -9.510565162951535e-01 3.090169943749478e-01 0.000000000000000e+00 
  outer loop 
   vertex  -9.135454576426009e+02 4.067366430758000e+02 0.000000000000000e+00 
   vertex  -9.781476007338057e+02 2.079116908177593e+02 0.000000000000000e+00 
   vertex  -9.135454576426009e+02 4.067366430758000e+02 4.000000000000000e+03 
  endloop 
 endfacet 
 facet normal  -9.510565162951535e-01 3.090169943749478e-01 0.000000000000000e+00 
  outer loop 
   vertex  -9.781476007338057e+02 2.079116908177593e+02 4.000000000000000e+03 
   vertex  -9.135454576426009e+02 4.067366430758000e+02 4.000000000000000e+03 
   vertex  -9.781476007338057e+02 2.079116908177593e+02 0.000000000000000e+00 
  endloop 
 endfacet 
 facet normal  0.000000000000000e+00 0.000000000000000e+00 -1.000000000000000e+00 
  outer loop 
   vertex  -9.781476007338057e+02 2.079116908177593e+02 0.000000000000000e+00 
   vertex  0.000000000000000e+00 0.000000000000000e+00 0.000000000000000e+00 
   vertex  -1.000000000000000e+03 1.224646799147353e-13 0.000000000000000e+00 
  endloop 
 endfacet 
 facet normal  0.000000000000000e+00 0.000000000000000e+00 1.000000000000000e+00 
  outer loop 
   vertex  -1.000000000000000e+03 1.224646799147353e-13 4.000000000000000e+03 
   vertex  0.000000000000000e+00 0.000000000000000e+00 4.000000000000000e+03 
   vertex  -9.781476007338057e+02 2.079116908177593e+02 4.000000000000000e+03 
  endloop 
 endfacet 
 facet normal  -9.945218953682734e-01 1.045284632676533e-01 0.000000000000000e+00 
  outer loop 
   vertex  -9.781476007338057e+02 2.079116908177593e+02 0.000000000000000e+00 
   vertex  -1.000000000000000e+03 1.224646799147353e-13 0.000000000000000e+00 
   vertex  -9.781476007338057e+02 2.079116908177593e+02 4.000000000000000e+03 
  endloop 
 endfacet 
 facet normal  -9.945218953682734e-01 1.045284632676533e-01 0.000000000000000e+00 
  outer loop 
   vertex  -1.000000000000000e+03 1.224646799147353e-13 4.000000000000000e+03 
   vertex  -9.781476007338057e+02 2.079116908177593e+02 4.000000000000000e+03 
   vertex  -1.000000000000000e+03 1.224646799147353e-13 0.000000000000000e+00 
  endloop 
 endfacet 
 facet normal  0.000000000000000e+00 0.000000000000000e+00 -1.000000000000000e+00 
  outer loop 
   vertex  -1.000000000000000e+03 1.224646799147353e-13 0.000000000000000e+00 
   vertex  0.000000000000000e+00 0.000000000000000e+00 0.000000000000000e+00 
   vertex  -9.781476007338057e+02 -2.079116908177591e+02 0.000000000000000e+00 
  endloop 
 endfacet 
 facet normal  -0.000000000000000e+00 0.000000000000000e+00 1.000000000000000e+00 
  outer loop 
   vertex  -9.781476007338057e+02 -2.079116908177591e+02 4.000000000000000e+03 
   vertex  0.000000000000000e+00 0.000000000000000e+00 4.000000000000000e+03 
   vertex  -1.000000000000000e+03 1.224646799147353e-13 4.000000000000000e+03 
  endloop 
 endfacet 
 facet normal  -9.945218953682734e-01 -1.045284632676533e-01 -0.000000000000000e+00 
  outer loop 
   vertex  -1.000000000000000e+03 1.224646799147353e-13 0.000000000000000e+00 
   vertex  -9.781476007338057e+02 -2.079116908177591e+02 0.000000000000000e+00 
   vertex  -1.000000000000000e+03 1.224646799147353e-13 4.000000000000000e+03 
  endloop 
 endfacet 
 facet normal  -9.945218953682734e-01 -1.045284632676533e-01 0.000000000000000e+00 
  outer loop 
   vertex  -9.781476007338057e+02 -2.079116908177591e+02 4.000000000000000e+03 
   vertex  -1.000000000000000e+03 1.224646799147353e-13 4.000000000000000e+03 
   vertex  -9.781476007338057e+02 -2.079116908177591e+02 0.000000000000000e+00 
  endloop 
 endfacet 
 facet normal  0.000000000000000e+00 0.000000000000000e+00 -1.000000000000000e+00 
  outer loop 
   vertex  -9.781476007338057e+02 -2.079116908177591e+02 0.000000000000000e+00 
   vertex  0.000000000000000e+00 0.000000000000000e+00 0.000000000000000e+00 
   vertex  -9.135454576426010e+02 -4.067366430757998e+02 0.000000000000000e+00 
  endloop 
 endfacet 
 facet normal  -0.000000000000000e+00 0.000000000000000e+00 1.000000000000000e+00 
  outer loop 
   vertex  -9.135454576426010e+02 -4.067366430757998e+02 4.000000000000000e+03 
   vertex  0.000000000000000e+00 0.000000000000000e+00 4.000000000000000e+03 
   vertex  -9.781476007338057e+02 -2.079116908177591e+02 4.000000000000000e+03 
  endloop 
 endfacet 
 facet normal  -9.510565162951535e-01 -3.090169943749472e-01 -0.000000000000000e+00 
  outer loop 
   vertex  -9.781476007338057e+02 -2.079116908177591e+02 0.000000000000000e+00 
   vertex  -9.135454576426010e+02 -4.067366430757998e+02 0.000000000000000e+00 
   vertex  -9.781476007338057e+02 -2.079116908177591e+02 4.000000000000000e+03 
  endloop 
 endfacet 
 facet normal  -9.510565162951535e-01 -3.090169943749472e-01 0.000000000000000e+00 
  outer loop 
   vertex  -9.135454576426010e+02 -4.067366430757998e+02 4.000000000000000e+03 
   vertex  -9.781476007338057e+02 -2.079116908177591e+02 4.000000000000000e+03 
   vertex  -9.135454576426010e+02 -4.067366430757998e+02 0.000000000000000e+00 
  endloop 
 endfacet 
 facet normal  0.000000000000000e+00 0.000000000000000e+00 -1.000000000000000e+00 
  outer loop 
   vertex  -9.135454576426010e+02 -4.067366430757998e+02 0.000000000000000e+00 
   vertex  0.000000000000000e+00 0.000000000000000e+00 0.000000000000000e+00 
   vertex  -8.090169943749474e+02 -5.877852522924730e+02 0.000000000000000e+00 
  endloop 
 endfacet 
 facet normal  -0.000000000000000e+00 0.000000000000000e+00 1.000000000000000e+00 
  outer loop 
   vertex  -8.090169943749474e+02 -5.877852522924730e+02 4.000000000000000e+03 
   vertex  0.000000000000000e+00 0.000000000000000e+00 4.000000000000000e+03 
   vertex  -9.135454576426010e+02 -4.067366430757998e+02 4.000000000000000e+03 
  endloop 
 endfacet 
 facet normal  -8.660254037844386e-01 -4.999999999999997e-01 -0.000000000000000e+00 
  outer loop 
   vertex  -9.135454576426010e+02 -4.067366430757998e+02 0.000000000000000e+00 
   vertex  -8.090169943749474e+02 -5.877852522924730e+02 0.000000000000000e+00 
   vertex  -9.135454576426010e+02 -4.067366430757998e+02 4.000000000000000e+03 
  endloop 
 endfacet 
 facet normal  -8.660254037844386e-01 -4.999999999999997e-01 0.000000000000000e+00 
  outer loop 
   vertex  -8.090169943749474e+02 -5.877852522924730e+02 4.000000000000000e+03 
   vertex  -9.135454576426010e+02 -4.067366430757998e+02 4.000000000000000e+03 
   vertex  -8.090169943749474e+02 -5.877852522924730e+02 0.000000000000000e+00 
  endloop 
 endfacet 
 facet normal  0.000000000000000e+00 0.000000000000000e+00 -1.000000000000000e+00 
  outer loop 
   vertex  -8.090169943749474e+02 -5.877852522924730e+02 0.000000000000000e+00 
   vertex  0.000000000000000e+00 0.000000000000000e+00 0.000000000000000e+00 
   vertex  -6.691306063588585e+02 -7.431448254773941e+02 0.000000000000000e+00 
  endloop 
 endfacet 
 facet normal  -0.000000000000000e+00 0.000000000000000e+00 1.000000000000000e+00 
  outer loop 
   vertex  -6.691306063588585e+02 -7.431448254773941e+02 4.000000000000000e+03 
   vertex  0.000000000000000e+00 0.000000000000000e+00 4.000000000000000e+03 
   vertex  -8.090169943749474e+02 -5.877852522924730e+02 4.000000000000000e+03 
  endloop 
 endfacet 
 facet normal  -7.431448254773946e-01 -6.691306063588578e-01 -0.000000000000000e+00 
  outer loop 
   vertex  -8.090169943749474e+02 -5.877852522924730e+02 0.000000000000000e+00 
   vertex  -6.691306063588585e+02 -7.431448254773941e+02 0.000000000000000e+00 
   vertex  -8.090169943749474e+02 -5.877852522924730e+02 4.000000000000000e+03 
  endloop 
 endfacet 
 facet normal  -7.431448254773946e-01 -6.691306063588578e-01 0.000000000000000e+00 
  outer loop 
   vertex  -6.691306063588585e+02 -7.431448254773941e+02 4.000000000000000e+03 
   vertex  -8.090169943749474e+02 -5.877852522924730e+02 4.000000000000000e+03 
   vertex  -6.691306063588585e+02 -7.431448254773941e+02 0.000000000000000e+00 
  endloop 
 endfacet 
 facet normal  0.000000000000000e+00 0.000000000000000e+00 -1.000000000000000e+00 
  outer loop 
   vertex  -6.691306063588585e+02 -7.431448254773941e+02 0.000000000000000e+00 
   vertex  0.000000000000000e+00 0.000000000000000e+00 0.000000000000000e+00 
   vertex  -5.000000000000005e+02 -8.660254037844385e+02 0.000000000000000e+00 
  endloop 
 endfacet 
 facet normal  -0.000000000000000e+00 0.000000000000000e+00 1.000000000000000e+00 
  outer loop 
   vertex  -5.000000000000005e+02 -8.660254037844385e+02 4.000000000000000e+03 
   vertex  0.000000000000000e+00 0.000000000000000e+00 4.000000000000000e+03 
   vertex  -6.691306063588585e+02 -7.431448254773941e+02 4.000000000000000e+03 
  endloop 
 endfacet 
 facet normal  -5.877852522924735e-01 -8.090169943749470e-01 -0.000000000000000e+00 
  outer loop 
   vertex  -6.691306063588585e+02 -7.431448254773941e+02 0.000000000000000e+00 
   vertex  -5.000000000000005e+02 -8.660254037844385e+02 0.000000000000000e+00 
   vertex  -6.691306063588585e+02 -7.431448254773941e+02 4.000000000000000e+03 
  endloop 
 endfacet 
 facet normal  -5.877852522924735e-01 -8.090169943749470e-01 0.000000000000000e+00 
  outer loop 
   vertex  -5.000000000000005e+02 -8.660254037844385e+02 4.000000000000000e+03 
   vertex  -6.691306063588585e+02 -7.431448254773941e+02 4.000000000000000e+03 
   vertex  -5.000000000000005e+02 -8.660254037844385e+02 0.000000000000000e+00 
  endloop 
 endfacet 
 facet normal  0.000000000000000e+00 0.000000000000000e+00 -1.000000000000000e+00 
  outer loop 
   vertex  -5.000000000000005e+02 -8.660254037844385e+02 0.000000000000000e+00 
   vertex  0.000000000000000e+00 0.000000000000000e+00 0.000000000000000e+00 
   vertex  -3.090169943749476e+02 -9.510565162951535e+02 0.000000000000000e+00 
  endloop 
 endfacet 
 facet normal  -0.000000000000000e+00 0.000000000000000e+00 1.000000000000000e+00 
  outer loop 
   vertex  -3.090169943749476e+02 -9.510565162951535e+02 4.000000000000000e+03 
   vertex  0.000000000000000e+00 0.000000000000000e+00 4.000000000000000e+03 
   vertex  -5.000000000000005e+02 -8.660254037844385e+02 4.000000000000000e+03 
  endloop 
 endfacet 
 facet normal  -4.067366430758001e-01 -9.135454576426010e-01 -0.000000000000000e+00 
  outer loop 
   vertex  -5.000000000000005e+02 -8.660254037844385e+02 0.000000000000000e+00 
   vertex  -3.090169943749476e+02 -9.510565162951535e+02 0.000000000000000e+00 
   vertex  -5.000000000000005e+02 -8.660254037844385e+02 4.000000000000000e+03 
  endloop 
 endfacet 
 facet normal  -4.067366430758001e-01 -9.135454576426010e-01 0.000000000000000e+00 
  outer loop 
   vertex  -3.090169943749476e+02 -9.510565162951535e+02 4.000000000000000e+03 
   vertex  -5.000000000000005e+02 -8.660254037844385e+02 4.000000000000000e+03 
   vertex  -3.090169943749476e+02 -9.510565162951535e+02 0.000000000000000e+00 
  endloop 
 endfacet 
 facet normal  0.000000000000000e+00 0.000000000000000e+00 -1.000000000000000e+00 
  outer loop 
   vertex  -3.090169943749476e+02 -9.510565162951535e+02 0.000000000000000e+00 
   vertex  0.000000000000000e+00 0.000000000000000e+00 0.000000000000000e+00 
   vertex  -1.045284632676542e+02 -9.945218953682732e+02 0.000000000000000e+00 
  endloop 
 endfacet 
 facet normal  -0.000000000000000e+00 0.000000000000000e+00 1.000000000000000e+00 
  outer loop 
   vertex  -1.045284632676542e+02 -9.945218953682732e+02 4.000000000000000e+03 
   vertex  0.000000000000000e+00 0.000000000000000e+00 4.000000000000000e+03 
   vertex  -3.090169943749476e+02 -9.510565162951535e+02 4.000000000000000e+03 
  endloop 
 endfacet 
 facet normal  -2.079116908177598e-01 -9.781476007338057e-01 -0.000000000000000e+00 
  outer loop 
   vertex  -3.090169943749476e+02 -9.510565162951535e+02 0.000000000000000e+00 
   vertex  -1.045284632676542e+02 -9.945218953682732e+02 0.000000000000000e+00 
   vertex  -3.090169943749476e+02 -9.510565162951535e+02 4.000000000000000e+03 
  endloop 
 endfacet 
 facet normal  -2.079116908177598e-01 -9.781476007338057e-01 0.000000000000000e+00 
  outer loop 
   vertex  -1.045284632676542e+02 -9.945218953682732e+02 4.000000000000000e+03 
   vertex  -3.090169943749476e+02 -9.510565162951535e+02 4.000000000000000e+03 
   vertex  -1.045284632676542e+02 -9.945218953682732e+02 0.000000000000000e+00 
  endloop 
 endfacet 
 facet normal  0.000000000000000e+00 0.000000000000000e+00 -1.000000000000000e+00 
  outer loop 
   vertex  -1.045284632676542e+02 -9.945218953682732e+02 0.000000000000000e+00 
   vertex  0.000000000000000e+00 0.000000000000000e+00 0.000000000000000e+00 
   vertex  1.045284632676539e+02 -9.945218953682732e+02 0.000000000000000e+00 
  endloop 
 endfacet 
 facet normal  0.000000000000000e+00 -0.000000000000000e+00 1.000000000000000e+00 
  outer loop 
   vertex  1.045284632676539e+02 -9.945218953682732e+02 4.000000000000000e+03 
   vertex  0.000000000000000e+00 0.000000000000000e+00 4.000000000000000e+03 
   vertex  -1.045284632676542e+02 -9.945218953682732e+02 4.000000000000000e+03 
  endloop 
 endfacet 
 facet normal  0.000000000000000e+00 -1.000000000000000e+00 0.000000000000000e+00 
  outer loop 
   vertex  -1.045284632676542e+02 -9.945218953682732e+02 0.000000000000000e+00 
   vertex  1.045284632676539e+02 -9.945218953682732e+02 0.000000000000000e+00 
   vertex  -1.045284632676542e+02 -9.945218953682732e+02 4.000000000000000e+03 
  endloop 
 endfacet 
 facet normal  0.000000000000000e+00 -1.000000000000000e+00 0.000000000000000e+00 
  outer loop 
   vertex  1.045284632676539e+02 -9.945218953682732e+02 4.000000000000000e+03 
   vertex  -1.045284632676542e+02 -9.945218953682732e+02 4.000000000000000e+03 
   vertex  1.045284632676539e+02 -9.945218953682732e+02 0.000000000000000e+00 
  endloop 
 endfacet 
 facet normal  -0.000000000000000e+00 0.000000000000000e+00 -1.000000000000000e+00 
  outer loop 
   vertex  1.045284632676539e+02 -9.945218953682732e+02 0.000000000000000e+00 
   vertex  0.000000000000000e+00 0.000000000000000e+00 0.000000000000000e+00 
   vertex  3.090169943749472e+02 -9.510565162951536e+02 0.000000000000000e+00 
  endloop 
 endfacet 
 facet normal  0.000000000000000e+00 -0.000000000000000e+00 1.000000000000000e+00 
  outer loop 
   vertex  3.090169943749472e+02 -9.510565162951536e+02 4.000000000000000e+03 
   vertex  0.000000000000000e+00 0.000000000000000e+00 4.000000000000000e+03 
   vertex  1.045284632676539e+02 -9.945218953682732e+02 4.000000000000000e+03 
  endloop 
 endfacet 
 facet normal  2.079116908177592e-01 -9.781476007338057e-01 0.000000000000000e+00 
  outer loop 
   vertex  1.045284632676539e+02 -9.945218953682732e+02 0.000000000000000e+00 
   vertex  3.090169943749472e+02 -9.510565162951536e+02 0.000000000000000e+00 
   vertex  1.045284632676539e+02 -9.945218953682732e+02 4.000000000000000e+03 
  endloop 
 endfacet 
 facet normal  2.079116908177592e-01 -9.781476007338057e-01 0.000000000000000e+00 
  outer loop 
   vertex  3.090169943749472e+02 -9.510565162951536e+02 4.000000000000000e+03 
   vertex  1.045284632676539e+02 -9.945218953682732e+02 4.000000000000000e+03 
   vertex  3.090169943749472e+02 -9.510565162951536e+02 0.000000000000000e+00 
  endloop 
 endfacet 
 facet normal  -0.000000000000000e+00 0.000000000000000e+00 -1.000000000000000e+00 
  outer loop 
   vertex  3.090169943749472e+02 -9.510565162951536e+02 0.000000000000000e+00 
   vertex  0.000000000000000e+00 0.000000000000000e+00 0.000000000000000e+00 
   vertex  5.000000000000001e+02 -8.660254037844386e+02 0.000000000000000e+00 
  endloop 
 endfacet 
 facet normal  0.000000000000000e+00 -0.000000000000000e+00 1.000000000000000e+00 
  outer loop 
   vertex  5.000000000000001e+02 -8.660254037844386e+02 4.000000000000000e+03 
   vertex  0.000000000000000e+00 0.000000000000000e+00 4.000000000000000e+03 
   vertex  3.090169943749472e+02 -9.510565162951536e+02 4.000000000000000e+03 
  endloop 
 endfacet 
 facet normal  4.067366430758001e-01 -9.135454576426010e-01 0.000000000000000e+00 
  outer loop 
   vertex  3.090169943749472e+02 -9.510565162951536e+02 0.000000000000000e+00 
   vertex  5.000000000000001e+02 -8.660254037844386e+02 0.000000000000000e+00 
   vertex  3.090169943749472e+02 -9.510565162951536e+02 4.000000000000000e+03 
  endloop 
 endfacet 
 facet normal  4.067366430758001e-01 -9.135454576426010e-01 0.000000000000000e+00 
  outer loop 
   vertex  5.000000000000001e+02 -8.660254037844386e+02 4.000000000000000e+03 
   vertex  3.090169943749472e+02 -9.510565162951536e+02 4.000000000000000e+03 
   vertex  5.000000000000001e+02 -8.660254037844386e+02 0.000000000000000e+00 
  endloop 
 endfacet 
 facet normal  -0.000000000000000e+00 0.000000000000000e+00 -1.000000000000000e+00 
  outer loop 
   vertex  5.000000000000001e+02 -8.660254037844386e+02 0.000000000000000e+00 
   vertex  0.000000000000000e+00 0.000000000000000e+00 0.000000000000000e+00 
   vertex  6.691306063588585e+02 -7.431448254773941e+02 0.000000000000000e+00 
  endloop 
 endfacet 
 facet normal  0.000000000000000e+00 -0.000000000000000e+00 1.000000000000000e+00 
  outer loop 
   vertex  6.691306063588585e+02 -7.431448254773941e+02 4.000000000000000e+03 
   vertex  0.000000000000000e+00 0.000000000000000e+00 4.000000000000000e+03 
   vertex  5.000000000000001e+02 -8.660254037844386e+02 4.000000000000000e+03 
  endloop 
 endfacet 
 facet normal  5.877852522924731e-01 -8.090169943749473e-01 0.000000000000000e+00 
  outer loop 
   vertex  5.000000000000001e+02 -8.660254037844386e+02 0.000000000000000e+00 
   vertex  6.691306063588585e+02 -7.431448254773941e+02 0.000000000000000e+00 
   vertex  5.000000000000001e+02 -8.660254037844386e+02 4.000000000000000e+03 
  endloop 
 endfacet 
 facet normal  5.877852522924731e-01 -8.090169943749473e-01 0.000000000000000e+00 
  outer loop 
   vertex  6.691306063588585e+02 -7.431448254773941e+02 4.000000000000000e+03 
   vertex  5.000000000000001e+02 -8.660254037844386e+02 4.000000000000000e+03 
   vertex  6.691306063588585e+02 -7.431448254773941e+02 0.000000000000000e+00 
  endloop 
 endfacet 
 facet normal  -0.000000000000000e+00 0.000000000000000e+00 -1.000000000000000e+00 
  outer loop 
   vertex  6.691306063588585e+02 -7.431448254773941e+02 0.000000000000000e+00 
   vertex  0.000000000000000e+00 0.000000000000000e+00 0.000000000000000e+00 
   vertex  8.090169943749473e+02 -5.877852522924734e+02 0.000000000000000e+00 
  endloop 
 endfacet 
 facet normal  0.000000000000000e+00 -0.000000000000000e+00 1.000000000000000e+00 
  outer loop 
   vertex  8.090169943749473e+02 -5.877852522924734e+02 4.000000000000000e+03 
   vertex  0.000000000000000e+00 0.000000000000000e+00 4.000000000000000e+03 
   vertex  6.691306063588585e+02 -7.431448254773941e+02 4.000000000000000e+03 
  endloop 
 endfacet 
 facet normal  7.431448254773941e-01 -6.691306063588583e-01 0.000000000000000e+00 
  outer loop 
   vertex  6.691306063588585e+02 -7.431448254773941e+02 0.000000000000000e+00 
   vertex  8.090169943749473e+02 -5.877852522924734e+02 0.000000000000000e+00 
   vertex  6.691306063588585e+02 -7.431448254773941e+02 4.000000000000000e+03 
  endloop 
 endfacet 
 facet normal  7.431448254773941e-01 -6.691306063588583e-01 0.000000000000000e+00 
  outer loop 
   vertex  8.090169943749473e+02 -5.877852522924734e+02 4.000000000000000e+03 
   vertex  6.691306063588585e+02 -7.431448254773941e+02 4.000000000000000e+03 
   vertex  8.090169943749473e+02 -5.877852522924734e+02 0.000000000000000e+00 
  endloop 
 endfacet 
 facet normal  -0.000000000000000e+00 0.000000000000000e+00 -1.000000000000000e+00 
  outer loop 
   vertex  8.090169943749473e+02 -5.877852522924734e+02 0.000000000000000e+00 
   vertex  0.000000000000000e+00 0.000000000000000e+00 0.000000000000000e+00 
   vertex  9.135454576426009e+02 -4.067366430758001e+02 0.000000000000000e+00 
  endloop 
 endfacet 
 facet normal  0.000000000000000e+00 -0.000000000000000e+00 1.000000000000000e+00 
  outer loop 
   vertex  9.135454576426009e+02 -4.067366430758001e+02 4.000000000000000e+03 
   vertex  0.000000000000000e+00 0.000000000000000e+00 4.000000000000000e+03 
   vertex  8.090169943749473e+02 -5.877852522924734e+02 4.000000000000000e+03 
  endloop 
 endfacet 
 facet normal  8.660254037844386e-01 -4.999999999999997e-01 0.000000000000000e+00 
  outer loop 
   vertex  8.090169943749473e+02 -5.877852522924734e+02 0.000000000000000e+00 
   vertex  9.135454576426009e+02 -4.067366430758001e+02 0.000000000000000e+00 
   vertex  8.090169943749473e+02 -5.877852522924734e+02 4.000000000000000e+03 
  endloop 
 endfacet 
 facet normal  8.660254037844386e-01 -4.999999999999997e-01 0.000000000000000e+00 
  outer loop 
   vertex  9.135454576426009e+02 -4.067366430758001e+02 4.000000000000000e+03 
   vertex  8.090169943749473e+02 -5.877852522924734e+02 4.000000000000000e+03 
   vertex  9.135454576426009e+02 -4.067366430758001e+02 0.000000000000000e+00 
  endloop 
 endfacet 
 facet normal  -0.000000000000000e+00 0.000000000000000e+00 -1.000000000000000e+00 
  outer loop 
   vertex  9.135454576426009e+02 -4.067366430758001e+02 0.000000000000000e+00 
   vertex  0.000000000000000e+00 0.000000000000000e+00 0.000000000000000e+00 
   vertex  9.781476007338056e+02 -2.079116908177599e+02 0.000000000000000e+00 
  endloop 
 endfacet 
 facet normal  0.000000000000000e+00 -0.000000000000000e+00 1.000000000000000e+00 
  outer loop 
   vertex  9.781476007338056e+02 -2.079116908177599e+02 4.000000000000000e+03 
   vertex  0.000000000000000e+00 0.000000000000000e+00 4.000000000000000e+03 
   vertex  9.135454576426009e+02 -4.067366430758001e+02 4.000000000000000e+03 
  endloop 
 endfacet 
 facet normal  9.510565162951534e-01 -3.090169943749479e-01 0.000000000000000e+00 
  outer loop 
   vertex  9.135454576426009e+02 -4.067366430758001e+02 0.000000000000000e+00 
   vertex  9.781476007338056e+02 -2.079116908177599e+02 0.000000000000000e+00 
   vertex  9.135454576426009e+02 -4.067366430758001e+02 4.000000000000000e+03 
  endloop 
 endfacet 
 facet normal  9.510565162951534e-01 -3.090169943749479e-01 0.000000000000000e+00 
  outer loop 
   vertex  9.781476007338056e+02 -2.079116908177599e+02 4.000000000000000e+03 
   vertex  9.135454576426009e+02 -4.067366430758001e+02 4.000000000000000e+03 
   vertex  9.781476007338056e+02 -2.079116908177599e+02 0.000000000000000e+00 
  endloop 
 endfacet 
 facet normal  -0.000000000000000e+00 0.000000000000000e+00 -1.000000000000000e+00 
  outer loop 
   vertex  9.781476007338056e+02 -2.079116908177599e+02 0.000000000000000e+00 
   vertex  0.000000000000000e+00 0.000000000000000e+00 0.000000000000000e+00 
   vertex  1.000000000000000e+03 0.000000000000000e+00 0.000000000000000e+00 
  endloop 
 endfacet 
 facet normal  0.000000000000000e+00 -0.000000000000000e+00 1.000000000000000e+00 
  outer loop 
   vertex  1.000000000000000e+03 0.000000000000000e+00 4.000000000000000e+03 
   vertex  0.000000000000000e+00 0.000000000000000e+00 4.000000000000000e+03 
   vertex  9.781476007338056e+02 -2.079116908177599e+02 4.000000000000000e+03 
  endloop 
 endfacet 
 facet normal  9.945218953682733e-01 -1.045284632676535e-01 0.000000000000000e+00 
  outer loop 
   vertex  9.781476007338056e+02 -2.079116908177599e+02 0.000000000000000e+00 
   vertex  1.000000000000000e+03 0.000000000000000e+00 0.000000000000000e+00 
   vertex  9.781476007338056e+02 -2.079116908177599e+02 4.000000000000000e+03 
  endloop 
 endfacet 
 facet normal  9.945218953682733e-01 -1.045284632676535e-01 0.000000000000000e+00 
  outer loop 
   vertex  1.000000000000000e+03 0.000000000000000e+00 4.000000000000000e+03 
   vertex  9.781476007338056e+02 -2.079116908177599e+02 4.000000000000000e+03 
   vertex  1.000000000000000e+03 0.000000000000000e+00 0.000000000000000e+00 
  endloop 
 endfacet 
endsolid