solid cube
 facet normal  0.000000000000000e+00 -0.000000000000000e+00 -1.000000000000000e+00 
  outer loop 
   vertex  0.000000000000000e+00 0.000000000000000e+00 0.000000000000000e+00 
   vertex  -9.184423218221896e+02 -9.184423218221896e+02 0.000000000000000e+00 
   vertex  -9.184423218221896e+02 9.184423218221896e+02 0.000000000000000e+00 
  endloop 
 endfacet 
 facet normal  0.000000000000000e+00 0.000000000000000e+00 -1.000000000000000e+00 
  outer loop 
   vertex  0.000000000000000e+00 0.000000000000000e+00 0.000000000000000e+00 
   vertex  9.184423218221896e+02 -9.184423218221896e+02 0.000000000000000e+00 
   vertex  -9.184423218221896e+02 -9.184423218221896e+02 0.000000000000000e+00 
  endloop 
 endfacet 
 facet normal  0.000000000000000e+00 0.000000000000000e+00 -1.000000000000000e+00 
  outer loop 
   vertex  0.000000000000000e+00 0.000000000000000e+00 0.000000000000000e+00 
   vertex  9.184423218221896e+02 9.184423218221896e+02 0.000000000000000e+00 
   vertex  9.184423218221896e+02 -9.184423218221896e+02 0.000000000000000e+00 
  endloop 
 endfacet 
 facet normal  -0.000000000000000e+00 0.000000000000000e+00 -1.000000000000000e+00 
  outer loop 
   vertex  0.000000000000000e+00 0.000000000000000e+00 0.000000000000000e+00 
   vertex  -9.184423218221896e+02 9.184423218221896e+02 0.000000000000000e+00 
   vertex  9.184423218221896e+02 9.184423218221896e+02 0.000000000000000e+00 
  endloop 
 endfacet 
 facet normal  0.000000000000000e+00 0.000000000000000e+00 1.000000000000000e+00 
  outer loop 
   vertex  0.000000000000000e+00 0.000000000000000e+00 5.510653930933137e+03 
   vertex  -9.184423218221896e+02 -9.184423218221896e+02 5.510653930933137e+03 
   vertex  9.184423218221896e+02 -9.184423218221896e+02 5.510653930933137e+03 
  endloop 
 endfacet 
 facet normal  0.000000000000000e+00 0.000000000000000e+00 1.000000000000000e+00 
  outer loop 
   vertex  0.000000000000000e+00 0.000000000000000e+00 5.510653930933137e+03 
   vertex  9.184423218221896e+02 -9.184423218221896e+02 5.510653930933137e+03 
   vertex  9.184423218221896e+02 9.184423218221896e+02 5.510653930933137e+03 
  endloop 
 endfacet 
 facet normal  -0.000000000000000e+00 0.000000000000000e+00 1.000000000000000e+00 
  outer loop 
   vertex  0.000000000000000e+00 0.000000000000000e+00 5.510653930933137e+03 
   vertex  9.184423218221896e+02 9.184423218221896e+02 5.510653930933137e+03 
   vertex  -9.184423218221896e+02 9.184423218221896e+02 5.510653930933137e+03 
  endloop 
 endfacet 
 facet normal  0.000000000000000e+00 -0.000000000000000e+00 1.000000000000000e+00 
  outer loop 
   vertex  0.000000000000000e+00 0.000000000000000e+00 5.510653930933137e+03 
   vertex  -9.184423218221896e+02 9.184423218221896e+02 5.510653930933137e+03 
   vertex  -9.184423218221896e+02 -9.184423218221896e+02 5.510653930933137e+03 
  endloop 
 endfacet 
 facet normal  0.000000000000000e+00 -1.000000000000000e+00 0.000000000000000e+00 
  outer loop 
   vertex  0.000000000000000e+00 -9.184423218221896e+02 2.755326965466569e+03 
   vertex  -9.184423218221896e+02 -9.184423218221896e+02 5.510653930933137e+03 
   vertex  -9.184423218221896e+02 -9.184423218221896e+02 0.000000000000000e+00 
  endloop 
 endfacet 
 facet normal  -0.000000000000000e+00 -1.000000000000000e+00 0.000000000000000e+00 
  outer loop 
   vertex  0.000000000000000e+00 -9.184423218221896e+02 2.755326965466569e+03 
   vertex  -9.184423218221896e+02 -9.184423218221896e+02 0.000000000000000e+00 
   vertex  9.184423218221896e+02 -9.184423218221896e+02 0.000000000000000e+00 
  endloop 
 endfacet 
 facet normal  0.000000000000000e+00 -1.000000000000000e+00 -0.000000000000000e+00 
  outer loop 
   vertex  0.000000000000000e+00 -9.184423218221896e+02 2.755326965466569e+03 
   vertex  9.184423218221896e+02 -9.184423218221896e+02 0.000000000000000e+00 
   vertex  9.184423218221896e+02 -9.184423218221896e+02 5.510653930933137e+03 
  endloop 
 endfacet 
 facet normal  0.000000000000000e+00 -1.000000000000000e+00 0.000000000000000e+00 
  outer loop 
   vertex  0.000000000000000e+00 -9.184423218221896e+02 2.755326965466569e+03 
   vertex  9.184423218221896e+02 -9.184423218221896e+02 5.510653930933137e+03 
   vertex  -9.184423218221896e+02 -9.184423218221896e+02 5.510653930933137e+03 
  endloop 
 endfacet 
 facet normal  -0.000000000000000e+00 1.000000000000000e+00 0.000000000000000e+00 
  outer loop 
   vertex  0.000000000000000e+00 9.184423218221896e+02 2.755326965466569e+03 
   vertex  9.184423218221896e+02 9.184423218221896e+02 0.000000000000000e+00 
   vertex  -9.184423218221896e+02 9.184423218221896e+02 0.000000000000000e+00 
  endloop 
 endfacet 
 facet normal  0.000000000000000e+00 1.000000000000000e+00 0.000000000000000e+00 
  outer loop 
   vertex  0.000000000000000e+00 9.184423218221896e+02 2.755326965466569e+03 
   vertex  -9.184423218221896e+02 9.184423218221896e+02 0.000000000000000e+00 
   vertex  -9.184423218221896e+02 9.184423218221896e+02 5.510653930933137e+03 
  endloop 
 endfacet 
 facet normal  0.000000000000000e+00 1.000000000000000e+00 0.000000000000000e+00 
  outer loop 
   vertex  0.000000000000000e+00 9.184423218221896e+02 2.755326965466569e+03 
   vertex  -9.184423218221896e+02 9.184423218221896e+02 5.510653930933137e+03 
   vertex  9.184423218221896e+02 9.184423218221896e+02 5.510653930933137e+03 
  endloop 
 endfacet 
 facet normal  0.000000000000000e+00 1.000000000000000e+00 -0.000000000000000e+00 
  outer loop 
   vertex  0.000000000000000e+00 9.184423218221896e+02 2.755326965466569e+03 
   vertex  9.184423218221896e+02 9.184423218221896e+02 5.510653930933137e+03 
   vertex  9.184423218221896e+02 9.184423218221896e+02 0.000000000000000e+00 
  endloop 
 endfacet 
 facet normal  -1.000000000000000e+00 0.000000000000000e+00 -0.000000000000000e+00 
  outer loop 
   vertex  -9.184423218221896e+02 0.000000000000000e+00 2.755326965466569e+03 
   vertex  -9.184423218221896e+02 -9.184423218221896e+02 0.000000000000000e+00 
   vertex  -9.184423218221896e+02 -9.184423218221896e+02 5.510653930933137e+03 
  endloop 
 endfacet 
 facet normal  -1.000000000000000e+00 -0.000000000000000e+00 0.000000000000000e+00 
  outer loop 
   vertex  -9.184423218221896e+02 0.000000000000000e+00 2.755326965466569e+03 
   vertex  -9.184423218221896e+02 -9.184423218221896e+02 5.510653930933137e+03 
   vertex  -9.184423218221896e+02 9.184423218221896e+02 5.510653930933137e+03 
  endloop 
 endfacet 
 facet normal  -1.000000000000000e+00 0.000000000000000e+00 0.000000000000000e+00 
  outer loop 
   vertex  -9.184423218221896e+02 0.000000000000000e+00 2.755326965466569e+03 
   vertex  -9.184423218221896e+02 9.184423218221896e+02 5.510653930933137e+03 
   vertex  -9.184423218221896e+02 9.184423218221896e+02 0.000000000000000e+00 
  endloop 
 endfacet 
 facet normal  -1.000000000000000e+00 0.000000000000000e+00 0.000000000000000e+00 
  outer loop 
   vertex  -9.184423218221896e+02 0.000000000000000e+00 2.755326965466569e+03 
   vertex  -9.184423218221896e+02 9.184423218221896e+02 0.000000000000000e+00 
   vertex  -9.184423218221896e+02 -9.184423218221896e+02 0.000000000000000e+00 
  endloop 
 endfacet 
 facet normal  1.000000000000000e+00 0.000000000000000e+00 0.000000000000000e+00 
  outer loop 
   vertex  9.184423218221896e+02 0.000000000000000e+00 2.755326965466569e+03 
   vertex  9.184423218221896e+02 -9.184423218221896e+02 0.000000000000000e+00 
   vertex  9.184423218221896e+02 9.184423218221896e+02 0.000000000000000e+00 
  endloop 
 endfacet 
 facet normal  1.000000000000000e+00 0.000000000000000e+00 0.000000000000000e+00 
  outer loop 
   vertex  9.184423218221896e+02 0.000000000000000e+00 2.755326965466569e+03 
   vertex  9.184423218221896e+02 9.184423218221896e+02 0.000000000000000e+00 
   vertex  9.184423218221896e+02 9.184423218221896e+02 5.510653930933137e+03 
  endloop 
 endfacet 
 facet normal  1.000000000000000e+00 -0.000000000000000e+00 0.000000000000000e+00 
  outer loop 
   vertex  9.184423218221896e+02 0.000000000000000e+00 2.755326965466569e+03 
   vertex  9.184423218221896e+02 9.184423218221896e+02 5.510653930933137e+03 
   vertex  9.184423218221896e+02 -9.184423218221896e+02 5.510653930933137e+03 
  endloop 
 endfacet 
 facet normal  1.000000000000000e+00 0.000000000000000e+00 -0.000000000000000e+00 
  outer loop 
   vertex  9.184423218221896e+02 0.000000000000000e+00 2.755326965466569e+03 
   vertex  9.184423218221896e+02 -9.184423218221896e+02 5.510653930933137e+03 
   vertex  9.184423218221896e+02 -9.184423218221896e+02 0.000000000000000e+00 
  endloop 
 endfacet 
endsolid