solid cylinder_2k_12k
 facet normal  9.969173337331281e-01 7.845909572784455e-02 0.000000000000000e+00 
  outer loop 
   vertex  4.000000000000000e+03 2.000000000000000e+03 0.000000000000000e+00 
   vertex  3.975376681190276e+03 2.312868930080462e+03 0.000000000000000e+00 
   vertex  4.000000000000000e+03 2.000000000000000e+03 1.200000000000000e+04 
  endloop 
 endfacet 
 facet normal  -0.000000000000000e+00 -0.000000000000000e+00 -1.000000000000000e+00 
  outer loop 
   vertex  4.000000000000000e+03 2.000000000000000e+03 0.000000000000000e+00 
   vertex  2.000000000000000e+03 2.000000000000000e+03 0.000000000000000e+00 
   vertex  3.975376681190276e+03 2.312868930080462e+03 0.000000000000000e+00 
  endloop 
 endfacet 
 facet normal  9.969173337331281e-01 7.845909572784455e-02 -0.000000000000000e+00 
  outer loop 
   vertex  3.975376681190276e+03 2.312868930080462e+03 1.200000000000000e+04 
   vertex  4.000000000000000e+03 2.000000000000000e+03 1.200000000000000e+04 
   vertex  3.975376681190276e+03 2.312868930080462e+03 0.000000000000000e+00 
  endloop 
 endfacet 
 facet normal  0.000000000000000e+00 0.000000000000000e+00 1.000000000000000e+00 
  outer loop 
   vertex  3.975376681190276e+03 2.312868930080462e+03 1.200000000000000e+04 
   vertex  2.000000000000000e+03 2.000000000000000e+03 1.200000000000000e+04 
   vertex  4.000000000000000e+03 2.000000000000000e+03 1.200000000000000e+04 
  endloop 
 endfacet 
 facet normal  9.723699203976763e-01 2.334453638559067e-01 0.000000000000000e+00 
  outer loop 
   vertex  3.975376681190276e+03 2.312868930080462e+03 0.000000000000000e+00 
   vertex  3.902113032590307e+03 2.618033988749895e+03 0.000000000000000e+00 
   vertex  3.975376681190276e+03 2.312868930080462e+03 1.200000000000000e+04 
  endloop 
 endfacet 
 facet normal  0.000000000000000e+00 -0.000000000000000e+00 -1.000000000000000e+00 
  outer loop 
   vertex  3.975376681190276e+03 2.312868930080462e+03 0.000000000000000e+00 
   vertex  2.000000000000000e+03 2.000000000000000e+03 0.000000000000000e+00 
   vertex  3.902113032590307e+03 2.618033988749895e+03 0.000000000000000e+00 
  endloop 
 endfacet 
 facet normal  9.723699203976763e-01 2.334453638559067e-01 -0.000000000000000e+00 
  outer loop 
   vertex  3.902113032590307e+03 2.618033988749895e+03 1.200000000000000e+04 
   vertex  3.975376681190276e+03 2.312868930080462e+03 1.200000000000000e+04 
   vertex  3.902113032590307e+03 2.618033988749895e+03 0.000000000000000e+00 
  endloop 
 endfacet 
 facet normal  0.000000000000000e+00 0.000000000000000e+00 1.000000000000000e+00 
  outer loop 
   vertex  3.902113032590307e+03 2.618033988749895e+03 1.200000000000000e+04 
   vertex  2.000000000000000e+03 2.000000000000000e+03 1.200000000000000e+04 
   vertex  3.975376681190276e+03 2.312868930080462e+03 1.200000000000000e+04 
  endloop 
 endfacet 
 facet normal  9.238795325112870e-01 3.826834323650892e-01 0.000000000000000e+00 
  outer loop 
   vertex  3.902113032590307e+03 2.618033988749895e+03 0.000000000000000e+00 
   vertex  3.782013048376736e+03 2.907980999479093e+03 0.000000000000000e+00 
   vertex  3.902113032590307e+03 2.618033988749895e+03 1.200000000000000e+04 
  endloop 
 endfacet 
 facet normal  0.000000000000000e+00 -0.000000000000000e+00 -1.000000000000000e+00 
  outer loop 
   vertex  3.902113032590307e+03 2.618033988749895e+03 0.000000000000000e+00 
   vertex  2.000000000000000e+03 2.000000000000000e+03 0.000000000000000e+00 
   vertex  3.782013048376736e+03 2.907980999479093e+03 0.000000000000000e+00 
  endloop 
 endfacet 
 facet normal  9.238795325112870e-01 3.826834323650892e-01 -0.000000000000000e+00 
  outer loop 
   vertex  3.782013048376736e+03 2.907980999479093e+03 1.200000000000000e+04 
   vertex  3.902113032590307e+03 2.618033988749895e+03 1.200000000000000e+04 
   vertex  3.782013048376736e+03 2.907980999479093e+03 0.000000000000000e+00 
  endloop 
 endfacet 
 facet normal  0.000000000000000e+00 0.000000000000000e+00 1.000000000000000e+00 
  outer loop 
   vertex  3.782013048376736e+03 2.907980999479093e+03 1.200000000000000e+04 
   vertex  2.000000000000000e+03 2.000000000000000e+03 1.200000000000000e+04 
   vertex  3.902113032590307e+03 2.618033988749895e+03 1.200000000000000e+04 
  endloop 
 endfacet 
 facet normal  8.526401643540925e-01 5.224985647159486e-01 0.000000000000000e+00 
  outer loop 
   vertex  3.782013048376736e+03 2.907980999479093e+03 0.000000000000000e+00 
   vertex  3.618033988749895e+03 3.175570504584946e+03 0.000000000000000e+00 
   vertex  3.782013048376736e+03 2.907980999479093e+03 1.200000000000000e+04 
  endloop 
 endfacet 
 facet normal  0.000000000000000e+00 -0.000000000000000e+00 -1.000000000000000e+00 
  outer loop 
   vertex  3.782013048376736e+03 2.907980999479093e+03 0.000000000000000e+00 
   vertex  2.000000000000000e+03 2.000000000000000e+03 0.000000000000000e+00 
   vertex  3.618033988749895e+03 3.175570504584946e+03 0.000000000000000e+00 
  endloop 
 endfacet 
 facet normal  8.526401643540925e-01 5.224985647159486e-01 -0.000000000000000e+00 
  outer loop 
   vertex  3.618033988749895e+03 3.175570504584946e+03 1.200000000000000e+04 
   vertex  3.782013048376736e+03 2.907980999479093e+03 1.200000000000000e+04 
   vertex  3.618033988749895e+03 3.175570504584946e+03 0.000000000000000e+00 
  endloop 
 endfacet 
 facet normal  0.000000000000000e+00 0.000000000000000e+00 1.000000000000000e+00 
  outer loop 
   vertex  3.618033988749895e+03 3.175570504584946e+03 1.200000000000000e+04 
   vertex  2.000000000000000e+03 2.000000000000000e+03 1.200000000000000e+04 
   vertex  3.782013048376736e+03 2.907980999479093e+03 1.200000000000000e+04 
  endloop 
 endfacet 
 facet normal  7.604059656000304e-01 6.494480483301843e-01 0.000000000000000e+00 
  outer loop 
   vertex  3.618033988749895e+03 3.175570504584946e+03 0.000000000000000e+00 
   vertex  3.414213562373095e+03 3.414213562373095e+03 0.000000000000000e+00 
   vertex  3.618033988749895e+03 3.175570504584946e+03 1.200000000000000e+04 
  endloop 
 endfacet 
 facet normal  0.000000000000000e+00 -0.000000000000000e+00 -1.000000000000000e+00 
  outer loop 
   vertex  3.618033988749895e+03 3.175570504584946e+03 0.000000000000000e+00 
   vertex  2.000000000000000e+03 2.000000000000000e+03 0.000000000000000e+00 
   vertex  3.414213562373095e+03 3.414213562373095e+03 0.000000000000000e+00 
  endloop 
 endfacet 
 facet normal  7.604059656000304e-01 6.494480483301843e-01 -0.000000000000000e+00 
  outer loop 
   vertex  3.414213562373095e+03 3.414213562373095e+03 1.200000000000000e+04 
   vertex  3.618033988749895e+03 3.175570504584946e+03 1.200000000000000e+04 
   vertex  3.414213562373095e+03 3.414213562373095e+03 0.000000000000000e+00 
  endloop 
 endfacet 
 facet normal  0.000000000000000e+00 0.000000000000000e+00 1.000000000000000e+00 
  outer loop 
   vertex  3.414213562373095e+03 3.414213562373095e+03 1.200000000000000e+04 
   vertex  2.000000000000000e+03 2.000000000000000e+03 1.200000000000000e+04 
   vertex  3.618033988749895e+03 3.175570504584946e+03 1.200000000000000e+04 
  endloop 
 endfacet 
 facet normal  6.494480483301844e-01 7.604059656000303e-01 0.000000000000000e+00 
  outer loop 
   vertex  3.414213562373095e+03 3.414213562373095e+03 0.000000000000000e+00 
   vertex  3.175570504584946e+03 3.618033988749895e+03 0.000000000000000e+00 
   vertex  3.414213562373095e+03 3.414213562373095e+03 1.200000000000000e+04 
  endloop 
 endfacet 
 facet normal  0.000000000000000e+00 -0.000000000000000e+00 -1.000000000000000e+00 
  outer loop 
   vertex  3.414213562373095e+03 3.414213562373095e+03 0.000000000000000e+00 
   vertex  2.000000000000000e+03 2.000000000000000e+03 0.000000000000000e+00 
   vertex  3.175570504584946e+03 3.618033988749895e+03 0.000000000000000e+00 
  endloop 
 endfacet 
 facet normal  6.494480483301844e-01 7.604059656000303e-01 -0.000000000000000e+00 
  outer loop 
   vertex  3.175570504584946e+03 3.618033988749895e+03 1.200000000000000e+04 
   vertex  3.414213562373095e+03 3.414213562373095e+03 1.200000000000000e+04 
   vertex  3.175570504584946e+03 3.618033988749895e+03 0.000000000000000e+00 
  endloop 
 endfacet 
 facet normal  0.000000000000000e+00 0.000000000000000e+00 1.000000000000000e+00 
  outer loop 
   vertex  3.175570504584946e+03 3.618033988749895e+03 1.200000000000000e+04 
   vertex  2.000000000000000e+03 2.000000000000000e+03 1.200000000000000e+04 
   vertex  3.414213562373095e+03 3.414213562373095e+03 1.200000000000000e+04 
  endloop 
 endfacet 
 facet normal  5.224985647159480e-01 8.526401643540927e-01 0.000000000000000e+00 
  outer loop 
   vertex  3.175570504584946e+03 3.618033988749895e+03 0.000000000000000e+00 
   vertex  2.907980999479094e+03 3.782013048376735e+03 0.000000000000000e+00 
   vertex  3.175570504584946e+03 3.618033988749895e+03 1.200000000000000e+04 
  endloop 
 endfacet 
 facet normal  0.000000000000000e+00 -0.000000000000000e+00 -1.000000000000000e+00 
  outer loop 
   vertex  3.175570504584946e+03 3.618033988749895e+03 0.000000000000000e+00 
   vertex  2.000000000000000e+03 2.000000000000000e+03 0.000000000000000e+00 
   vertex  2.907980999479094e+03 3.782013048376735e+03 0.000000000000000e+00 
  endloop 
 endfacet 
 facet normal  5.224985647159480e-01 8.526401643540927e-01 -0.000000000000000e+00 
  outer loop 
   vertex  2.907980999479094e+03 3.782013048376735e+03 1.200000000000000e+04 
   vertex  3.175570504584946e+03 3.618033988749895e+03 1.200000000000000e+04 
   vertex  2.907980999479094e+03 3.782013048376735e+03 0.000000000000000e+00 
  endloop 
 endfacet 
 facet normal  0.000000000000000e+00 0.000000000000000e+00 1.000000000000000e+00 
  outer loop 
   vertex  2.907980999479094e+03 3.782013048376735e+03 1.200000000000000e+04 
   vertex  2.000000000000000e+03 2.000000000000000e+03 1.200000000000000e+04 
   vertex  3.175570504584946e+03 3.618033988749895e+03 1.200000000000000e+04 
  endloop 
 endfacet 
 facet normal  3.826834323650898e-01 9.238795325112866e-01 0.000000000000000e+00 
  outer loop 
   vertex  2.907980999479094e+03 3.782013048376735e+03 0.000000000000000e+00 
   vertex  2.618033988749895e+03 3.902113032590307e+03 0.000000000000000e+00 
   vertex  2.907980999479094e+03 3.782013048376735e+03 1.200000000000000e+04 
  endloop 
 endfacet 
 facet normal  0.000000000000000e+00 -0.000000000000000e+00 -1.000000000000000e+00 
  outer loop 
   vertex  2.907980999479094e+03 3.782013048376735e+03 0.000000000000000e+00 
   vertex  2.000000000000000e+03 2.000000000000000e+03 0.000000000000000e+00 
   vertex  2.618033988749895e+03 3.902113032590307e+03 0.000000000000000e+00 
  endloop 
 endfacet 
 facet normal  3.826834323650898e-01 9.238795325112866e-01 -0.000000000000000e+00 
  outer loop 
   vertex  2.618033988749895e+03 3.902113032590307e+03 1.200000000000000e+04 
   vertex  2.907980999479094e+03 3.782013048376735e+03 1.200000000000000e+04 
   vertex  2.618033988749895e+03 3.902113032590307e+03 0.000000000000000e+00 
  endloop 
 endfacet 
 facet normal  0.000000000000000e+00 0.000000000000000e+00 1.000000000000000e+00 
  outer loop 
   vertex  2.618033988749895e+03 3.902113032590307e+03 1.200000000000000e+04 
   vertex  2.000000000000000e+03 2.000000000000000e+03 1.200000000000000e+04 
   vertex  2.907980999479094e+03 3.782013048376735e+03 1.200000000000000e+04 
  endloop 
 endfacet 
 facet normal  2.334453638559067e-01 9.723699203976763e-01 0.000000000000000e+00 
  outer loop 
   vertex  2.618033988749895e+03 3.902113032590307e+03 0.000000000000000e+00 
   vertex  2.312868930080462e+03 3.975376681190276e+03 0.000000000000000e+00 
   vertex  2.618033988749895e+03 3.902113032590307e+03 1.200000000000000e+04 
  endloop 
 endfacet 
 facet normal  0.000000000000000e+00 -0.000000000000000e+00 -1.000000000000000e+00 
  outer loop 
   vertex  2.618033988749895e+03 3.902113032590307e+03 0.000000000000000e+00 
   vertex  2.000000000000000e+03 2.000000000000000e+03 0.000000000000000e+00 
   vertex  2.312868930080462e+03 3.975376681190276e+03 0.000000000000000e+00 
  endloop 
 endfacet 
 facet normal  2.334453638559067e-01 9.723699203976763e-01 -0.000000000000000e+00 
  outer loop 
   vertex  2.312868930080462e+03 3.975376681190276e+03 1.200000000000000e+04 
   vertex  2.618033988749895e+03 3.902113032590307e+03 1.200000000000000e+04 
   vertex  2.312868930080462e+03 3.975376681190276e+03 0.000000000000000e+00 
  endloop 
 endfacet 
 facet normal  0.000000000000000e+00 0.000000000000000e+00 1.000000000000000e+00 
  outer loop 
   vertex  2.312868930080462e+03 3.975376681190276e+03 1.200000000000000e+04 
   vertex  2.000000000000000e+03 2.000000000000000e+03 1.200000000000000e+04 
   vertex  2.618033988749895e+03 3.902113032590307e+03 1.200000000000000e+04 
  endloop 
 endfacet 
 facet normal  7.845909572784461e-02 9.969173337331281e-01 0.000000000000000e+00 
  outer loop 
   vertex  2.312868930080462e+03 3.975376681190276e+03 0.000000000000000e+00 
   vertex  2.000000000000000e+03 4.000000000000000e+03 0.000000000000000e+00 
   vertex  2.312868930080462e+03 3.975376681190276e+03 1.200000000000000e+04 
  endloop 
 endfacet 
 facet normal  0.000000000000000e+00 -0.000000000000000e+00 -1.000000000000000e+00 
  outer loop 
   vertex  2.312868930080462e+03 3.975376681190276e+03 0.000000000000000e+00 
   vertex  2.000000000000000e+03 2.000000000000000e+03 0.000000000000000e+00 
   vertex  2.000000000000000e+03 4.000000000000000e+03 0.000000000000000e+00 
  endloop 
 endfacet 
 facet normal  7.845909572784461e-02 9.969173337331281e-01 -0.000000000000000e+00 
  outer loop 
   vertex  2.000000000000000e+03 4.000000000000000e+03 1.200000000000000e+04 
   vertex  2.312868930080462e+03 3.975376681190276e+03 1.200000000000000e+04 
   vertex  2.000000000000000e+03 4.000000000000000e+03 0.000000000000000e+00 
  endloop 
 endfacet 
 facet normal  0.000000000000000e+00 0.000000000000000e+00 1.000000000000000e+00 
  outer loop 
   vertex  2.000000000000000e+03 4.000000000000000e+03 1.200000000000000e+04 
   vertex  2.000000000000000e+03 2.000000000000000e+03 1.200000000000000e+04 
   vertex  2.312868930080462e+03 3.975376681190276e+03 1.200000000000000e+04 
  endloop 
 endfacet 
 facet normal  -7.845909572784583e-02 9.969173337331280e-01 0.000000000000000e+00 
  outer loop 
   vertex  2.000000000000000e+03 4.000000000000000e+03 0.000000000000000e+00 
   vertex  1.687131069919538e+03 3.975376681190275e+03 0.000000000000000e+00 
   vertex  2.000000000000000e+03 4.000000000000000e+03 1.200000000000000e+04 
  endloop 
 endfacet 
 facet normal  0.000000000000000e+00 -0.000000000000000e+00 -1.000000000000000e+00 
  outer loop 
   vertex  2.000000000000000e+03 4.000000000000000e+03 0.000000000000000e+00 
   vertex  2.000000000000000e+03 2.000000000000000e+03 0.000000000000000e+00 
   vertex  1.687131069919538e+03 3.975376681190275e+03 0.000000000000000e+00 
  endloop 
 endfacet 
 facet normal  -7.845909572784583e-02 9.969173337331280e-01 0.000000000000000e+00 
  outer loop 
   vertex  1.687131069919538e+03 3.975376681190275e+03 1.200000000000000e+04 
   vertex  2.000000000000000e+03 4.000000000000000e+03 1.200000000000000e+04 
   vertex  1.687131069919538e+03 3.975376681190275e+03 0.000000000000000e+00 
  endloop 
 endfacet 
 facet normal  0.000000000000000e+00 0.000000000000000e+00 1.000000000000000e+00 
  outer loop 
   vertex  1.687131069919538e+03 3.975376681190275e+03 1.200000000000000e+04 
   vertex  2.000000000000000e+03 2.000000000000000e+03 1.200000000000000e+04 
   vertex  2.000000000000000e+03 4.000000000000000e+03 1.200000000000000e+04 
  endloop 
 endfacet 
 facet normal  -2.334453638559044e-01 9.723699203976769e-01 0.000000000000000e+00 
  outer loop 
   vertex  1.687131069919538e+03 3.975376681190275e+03 0.000000000000000e+00 
   vertex  1.381966011250105e+03 3.902113032590307e+03 0.000000000000000e+00 
   vertex  1.687131069919538e+03 3.975376681190275e+03 1.200000000000000e+04 
  endloop 
 endfacet 
 facet normal  0.000000000000000e+00 0.000000000000000e+00 -1.000000000000000e+00 
  outer loop 
   vertex  1.687131069919538e+03 3.975376681190275e+03 0.000000000000000e+00 
   vertex  2.000000000000000e+03 2.000000000000000e+03 0.000000000000000e+00 
   vertex  1.381966011250105e+03 3.902113032590307e+03 0.000000000000000e+00 
  endloop 
 endfacet 
 facet normal  -2.334453638559044e-01 9.723699203976769e-01 0.000000000000000e+00 
  outer loop 
   vertex  1.381966011250105e+03 3.902113032590307e+03 1.200000000000000e+04 
   vertex  1.687131069919538e+03 3.975376681190275e+03 1.200000000000000e+04 
   vertex  1.381966011250105e+03 3.902113032590307e+03 0.000000000000000e+00 
  endloop 
 endfacet 
 facet normal  0.000000000000000e+00 0.000000000000000e+00 1.000000000000000e+00 
  outer loop 
   vertex  1.381966011250105e+03 3.902113032590307e+03 1.200000000000000e+04 
   vertex  2.000000000000000e+03 2.000000000000000e+03 1.200000000000000e+04 
   vertex  1.687131069919538e+03 3.975376681190275e+03 1.200000000000000e+04 
  endloop 
 endfacet 
 facet normal  -3.826834323650901e-01 9.238795325112866e-01 0.000000000000000e+00 
  outer loop 
   vertex  1.381966011250105e+03 3.902113032590307e+03 0.000000000000000e+00 
   vertex  1.092019000520907e+03 3.782013048376736e+03 0.000000000000000e+00 
   vertex  1.381966011250105e+03 3.902113032590307e+03 1.200000000000000e+04 
  endloop 
 endfacet 
 facet normal  0.000000000000000e+00 0.000000000000000e+00 -1.000000000000000e+00 
  outer loop 
   vertex  1.381966011250105e+03 3.902113032590307e+03 0.000000000000000e+00 
   vertex  2.000000000000000e+03 2.000000000000000e+03 0.000000000000000e+00 
   vertex  1.092019000520907e+03 3.782013048376736e+03 0.000000000000000e+00 
  endloop 
 endfacet 
 facet normal  -3.826834323650901e-01 9.238795325112866e-01 0.000000000000000e+00 
  outer loop 
   vertex  1.092019000520907e+03 3.782013048376736e+03 1.200000000000000e+04 
   vertex  1.381966011250105e+03 3.902113032590307e+03 1.200000000000000e+04 
   vertex  1.092019000520907e+03 3.782013048376736e+03 0.000000000000000e+00 
  endloop 
 endfacet 
 facet normal  0.000000000000000e+00 0.000000000000000e+00 1.000000000000000e+00 
  outer loop 
   vertex  1.092019000520907e+03 3.782013048376736e+03 1.200000000000000e+04 
   vertex  2.000000000000000e+03 2.000000000000000e+03 1.200000000000000e+04 
   vertex  1.381966011250105e+03 3.902113032590307e+03 1.200000000000000e+04 
  endloop 
 endfacet 
 facet normal  -5.224985647159489e-01 8.526401643540923e-01 0.000000000000000e+00 
  outer loop 
   vertex  1.092019000520907e+03 3.782013048376736e+03 0.000000000000000e+00 
   vertex  8.244294954150539e+02 3.618033988749895e+03 0.000000000000000e+00 
   vertex  1.092019000520907e+03 3.782013048376736e+03 1.200000000000000e+04 
  endloop 
 endfacet 
 facet normal  0.000000000000000e+00 0.000000000000000e+00 -1.000000000000000e+00 
  outer loop 
   vertex  1.092019000520907e+03 3.782013048376736e+03 0.000000000000000e+00 
   vertex  2.000000000000000e+03 2.000000000000000e+03 0.000000000000000e+00 
   vertex  8.244294954150539e+02 3.618033988749895e+03 0.000000000000000e+00 
  endloop 
 endfacet 
 facet normal  -5.224985647159489e-01 8.526401643540923e-01 0.000000000000000e+00 
  outer loop 
   vertex  8.244294954150539e+02 3.618033988749895e+03 1.200000000000000e+04 
   vertex  1.092019000520907e+03 3.782013048376736e+03 1.200000000000000e+04 
   vertex  8.244294954150539e+02 3.618033988749895e+03 0.000000000000000e+00 
  endloop 
 endfacet 
 facet normal  0.000000000000000e+00 0.000000000000000e+00 1.000000000000000e+00 
  outer loop 
   vertex  8.244294954150539e+02 3.618033988749895e+03 1.200000000000000e+04 
   vertex  2.000000000000000e+03 2.000000000000000e+03 1.200000000000000e+04 
   vertex  1.092019000520907e+03 3.782013048376736e+03 1.200000000000000e+04 
  endloop 
 endfacet 
 facet normal  -6.494480483301837e-01 7.604059656000310e-01 0.000000000000000e+00 
  outer loop 
   vertex  8.244294954150539e+02 3.618033988749895e+03 0.000000000000000e+00 
   vertex  5.857864376269051e+02 3.414213562373095e+03 0.000000000000000e+00 
   vertex  8.244294954150539e+02 3.618033988749895e+03 1.200000000000000e+04 
  endloop 
 endfacet 
 facet normal  0.000000000000000e+00 0.000000000000000e+00 -1.000000000000000e+00 
  outer loop 
   vertex  8.244294954150539e+02 3.618033988749895e+03 0.000000000000000e+00 
   vertex  2.000000000000000e+03 2.000000000000000e+03 0.000000000000000e+00 
   vertex  5.857864376269051e+02 3.414213562373095e+03 0.000000000000000e+00 
  endloop 
 endfacet 
 facet normal  -6.494480483301837e-01 7.604059656000310e-01 0.000000000000000e+00 
  outer loop 
   vertex  5.857864376269051e+02 3.414213562373095e+03 1.200000000000000e+04 
   vertex  8.244294954150539e+02 3.618033988749895e+03 1.200000000000000e+04 
   vertex  5.857864376269051e+02 3.414213562373095e+03 0.000000000000000e+00 
  endloop 
 endfacet 
 facet normal  0.000000000000000e+00 0.000000000000000e+00 1.000000000000000e+00 
  outer loop 
   vertex  5.857864376269051e+02 3.414213562373095e+03 1.200000000000000e+04 
   vertex  2.000000000000000e+03 2.000000000000000e+03 1.200000000000000e+04 
   vertex  8.244294954150539e+02 3.618033988749895e+03 1.200000000000000e+04 
  endloop 
 endfacet 
 facet normal  -7.604059656000310e-01 6.494480483301837e-01 0.000000000000000e+00 
  outer loop 
   vertex  5.857864376269051e+02 3.414213562373095e+03 0.000000000000000e+00 
   vertex  3.819660112501053e+02 3.175570504584946e+03 0.000000000000000e+00 
   vertex  5.857864376269051e+02 3.414213562373095e+03 1.200000000000000e+04 
  endloop 
 endfacet 
 facet normal  0.000000000000000e+00 0.000000000000000e+00 -1.000000000000000e+00 
  outer loop 
   vertex  5.857864376269051e+02 3.414213562373095e+03 0.000000000000000e+00 
   vertex  2.000000000000000e+03 2.000000000000000e+03 0.000000000000000e+00 
   vertex  3.819660112501053e+02 3.175570504584946e+03 0.000000000000000e+00 
  endloop 
 endfacet 
 facet normal  -7.604059656000310e-01 6.494480483301837e-01 0.000000000000000e+00 
  outer loop 
   vertex  3.819660112501053e+02 3.175570504584946e+03 1.200000000000000e+04 
   vertex  5.857864376269051e+02 3.414213562373095e+03 1.200000000000000e+04 
   vertex  3.819660112501053e+02 3.175570504584946e+03 0.000000000000000e+00 
  endloop 
 endfacet 
 facet normal  0.000000000000000e+00 0.000000000000000e+00 1.000000000000000e+00 
  outer loop 
   vertex  3.819660112501053e+02 3.175570504584946e+03 1.200000000000000e+04 
   vertex  2.000000000000000e+03 2.000000000000000e+03 1.200000000000000e+04 
   vertex  5.857864376269051e+02 3.414213562373095e+03 1.200000000000000e+04 
  endloop 
 endfacet 
 facet normal  -8.526401643540921e-01 5.224985647159491e-01 0.000000000000000e+00 
  outer loop 
   vertex  3.819660112501053e+02 3.175570504584946e+03 0.000000000000000e+00 
   vertex  2.179869516232645e+02 2.907980999479094e+03 0.000000000000000e+00 
   vertex  3.819660112501053e+02 3.175570504584946e+03 1.200000000000000e+04 
  endloop 
 endfacet 
 facet normal  0.000000000000000e+00 0.000000000000000e+00 -1.000000000000000e+00 
  outer loop 
   vertex  3.819660112501053e+02 3.175570504584946e+03 0.000000000000000e+00 
   vertex  2.000000000000000e+03 2.000000000000000e+03 0.000000000000000e+00 
   vertex  2.179869516232645e+02 2.907980999479094e+03 0.000000000000000e+00 
  endloop 
 endfacet 
 facet normal  -8.526401643540921e-01 5.224985647159491e-01 0.000000000000000e+00 
  outer loop 
   vertex  2.179869516232645e+02 2.907980999479094e+03 1.200000000000000e+04 
   vertex  3.819660112501053e+02 3.175570504584946e+03 1.200000000000000e+04 
   vertex  2.179869516232645e+02 2.907980999479094e+03 0.000000000000000e+00 
  endloop 
 endfacet 
 facet normal  0.000000000000000e+00 0.000000000000000e+00 1.000000000000000e+00 
  outer loop 
   vertex  2.179869516232645e+02 2.907980999479094e+03 1.200000000000000e+04 
   vertex  2.000000000000000e+03 2.000000000000000e+03 1.200000000000000e+04 
   vertex  3.819660112501053e+02 3.175570504584946e+03 1.200000000000000e+04 
  endloop 
 endfacet 
 facet normal  -9.238795325112866e-01 3.826834323650898e-01 0.000000000000000e+00 
  outer loop 
   vertex  2.179869516232645e+02 2.907980999479094e+03 0.000000000000000e+00 
   vertex  9.788696740969294e+01 2.618033988749895e+03 0.000000000000000e+00 
   vertex  2.179869516232645e+02 2.907980999479094e+03 1.200000000000000e+04 
  endloop 
 endfacet 
 facet normal  0.000000000000000e+00 0.000000000000000e+00 -1.000000000000000e+00 
  outer loop 
   vertex  2.179869516232645e+02 2.907980999479094e+03 0.000000000000000e+00 
   vertex  2.000000000000000e+03 2.000000000000000e+03 0.000000000000000e+00 
   vertex  9.788696740969294e+01 2.618033988749895e+03 0.000000000000000e+00 
  endloop 
 endfacet 
 facet normal  -9.238795325112866e-01 3.826834323650898e-01 0.000000000000000e+00 
  outer loop 
   vertex  9.788696740969294e+01 2.618033988749895e+03 1.200000000000000e+04 
   vertex  2.179869516232645e+02 2.907980999479094e+03 1.200000000000000e+04 
   vertex  9.788696740969294e+01 2.618033988749895e+03 0.000000000000000e+00 
  endloop 
 endfacet 
 facet normal  0.000000000000000e+00 0.000000000000000e+00 1.000000000000000e+00 
  outer loop 
   vertex  9.788696740969294e+01 2.618033988749895e+03 1.200000000000000e+04 
   vertex  2.000000000000000e+03 2.000000000000000e+03 1.200000000000000e+04 
   vertex  2.179869516232645e+02 2.907980999479094e+03 1.200000000000000e+04 
  endloop 
 endfacet 
 facet normal  -9.723699203976767e-01 2.334453638559053e-01 0.000000000000000e+00 
  outer loop 
   vertex  9.788696740969294e+01 2.618033988749895e+03 0.000000000000000e+00 
   vertex  2.462331880972465e+01 2.312868930080462e+03 0.000000000000000e+00 
   vertex  9.788696740969294e+01 2.618033988749895e+03 1.200000000000000e+04 
  endloop 
 endfacet 
 facet normal  0.000000000000000e+00 0.000000000000000e+00 -1.000000000000000e+00 
  outer loop 
   vertex  9.788696740969294e+01 2.618033988749895e+03 0.000000000000000e+00 
   vertex  2.000000000000000e+03 2.000000000000000e+03 0.000000000000000e+00 
   vertex  2.462331880972465e+01 2.312868930080462e+03 0.000000000000000e+00 
  endloop 
 endfacet 
 facet normal  -9.723699203976767e-01 2.334453638559053e-01 0.000000000000000e+00 
  outer loop 
   vertex  2.462331880972465e+01 2.312868930080462e+03 1.200000000000000e+04 
   vertex  9.788696740969294e+01 2.618033988749895e+03 1.200000000000000e+04 
   vertex  2.462331880972465e+01 2.312868930080462e+03 0.000000000000000e+00 
  endloop 
 endfacet 
 facet normal  0.000000000000000e+00 0.000000000000000e+00 1.000000000000000e+00 
  outer loop 
   vertex  2.462331880972465e+01 2.312868930080462e+03 1.200000000000000e+04 
   vertex  2.000000000000000e+03 2.000000000000000e+03 1.200000000000000e+04 
   vertex  9.788696740969294e+01 2.618033988749895e+03 1.200000000000000e+04 
  endloop 
 endfacet 
 facet normal  -9.969173337331280e-01 7.845909572784533e-02 0.000000000000000e+00 
  outer loop 
   vertex  2.462331880972465e+01 2.312868930080462e+03 0.000000000000000e+00 
   vertex  0.000000000000000e+00 2.000000000000000e+03 0.000000000000000e+00 
   vertex  2.462331880972465e+01 2.312868930080462e+03 1.200000000000000e+04 
  endloop 
 endfacet 
 facet normal  0.000000000000000e+00 0.000000000000000e+00 -1.000000000000000e+00 
  outer loop 
   vertex  2.462331880972465e+01 2.312868930080462e+03 0.000000000000000e+00 
   vertex  2.000000000000000e+03 2.000000000000000e+03 0.000000000000000e+00 
   vertex  0.000000000000000e+00 2.000000000000000e+03 0.000000000000000e+00 
  endloop 
 endfacet 
 facet normal  -9.969173337331280e-01 7.845909572784533e-02 0.000000000000000e+00 
  outer loop 
   vertex  0.000000000000000e+00 2.000000000000000e+03 1.200000000000000e+04 
   vertex  2.462331880972465e+01 2.312868930080462e+03 1.200000000000000e+04 
   vertex  0.000000000000000e+00 2.000000000000000e+03 0.000000000000000e+00 
  endloop 
 endfacet 
 facet normal  0.000000000000000e+00 0.000000000000000e+00 1.000000000000000e+00 
  outer loop 
   vertex  0.000000000000000e+00 2.000000000000000e+03 1.200000000000000e+04 
   vertex  2.000000000000000e+03 2.000000000000000e+03 1.200000000000000e+04 
   vertex  2.462331880972465e+01 2.312868930080462e+03 1.200000000000000e+04 
  endloop 
 endfacet 
 facet normal  -9.969173337331281e-01 -7.845909572784455e-02 -0.000000000000000e+00 
  outer loop 
   vertex  0.000000000000000e+00 2.000000000000000e+03 0.000000000000000e+00 
   vertex  2.462331880972442e+01 1.687131069919539e+03 0.000000000000000e+00 
   vertex  0.000000000000000e+00 2.000000000000000e+03 1.200000000000000e+04 
  endloop 
 endfacet 
 facet normal  0.000000000000000e+00 0.000000000000000e+00 -1.000000000000000e+00 
  outer loop 
   vertex  0.000000000000000e+00 2.000000000000000e+03 0.000000000000000e+00 
   vertex  2.000000000000000e+03 2.000000000000000e+03 0.000000000000000e+00 
   vertex  2.462331880972442e+01 1.687131069919539e+03 0.000000000000000e+00 
  endloop 
 endfacet 
 facet normal  -9.969173337331281e-01 -7.845909572784455e-02 0.000000000000000e+00 
  outer loop 
   vertex  2.462331880972442e+01 1.687131069919539e+03 1.200000000000000e+04 
   vertex  0.000000000000000e+00 2.000000000000000e+03 1.200000000000000e+04 
   vertex  2.462331880972442e+01 1.687131069919539e+03 0.000000000000000e+00 
  endloop 
 endfacet 
 facet normal  -0.000000000000000e+00 0.000000000000000e+00 1.000000000000000e+00 
  outer loop 
   vertex  2.462331880972442e+01 1.687131069919539e+03 1.200000000000000e+04 
   vertex  2.000000000000000e+03 2.000000000000000e+03 1.200000000000000e+04 
   vertex  0.000000000000000e+00 2.000000000000000e+03 1.200000000000000e+04 
  endloop 
 endfacet 
 facet normal  -9.723699203976766e-01 -2.334453638559055e-01 -0.000000000000000e+00 
  outer loop 
   vertex  2.462331880972442e+01 1.687131069919539e+03 0.000000000000000e+00 
   vertex  9.788696740969294e+01 1.381966011250105e+03 0.000000000000000e+00 
   vertex  2.462331880972442e+01 1.687131069919539e+03 1.200000000000000e+04 
  endloop 
 endfacet 
 facet normal  0.000000000000000e+00 0.000000000000000e+00 -1.000000000000000e+00 
  outer loop 
   vertex  2.462331880972442e+01 1.687131069919539e+03 0.000000000000000e+00 
   vertex  2.000000000000000e+03 2.000000000000000e+03 0.000000000000000e+00 
   vertex  9.788696740969294e+01 1.381966011250105e+03 0.000000000000000e+00 
  endloop 
 endfacet 
 facet normal  -9.723699203976766e-01 -2.334453638559055e-01 0.000000000000000e+00 
  outer loop 
   vertex  9.788696740969294e+01 1.381966011250105e+03 1.200000000000000e+04 
   vertex  2.462331880972442e+01 1.687131069919539e+03 1.200000000000000e+04 
   vertex  9.788696740969294e+01 1.381966011250105e+03 0.000000000000000e+00 
  endloop 
 endfacet 
 facet normal  -0.000000000000000e+00 0.000000000000000e+00 1.000000000000000e+00 
  outer loop 
   vertex  9.788696740969294e+01 1.381966011250105e+03 1.200000000000000e+04 
   vertex  2.000000000000000e+03 2.000000000000000e+03 1.200000000000000e+04 
   vertex  2.462331880972442e+01 1.687131069919539e+03 1.200000000000000e+04 
  endloop 
 endfacet 
 facet normal  -9.238795325112865e-01 -3.826834323650900e-01 -0.000000000000000e+00 
  outer loop 
   vertex  9.788696740969294e+01 1.381966011250105e+03 0.000000000000000e+00 
   vertex  2.179869516232638e+02 1.092019000520907e+03 0.000000000000000e+00 
   vertex  9.788696740969294e+01 1.381966011250105e+03 1.200000000000000e+04 
  endloop 
 endfacet 
 facet normal  0.000000000000000e+00 0.000000000000000e+00 -1.000000000000000e+00 
  outer loop 
   vertex  9.788696740969294e+01 1.381966011250105e+03 0.000000000000000e+00 
   vertex  2.000000000000000e+03 2.000000000000000e+03 0.000000000000000e+00 
   vertex  2.179869516232638e+02 1.092019000520907e+03 0.000000000000000e+00 
  endloop 
 endfacet 
 facet normal  -9.238795325112865e-01 -3.826834323650900e-01 0.000000000000000e+00 
  outer loop 
   vertex  2.179869516232638e+02 1.092019000520907e+03 1.200000000000000e+04 
   vertex  9.788696740969294e+01 1.381966011250105e+03 1.200000000000000e+04 
   vertex  2.179869516232638e+02 1.092019000520907e+03 0.000000000000000e+00 
  endloop 
 endfacet 
 facet normal  -0.000000000000000e+00 0.000000000000000e+00 1.000000000000000e+00 
  outer loop 
   vertex  2.179869516232638e+02 1.092019000520907e+03 1.200000000000000e+04 
   vertex  2.000000000000000e+03 2.000000000000000e+03 1.200000000000000e+04 
   vertex  9.788696740969294e+01 1.381966011250105e+03 1.200000000000000e+04 
  endloop 
 endfacet 
 facet normal  -8.526401643540924e-01 -5.224985647159486e-01 -0.000000000000000e+00 
  outer loop 
   vertex  2.179869516232638e+02 1.092019000520907e+03 0.000000000000000e+00 
   vertex  3.819660112501051e+02 8.244294954150539e+02 0.000000000000000e+00 
   vertex  2.179869516232638e+02 1.092019000520907e+03 1.200000000000000e+04 
  endloop 
 endfacet 
 facet normal  0.000000000000000e+00 0.000000000000000e+00 -1.000000000000000e+00 
  outer loop 
   vertex  2.179869516232638e+02 1.092019000520907e+03 0.000000000000000e+00 
   vertex  2.000000000000000e+03 2.000000000000000e+03 0.000000000000000e+00 
   vertex  3.819660112501051e+02 8.244294954150539e+02 0.000000000000000e+00 
  endloop 
 endfacet 
 facet normal  -8.526401643540924e-01 -5.224985647159486e-01 0.000000000000000e+00 
  outer loop 
   vertex  3.819660112501051e+02 8.244294954150539e+02 1.200000000000000e+04 
   vertex  2.179869516232638e+02 1.092019000520907e+03 1.200000000000000e+04 
   vertex  3.819660112501051e+02 8.244294954150539e+02 0.000000000000000e+00 
  endloop 
 endfacet 
 facet normal  -0.000000000000000e+00 0.000000000000000e+00 1.000000000000000e+00 
  outer loop 
   vertex  3.819660112501051e+02 8.244294954150539e+02 1.200000000000000e+04 
   vertex  2.000000000000000e+03 2.000000000000000e+03 1.200000000000000e+04 
   vertex  2.179869516232638e+02 1.092019000520907e+03 1.200000000000000e+04 
  endloop 
 endfacet 
 facet normal  -7.604059656000314e-01 -6.494480483301832e-01 -0.000000000000000e+00 
  outer loop 
   vertex  3.819660112501051e+02 8.244294954150539e+02 0.000000000000000e+00 
   vertex  5.857864376269047e+02 5.857864376269051e+02 0.000000000000000e+00 
   vertex  3.819660112501051e+02 8.244294954150539e+02 1.200000000000000e+04 
  endloop 
 endfacet 
 facet normal  0.000000000000000e+00 0.000000000000000e+00 -1.000000000000000e+00 
  outer loop 
   vertex  3.819660112501051e+02 8.244294954150539e+02 0.000000000000000e+00 
   vertex  2.000000000000000e+03 2.000000000000000e+03 0.000000000000000e+00 
   vertex  5.857864376269047e+02 5.857864376269051e+02 0.000000000000000e+00 
  endloop 
 endfacet 
 facet normal  -7.604059656000314e-01 -6.494480483301832e-01 0.000000000000000e+00 
  outer loop 
   vertex  5.857864376269047e+02 5.857864376269051e+02 1.200000000000000e+04 
   vertex  3.819660112501051e+02 8.244294954150539e+02 1.200000000000000e+04 
   vertex  5.857864376269047e+02 5.857864376269051e+02 0.000000000000000e+00 
  endloop 
 endfacet 
 facet normal  -0.000000000000000e+00 0.000000000000000e+00 1.000000000000000e+00 
  outer loop 
   vertex  5.857864376269047e+02 5.857864376269051e+02 1.200000000000000e+04 
   vertex  2.000000000000000e+03 2.000000000000000e+03 1.200000000000000e+04 
   vertex  3.819660112501051e+02 8.244294954150539e+02 1.200000000000000e+04 
  endloop 
 endfacet 
 facet normal  -6.494480483301837e-01 -7.604059656000310e-01 -0.000000000000000e+00 
  outer loop 
   vertex  5.857864376269047e+02 5.857864376269051e+02 0.000000000000000e+00 
   vertex  8.244294954150535e+02 3.819660112501053e+02 0.000000000000000e+00 
   vertex  5.857864376269047e+02 5.857864376269051e+02 1.200000000000000e+04 
  endloop 
 endfacet 
 facet normal  0.000000000000000e+00 0.000000000000000e+00 -1.000000000000000e+00 
  outer loop 
   vertex  5.857864376269047e+02 5.857864376269051e+02 0.000000000000000e+00 
   vertex  2.000000000000000e+03 2.000000000000000e+03 0.000000000000000e+00 
   vertex  8.244294954150535e+02 3.819660112501053e+02 0.000000000000000e+00 
  endloop 
 endfacet 
 facet normal  -6.494480483301837e-01 -7.604059656000310e-01 0.000000000000000e+00 
  outer loop 
   vertex  8.244294954150535e+02 3.819660112501053e+02 1.200000000000000e+04 
   vertex  5.857864376269047e+02 5.857864376269051e+02 1.200000000000000e+04 
   vertex  8.244294954150535e+02 3.819660112501053e+02 0.000000000000000e+00 
  endloop 
 endfacet 
 facet normal  -0.000000000000000e+00 0.000000000000000e+00 1.000000000000000e+00 
  outer loop 
   vertex  8.244294954150535e+02 3.819660112501053e+02 1.200000000000000e+04 
   vertex  2.000000000000000e+03 2.000000000000000e+03 1.200000000000000e+04 
   vertex  5.857864376269047e+02 5.857864376269051e+02 1.200000000000000e+04 
  endloop 
 endfacet 
 facet normal  -5.224985647159489e-01 -8.526401643540923e-01 -0.000000000000000e+00 
  outer loop 
   vertex  8.244294954150535e+02 3.819660112501053e+02 0.000000000000000e+00 
   vertex  1.092019000520906e+03 2.179869516232645e+02 0.000000000000000e+00 
   vertex  8.244294954150535e+02 3.819660112501053e+02 1.200000000000000e+04 
  endloop 
 endfacet 
 facet normal  0.000000000000000e+00 0.000000000000000e+00 -1.000000000000000e+00 
  outer loop 
   vertex  8.244294954150535e+02 3.819660112501053e+02 0.000000000000000e+00 
   vertex  2.000000000000000e+03 2.000000000000000e+03 0.000000000000000e+00 
   vertex  1.092019000520906e+03 2.179869516232645e+02 0.000000000000000e+00 
  endloop 
 endfacet 
 facet normal  -5.224985647159489e-01 -8.526401643540923e-01 0.000000000000000e+00 
  outer loop 
   vertex  1.092019000520906e+03 2.179869516232645e+02 1.200000000000000e+04 
   vertex  8.244294954150535e+02 3.819660112501053e+02 1.200000000000000e+04 
   vertex  1.092019000520906e+03 2.179869516232645e+02 0.000000000000000e+00 
  endloop 
 endfacet 
 facet normal  -0.000000000000000e+00 0.000000000000000e+00 1.000000000000000e+00 
  outer loop 
   vertex  1.092019000520906e+03 2.179869516232645e+02 1.200000000000000e+04 
   vertex  2.000000000000000e+03 2.000000000000000e+03 1.200000000000000e+04 
   vertex  8.244294954150535e+02 3.819660112501053e+02 1.200000000000000e+04 
  endloop 
 endfacet 
 facet normal  -3.826834323650901e-01 -9.238795325112866e-01 -0.000000000000000e+00 
  outer loop 
   vertex  1.092019000520906e+03 2.179869516232645e+02 0.000000000000000e+00 
   vertex  1.381966011250105e+03 9.788696740969294e+01 0.000000000000000e+00 
   vertex  1.092019000520906e+03 2.179869516232645e+02 1.200000000000000e+04 
  endloop 
 endfacet 
 facet normal  0.000000000000000e+00 0.000000000000000e+00 -1.000000000000000e+00 
  outer loop 
   vertex  1.092019000520906e+03 2.179869516232645e+02 0.000000000000000e+00 
   vertex  2.000000000000000e+03 2.000000000000000e+03 0.000000000000000e+00 
   vertex  1.381966011250105e+03 9.788696740969294e+01 0.000000000000000e+00 
  endloop 
 endfacet 
 facet normal  -3.826834323650901e-01 -9.238795325112866e-01 0.000000000000000e+00 
  outer loop 
   vertex  1.381966011250105e+03 9.788696740969294e+01 1.200000000000000e+04 
   vertex  1.092019000520906e+03 2.179869516232645e+02 1.200000000000000e+04 
   vertex  1.381966011250105e+03 9.788696740969294e+01 0.000000000000000e+00 
  endloop 
 endfacet 
 facet normal  -0.000000000000000e+00 0.000000000000000e+00 1.000000000000000e+00 
  outer loop 
   vertex  1.381966011250105e+03 9.788696740969294e+01 1.200000000000000e+04 
   vertex  2.000000000000000e+03 2.000000000000000e+03 1.200000000000000e+04 
   vertex  1.092019000520906e+03 2.179869516232645e+02 1.200000000000000e+04 
  endloop 
 endfacet 
 facet normal  -2.334453638559055e-01 -9.723699203976766e-01 -0.000000000000000e+00 
  outer loop 
   vertex  1.381966011250105e+03 9.788696740969294e+01 0.000000000000000e+00 
   vertex  1.687131069919538e+03 2.462331880972465e+01 0.000000000000000e+00 
   vertex  1.381966011250105e+03 9.788696740969294e+01 1.200000000000000e+04 
  endloop 
 endfacet 
 facet normal  0.000000000000000e+00 0.000000000000000e+00 -1.000000000000000e+00 
  outer loop 
   vertex  1.381966011250105e+03 9.788696740969294e+01 0.000000000000000e+00 
   vertex  2.000000000000000e+03 2.000000000000000e+03 0.000000000000000e+00 
   vertex  1.687131069919538e+03 2.462331880972465e+01 0.000000000000000e+00 
  endloop 
 endfacet 
 facet normal  -2.334453638559055e-01 -9.723699203976766e-01 0.000000000000000e+00 
  outer loop 
   vertex  1.687131069919538e+03 2.462331880972465e+01 1.200000000000000e+04 
   vertex  1.381966011250105e+03 9.788696740969294e+01 1.200000000000000e+04 
   vertex  1.687131069919538e+03 2.462331880972465e+01 0.000000000000000e+00 
  endloop 
 endfacet 
 facet normal  -0.000000000000000e+00 0.000000000000000e+00 1.000000000000000e+00 
  outer loop 
   vertex  1.687131069919538e+03 2.462331880972465e+01 1.200000000000000e+04 
   vertex  2.000000000000000e+03 2.000000000000000e+03 1.200000000000000e+04 
   vertex  1.381966011250105e+03 9.788696740969294e+01 1.200000000000000e+04 
  endloop 
 endfacet 
 facet normal  -7.845909572784528e-02 -9.969173337331280e-01 -0.000000000000000e+00 
  outer loop 
   vertex  1.687131069919538e+03 2.462331880972465e+01 0.000000000000000e+00 
   vertex  2.000000000000000e+03 0.000000000000000e+00 0.000000000000000e+00 
   vertex  1.687131069919538e+03 2.462331880972465e+01 1.200000000000000e+04 
  endloop 
 endfacet 
 facet normal  0.000000000000000e+00 0.000000000000000e+00 -1.000000000000000e+00 
  outer loop 
   vertex  1.687131069919538e+03 2.462331880972465e+01 0.000000000000000e+00 
   vertex  2.000000000000000e+03 2.000000000000000e+03 0.000000000000000e+00 
   vertex  2.000000000000000e+03 0.000000000000000e+00 0.000000000000000e+00 
  endloop 
 endfacet 
 facet normal  -7.845909572784528e-02 -9.969173337331280e-01 0.000000000000000e+00 
  outer loop 
   vertex  2.000000000000000e+03 0.000000000000000e+00 1.200000000000000e+04 
   vertex  1.687131069919538e+03 2.462331880972465e+01 1.200000000000000e+04 
   vertex  2.000000000000000e+03 0.000000000000000e+00 0.000000000000000e+00 
  endloop 
 endfacet 
 facet normal  -0.000000000000000e+00 0.000000000000000e+00 1.000000000000000e+00 
  outer loop 
   vertex  2.000000000000000e+03 0.000000000000000e+00 1.200000000000000e+04 
   vertex  2.000000000000000e+03 2.000000000000000e+03 1.200000000000000e+04 
   vertex  1.687131069919538e+03 2.462331880972465e+01 1.200000000000000e+04 
  endloop 
 endfacet 
 facet normal  7.845909572784455e-02 -9.969173337331281e-01 0.000000000000000e+00 
  outer loop 
   vertex  2.000000000000000e+03 0.000000000000000e+00 0.000000000000000e+00 
   vertex  2.312868930080461e+03 2.462331880972442e+01 0.000000000000000e+00 
   vertex  2.000000000000000e+03 0.000000000000000e+00 1.200000000000000e+04 
  endloop 
 endfacet 
 facet normal  -0.000000000000000e+00 0.000000000000000e+00 -1.000000000000000e+00 
  outer loop 
   vertex  2.000000000000000e+03 0.000000000000000e+00 0.000000000000000e+00 
   vertex  2.000000000000000e+03 2.000000000000000e+03 0.000000000000000e+00 
   vertex  2.312868930080461e+03 2.462331880972442e+01 0.000000000000000e+00 
  endloop 
 endfacet 
 facet normal  7.845909572784455e-02 -9.969173337331281e-01 0.000000000000000e+00 
  outer loop 
   vertex  2.312868930080461e+03 2.462331880972442e+01 1.200000000000000e+04 
   vertex  2.000000000000000e+03 0.000000000000000e+00 1.200000000000000e+04 
   vertex  2.312868930080461e+03 2.462331880972442e+01 0.000000000000000e+00 
  endloop 
 endfacet 
 facet normal  0.000000000000000e+00 -0.000000000000000e+00 1.000000000000000e+00 
  outer loop 
   vertex  2.312868930080461e+03 2.462331880972442e+01 1.200000000000000e+04 
   vertex  2.000000000000000e+03 2.000000000000000e+03 1.200000000000000e+04 
   vertex  2.000000000000000e+03 0.000000000000000e+00 1.200000000000000e+04 
  endloop 
 endfacet 
 facet normal  2.334453638559053e-01 -9.723699203976767e-01 0.000000000000000e+00 
  outer loop 
   vertex  2.312868930080461e+03 2.462331880972442e+01 0.000000000000000e+00 
   vertex  2.618033988749894e+03 9.788696740969272e+01 0.000000000000000e+00 
   vertex  2.312868930080461e+03 2.462331880972442e+01 1.200000000000000e+04 
  endloop 
 endfacet 
 facet normal  -0.000000000000000e+00 0.000000000000000e+00 -1.000000000000000e+00 
  outer loop 
   vertex  2.312868930080461e+03 2.462331880972442e+01 0.000000000000000e+00 
   vertex  2.000000000000000e+03 2.000000000000000e+03 0.000000000000000e+00 
   vertex  2.618033988749894e+03 9.788696740969272e+01 0.000000000000000e+00 
  endloop 
 endfacet 
 facet normal  2.334453638559053e-01 -9.723699203976767e-01 0.000000000000000e+00 
  outer loop 
   vertex  2.618033988749894e+03 9.788696740969272e+01 1.200000000000000e+04 
   vertex  2.312868930080461e+03 2.462331880972442e+01 1.200000000000000e+04 
   vertex  2.618033988749894e+03 9.788696740969272e+01 0.000000000000000e+00 
  endloop 
 endfacet 
 facet normal  0.000000000000000e+00 -0.000000000000000e+00 1.000000000000000e+00 
  outer loop 
   vertex  2.618033988749894e+03 9.788696740969272e+01 1.200000000000000e+04 
   vertex  2.000000000000000e+03 2.000000000000000e+03 1.200000000000000e+04 
   vertex  2.312868930080461e+03 2.462331880972442e+01 1.200000000000000e+04 
  endloop 
 endfacet 
 facet normal  3.826834323650897e-01 -9.238795325112867e-01 0.000000000000000e+00 
  outer loop 
   vertex  2.618033988749894e+03 9.788696740969272e+01 0.000000000000000e+00 
   vertex  2.907980999479093e+03 2.179869516232641e+02 0.000000000000000e+00 
   vertex  2.618033988749894e+03 9.788696740969272e+01 1.200000000000000e+04 
  endloop 
 endfacet 
 facet normal  -0.000000000000000e+00 0.000000000000000e+00 -1.000000000000000e+00 
  outer loop 
   vertex  2.618033988749894e+03 9.788696740969272e+01 0.000000000000000e+00 
   vertex  2.000000000000000e+03 2.000000000000000e+03 0.000000000000000e+00 
   vertex  2.907980999479093e+03 2.179869516232641e+02 0.000000000000000e+00 
  endloop 
 endfacet 
 facet normal  3.826834323650897e-01 -9.238795325112867e-01 0.000000000000000e+00 
  outer loop 
   vertex  2.907980999479093e+03 2.179869516232641e+02 1.200000000000000e+04 
   vertex  2.618033988749894e+03 9.788696740969272e+01 1.200000000000000e+04 
   vertex  2.907980999479093e+03 2.179869516232641e+02 0.000000000000000e+00 
  endloop 
 endfacet 
 facet normal  0.000000000000000e+00 -0.000000000000000e+00 1.000000000000000e+00 
  outer loop 
   vertex  2.907980999479093e+03 2.179869516232641e+02 1.200000000000000e+04 
   vertex  2.000000000000000e+03 2.000000000000000e+03 1.200000000000000e+04 
   vertex  2.618033988749894e+03 9.788696740969272e+01 1.200000000000000e+04 
  endloop 
 endfacet 
 facet normal  5.224985647159486e-01 -8.526401643540925e-01 0.000000000000000e+00 
  outer loop 
   vertex  2.907980999479093e+03 2.179869516232641e+02 0.000000000000000e+00 
   vertex  3.175570504584946e+03 3.819660112501049e+02 0.000000000000000e+00 
   vertex  2.907980999479093e+03 2.179869516232641e+02 1.200000000000000e+04 
  endloop 
 endfacet 
 facet normal  -0.000000000000000e+00 0.000000000000000e+00 -1.000000000000000e+00 
  outer loop 
   vertex  2.907980999479093e+03 2.179869516232641e+02 0.000000000000000e+00 
   vertex  2.000000000000000e+03 2.000000000000000e+03 0.000000000000000e+00 
   vertex  3.175570504584946e+03 3.819660112501049e+02 0.000000000000000e+00 
  endloop 
 endfacet 
 facet normal  5.224985647159486e-01 -8.526401643540925e-01 0.000000000000000e+00 
  outer loop 
   vertex  3.175570504584946e+03 3.819660112501049e+02 1.200000000000000e+04 
   vertex  2.907980999479093e+03 2.179869516232641e+02 1.200000000000000e+04 
   vertex  3.175570504584946e+03 3.819660112501049e+02 0.000000000000000e+00 
  endloop 
 endfacet 
 facet normal  0.000000000000000e+00 -0.000000000000000e+00 1.000000000000000e+00 
  outer loop 
   vertex  3.175570504584946e+03 3.819660112501049e+02 1.200000000000000e+04 
   vertex  2.000000000000000e+03 2.000000000000000e+03 1.200000000000000e+04 
   vertex  2.907980999479093e+03 2.179869516232641e+02 1.200000000000000e+04 
  endloop 
 endfacet 
 facet normal  6.494480483301837e-01 -7.604059656000310e-01 0.000000000000000e+00 
  outer loop 
   vertex  3.175570504584946e+03 3.819660112501049e+02 0.000000000000000e+00 
   vertex  3.414213562373095e+03 5.857864376269047e+02 0.000000000000000e+00 
   vertex  3.175570504584946e+03 3.819660112501049e+02 1.200000000000000e+04 
  endloop 
 endfacet 
 facet normal  -0.000000000000000e+00 0.000000000000000e+00 -1.000000000000000e+00 
  outer loop 
   vertex  3.175570504584946e+03 3.819660112501049e+02 0.000000000000000e+00 
   vertex  2.000000000000000e+03 2.000000000000000e+03 0.000000000000000e+00 
   vertex  3.414213562373095e+03 5.857864376269047e+02 0.000000000000000e+00 
  endloop 
 endfacet 
 facet normal  6.494480483301837e-01 -7.604059656000310e-01 0.000000000000000e+00 
  outer loop 
   vertex  3.414213562373095e+03 5.857864376269047e+02 1.200000000000000e+04 
   vertex  3.175570504584946e+03 3.819660112501049e+02 1.200000000000000e+04 
   vertex  3.414213562373095e+03 5.857864376269047e+02 0.000000000000000e+00 
  endloop 
 endfacet 
 facet normal  0.000000000000000e+00 -0.000000000000000e+00 1.000000000000000e+00 
  outer loop 
   vertex  3.414213562373095e+03 5.857864376269047e+02 1.200000000000000e+04 
   vertex  2.000000000000000e+03 2.000000000000000e+03 1.200000000000000e+04 
   vertex  3.175570504584946e+03 3.819660112501049e+02 1.200000000000000e+04 
  endloop 
 endfacet 
 facet normal  7.604059656000299e-01 -6.494480483301849e-01 0.000000000000000e+00 
  outer loop 
   vertex  3.414213562373095e+03 5.857864376269047e+02 0.000000000000000e+00 
   vertex  3.618033988749895e+03 8.244294954150532e+02 0.000000000000000e+00 
   vertex  3.414213562373095e+03 5.857864376269047e+02 1.200000000000000e+04 
  endloop 
 endfacet 
 facet normal  -0.000000000000000e+00 0.000000000000000e+00 -1.000000000000000e+00 
  outer loop 
   vertex  3.414213562373095e+03 5.857864376269047e+02 0.000000000000000e+00 
   vertex  2.000000000000000e+03 2.000000000000000e+03 0.000000000000000e+00 
   vertex  3.618033988749895e+03 8.244294954150532e+02 0.000000000000000e+00 
  endloop 
 endfacet 
 facet normal  7.604059656000299e-01 -6.494480483301849e-01 0.000000000000000e+00 
  outer loop 
   vertex  3.618033988749895e+03 8.244294954150532e+02 1.200000000000000e+04 
   vertex  3.414213562373095e+03 5.857864376269047e+02 1.200000000000000e+04 
   vertex  3.618033988749895e+03 8.244294954150532e+02 0.000000000000000e+00 
  endloop 
 endfacet 
 facet normal  0.000000000000000e+00 -0.000000000000000e+00 1.000000000000000e+00 
  outer loop 
   vertex  3.618033988749895e+03 8.244294954150532e+02 1.200000000000000e+04 
   vertex  2.000000000000000e+03 2.000000000000000e+03 1.200000000000000e+04 
   vertex  3.414213562373095e+03 5.857864376269047e+02 1.200000000000000e+04 
  endloop 
 endfacet 
 facet normal  8.526401643540932e-01 -5.224985647159475e-01 0.000000000000000e+00 
  outer loop 
   vertex  3.618033988749895e+03 8.244294954150532e+02 0.000000000000000e+00 
   vertex  3.782013048376735e+03 1.092019000520906e+03 0.000000000000000e+00 
   vertex  3.618033988749895e+03 8.244294954150532e+02 1.200000000000000e+04 
  endloop 
 endfacet 
 facet normal  -0.000000000000000e+00 0.000000000000000e+00 -1.000000000000000e+00 
  outer loop 
   vertex  3.618033988749895e+03 8.244294954150532e+02 0.000000000000000e+00 
   vertex  2.000000000000000e+03 2.000000000000000e+03 0.000000000000000e+00 
   vertex  3.782013048376735e+03 1.092019000520906e+03 0.000000000000000e+00 
  endloop 
 endfacet 
 facet normal  8.526401643540932e-01 -5.224985647159475e-01 0.000000000000000e+00 
  outer loop 
   vertex  3.782013048376735e+03 1.092019000520906e+03 1.200000000000000e+04 
   vertex  3.618033988749895e+03 8.244294954150532e+02 1.200000000000000e+04 
   vertex  3.782013048376735e+03 1.092019000520906e+03 0.000000000000000e+00 
  endloop 
 endfacet 
 facet normal  0.000000000000000e+00 -0.000000000000000e+00 1.000000000000000e+00 
  outer loop 
   vertex  3.782013048376735e+03 1.092019000520906e+03 1.200000000000000e+04 
   vertex  2.000000000000000e+03 2.000000000000000e+03 1.200000000000000e+04 
   vertex  3.618033988749895e+03 8.244294954150532e+02 1.200000000000000e+04 
  endloop 
 endfacet 
 facet normal  9.238795325112864e-01 -3.826834323650903e-01 0.000000000000000e+00 
  outer loop 
   vertex  3.782013048376735e+03 1.092019000520906e+03 0.000000000000000e+00 
   vertex  3.902113032590307e+03 1.381966011250105e+03 0.000000000000000e+00 
   vertex  3.782013048376735e+03 1.092019000520906e+03 1.200000000000000e+04 
  endloop 
 endfacet 
 facet normal  -0.000000000000000e+00 0.000000000000000e+00 -1.000000000000000e+00 
  outer loop 
   vertex  3.782013048376735e+03 1.092019000520906e+03 0.000000000000000e+00 
   vertex  2.000000000000000e+03 2.000000000000000e+03 0.000000000000000e+00 
   vertex  3.902113032590307e+03 1.381966011250105e+03 0.000000000000000e+00 
  endloop 
 endfacet 
 facet normal  9.238795325112864e-01 -3.826834323650903e-01 0.000000000000000e+00 
  outer loop 
   vertex  3.902113032590307e+03 1.381966011250105e+03 1.200000000000000e+04 
   vertex  3.782013048376735e+03 1.092019000520906e+03 1.200000000000000e+04 
   vertex  3.902113032590307e+03 1.381966011250105e+03 0.000000000000000e+00 
  endloop 
 endfacet 
 facet normal  0.000000000000000e+00 -0.000000000000000e+00 1.000000000000000e+00 
  outer loop 
   vertex  3.902113032590307e+03 1.381966011250105e+03 1.200000000000000e+04 
   vertex  2.000000000000000e+03 2.000000000000000e+03 1.200000000000000e+04 
   vertex  3.782013048376735e+03 1.092019000520906e+03 1.200000000000000e+04 
  endloop 
 endfacet 
 facet normal  9.723699203976767e-01 -2.334453638559053e-01 0.000000000000000e+00 
  outer loop 
   vertex  3.902113032590307e+03 1.381966011250105e+03 0.000000000000000e+00 
   vertex  3.975376681190275e+03 1.687131069919538e+03 0.000000000000000e+00 
   vertex  3.902113032590307e+03 1.381966011250105e+03 1.200000000000000e+04 
  endloop 
 endfacet 
 facet normal  -0.000000000000000e+00 0.000000000000000e+00 -1.000000000000000e+00 
  outer loop 
   vertex  3.902113032590307e+03 1.381966011250105e+03 0.000000000000000e+00 
   vertex  2.000000000000000e+03 2.000000000000000e+03 0.000000000000000e+00 
   vertex  3.975376681190275e+03 1.687131069919538e+03 0.000000000000000e+00 
  endloop 
 endfacet 
 facet normal  9.723699203976767e-01 -2.334453638559053e-01 0.000000000000000e+00 
  outer loop 
   vertex  3.975376681190275e+03 1.687131069919538e+03 1.200000000000000e+04 
   vertex  3.902113032590307e+03 1.381966011250105e+03 1.200000000000000e+04 
   vertex  3.975376681190275e+03 1.687131069919538e+03 0.000000000000000e+00 
  endloop 
 endfacet 
 facet normal  0.000000000000000e+00 -0.000000000000000e+00 1.000000000000000e+00 
  outer loop 
   vertex  3.975376681190275e+03 1.687131069919538e+03 1.200000000000000e+04 
   vertex  2.000000000000000e+03 2.000000000000000e+03 1.200000000000000e+04 
   vertex  3.902113032590307e+03 1.381966011250105e+03 1.200000000000000e+04 
  endloop 
 endfacet 
 facet normal  9.969173337331280e-01 -7.845909572784589e-02 0.000000000000000e+00 
  outer loop 
   vertex  3.975376681190275e+03 1.687131069919538e+03 0.000000000000000e+00 
   vertex  4.000000000000000e+03 2.000000000000000e+03 0.000000000000000e+00 
   vertex  3.975376681190275e+03 1.687131069919538e+03 1.200000000000000e+04 
  endloop 
 endfacet 
 facet normal  -0.000000000000000e+00 0.000000000000000e+00 -1.000000000000000e+00 
  outer loop 
   vertex  3.975376681190275e+03 1.687131069919538e+03 0.000000000000000e+00 
   vertex  2.000000000000000e+03 2.000000000000000e+03 0.000000000000000e+00 
   vertex  4.000000000000000e+03 2.000000000000000e+03 0.000000000000000e+00 
  endloop 
 endfacet 
 facet normal  9.969173337331280e-01 -7.845909572784589e-02 0.000000000000000e+00 
  outer loop 
   vertex  4.000000000000000e+03 2.000000000000000e+03 1.200000000000000e+04 
   vertex  3.975376681190275e+03 1.687131069919538e+03 1.200000000000000e+04 
   vertex  4.000000000000000e+03 2.000000000000000e+03 0.000000000000000e+00 
  endloop 
 endfacet 
 facet normal  0.000000000000000e+00 -0.000000000000000e+00 1.000000000000000e+00 
  outer loop 
   vertex  4.000000000000000e+03 2.000000000000000e+03 1.200000000000000e+04 
   vertex  2.000000000000000e+03 2.000000000000000e+03 1.200000000000000e+04 
   vertex  3.975376681190275e+03 1.687131069919538e+03 1.200000000000000e+04 
  endloop 
 endfacet 
endsolid