solid cylinder
 facet normal  -0.000000000000000e+00 -0.000000000000000e+00 -1.000000000000000e+00 
  outer loop 
   vertex  1.063500000000000e+03 0.000000000000000e+00 0.000000000000000e+00 
   vertex  0.000000000000000e+00 0.000000000000000e+00 0.000000000000000e+00 
   vertex  1.040259973380402e+03 2.211140831846870e+02 0.000000000000000e+00 
  endloop 
 endfacet 
 facet normal  0.000000000000000e+00 0.000000000000000e+00 1.000000000000000e+00 
  outer loop 
   vertex  1.040259973380402e+03 2.211140831846870e+02 6.381000000000000e+03 
   vertex  0.000000000000000e+00 0.000000000000000e+00 6.381000000000000e+03 
   vertex  1.063500000000000e+03 0.000000000000000e+00 6.381000000000000e+03 
  endloop 
 endfacet 
 facet normal  9.945218953682733e-01 1.045284632676537e-01 0.000000000000000e+00 
  outer loop 
   vertex  1.063500000000000e+03 0.000000000000000e+00 0.000000000000000e+00 
   vertex  1.040259973380402e+03 2.211140831846870e+02 0.000000000000000e+00 
   vertex  1.063500000000000e+03 0.000000000000000e+00 6.381000000000000e+03 
  endloop 
 endfacet 
 facet normal  9.945218953682733e-01 1.045284632676537e-01 -0.000000000000000e+00 
  outer loop 
   vertex  1.040259973380402e+03 2.211140831846870e+02 6.381000000000000e+03 
   vertex  1.063500000000000e+03 0.000000000000000e+00 6.381000000000000e+03 
   vertex  1.040259973380402e+03 2.211140831846870e+02 0.000000000000000e+00 
  endloop 
 endfacet 
 facet normal  0.000000000000000e+00 -0.000000000000000e+00 -1.000000000000000e+00 
  outer loop 
   vertex  1.040259973380402e+03 2.211140831846870e+02 0.000000000000000e+00 
   vertex  0.000000000000000e+00 0.000000000000000e+00 0.000000000000000e+00 
   vertex  9.715555942029060e+02 4.325644199111135e+02 0.000000000000000e+00 
  endloop 
 endfacet 
 facet normal  0.000000000000000e+00 0.000000000000000e+00 1.000000000000000e+00 
  outer loop 
   vertex  9.715555942029060e+02 4.325644199111135e+02 6.381000000000000e+03 
   vertex  0.000000000000000e+00 0.000000000000000e+00 6.381000000000000e+03 
   vertex  1.040259973380402e+03 2.211140831846870e+02 6.381000000000000e+03 
  endloop 
 endfacet 
 facet normal  9.510565162951535e-01 3.090169943749472e-01 0.000000000000000e+00 
  outer loop 
   vertex  1.040259973380402e+03 2.211140831846870e+02 0.000000000000000e+00 
   vertex  9.715555942029060e+02 4.325644199111135e+02 0.000000000000000e+00 
   vertex  1.040259973380402e+03 2.211140831846870e+02 6.381000000000000e+03 
  endloop 
 endfacet 
 facet normal  9.510565162951535e-01 3.090169943749472e-01 -0.000000000000000e+00 
  outer loop 
   vertex  9.715555942029060e+02 4.325644199111135e+02 6.381000000000000e+03 
   vertex  1.040259973380402e+03 2.211140831846870e+02 6.381000000000000e+03 
   vertex  9.715555942029060e+02 4.325644199111135e+02 0.000000000000000e+00 
  endloop 
 endfacet 
 facet normal  0.000000000000000e+00 -0.000000000000000e+00 -1.000000000000000e+00 
  outer loop 
   vertex  9.715555942029060e+02 4.325644199111135e+02 0.000000000000000e+00 
   vertex  0.000000000000000e+00 0.000000000000000e+00 0.000000000000000e+00 
   vertex  8.603895735177566e+02 6.251096158130451e+02 0.000000000000000e+00 
  endloop 
 endfacet 
 facet normal  0.000000000000000e+00 0.000000000000000e+00 1.000000000000000e+00 
  outer loop 
   vertex  8.603895735177566e+02 6.251096158130451e+02 6.381000000000000e+03 
   vertex  0.000000000000000e+00 0.000000000000000e+00 6.381000000000000e+03 
   vertex  9.715555942029060e+02 4.325644199111135e+02 6.381000000000000e+03 
  endloop 
 endfacet 
 facet normal  8.660254037844388e-01 4.999999999999998e-01 0.000000000000000e+00 
  outer loop 
   vertex  9.715555942029060e+02 4.325644199111135e+02 0.000000000000000e+00 
   vertex  8.603895735177566e+02 6.251096158130451e+02 0.000000000000000e+00 
   vertex  9.715555942029060e+02 4.325644199111135e+02 6.381000000000000e+03 
  endloop 
 endfacet 
 facet normal  8.660254037844388e-01 4.999999999999998e-01 -0.000000000000000e+00 
  outer loop 
   vertex  8.603895735177566e+02 6.251096158130451e+02 6.381000000000000e+03 
   vertex  9.715555942029060e+02 4.325644199111135e+02 6.381000000000000e+03 
   vertex  8.603895735177566e+02 6.251096158130451e+02 0.000000000000000e+00 
  endloop 
 endfacet 
 facet normal  0.000000000000000e+00 -0.000000000000000e+00 -1.000000000000000e+00 
  outer loop 
   vertex  8.603895735177566e+02 6.251096158130451e+02 0.000000000000000e+00 
   vertex  0.000000000000000e+00 0.000000000000000e+00 0.000000000000000e+00 
   vertex  7.116203998626457e+02 7.903345218952088e+02 0.000000000000000e+00 
  endloop 
 endfacet 
 facet normal  0.000000000000000e+00 0.000000000000000e+00 1.000000000000000e+00 
  outer loop 
   vertex  7.116203998626457e+02 7.903345218952088e+02 6.381000000000000e+03 
   vertex  0.000000000000000e+00 0.000000000000000e+00 6.381000000000000e+03 
   vertex  8.603895735177566e+02 6.251096158130451e+02 6.381000000000000e+03 
  endloop 
 endfacet 
 facet normal  7.431448254773945e-01 6.691306063588581e-01 0.000000000000000e+00 
  outer loop 
   vertex  8.603895735177566e+02 6.251096158130451e+02 0.000000000000000e+00 
   vertex  7.116203998626457e+02 7.903345218952088e+02 0.000000000000000e+00 
   vertex  8.603895735177566e+02 6.251096158130451e+02 6.381000000000000e+03 
  endloop 
 endfacet 
 facet normal  7.431448254773945e-01 6.691306063588581e-01 -0.000000000000000e+00 
  outer loop 
   vertex  7.116203998626457e+02 7.903345218952088e+02 6.381000000000000e+03 
   vertex  8.603895735177566e+02 6.251096158130451e+02 6.381000000000000e+03 
   vertex  7.116203998626457e+02 7.903345218952088e+02 0.000000000000000e+00 
  endloop 
 endfacet 
 facet normal  0.000000000000000e+00 -0.000000000000000e+00 -1.000000000000000e+00 
  outer loop 
   vertex  7.116203998626457e+02 7.903345218952088e+02 0.000000000000000e+00 
   vertex  0.000000000000000e+00 0.000000000000000e+00 0.000000000000000e+00 
   vertex  5.317500000000001e+02 9.210180169247504e+02 0.000000000000000e+00 
  endloop 
 endfacet 
 facet normal  0.000000000000000e+00 0.000000000000000e+00 1.000000000000000e+00 
  outer loop 
   vertex  5.317500000000001e+02 9.210180169247504e+02 6.381000000000000e+03 
   vertex  0.000000000000000e+00 0.000000000000000e+00 6.381000000000000e+03 
   vertex  7.116203998626457e+02 7.903345218952088e+02 6.381000000000000e+03 
  endloop 
 endfacet 
 facet normal  5.877852522924730e-01 8.090169943749475e-01 0.000000000000000e+00 
  outer loop 
   vertex  7.116203998626457e+02 7.903345218952088e+02 0.000000000000000e+00 
   vertex  5.317500000000001e+02 9.210180169247504e+02 0.000000000000000e+00 
   vertex  7.116203998626457e+02 7.903345218952088e+02 6.381000000000000e+03 
  endloop 
 endfacet 
 facet normal  5.877852522924730e-01 8.090169943749475e-01 -0.000000000000000e+00 
  outer loop 
   vertex  5.317500000000001e+02 9.210180169247504e+02 6.381000000000000e+03 
   vertex  7.116203998626457e+02 7.903345218952088e+02 6.381000000000000e+03 
   vertex  5.317500000000001e+02 9.210180169247504e+02 0.000000000000000e+00 
  endloop 
 endfacet 
 facet normal  0.000000000000000e+00 -0.000000000000000e+00 -1.000000000000000e+00 
  outer loop 
   vertex  5.317500000000001e+02 9.210180169247504e+02 0.000000000000000e+00 
   vertex  0.000000000000000e+00 0.000000000000000e+00 0.000000000000000e+00 
   vertex  3.286395735177566e+02 1.011448605079896e+03 0.000000000000000e+00 
  endloop 
 endfacet 
 facet normal  0.000000000000000e+00 0.000000000000000e+00 1.000000000000000e+00 
  outer loop 
   vertex  3.286395735177566e+02 1.011448605079896e+03 6.381000000000000e+03 
   vertex  0.000000000000000e+00 0.000000000000000e+00 6.381000000000000e+03 
   vertex  5.317500000000001e+02 9.210180169247504e+02 6.381000000000000e+03 
  endloop 
 endfacet 
 facet normal  4.067366430758000e-01 9.135454576426010e-01 0.000000000000000e+00 
  outer loop 
   vertex  5.317500000000001e+02 9.210180169247504e+02 0.000000000000000e+00 
   vertex  3.286395735177566e+02 1.011448605079896e+03 0.000000000000000e+00 
   vertex  5.317500000000001e+02 9.210180169247504e+02 6.381000000000000e+03 
  endloop 
 endfacet 
 facet normal  4.067366430758000e-01 9.135454576426010e-01 -0.000000000000000e+00 
  outer loop 
   vertex  3.286395735177566e+02 1.011448605079896e+03 6.381000000000000e+03 
   vertex  5.317500000000001e+02 9.210180169247504e+02 6.381000000000000e+03 
   vertex  3.286395735177566e+02 1.011448605079896e+03 0.000000000000000e+00 
  endloop 
 endfacet 
 facet normal  0.000000000000000e+00 -0.000000000000000e+00 -1.000000000000000e+00 
  outer loop 
   vertex  3.286395735177566e+02 1.011448605079896e+03 0.000000000000000e+00 
   vertex  0.000000000000000e+00 0.000000000000000e+00 0.000000000000000e+00 
   vertex  1.111660206851494e+02 1.057674035724159e+03 0.000000000000000e+00 
  endloop 
 endfacet 
 facet normal  0.000000000000000e+00 0.000000000000000e+00 1.000000000000000e+00 
  outer loop 
   vertex  1.111660206851494e+02 1.057674035724159e+03 6.381000000000000e+03 
   vertex  0.000000000000000e+00 0.000000000000000e+00 6.381000000000000e+03 
   vertex  3.286395735177566e+02 1.011448605079896e+03 6.381000000000000e+03 
  endloop 
 endfacet 
 facet normal  2.079116908177590e-01 9.781476007338057e-01 0.000000000000000e+00 
  outer loop 
   vertex  3.286395735177566e+02 1.011448605079896e+03 0.000000000000000e+00 
   vertex  1.111660206851494e+02 1.057674035724159e+03 0.000000000000000e+00 
   vertex  3.286395735177566e+02 1.011448605079896e+03 6.381000000000000e+03 
  endloop 
 endfacet 
 facet normal  2.079116908177590e-01 9.781476007338057e-01 -0.000000000000000e+00 
  outer loop 
   vertex  1.111660206851494e+02 1.057674035724159e+03 6.381000000000000e+03 
   vertex  3.286395735177566e+02 1.011448605079896e+03 6.381000000000000e+03 
   vertex  1.111660206851494e+02 1.057674035724159e+03 0.000000000000000e+00 
  endloop 
 endfacet 
 facet normal  0.000000000000000e+00 -0.000000000000000e+00 -1.000000000000000e+00 
  outer loop 
   vertex  1.111660206851494e+02 1.057674035724159e+03 0.000000000000000e+00 
   vertex  0.000000000000000e+00 0.000000000000000e+00 0.000000000000000e+00 
   vertex  -1.111660206851493e+02 1.057674035724159e+03 0.000000000000000e+00 
  endloop 
 endfacet 
 facet normal  0.000000000000000e+00 0.000000000000000e+00 1.000000000000000e+00 
  outer loop 
   vertex  -1.111660206851493e+02 1.057674035724159e+03 6.381000000000000e+03 
   vertex  0.000000000000000e+00 0.000000000000000e+00 6.381000000000000e+03 
   vertex  1.111660206851494e+02 1.057674035724159e+03 6.381000000000000e+03 
  endloop 
 endfacet 
 facet normal  1.022676147090002e-15 1.000000000000000e+00 0.000000000000000e+00 
  outer loop 
   vertex  1.111660206851494e+02 1.057674035724159e+03 0.000000000000000e+00 
   vertex  -1.111660206851493e+02 1.057674035724159e+03 0.000000000000000e+00 
   vertex  1.111660206851494e+02 1.057674035724159e+03 6.381000000000000e+03 
  endloop 
 endfacet 
 facet normal  1.022676147090002e-15 1.000000000000000e+00 -0.000000000000000e+00 
  outer loop 
   vertex  -1.111660206851493e+02 1.057674035724159e+03 6.381000000000000e+03 
   vertex  1.111660206851494e+02 1.057674035724159e+03 6.381000000000000e+03 
   vertex  -1.111660206851493e+02 1.057674035724159e+03 0.000000000000000e+00 
  endloop 
 endfacet 
 facet normal  0.000000000000000e+00 0.000000000000000e+00 -1.000000000000000e+00 
  outer loop 
   vertex  -1.111660206851493e+02 1.057674035724159e+03 0.000000000000000e+00 
   vertex  0.000000000000000e+00 0.000000000000000e+00 0.000000000000000e+00 
   vertex  -3.286395735177565e+02 1.011448605079896e+03 0.000000000000000e+00 
  endloop 
 endfacet 
 facet normal  0.000000000000000e+00 0.000000000000000e+00 1.000000000000000e+00 
  outer loop 
   vertex  -3.286395735177565e+02 1.011448605079896e+03 6.381000000000000e+03 
   vertex  0.000000000000000e+00 0.000000000000000e+00 6.381000000000000e+03 
   vertex  -1.111660206851493e+02 1.057674035724159e+03 6.381000000000000e+03 
  endloop 
 endfacet 
 facet normal  -2.079116908177595e-01 9.781476007338057e-01 0.000000000000000e+00 
  outer loop 
   vertex  -1.111660206851493e+02 1.057674035724159e+03 0.000000000000000e+00 
   vertex  -3.286395735177565e+02 1.011448605079896e+03 0.000000000000000e+00 
   vertex  -1.111660206851493e+02 1.057674035724159e+03 6.381000000000000e+03 
  endloop 
 endfacet 
 facet normal  -2.079116908177595e-01 9.781476007338057e-01 0.000000000000000e+00 
  outer loop 
   vertex  -3.286395735177565e+02 1.011448605079896e+03 6.381000000000000e+03 
   vertex  -1.111660206851493e+02 1.057674035724159e+03 6.381000000000000e+03 
   vertex  -3.286395735177565e+02 1.011448605079896e+03 0.000000000000000e+00 
  endloop 
 endfacet 
 facet normal  0.000000000000000e+00 0.000000000000000e+00 -1.000000000000000e+00 
  outer loop 
   vertex  -3.286395735177565e+02 1.011448605079896e+03 0.000000000000000e+00 
   vertex  0.000000000000000e+00 0.000000000000000e+00 0.000000000000000e+00 
   vertex  -5.317499999999998e+02 9.210180169247506e+02 0.000000000000000e+00 
  endloop 
 endfacet 
 facet normal  0.000000000000000e+00 0.000000000000000e+00 1.000000000000000e+00 
  outer loop 
   vertex  -5.317499999999998e+02 9.210180169247506e+02 6.381000000000000e+03 
   vertex  0.000000000000000e+00 0.000000000000000e+00 6.381000000000000e+03 
   vertex  -3.286395735177565e+02 1.011448605079896e+03 6.381000000000000e+03 
  endloop 
 endfacet 
 facet normal  -4.067366430758003e-01 9.135454576426008e-01 0.000000000000000e+00 
  outer loop 
   vertex  -3.286395735177565e+02 1.011448605079896e+03 0.000000000000000e+00 
   vertex  -5.317499999999998e+02 9.210180169247506e+02 0.000000000000000e+00 
   vertex  -3.286395735177565e+02 1.011448605079896e+03 6.381000000000000e+03 
  endloop 
 endfacet 
 facet normal  -4.067366430758003e-01 9.135454576426008e-01 0.000000000000000e+00 
  outer loop 
   vertex  -5.317499999999998e+02 9.210180169247506e+02 6.381000000000000e+03 
   vertex  -3.286395735177565e+02 1.011448605079896e+03 6.381000000000000e+03 
   vertex  -5.317499999999998e+02 9.210180169247506e+02 0.000000000000000e+00 
  endloop 
 endfacet 
 facet normal  0.000000000000000e+00 0.000000000000000e+00 -1.000000000000000e+00 
  outer loop 
   vertex  -5.317499999999998e+02 9.210180169247506e+02 0.000000000000000e+00 
   vertex  0.000000000000000e+00 0.000000000000000e+00 0.000000000000000e+00 
   vertex  -7.116203998626454e+02 7.903345218952090e+02 0.000000000000000e+00 
  endloop 
 endfacet 
 facet normal  0.000000000000000e+00 0.000000000000000e+00 1.000000000000000e+00 
  outer loop 
   vertex  -7.116203998626454e+02 7.903345218952090e+02 6.381000000000000e+03 
   vertex  0.000000000000000e+00 0.000000000000000e+00 6.381000000000000e+03 
   vertex  -5.317499999999998e+02 9.210180169247506e+02 6.381000000000000e+03 
  endloop 
 endfacet 
 facet normal  -5.877852522924726e-01 8.090169943749478e-01 0.000000000000000e+00 
  outer loop 
   vertex  -5.317499999999998e+02 9.210180169247506e+02 0.000000000000000e+00 
   vertex  -7.116203998626454e+02 7.903345218952090e+02 0.000000000000000e+00 
   vertex  -5.317499999999998e+02 9.210180169247506e+02 6.381000000000000e+03 
  endloop 
 endfacet 
 facet normal  -5.877852522924726e-01 8.090169943749478e-01 0.000000000000000e+00 
  outer loop 
   vertex  -7.116203998626454e+02 7.903345218952090e+02 6.381000000000000e+03 
   vertex  -5.317499999999998e+02 9.210180169247506e+02 6.381000000000000e+03 
   vertex  -7.116203998626454e+02 7.903345218952090e+02 0.000000000000000e+00 
  endloop 
 endfacet 
 facet normal  0.000000000000000e+00 0.000000000000000e+00 -1.000000000000000e+00 
  outer loop 
   vertex  -7.116203998626454e+02 7.903345218952090e+02 0.000000000000000e+00 
   vertex  0.000000000000000e+00 0.000000000000000e+00 0.000000000000000e+00 
   vertex  -8.603895735177565e+02 6.251096158130453e+02 0.000000000000000e+00 
  endloop 
 endfacet 
 facet normal  0.000000000000000e+00 0.000000000000000e+00 1.000000000000000e+00 
  outer loop 
   vertex  -8.603895735177565e+02 6.251096158130453e+02 6.381000000000000e+03 
   vertex  0.000000000000000e+00 0.000000000000000e+00 6.381000000000000e+03 
   vertex  -7.116203998626454e+02 7.903345218952090e+02 6.381000000000000e+03 
  endloop 
 endfacet 
 facet normal  -7.431448254773941e-01 6.691306063588585e-01 0.000000000000000e+00 
  outer loop 
   vertex  -7.116203998626454e+02 7.903345218952090e+02 0.000000000000000e+00 
   vertex  -8.603895735177565e+02 6.251096158130453e+02 0.000000000000000e+00 
   vertex  -7.116203998626454e+02 7.903345218952090e+02 6.381000000000000e+03 
  endloop 
 endfacet 
 facet normal  -7.431448254773941e-01 6.691306063588585e-01 0.000000000000000e+00 
  outer loop 
   vertex  -8.603895735177565e+02 6.251096158130453e+02 6.381000000000000e+03 
   vertex  -7.116203998626454e+02 7.903345218952090e+02 6.381000000000000e+03 
   vertex  -8.603895735177565e+02 6.251096158130453e+02 0.000000000000000e+00 
  endloop 
 endfacet 
 facet normal  0.000000000000000e+00 0.000000000000000e+00 -1.000000000000000e+00 
  outer loop 
   vertex  -8.603895735177565e+02 6.251096158130453e+02 0.000000000000000e+00 
   vertex  0.000000000000000e+00 0.000000000000000e+00 0.000000000000000e+00 
   vertex  -9.715555942029061e+02 4.325644199111134e+02 0.000000000000000e+00 
  endloop 
 endfacet 
 facet normal  0.000000000000000e+00 0.000000000000000e+00 1.000000000000000e+00 
  outer loop 
   vertex  -9.715555942029061e+02 4.325644199111134e+02 6.381000000000000e+03 
   vertex  0.000000000000000e+00 0.000000000000000e+00 6.381000000000000e+03 
   vertex  -8.603895735177565e+02 6.251096158130453e+02 6.381000000000000e+03 
  endloop 
 endfacet 
 facet normal  -8.660254037844385e-01 5.000000000000001e-01 0.000000000000000e+00 
  outer loop 
   vertex  -8.603895735177565e+02 6.251096158130453e+02 0.000000000000000e+00 
   vertex  -9.715555942029061e+02 4.325644199111134e+02 0.000000000000000e+00 
   vertex  -8.603895735177565e+02 6.251096158130453e+02 6.381000000000000e+03 
  endloop 
 endfacet 
 facet normal  -8.660254037844385e-01 5.000000000000001e-01 0.000000000000000e+00 
  outer loop 
   vertex  -9.715555942029061e+02 4.325644199111134e+02 6.381000000000000e+03 
   vertex  -8.603895735177565e+02 6.251096158130453e+02 6.381000000000000e+03 
   vertex  -9.715555942029061e+02 4.325644199111134e+02 0.000000000000000e+00 
  endloop 
 endfacet 
 facet normal  0.000000000000000e+00 0.000000000000000e+00 -1.000000000000000e+00 
  outer loop 
   vertex  -9.715555942029061e+02 4.325644199111134e+02 0.000000000000000e+00 
   vertex  0.000000000000000e+00 0.000000000000000e+00 0.000000000000000e+00 
   vertex  -1.040259973380402e+03 2.211140831846870e+02 0.000000000000000e+00 
  endloop 
 endfacet 
 facet normal  0.000000000000000e+00 0.000000000000000e+00 1.000000000000000e+00 
  outer loop 
   vertex  -1.040259973380402e+03 2.211140831846870e+02 6.381000000000000e+03 
   vertex  0.000000000000000e+00 0.000000000000000e+00 6.381000000000000e+03 
   vertex  -9.715555942029061e+02 4.325644199111134e+02 6.381000000000000e+03 
  endloop 
 endfacet 
 facet normal  -9.510565162951539e-01 3.090169943749470e-01 0.000000000000000e+00 
  outer loop 
   vertex  -9.715555942029061e+02 4.325644199111134e+02 0.000000000000000e+00 
   vertex  -1.040259973380402e+03 2.211140831846870e+02 0.000000000000000e+00 
   vertex  -9.715555942029061e+02 4.325644199111134e+02 6.381000000000000e+03 
  endloop 
 endfacet 
 facet normal  -9.510565162951539e-01 3.090169943749470e-01 0.000000000000000e+00 
  outer loop 
   vertex  -1.040259973380402e+03 2.211140831846870e+02 6.381000000000000e+03 
   vertex  -9.715555942029061e+02 4.325644199111134e+02 6.381000000000000e+03 
   vertex  -1.040259973380402e+03 2.211140831846870e+02 0.000000000000000e+00 
  endloop 
 endfacet 
 facet normal  0.000000000000000e+00 0.000000000000000e+00 -1.000000000000000e+00 
  outer loop 
   vertex  -1.040259973380402e+03 2.211140831846870e+02 0.000000000000000e+00 
   vertex  0.000000000000000e+00 0.000000000000000e+00 0.000000000000000e+00 
   vertex  -1.063500000000000e+03 1.302411870893210e-13 0.000000000000000e+00 
  endloop 
 endfacet 
 facet normal  0.000000000000000e+00 0.000000000000000e+00 1.000000000000000e+00 
  outer loop 
   vertex  -1.063500000000000e+03 1.302411870893210e-13 6.381000000000000e+03 
   vertex  0.000000000000000e+00 0.000000000000000e+00 6.381000000000000e+03 
   vertex  -1.040259973380402e+03 2.211140831846870e+02 6.381000000000000e+03 
  endloop 
 endfacet 
 facet normal  -9.945218953682733e-01 1.045284632676538e-01 0.000000000000000e+00 
  outer loop 
   vertex  -1.040259973380402e+03 2.211140831846870e+02 0.000000000000000e+00 
   vertex  -1.063500000000000e+03 1.302411870893210e-13 0.000000000000000e+00 
   vertex  -1.040259973380402e+03 2.211140831846870e+02 6.381000000000000e+03 
  endloop 
 endfacet 
 facet normal  -9.945218953682733e-01 1.045284632676538e-01 0.000000000000000e+00 
  outer loop 
   vertex  -1.063500000000000e+03 1.302411870893210e-13 6.381000000000000e+03 
   vertex  -1.040259973380402e+03 2.211140831846870e+02 6.381000000000000e+03 
   vertex  -1.063500000000000e+03 1.302411870893210e-13 0.000000000000000e+00 
  endloop 
 endfacet 
 facet normal  0.000000000000000e+00 0.000000000000000e+00 -1.000000000000000e+00 
  outer loop 
   vertex  -1.063500000000000e+03 1.302411870893210e-13 0.000000000000000e+00 
   vertex  0.000000000000000e+00 0.000000000000000e+00 0.000000000000000e+00 
   vertex  -1.040259973380402e+03 -2.211140831846868e+02 0.000000000000000e+00 
  endloop 
 endfacet 
 facet normal  -0.000000000000000e+00 0.000000000000000e+00 1.000000000000000e+00 
  outer loop 
   vertex  -1.040259973380402e+03 -2.211140831846868e+02 6.381000000000000e+03 
   vertex  0.000000000000000e+00 0.000000000000000e+00 6.381000000000000e+03 
   vertex  -1.063500000000000e+03 1.302411870893210e-13 6.381000000000000e+03 
  endloop 
 endfacet 
 facet normal  -9.945218953682733e-01 -1.045284632676538e-01 -0.000000000000000e+00 
  outer loop 
   vertex  -1.063500000000000e+03 1.302411870893210e-13 0.000000000000000e+00 
   vertex  -1.040259973380402e+03 -2.211140831846868e+02 0.000000000000000e+00 
   vertex  -1.063500000000000e+03 1.302411870893210e-13 6.381000000000000e+03 
  endloop 
 endfacet 
 facet normal  -9.945218953682733e-01 -1.045284632676538e-01 0.000000000000000e+00 
  outer loop 
   vertex  -1.040259973380402e+03 -2.211140831846868e+02 6.381000000000000e+03 
   vertex  -1.063500000000000e+03 1.302411870893210e-13 6.381000000000000e+03 
   vertex  -1.040259973380402e+03 -2.211140831846868e+02 0.000000000000000e+00 
  endloop 
 endfacet 
 facet normal  0.000000000000000e+00 0.000000000000000e+00 -1.000000000000000e+00 
  outer loop 
   vertex  -1.040259973380402e+03 -2.211140831846868e+02 0.000000000000000e+00 
   vertex  0.000000000000000e+00 0.000000000000000e+00 0.000000000000000e+00 
   vertex  -9.715555942029063e+02 -4.325644199111131e+02 0.000000000000000e+00 
  endloop 
 endfacet 
 facet normal  -0.000000000000000e+00 0.000000000000000e+00 1.000000000000000e+00 
  outer loop 
   vertex  -9.715555942029063e+02 -4.325644199111131e+02 6.381000000000000e+03 
   vertex  0.000000000000000e+00 0.000000000000000e+00 6.381000000000000e+03 
   vertex  -1.040259973380402e+03 -2.211140831846868e+02 6.381000000000000e+03 
  endloop 
 endfacet 
 facet normal  -9.510565162951539e-01 -3.090169943749465e-01 -0.000000000000000e+00 
  outer loop 
   vertex  -1.040259973380402e+03 -2.211140831846868e+02 0.000000000000000e+00 
   vertex  -9.715555942029063e+02 -4.325644199111131e+02 0.000000000000000e+00 
   vertex  -1.040259973380402e+03 -2.211140831846868e+02 6.381000000000000e+03 
  endloop 
 endfacet 
 facet normal  -9.510565162951539e-01 -3.090169943749465e-01 0.000000000000000e+00 
  outer loop 
   vertex  -9.715555942029063e+02 -4.325644199111131e+02 6.381000000000000e+03 
   vertex  -1.040259973380402e+03 -2.211140831846868e+02 6.381000000000000e+03 
   vertex  -9.715555942029063e+02 -4.325644199111131e+02 0.000000000000000e+00 
  endloop 
 endfacet 
 facet normal  0.000000000000000e+00 0.000000000000000e+00 -1.000000000000000e+00 
  outer loop 
   vertex  -9.715555942029063e+02 -4.325644199111131e+02 0.000000000000000e+00 
   vertex  0.000000000000000e+00 0.000000000000000e+00 0.000000000000000e+00 
   vertex  -8.603895735177566e+02 -6.251096158130450e+02 0.000000000000000e+00 
  endloop 
 endfacet 
 facet normal  -0.000000000000000e+00 0.000000000000000e+00 1.000000000000000e+00 
  outer loop 
   vertex  -8.603895735177566e+02 -6.251096158130450e+02 6.381000000000000e+03 
   vertex  0.000000000000000e+00 0.000000000000000e+00 6.381000000000000e+03 
   vertex  -9.715555942029063e+02 -4.325644199111131e+02 6.381000000000000e+03 
  endloop 
 endfacet 
 facet normal  -8.660254037844385e-01 -5.000000000000001e-01 -0.000000000000000e+00 
  outer loop 
   vertex  -9.715555942029063e+02 -4.325644199111131e+02 0.000000000000000e+00 
   vertex  -8.603895735177566e+02 -6.251096158130450e+02 0.000000000000000e+00 
   vertex  -9.715555942029063e+02 -4.325644199111131e+02 6.381000000000000e+03 
  endloop 
 endfacet 
 facet normal  -8.660254037844385e-01 -5.000000000000001e-01 0.000000000000000e+00 
  outer loop 
   vertex  -8.603895735177566e+02 -6.251096158130450e+02 6.381000000000000e+03 
   vertex  -9.715555942029063e+02 -4.325644199111131e+02 6.381000000000000e+03 
   vertex  -8.603895735177566e+02 -6.251096158130450e+02 0.000000000000000e+00 
  endloop 
 endfacet 
 facet normal  0.000000000000000e+00 0.000000000000000e+00 -1.000000000000000e+00 
  outer loop 
   vertex  -8.603895735177566e+02 -6.251096158130450e+02 0.000000000000000e+00 
   vertex  0.000000000000000e+00 0.000000000000000e+00 0.000000000000000e+00 
   vertex  -7.116203998626460e+02 -7.903345218952086e+02 0.000000000000000e+00 
  endloop 
 endfacet 
 facet normal  -0.000000000000000e+00 0.000000000000000e+00 1.000000000000000e+00 
  outer loop 
   vertex  -7.116203998626460e+02 -7.903345218952086e+02 6.381000000000000e+03 
   vertex  0.000000000000000e+00 0.000000000000000e+00 6.381000000000000e+03 
   vertex  -8.603895735177566e+02 -6.251096158130450e+02 6.381000000000000e+03 
  endloop 
 endfacet 
 facet normal  -7.431448254773947e-01 -6.691306063588578e-01 -0.000000000000000e+00 
  outer loop 
   vertex  -8.603895735177566e+02 -6.251096158130450e+02 0.000000000000000e+00 
   vertex  -7.116203998626460e+02 -7.903345218952086e+02 0.000000000000000e+00 
   vertex  -8.603895735177566e+02 -6.251096158130450e+02 6.381000000000000e+03 
  endloop 
 endfacet 
 facet normal  -7.431448254773947e-01 -6.691306063588578e-01 0.000000000000000e+00 
  outer loop 
   vertex  -7.116203998626460e+02 -7.903345218952086e+02 6.381000000000000e+03 
   vertex  -8.603895735177566e+02 -6.251096158130450e+02 6.381000000000000e+03 
   vertex  -7.116203998626460e+02 -7.903345218952086e+02 0.000000000000000e+00 
  endloop 
 endfacet 
 facet normal  0.000000000000000e+00 0.000000000000000e+00 -1.000000000000000e+00 
  outer loop 
   vertex  -7.116203998626460e+02 -7.903345218952086e+02 0.000000000000000e+00 
   vertex  0.000000000000000e+00 0.000000000000000e+00 0.000000000000000e+00 
   vertex  -5.317500000000005e+02 -9.210180169247503e+02 0.000000000000000e+00 
  endloop 
 endfacet 
 facet normal  -0.000000000000000e+00 0.000000000000000e+00 1.000000000000000e+00 
  outer loop 
   vertex  -5.317500000000005e+02 -9.210180169247503e+02 6.381000000000000e+03 
   vertex  0.000000000000000e+00 0.000000000000000e+00 6.381000000000000e+03 
   vertex  -7.116203998626460e+02 -7.903345218952086e+02 6.381000000000000e+03 
  endloop 
 endfacet 
 facet normal  -5.877852522924736e-01 -8.090169943749471e-01 -0.000000000000000e+00 
  outer loop 
   vertex  -7.116203998626460e+02 -7.903345218952086e+02 0.000000000000000e+00 
   vertex  -5.317500000000005e+02 -9.210180169247503e+02 0.000000000000000e+00 
   vertex  -7.116203998626460e+02 -7.903345218952086e+02 6.381000000000000e+03 
  endloop 
 endfacet 
 facet normal  -5.877852522924736e-01 -8.090169943749471e-01 0.000000000000000e+00 
  outer loop 
   vertex  -5.317500000000005e+02 -9.210180169247503e+02 6.381000000000000e+03 
   vertex  -7.116203998626460e+02 -7.903345218952086e+02 6.381000000000000e+03 
   vertex  -5.317500000000005e+02 -9.210180169247503e+02 0.000000000000000e+00 
  endloop 
 endfacet 
 facet normal  0.000000000000000e+00 0.000000000000000e+00 -1.000000000000000e+00 
  outer loop 
   vertex  -5.317500000000005e+02 -9.210180169247503e+02 0.000000000000000e+00 
   vertex  0.000000000000000e+00 0.000000000000000e+00 0.000000000000000e+00 
   vertex  -3.286395735177567e+02 -1.011448605079896e+03 0.000000000000000e+00 
  endloop 
 endfacet 
 facet normal  -0.000000000000000e+00 0.000000000000000e+00 1.000000000000000e+00 
  outer loop 
   vertex  -3.286395735177567e+02 -1.011448605079896e+03 6.381000000000000e+03 
   vertex  0.000000000000000e+00 0.000000000000000e+00 6.381000000000000e+03 
   vertex  -5.317500000000005e+02 -9.210180169247503e+02 6.381000000000000e+03 
  endloop 
 endfacet 
 facet normal  -4.067366430758001e-01 -9.135454576426011e-01 -0.000000000000000e+00 
  outer loop 
   vertex  -5.317500000000005e+02 -9.210180169247503e+02 0.000000000000000e+00 
   vertex  -3.286395735177567e+02 -1.011448605079896e+03 0.000000000000000e+00 
   vertex  -5.317500000000005e+02 -9.210180169247503e+02 6.381000000000000e+03 
  endloop 
 endfacet 
 facet normal  -4.067366430758001e-01 -9.135454576426011e-01 0.000000000000000e+00 
  outer loop 
   vertex  -3.286395735177567e+02 -1.011448605079896e+03 6.381000000000000e+03 
   vertex  -5.317500000000005e+02 -9.210180169247503e+02 6.381000000000000e+03 
   vertex  -3.286395735177567e+02 -1.011448605079896e+03 0.000000000000000e+00 
  endloop 
 endfacet 
 facet normal  0.000000000000000e+00 0.000000000000000e+00 -1.000000000000000e+00 
  outer loop 
   vertex  -3.286395735177567e+02 -1.011448605079896e+03 0.000000000000000e+00 
   vertex  0.000000000000000e+00 0.000000000000000e+00 0.000000000000000e+00 
   vertex  -1.111660206851503e+02 -1.057674035724159e+03 0.000000000000000e+00 
  endloop 
 endfacet 
 facet normal  -0.000000000000000e+00 0.000000000000000e+00 1.000000000000000e+00 
  outer loop 
   vertex  -1.111660206851503e+02 -1.057674035724159e+03 6.381000000000000e+03 
   vertex  0.000000000000000e+00 0.000000000000000e+00 6.381000000000000e+03 
   vertex  -3.286395735177567e+02 -1.011448605079896e+03 6.381000000000000e+03 
  endloop 
 endfacet 
 facet normal  -2.079116908177597e-01 -9.781476007338057e-01 -0.000000000000000e+00 
  outer loop 
   vertex  -3.286395735177567e+02 -1.011448605079896e+03 0.000000000000000e+00 
   vertex  -1.111660206851503e+02 -1.057674035724159e+03 0.000000000000000e+00 
   vertex  -3.286395735177567e+02 -1.011448605079896e+03 6.381000000000000e+03 
  endloop 
 endfacet 
 facet normal  -2.079116908177597e-01 -9.781476007338057e-01 0.000000000000000e+00 
  outer loop 
   vertex  -1.111660206851503e+02 -1.057674035724159e+03 6.381000000000000e+03 
   vertex  -3.286395735177567e+02 -1.011448605079896e+03 6.381000000000000e+03 
   vertex  -1.111660206851503e+02 -1.057674035724159e+03 0.000000000000000e+00 
  endloop 
 endfacet 
 facet normal  0.000000000000000e+00 0.000000000000000e+00 -1.000000000000000e+00 
  outer loop 
   vertex  -1.111660206851503e+02 -1.057674035724159e+03 0.000000000000000e+00 
   vertex  0.000000000000000e+00 0.000000000000000e+00 0.000000000000000e+00 
   vertex  1.111660206851499e+02 -1.057674035724159e+03 0.000000000000000e+00 
  endloop 
 endfacet 
 facet normal  0.000000000000000e+00 -0.000000000000000e+00 1.000000000000000e+00 
  outer loop 
   vertex  1.111660206851499e+02 -1.057674035724159e+03 6.381000000000000e+03 
   vertex  0.000000000000000e+00 0.000000000000000e+00 6.381000000000000e+03 
   vertex  -1.111660206851503e+02 -1.057674035724159e+03 6.381000000000000e+03 
  endloop 
 endfacet 
 facet normal  0.000000000000000e+00 -1.000000000000000e+00 0.000000000000000e+00 
  outer loop 
   vertex  -1.111660206851503e+02 -1.057674035724159e+03 0.000000000000000e+00 
   vertex  1.111660206851499e+02 -1.057674035724159e+03 0.000000000000000e+00 
   vertex  -1.111660206851503e+02 -1.057674035724159e+03 6.381000000000000e+03 
  endloop 
 endfacet 
 facet normal  0.000000000000000e+00 -1.000000000000000e+00 0.000000000000000e+00 
  outer loop 
   vertex  1.111660206851499e+02 -1.057674035724159e+03 6.381000000000000e+03 
   vertex  -1.111660206851503e+02 -1.057674035724159e+03 6.381000000000000e+03 
   vertex  1.111660206851499e+02 -1.057674035724159e+03 0.000000000000000e+00 
  endloop 
 endfacet 
 facet normal  -0.000000000000000e+00 0.000000000000000e+00 -1.000000000000000e+00 
  outer loop 
   vertex  1.111660206851499e+02 -1.057674035724159e+03 0.000000000000000e+00 
   vertex  0.000000000000000e+00 0.000000000000000e+00 0.000000000000000e+00 
   vertex  3.286395735177564e+02 -1.011448605079896e+03 0.000000000000000e+00 
  endloop 
 endfacet 
 facet normal  0.000000000000000e+00 -0.000000000000000e+00 1.000000000000000e+00 
  outer loop 
   vertex  3.286395735177564e+02 -1.011448605079896e+03 6.381000000000000e+03 
   vertex  0.000000000000000e+00 0.000000000000000e+00 6.381000000000000e+03 
   vertex  1.111660206851499e+02 -1.057674035724159e+03 6.381000000000000e+03 
  endloop 
 endfacet 
 facet normal  2.079116908177591e-01 -9.781476007338056e-01 0.000000000000000e+00 
  outer loop 
   vertex  1.111660206851499e+02 -1.057674035724159e+03 0.000000000000000e+00 
   vertex  3.286395735177564e+02 -1.011448605079896e+03 0.000000000000000e+00 
   vertex  1.111660206851499e+02 -1.057674035724159e+03 6.381000000000000e+03 
  endloop 
 endfacet 
 facet normal  2.079116908177591e-01 -9.781476007338056e-01 0.000000000000000e+00 
  outer loop 
   vertex  3.286395735177564e+02 -1.011448605079896e+03 6.381000000000000e+03 
   vertex  1.111660206851499e+02 -1.057674035724159e+03 6.381000000000000e+03 
   vertex  3.286395735177564e+02 -1.011448605079896e+03 0.000000000000000e+00 
  endloop 
 endfacet 
 facet normal  -0.000000000000000e+00 0.000000000000000e+00 -1.000000000000000e+00 
  outer loop 
   vertex  3.286395735177564e+02 -1.011448605079896e+03 0.000000000000000e+00 
   vertex  0.000000000000000e+00 0.000000000000000e+00 0.000000000000000e+00 
   vertex  5.317500000000001e+02 -9.210180169247504e+02 0.000000000000000e+00 
  endloop 
 endfacet 
 facet normal  0.000000000000000e+00 -0.000000000000000e+00 1.000000000000000e+00 
  outer loop 
   vertex  5.317500000000001e+02 -9.210180169247504e+02 6.381000000000000e+03 
   vertex  0.000000000000000e+00 0.000000000000000e+00 6.381000000000000e+03 
   vertex  3.286395735177564e+02 -1.011448605079896e+03 6.381000000000000e+03 
  endloop 
 endfacet 
 facet normal  4.067366430758001e-01 -9.135454576426011e-01 0.000000000000000e+00 
  outer loop 
   vertex  3.286395735177564e+02 -1.011448605079896e+03 0.000000000000000e+00 
   vertex  5.317500000000001e+02 -9.210180169247504e+02 0.000000000000000e+00 
   vertex  3.286395735177564e+02 -1.011448605079896e+03 6.381000000000000e+03 
  endloop 
 endfacet 
 facet normal  4.067366430758001e-01 -9.135454576426011e-01 0.000000000000000e+00 
  outer loop 
   vertex  5.317500000000001e+02 -9.210180169247504e+02 6.381000000000000e+03 
   vertex  3.286395735177564e+02 -1.011448605079896e+03 6.381000000000000e+03 
   vertex  5.317500000000001e+02 -9.210180169247504e+02 0.000000000000000e+00 
  endloop 
 endfacet 
 facet normal  -0.000000000000000e+00 0.000000000000000e+00 -1.000000000000000e+00 
  outer loop 
   vertex  5.317500000000001e+02 -9.210180169247504e+02 0.000000000000000e+00 
   vertex  0.000000000000000e+00 0.000000000000000e+00 0.000000000000000e+00 
   vertex  7.116203998626460e+02 -7.903345218952086e+02 0.000000000000000e+00 
  endloop 
 endfacet 
 facet normal  0.000000000000000e+00 -0.000000000000000e+00 1.000000000000000e+00 
  outer loop 
   vertex  7.116203998626460e+02 -7.903345218952086e+02 6.381000000000000e+03 
   vertex  0.000000000000000e+00 0.000000000000000e+00 6.381000000000000e+03 
   vertex  5.317500000000001e+02 -9.210180169247504e+02 6.381000000000000e+03 
  endloop 
 endfacet 
 facet normal  5.877852522924732e-01 -8.090169943749475e-01 0.000000000000000e+00 
  outer loop 
   vertex  5.317500000000001e+02 -9.210180169247504e+02 0.000000000000000e+00 
   vertex  7.116203998626460e+02 -7.903345218952086e+02 0.000000000000000e+00 
   vertex  5.317500000000001e+02 -9.210180169247504e+02 6.381000000000000e+03 
  endloop 
 endfacet 
 facet normal  5.877852522924732e-01 -8.090169943749475e-01 0.000000000000000e+00 
  outer loop 
   vertex  7.116203998626460e+02 -7.903345218952086e+02 6.381000000000000e+03 
   vertex  5.317500000000001e+02 -9.210180169247504e+02 6.381000000000000e+03 
   vertex  7.116203998626460e+02 -7.903345218952086e+02 0.000000000000000e+00 
  endloop 
 endfacet 
 facet normal  -0.000000000000000e+00 0.000000000000000e+00 -1.000000000000000e+00 
  outer loop 
   vertex  7.116203998626460e+02 -7.903345218952086e+02 0.000000000000000e+00 
   vertex  0.000000000000000e+00 0.000000000000000e+00 0.000000000000000e+00 
   vertex  8.603895735177565e+02 -6.251096158130454e+02 0.000000000000000e+00 
  endloop 
 endfacet 
 facet normal  0.000000000000000e+00 -0.000000000000000e+00 1.000000000000000e+00 
  outer loop 
   vertex  8.603895735177565e+02 -6.251096158130454e+02 6.381000000000000e+03 
   vertex  0.000000000000000e+00 0.000000000000000e+00 6.381000000000000e+03 
   vertex  7.116203998626460e+02 -7.903345218952086e+02 6.381000000000000e+03 
  endloop 
 endfacet 
 facet normal  7.431448254773942e-01 -6.691306063588582e-01 0.000000000000000e+00 
  outer loop 
   vertex  7.116203998626460e+02 -7.903345218952086e+02 0.000000000000000e+00 
   vertex  8.603895735177565e+02 -6.251096158130454e+02 0.000000000000000e+00 
   vertex  7.116203998626460e+02 -7.903345218952086e+02 6.381000000000000e+03 
  endloop 
 endfacet 
 facet normal  7.431448254773942e-01 -6.691306063588582e-01 0.000000000000000e+00 
  outer loop 
   vertex  8.603895735177565e+02 -6.251096158130454e+02 6.381000000000000e+03 
   vertex  7.116203998626460e+02 -7.903345218952086e+02 6.381000000000000e+03 
   vertex  8.603895735177565e+02 -6.251096158130454e+02 0.000000000000000e+00 
  endloop 
 endfacet 
 facet normal  -0.000000000000000e+00 0.000000000000000e+00 -1.000000000000000e+00 
  outer loop 
   vertex  8.603895735177565e+02 -6.251096158130454e+02 0.000000000000000e+00 
   vertex  0.000000000000000e+00 0.000000000000000e+00 0.000000000000000e+00 
   vertex  9.715555942029061e+02 -4.325644199111135e+02 0.000000000000000e+00 
  endloop 
 endfacet 
 facet normal  0.000000000000000e+00 -0.000000000000000e+00 1.000000000000000e+00 
  outer loop 
   vertex  9.715555942029061e+02 -4.325644199111135e+02 6.381000000000000e+03 
   vertex  0.000000000000000e+00 0.000000000000000e+00 6.381000000000000e+03 
   vertex  8.603895735177565e+02 -6.251096158130454e+02 6.381000000000000e+03 
  endloop 
 endfacet 
 facet normal  8.660254037844385e-01 -5.000000000000001e-01 0.000000000000000e+00 
  outer loop 
   vertex  8.603895735177565e+02 -6.251096158130454e+02 0.000000000000000e+00 
   vertex  9.715555942029061e+02 -4.325644199111135e+02 0.000000000000000e+00 
   vertex  8.603895735177565e+02 -6.251096158130454e+02 6.381000000000000e+03 
  endloop 
 endfacet 
 facet normal  8.660254037844385e-01 -5.000000000000001e-01 0.000000000000000e+00 
  outer loop 
   vertex  9.715555942029061e+02 -4.325644199111135e+02 6.381000000000000e+03 
   vertex  8.603895735177565e+02 -6.251096158130454e+02 6.381000000000000e+03 
   vertex  9.715555942029061e+02 -4.325644199111135e+02 0.000000000000000e+00 
  endloop 
 endfacet 
 facet normal  -0.000000000000000e+00 0.000000000000000e+00 -1.000000000000000e+00 
  outer loop 
   vertex  9.715555942029061e+02 -4.325644199111135e+02 0.000000000000000e+00 
   vertex  0.000000000000000e+00 0.000000000000000e+00 0.000000000000000e+00 
   vertex  1.040259973380402e+03 -2.211140831846876e+02 0.000000000000000e+00 
  endloop 
 endfacet 
 facet normal  0.000000000000000e+00 -0.000000000000000e+00 1.000000000000000e+00 
  outer loop 
   vertex  1.040259973380402e+03 -2.211140831846876e+02 6.381000000000000e+03 
   vertex  0.000000000000000e+00 0.000000000000000e+00 6.381000000000000e+03 
   vertex  9.715555942029061e+02 -4.325644199111135e+02 6.381000000000000e+03 
  endloop 
 endfacet 
 facet normal  9.510565162951535e-01 -3.090169943749476e-01 0.000000000000000e+00 
  outer loop 
   vertex  9.715555942029061e+02 -4.325644199111135e+02 0.000000000000000e+00 
   vertex  1.040259973380402e+03 -2.211140831846876e+02 0.000000000000000e+00 
   vertex  9.715555942029061e+02 -4.325644199111135e+02 6.381000000000000e+03 
  endloop 
 endfacet 
 facet normal  9.510565162951535e-01 -3.090169943749476e-01 0.000000000000000e+00 
  outer loop 
   vertex  1.040259973380402e+03 -2.211140831846876e+02 6.381000000000000e+03 
   vertex  9.715555942029061e+02 -4.325644199111135e+02 6.381000000000000e+03 
   vertex  1.040259973380402e+03 -2.211140831846876e+02 0.000000000000000e+00 
  endloop 
 endfacet 
 facet normal  -0.000000000000000e+00 0.000000000000000e+00 -1.000000000000000e+00 
  outer loop 
   vertex  1.040259973380402e+03 -2.211140831846876e+02 0.000000000000000e+00 
   vertex  0.000000000000000e+00 0.000000000000000e+00 0.000000000000000e+00 
   vertex  1.063500000000000e+03 0.000000000000000e+00 0.000000000000000e+00 
  endloop 
 endfacet 
 facet normal  0.000000000000000e+00 -0.000000000000000e+00 1.000000000000000e+00 
  outer loop 
   vertex  1.063500000000000e+03 0.000000000000000e+00 6.381000000000000e+03 
   vertex  0.000000000000000e+00 0.000000000000000e+00 6.381000000000000e+03 
   vertex  1.040259973380402e+03 -2.211140831846876e+02 6.381000000000000e+03 
  endloop 
 endfacet 
 facet normal  9.945218953682733e-01 -1.045284632676534e-01 0.000000000000000e+00 
  outer loop 
   vertex  1.040259973380402e+03 -2.211140831846876e+02 0.000000000000000e+00 
   vertex  1.063500000000000e+03 0.000000000000000e+00 0.000000000000000e+00 
   vertex  1.040259973380402e+03 -2.211140831846876e+02 6.381000000000000e+03 
  endloop 
 endfacet 
 facet normal  9.945218953682733e-01 -1.045284632676534e-01 0.000000000000000e+00 
  outer loop 
   vertex  1.063500000000000e+03 0.000000000000000e+00 6.381000000000000e+03 
   vertex  1.040259973380402e+03 -2.211140831846876e+02 6.381000000000000e+03 
   vertex  1.063500000000000e+03 0.000000000000000e+00 0.000000000000000e+00 
  endloop 
 endfacet 
endsolid