solid cylinder
 facet normal  -0.000000000000000e+00 -0.000000000000000e+00 -1.000000000000000e+00 
  outer loop 
   vertex  2.008838891120932e+03 0.000000000000000e+00 0.000000000000000e+00 
   vertex  0.000000000000000e+00 0.000000000000000e+00 0.000000000000000e+00 
   vertex  1.964940941610698e+03 4.176610904334257e+02 0.000000000000000e+00 
  endloop 
 endfacet 
 facet normal  0.000000000000000e+00 0.000000000000000e+00 1.000000000000000e+00 
  outer loop 
   vertex  1.964940941610698e+03 4.176610904334257e+02 8.035355564483729e+03 
   vertex  0.000000000000000e+00 0.000000000000000e+00 8.035355564483729e+03 
   vertex  2.008838891120932e+03 0.000000000000000e+00 8.035355564483729e+03 
  endloop 
 endfacet 
 facet normal  9.945218953682733e-01 1.045284632676534e-01 0.000000000000000e+00 
  outer loop 
   vertex  2.008838891120932e+03 0.000000000000000e+00 0.000000000000000e+00 
   vertex  1.964940941610698e+03 4.176610904334257e+02 0.000000000000000e+00 
   vertex  2.008838891120932e+03 0.000000000000000e+00 8.035355564483729e+03 
  endloop 
 endfacet 
 facet normal  9.945218953682733e-01 1.045284632676534e-01 -0.000000000000000e+00 
  outer loop 
   vertex  1.964940941610698e+03 4.176610904334257e+02 8.035355564483729e+03 
   vertex  2.008838891120932e+03 0.000000000000000e+00 8.035355564483729e+03 
   vertex  1.964940941610698e+03 4.176610904334257e+02 0.000000000000000e+00 
  endloop 
 endfacet 
 facet normal  0.000000000000000e+00 -0.000000000000000e+00 -1.000000000000000e+00 
  outer loop 
   vertex  1.964940941610698e+03 4.176610904334257e+02 0.000000000000000e+00 
   vertex  0.000000000000000e+00 0.000000000000000e+00 0.000000000000000e+00 
   vertex  1.835165644119327e+03 8.170683870546408e+02 0.000000000000000e+00 
  endloop 
 endfacet 
 facet normal  0.000000000000000e+00 0.000000000000000e+00 1.000000000000000e+00 
  outer loop 
   vertex  1.835165644119327e+03 8.170683870546408e+02 8.035355564483729e+03 
   vertex  0.000000000000000e+00 0.000000000000000e+00 8.035355564483729e+03 
   vertex  1.964940941610698e+03 4.176610904334257e+02 8.035355564483729e+03 
  endloop 
 endfacet 
 facet normal  9.510565162951534e-01 3.090169943749478e-01 0.000000000000000e+00 
  outer loop 
   vertex  1.964940941610698e+03 4.176610904334257e+02 0.000000000000000e+00 
   vertex  1.835165644119327e+03 8.170683870546408e+02 0.000000000000000e+00 
   vertex  1.964940941610698e+03 4.176610904334257e+02 8.035355564483729e+03 
  endloop 
 endfacet 
 facet normal  9.510565162951534e-01 3.090169943749478e-01 -0.000000000000000e+00 
  outer loop 
   vertex  1.835165644119327e+03 8.170683870546408e+02 8.035355564483729e+03 
   vertex  1.964940941610698e+03 4.176610904334257e+02 8.035355564483729e+03 
   vertex  1.835165644119327e+03 8.170683870546408e+02 0.000000000000000e+00 
  endloop 
 endfacet 
 facet normal  0.000000000000000e+00 -0.000000000000000e+00 -1.000000000000000e+00 
  outer loop 
   vertex  1.835165644119327e+03 8.170683870546408e+02 0.000000000000000e+00 
   vertex  0.000000000000000e+00 0.000000000000000e+00 0.000000000000000e+00 
   vertex  1.625184801878159e+03 1.180765874432449e+03 0.000000000000000e+00 
  endloop 
 endfacet 
 facet normal  0.000000000000000e+00 0.000000000000000e+00 1.000000000000000e+00 
  outer loop 
   vertex  1.625184801878159e+03 1.180765874432449e+03 8.035355564483729e+03 
   vertex  0.000000000000000e+00 0.000000000000000e+00 8.035355564483729e+03 
   vertex  1.835165644119327e+03 8.170683870546408e+02 8.035355564483729e+03 
  endloop 
 endfacet 
 facet normal  8.660254037844390e-01 4.999999999999995e-01 0.000000000000000e+00 
  outer loop 
   vertex  1.835165644119327e+03 8.170683870546408e+02 0.000000000000000e+00 
   vertex  1.625184801878159e+03 1.180765874432449e+03 0.000000000000000e+00 
   vertex  1.835165644119327e+03 8.170683870546408e+02 8.035355564483729e+03 
  endloop 
 endfacet 
 facet normal  8.660254037844390e-01 4.999999999999995e-01 -0.000000000000000e+00 
  outer loop 
   vertex  1.625184801878159e+03 1.180765874432449e+03 8.035355564483729e+03 
   vertex  1.835165644119327e+03 8.170683870546408e+02 8.035355564483729e+03 
   vertex  1.625184801878159e+03 1.180765874432449e+03 0.000000000000000e+00 
  endloop 
 endfacet 
 facet normal  0.000000000000000e+00 -0.000000000000000e+00 -1.000000000000000e+00 
  outer loop 
   vertex  1.625184801878159e+03 1.180765874432449e+03 0.000000000000000e+00 
   vertex  0.000000000000000e+00 0.000000000000000e+00 0.000000000000000e+00 
   vertex  1.344175585293006e+03 1.492858227154267e+03 0.000000000000000e+00 
  endloop 
 endfacet 
 facet normal  0.000000000000000e+00 0.000000000000000e+00 1.000000000000000e+00 
  outer loop 
   vertex  1.344175585293006e+03 1.492858227154267e+03 8.035355564483729e+03 
   vertex  0.000000000000000e+00 0.000000000000000e+00 8.035355564483729e+03 
   vertex  1.625184801878159e+03 1.180765874432449e+03 8.035355564483729e+03 
  endloop 
 endfacet 
 facet normal  7.431448254773941e-01 6.691306063588585e-01 0.000000000000000e+00 
  outer loop 
   vertex  1.625184801878159e+03 1.180765874432449e+03 0.000000000000000e+00 
   vertex  1.344175585293006e+03 1.492858227154267e+03 0.000000000000000e+00 
   vertex  1.625184801878159e+03 1.180765874432449e+03 8.035355564483729e+03 
  endloop 
 endfacet 
 facet normal  7.431448254773941e-01 6.691306063588585e-01 -0.000000000000000e+00 
  outer loop 
   vertex  1.344175585293006e+03 1.492858227154267e+03 8.035355564483729e+03 
   vertex  1.625184801878159e+03 1.180765874432449e+03 8.035355564483729e+03 
   vertex  1.344175585293006e+03 1.492858227154267e+03 0.000000000000000e+00 
  endloop 
 endfacet 
 facet normal  0.000000000000000e+00 -0.000000000000000e+00 -1.000000000000000e+00 
  outer loop 
   vertex  1.344175585293006e+03 1.492858227154267e+03 0.000000000000000e+00 
   vertex  0.000000000000000e+00 0.000000000000000e+00 0.000000000000000e+00 
   vertex  1.004419445560466e+03 1.739705511820889e+03 0.000000000000000e+00 
  endloop 
 endfacet 
 facet normal  0.000000000000000e+00 0.000000000000000e+00 1.000000000000000e+00 
  outer loop 
   vertex  1.004419445560466e+03 1.739705511820889e+03 8.035355564483729e+03 
   vertex  0.000000000000000e+00 0.000000000000000e+00 8.035355564483729e+03 
   vertex  1.344175585293006e+03 1.492858227154267e+03 8.035355564483729e+03 
  endloop 
 endfacet 
 facet normal  5.877852522924730e-01 8.090169943749473e-01 0.000000000000000e+00 
  outer loop 
   vertex  1.344175585293006e+03 1.492858227154267e+03 0.000000000000000e+00 
   vertex  1.004419445560466e+03 1.739705511820889e+03 0.000000000000000e+00 
   vertex  1.344175585293006e+03 1.492858227154267e+03 8.035355564483729e+03 
  endloop 
 endfacet 
 facet normal  5.877852522924730e-01 8.090169943749473e-01 -0.000000000000000e+00 
  outer loop 
   vertex  1.004419445560466e+03 1.739705511820889e+03 8.035355564483729e+03 
   vertex  1.344175585293006e+03 1.492858227154267e+03 8.035355564483729e+03 
   vertex  1.004419445560466e+03 1.739705511820889e+03 0.000000000000000e+00 
  endloop 
 endfacet 
 facet normal  0.000000000000000e+00 -0.000000000000000e+00 -1.000000000000000e+00 
  outer loop 
   vertex  1.004419445560466e+03 1.739705511820889e+03 0.000000000000000e+00 
   vertex  0.000000000000000e+00 0.000000000000000e+00 0.000000000000000e+00 
   vertex  6.207653563176927e+02 1.910519317587693e+03 0.000000000000000e+00 
  endloop 
 endfacet 
 facet normal  0.000000000000000e+00 0.000000000000000e+00 1.000000000000000e+00 
  outer loop 
   vertex  6.207653563176927e+02 1.910519317587693e+03 8.035355564483729e+03 
   vertex  0.000000000000000e+00 0.000000000000000e+00 8.035355564483729e+03 
   vertex  1.004419445560466e+03 1.739705511820889e+03 8.035355564483729e+03 
  endloop 
 endfacet 
 facet normal  4.067366430758002e-01 9.135454576426010e-01 0.000000000000000e+00 
  outer loop 
   vertex  1.004419445560466e+03 1.739705511820889e+03 0.000000000000000e+00 
   vertex  6.207653563176927e+02 1.910519317587693e+03 0.000000000000000e+00 
   vertex  1.004419445560466e+03 1.739705511820889e+03 8.035355564483729e+03 
  endloop 
 endfacet 
 facet normal  4.067366430758002e-01 9.135454576426010e-01 -0.000000000000000e+00 
  outer loop 
   vertex  6.207653563176927e+02 1.910519317587693e+03 8.035355564483729e+03 
   vertex  1.004419445560466e+03 1.739705511820889e+03 8.035355564483729e+03 
   vertex  6.207653563176927e+02 1.910519317587693e+03 0.000000000000000e+00 
  endloop 
 endfacet 
 facet normal  0.000000000000000e+00 -0.000000000000000e+00 -1.000000000000000e+00 
  outer loop 
   vertex  6.207653563176927e+02 1.910519317587693e+03 0.000000000000000e+00 
   vertex  0.000000000000000e+00 0.000000000000000e+00 0.000000000000000e+00 
   vertex  2.099808422411681e+02 1.997834261487090e+03 0.000000000000000e+00 
  endloop 
 endfacet 
 facet normal  0.000000000000000e+00 0.000000000000000e+00 1.000000000000000e+00 
  outer loop 
   vertex  2.099808422411681e+02 1.997834261487090e+03 8.035355564483729e+03 
   vertex  0.000000000000000e+00 0.000000000000000e+00 8.035355564483729e+03 
   vertex  6.207653563176927e+02 1.910519317587693e+03 8.035355564483729e+03 
  endloop 
 endfacet 
 facet normal  2.079116908177593e-01 9.781476007338057e-01 0.000000000000000e+00 
  outer loop 
   vertex  6.207653563176927e+02 1.910519317587693e+03 0.000000000000000e+00 
   vertex  2.099808422411681e+02 1.997834261487090e+03 0.000000000000000e+00 
   vertex  6.207653563176927e+02 1.910519317587693e+03 8.035355564483729e+03 
  endloop 
 endfacet 
 facet normal  2.079116908177593e-01 9.781476007338057e-01 -0.000000000000000e+00 
  outer loop 
   vertex  2.099808422411681e+02 1.997834261487090e+03 8.035355564483729e+03 
   vertex  6.207653563176927e+02 1.910519317587693e+03 8.035355564483729e+03 
   vertex  2.099808422411681e+02 1.997834261487090e+03 0.000000000000000e+00 
  endloop 
 endfacet 
 facet normal  0.000000000000000e+00 -0.000000000000000e+00 -1.000000000000000e+00 
  outer loop 
   vertex  2.099808422411681e+02 1.997834261487090e+03 0.000000000000000e+00 
   vertex  0.000000000000000e+00 0.000000000000000e+00 0.000000000000000e+00 
   vertex  -2.099808422411678e+02 1.997834261487090e+03 0.000000000000000e+00 
  endloop 
 endfacet 
 facet normal  0.000000000000000e+00 0.000000000000000e+00 1.000000000000000e+00 
  outer loop 
   vertex  -2.099808422411678e+02 1.997834261487090e+03 8.035355564483729e+03 
   vertex  0.000000000000000e+00 0.000000000000000e+00 8.035355564483729e+03 
   vertex  2.099808422411681e+02 1.997834261487090e+03 8.035355564483729e+03 
  endloop 
 endfacet 
 facet normal  5.414152858337621e-16 1.000000000000000e+00 0.000000000000000e+00 
  outer loop 
   vertex  2.099808422411681e+02 1.997834261487090e+03 0.000000000000000e+00 
   vertex  -2.099808422411678e+02 1.997834261487090e+03 0.000000000000000e+00 
   vertex  2.099808422411681e+02 1.997834261487090e+03 8.035355564483729e+03 
  endloop 
 endfacet 
 facet normal  5.414152858337621e-16 1.000000000000000e+00 -0.000000000000000e+00 
  outer loop 
   vertex  -2.099808422411678e+02 1.997834261487090e+03 8.035355564483729e+03 
   vertex  2.099808422411681e+02 1.997834261487090e+03 8.035355564483729e+03 
   vertex  -2.099808422411678e+02 1.997834261487090e+03 0.000000000000000e+00 
  endloop 
 endfacet 
 facet normal  0.000000000000000e+00 0.000000000000000e+00 -1.000000000000000e+00 
  outer loop 
   vertex  -2.099808422411678e+02 1.997834261487090e+03 0.000000000000000e+00 
   vertex  0.000000000000000e+00 0.000000000000000e+00 0.000000000000000e+00 
   vertex  -6.207653563176925e+02 1.910519317587693e+03 0.000000000000000e+00 
  endloop 
 endfacet 
 facet normal  0.000000000000000e+00 0.000000000000000e+00 1.000000000000000e+00 
  outer loop 
   vertex  -6.207653563176925e+02 1.910519317587693e+03 8.035355564483729e+03 
   vertex  0.000000000000000e+00 0.000000000000000e+00 8.035355564483729e+03 
   vertex  -2.099808422411678e+02 1.997834261487090e+03 8.035355564483729e+03 
  endloop 
 endfacet 
 facet normal  -2.079116908177593e-01 9.781476007338057e-01 0.000000000000000e+00 
  outer loop 
   vertex  -2.099808422411678e+02 1.997834261487090e+03 0.000000000000000e+00 
   vertex  -6.207653563176925e+02 1.910519317587693e+03 0.000000000000000e+00 
   vertex  -2.099808422411678e+02 1.997834261487090e+03 8.035355564483729e+03 
  endloop 
 endfacet 
 facet normal  -2.079116908177593e-01 9.781476007338057e-01 0.000000000000000e+00 
  outer loop 
   vertex  -6.207653563176925e+02 1.910519317587693e+03 8.035355564483729e+03 
   vertex  -2.099808422411678e+02 1.997834261487090e+03 8.035355564483729e+03 
   vertex  -6.207653563176925e+02 1.910519317587693e+03 0.000000000000000e+00 
  endloop 
 endfacet 
 facet normal  0.000000000000000e+00 0.000000000000000e+00 -1.000000000000000e+00 
  outer loop 
   vertex  -6.207653563176925e+02 1.910519317587693e+03 0.000000000000000e+00 
   vertex  0.000000000000000e+00 0.000000000000000e+00 0.000000000000000e+00 
   vertex  -1.004419445560466e+03 1.739705511820889e+03 0.000000000000000e+00 
  endloop 
 endfacet 
 facet normal  0.000000000000000e+00 0.000000000000000e+00 1.000000000000000e+00 
  outer loop 
   vertex  -1.004419445560466e+03 1.739705511820889e+03 8.035355564483729e+03 
   vertex  0.000000000000000e+00 0.000000000000000e+00 8.035355564483729e+03 
   vertex  -6.207653563176925e+02 1.910519317587693e+03 8.035355564483729e+03 
  endloop 
 endfacet 
 facet normal  -4.067366430758005e-01 9.135454576426008e-01 0.000000000000000e+00 
  outer loop 
   vertex  -6.207653563176925e+02 1.910519317587693e+03 0.000000000000000e+00 
   vertex  -1.004419445560466e+03 1.739705511820889e+03 0.000000000000000e+00 
   vertex  -6.207653563176925e+02 1.910519317587693e+03 8.035355564483729e+03 
  endloop 
 endfacet 
 facet normal  -4.067366430758005e-01 9.135454576426008e-01 0.000000000000000e+00 
  outer loop 
   vertex  -1.004419445560466e+03 1.739705511820889e+03 8.035355564483729e+03 
   vertex  -6.207653563176925e+02 1.910519317587693e+03 8.035355564483729e+03 
   vertex  -1.004419445560466e+03 1.739705511820889e+03 0.000000000000000e+00 
  endloop 
 endfacet 
 facet normal  0.000000000000000e+00 0.000000000000000e+00 -1.000000000000000e+00 
  outer loop 
   vertex  -1.004419445560466e+03 1.739705511820889e+03 0.000000000000000e+00 
   vertex  0.000000000000000e+00 0.000000000000000e+00 0.000000000000000e+00 
   vertex  -1.344175585293005e+03 1.492858227154268e+03 0.000000000000000e+00 
  endloop 
 endfacet 
 facet normal  0.000000000000000e+00 0.000000000000000e+00 1.000000000000000e+00 
  outer loop 
   vertex  -1.344175585293005e+03 1.492858227154268e+03 8.035355564483729e+03 
   vertex  0.000000000000000e+00 0.000000000000000e+00 8.035355564483729e+03 
   vertex  -1.004419445560466e+03 1.739705511820889e+03 8.035355564483729e+03 
  endloop 
 endfacet 
 facet normal  -5.877852522924728e-01 8.090169943749478e-01 0.000000000000000e+00 
  outer loop 
   vertex  -1.004419445560466e+03 1.739705511820889e+03 0.000000000000000e+00 
   vertex  -1.344175585293005e+03 1.492858227154268e+03 0.000000000000000e+00 
   vertex  -1.004419445560466e+03 1.739705511820889e+03 8.035355564483729e+03 
  endloop 
 endfacet 
 facet normal  -5.877852522924728e-01 8.090169943749478e-01 0.000000000000000e+00 
  outer loop 
   vertex  -1.344175585293005e+03 1.492858227154268e+03 8.035355564483729e+03 
   vertex  -1.004419445560466e+03 1.739705511820889e+03 8.035355564483729e+03 
   vertex  -1.344175585293005e+03 1.492858227154268e+03 0.000000000000000e+00 
  endloop 
 endfacet 
 facet normal  0.000000000000000e+00 0.000000000000000e+00 -1.000000000000000e+00 
  outer loop 
   vertex  -1.344175585293005e+03 1.492858227154268e+03 0.000000000000000e+00 
   vertex  0.000000000000000e+00 0.000000000000000e+00 0.000000000000000e+00 
   vertex  -1.625184801878159e+03 1.180765874432449e+03 0.000000000000000e+00 
  endloop 
 endfacet 
 facet normal  0.000000000000000e+00 0.000000000000000e+00 1.000000000000000e+00 
  outer loop 
   vertex  -1.625184801878159e+03 1.180765874432449e+03 8.035355564483729e+03 
   vertex  0.000000000000000e+00 0.000000000000000e+00 8.035355564483729e+03 
   vertex  -1.344175585293005e+03 1.492858227154268e+03 8.035355564483729e+03 
  endloop 
 endfacet 
 facet normal  -7.431448254773937e-01 6.691306063588588e-01 0.000000000000000e+00 
  outer loop 
   vertex  -1.344175585293005e+03 1.492858227154268e+03 0.000000000000000e+00 
   vertex  -1.625184801878159e+03 1.180765874432449e+03 0.000000000000000e+00 
   vertex  -1.344175585293005e+03 1.492858227154268e+03 8.035355564483729e+03 
  endloop 
 endfacet 
 facet normal  -7.431448254773937e-01 6.691306063588588e-01 0.000000000000000e+00 
  outer loop 
   vertex  -1.625184801878159e+03 1.180765874432449e+03 8.035355564483729e+03 
   vertex  -1.344175585293005e+03 1.492858227154268e+03 8.035355564483729e+03 
   vertex  -1.625184801878159e+03 1.180765874432449e+03 0.000000000000000e+00 
  endloop 
 endfacet 
 facet normal  0.000000000000000e+00 0.000000000000000e+00 -1.000000000000000e+00 
  outer loop 
   vertex  -1.625184801878159e+03 1.180765874432449e+03 0.000000000000000e+00 
   vertex  0.000000000000000e+00 0.000000000000000e+00 0.000000000000000e+00 
   vertex  -1.835165644119327e+03 8.170683870546405e+02 0.000000000000000e+00 
  endloop 
 endfacet 
 facet normal  0.000000000000000e+00 0.000000000000000e+00 1.000000000000000e+00 
  outer loop 
   vertex  -1.835165644119327e+03 8.170683870546405e+02 8.035355564483729e+03 
   vertex  0.000000000000000e+00 0.000000000000000e+00 8.035355564483729e+03 
   vertex  -1.625184801878159e+03 1.180765874432449e+03 8.035355564483729e+03 
  endloop 
 endfacet 
 facet normal  -8.660254037844387e-01 4.999999999999997e-01 0.000000000000000e+00 
  outer loop 
   vertex  -1.625184801878159e+03 1.180765874432449e+03 0.000000000000000e+00 
   vertex  -1.835165644119327e+03 8.170683870546405e+02 0.000000000000000e+00 
   vertex  -1.625184801878159e+03 1.180765874432449e+03 8.035355564483729e+03 
  endloop 
 endfacet 
 facet normal  -8.660254037844387e-01 4.999999999999997e-01 0.000000000000000e+00 
  outer loop 
   vertex  -1.835165644119327e+03 8.170683870546405e+02 8.035355564483729e+03 
   vertex  -1.625184801878159e+03 1.180765874432449e+03 8.035355564483729e+03 
   vertex  -1.835165644119327e+03 8.170683870546405e+02 0.000000000000000e+00 
  endloop 
 endfacet 
 facet normal  0.000000000000000e+00 0.000000000000000e+00 -1.000000000000000e+00 
  outer loop 
   vertex  -1.835165644119327e+03 8.170683870546405e+02 0.000000000000000e+00 
   vertex  0.000000000000000e+00 0.000000000000000e+00 0.000000000000000e+00 
   vertex  -1.964940941610698e+03 4.176610904334257e+02 0.000000000000000e+00 
  endloop 
 endfacet 
 facet normal  0.000000000000000e+00 0.000000000000000e+00 1.000000000000000e+00 
  outer loop 
   vertex  -1.964940941610698e+03 4.176610904334257e+02 8.035355564483729e+03 
   vertex  0.000000000000000e+00 0.000000000000000e+00 8.035355564483729e+03 
   vertex  -1.835165644119327e+03 8.170683870546405e+02 8.035355564483729e+03 
  endloop 
 endfacet 
 facet normal  -9.510565162951536e-01 3.090169943749475e-01 0.000000000000000e+00 
  outer loop 
   vertex  -1.835165644119327e+03 8.170683870546405e+02 0.000000000000000e+00 
   vertex  -1.964940941610698e+03 4.176610904334257e+02 0.000000000000000e+00 
   vertex  -1.835165644119327e+03 8.170683870546405e+02 8.035355564483729e+03 
  endloop 
 endfacet 
 facet normal  -9.510565162951536e-01 3.090169943749475e-01 0.000000000000000e+00 
  outer loop 
   vertex  -1.964940941610698e+03 4.176610904334257e+02 8.035355564483729e+03 
   vertex  -1.835165644119327e+03 8.170683870546405e+02 8.035355564483729e+03 
   vertex  -1.964940941610698e+03 4.176610904334257e+02 0.000000000000000e+00 
  endloop 
 endfacet 
 facet normal  0.000000000000000e+00 0.000000000000000e+00 -1.000000000000000e+00 
  outer loop 
   vertex  -1.964940941610698e+03 4.176610904334257e+02 0.000000000000000e+00 
   vertex  0.000000000000000e+00 0.000000000000000e+00 0.000000000000000e+00 
   vertex  -2.008838891120932e+03 2.460118118013968e-13 0.000000000000000e+00 
  endloop 
 endfacet 
 facet normal  0.000000000000000e+00 0.000000000000000e+00 1.000000000000000e+00 
  outer loop 
   vertex  -2.008838891120932e+03 2.460118118013968e-13 8.035355564483729e+03 
   vertex  0.000000000000000e+00 0.000000000000000e+00 8.035355564483729e+03 
   vertex  -1.964940941610698e+03 4.176610904334257e+02 8.035355564483729e+03 
  endloop 
 endfacet 
 facet normal  -9.945218953682733e-01 1.045284632676535e-01 0.000000000000000e+00 
  outer loop 
   vertex  -1.964940941610698e+03 4.176610904334257e+02 0.000000000000000e+00 
   vertex  -2.008838891120932e+03 2.460118118013968e-13 0.000000000000000e+00 
   vertex  -1.964940941610698e+03 4.176610904334257e+02 8.035355564483729e+03 
  endloop 
 endfacet 
 facet normal  -9.945218953682733e-01 1.045284632676535e-01 0.000000000000000e+00 
  outer loop 
   vertex  -2.008838891120932e+03 2.460118118013968e-13 8.035355564483729e+03 
   vertex  -1.964940941610698e+03 4.176610904334257e+02 8.035355564483729e+03 
   vertex  -2.008838891120932e+03 2.460118118013968e-13 0.000000000000000e+00 
  endloop 
 endfacet 
 facet normal  0.000000000000000e+00 0.000000000000000e+00 -1.000000000000000e+00 
  outer loop 
   vertex  -2.008838891120932e+03 2.460118118013968e-13 0.000000000000000e+00 
   vertex  0.000000000000000e+00 0.000000000000000e+00 0.000000000000000e+00 
   vertex  -1.964940941610698e+03 -4.176610904334252e+02 0.000000000000000e+00 
  endloop 
 endfacet 
 facet normal  -0.000000000000000e+00 0.000000000000000e+00 1.000000000000000e+00 
  outer loop 
   vertex  -1.964940941610698e+03 -4.176610904334252e+02 8.035355564483729e+03 
   vertex  0.000000000000000e+00 0.000000000000000e+00 8.035355564483729e+03 
   vertex  -2.008838891120932e+03 2.460118118013968e-13 8.035355564483729e+03 
  endloop 
 endfacet 
 facet normal  -9.945218953682733e-01 -1.045284632676535e-01 -0.000000000000000e+00 
  outer loop 
   vertex  -2.008838891120932e+03 2.460118118013968e-13 0.000000000000000e+00 
   vertex  -1.964940941610698e+03 -4.176610904334252e+02 0.000000000000000e+00 
   vertex  -2.008838891120932e+03 2.460118118013968e-13 8.035355564483729e+03 
  endloop 
 endfacet 
 facet normal  -9.945218953682733e-01 -1.045284632676535e-01 0.000000000000000e+00 
  outer loop 
   vertex  -1.964940941610698e+03 -4.176610904334252e+02 8.035355564483729e+03 
   vertex  -2.008838891120932e+03 2.460118118013968e-13 8.035355564483729e+03 
   vertex  -1.964940941610698e+03 -4.176610904334252e+02 0.000000000000000e+00 
  endloop 
 endfacet 
 facet normal  0.000000000000000e+00 0.000000000000000e+00 -1.000000000000000e+00 
  outer loop 
   vertex  -1.964940941610698e+03 -4.176610904334252e+02 0.000000000000000e+00 
   vertex  0.000000000000000e+00 0.000000000000000e+00 0.000000000000000e+00 
   vertex  -1.835165644119327e+03 -8.170683870546401e+02 0.000000000000000e+00 
  endloop 
 endfacet 
 facet normal  -0.000000000000000e+00 0.000000000000000e+00 1.000000000000000e+00 
  outer loop 
   vertex  -1.835165644119327e+03 -8.170683870546401e+02 8.035355564483729e+03 
   vertex  0.000000000000000e+00 0.000000000000000e+00 8.035355564483729e+03 
   vertex  -1.964940941610698e+03 -4.176610904334252e+02 8.035355564483729e+03 
  endloop 
 endfacet 
 facet normal  -9.510565162951538e-01 -3.090169943749470e-01 -0.000000000000000e+00 
  outer loop 
   vertex  -1.964940941610698e+03 -4.176610904334252e+02 0.000000000000000e+00 
   vertex  -1.835165644119327e+03 -8.170683870546401e+02 0.000000000000000e+00 
   vertex  -1.964940941610698e+03 -4.176610904334252e+02 8.035355564483729e+03 
  endloop 
 endfacet 
 facet normal  -9.510565162951538e-01 -3.090169943749470e-01 0.000000000000000e+00 
  outer loop 
   vertex  -1.835165644119327e+03 -8.170683870546401e+02 8.035355564483729e+03 
   vertex  -1.964940941610698e+03 -4.176610904334252e+02 8.035355564483729e+03 
   vertex  -1.835165644119327e+03 -8.170683870546401e+02 0.000000000000000e+00 
  endloop 
 endfacet 
 facet normal  0.000000000000000e+00 0.000000000000000e+00 -1.000000000000000e+00 
  outer loop 
   vertex  -1.835165644119327e+03 -8.170683870546401e+02 0.000000000000000e+00 
   vertex  0.000000000000000e+00 0.000000000000000e+00 0.000000000000000e+00 
   vertex  -1.625184801878159e+03 -1.180765874432449e+03 0.000000000000000e+00 
  endloop 
 endfacet 
 facet normal  -0.000000000000000e+00 0.000000000000000e+00 1.000000000000000e+00 
  outer loop 
   vertex  -1.625184801878159e+03 -1.180765874432449e+03 8.035355564483729e+03 
   vertex  0.000000000000000e+00 0.000000000000000e+00 8.035355564483729e+03 
   vertex  -1.835165644119327e+03 -8.170683870546401e+02 8.035355564483729e+03 
  endloop 
 endfacet 
 facet normal  -8.660254037844387e-01 -4.999999999999997e-01 -0.000000000000000e+00 
  outer loop 
   vertex  -1.835165644119327e+03 -8.170683870546401e+02 0.000000000000000e+00 
   vertex  -1.625184801878159e+03 -1.180765874432449e+03 0.000000000000000e+00 
   vertex  -1.835165644119327e+03 -8.170683870546401e+02 8.035355564483729e+03 
  endloop 
 endfacet 
 facet normal  -8.660254037844387e-01 -4.999999999999997e-01 0.000000000000000e+00 
  outer loop 
   vertex  -1.625184801878159e+03 -1.180765874432449e+03 8.035355564483729e+03 
   vertex  -1.835165644119327e+03 -8.170683870546401e+02 8.035355564483729e+03 
   vertex  -1.625184801878159e+03 -1.180765874432449e+03 0.000000000000000e+00 
  endloop 
 endfacet 
 facet normal  0.000000000000000e+00 0.000000000000000e+00 -1.000000000000000e+00 
  outer loop 
   vertex  -1.625184801878159e+03 -1.180765874432449e+03 0.000000000000000e+00 
   vertex  0.000000000000000e+00 0.000000000000000e+00 0.000000000000000e+00 
   vertex  -1.344175585293006e+03 -1.492858227154267e+03 0.000000000000000e+00 
  endloop 
 endfacet 
 facet normal  -0.000000000000000e+00 0.000000000000000e+00 1.000000000000000e+00 
  outer loop 
   vertex  -1.344175585293006e+03 -1.492858227154267e+03 8.035355564483729e+03 
   vertex  0.000000000000000e+00 0.000000000000000e+00 8.035355564483729e+03 
   vertex  -1.625184801878159e+03 -1.180765874432449e+03 8.035355564483729e+03 
  endloop 
 endfacet 
 facet normal  -7.431448254773945e-01 -6.691306063588580e-01 -0.000000000000000e+00 
  outer loop 
   vertex  -1.625184801878159e+03 -1.180765874432449e+03 0.000000000000000e+00 
   vertex  -1.344175585293006e+03 -1.492858227154267e+03 0.000000000000000e+00 
   vertex  -1.625184801878159e+03 -1.180765874432449e+03 8.035355564483729e+03 
  endloop 
 endfacet 
 facet normal  -7.431448254773945e-01 -6.691306063588580e-01 0.000000000000000e+00 
  outer loop 
   vertex  -1.344175585293006e+03 -1.492858227154267e+03 8.035355564483729e+03 
   vertex  -1.625184801878159e+03 -1.180765874432449e+03 8.035355564483729e+03 
   vertex  -1.344175585293006e+03 -1.492858227154267e+03 0.000000000000000e+00 
  endloop 
 endfacet 
 facet normal  0.000000000000000e+00 0.000000000000000e+00 -1.000000000000000e+00 
  outer loop 
   vertex  -1.344175585293006e+03 -1.492858227154267e+03 0.000000000000000e+00 
   vertex  0.000000000000000e+00 0.000000000000000e+00 0.000000000000000e+00 
   vertex  -1.004419445560467e+03 -1.739705511820889e+03 0.000000000000000e+00 
  endloop 
 endfacet 
 facet normal  -0.000000000000000e+00 0.000000000000000e+00 1.000000000000000e+00 
  outer loop 
   vertex  -1.004419445560467e+03 -1.739705511820889e+03 8.035355564483729e+03 
   vertex  0.000000000000000e+00 0.000000000000000e+00 8.035355564483729e+03 
   vertex  -1.344175585293006e+03 -1.492858227154267e+03 8.035355564483729e+03 
  endloop 
 endfacet 
 facet normal  -5.877852522924738e-01 -8.090169943749470e-01 -0.000000000000000e+00 
  outer loop 
   vertex  -1.344175585293006e+03 -1.492858227154267e+03 0.000000000000000e+00 
   vertex  -1.004419445560467e+03 -1.739705511820889e+03 0.000000000000000e+00 
   vertex  -1.344175585293006e+03 -1.492858227154267e+03 8.035355564483729e+03 
  endloop 
 endfacet 
 facet normal  -5.877852522924738e-01 -8.090169943749470e-01 0.000000000000000e+00 
  outer loop 
   vertex  -1.004419445560467e+03 -1.739705511820889e+03 8.035355564483729e+03 
   vertex  -1.344175585293006e+03 -1.492858227154267e+03 8.035355564483729e+03 
   vertex  -1.004419445560467e+03 -1.739705511820889e+03 0.000000000000000e+00 
  endloop 
 endfacet 
 facet normal  0.000000000000000e+00 0.000000000000000e+00 -1.000000000000000e+00 
  outer loop 
   vertex  -1.004419445560467e+03 -1.739705511820889e+03 0.000000000000000e+00 
   vertex  0.000000000000000e+00 0.000000000000000e+00 0.000000000000000e+00 
   vertex  -6.207653563176930e+02 -1.910519317587693e+03 0.000000000000000e+00 
  endloop 
 endfacet 
 facet normal  -0.000000000000000e+00 0.000000000000000e+00 1.000000000000000e+00 
  outer loop 
   vertex  -6.207653563176930e+02 -1.910519317587693e+03 8.035355564483729e+03 
   vertex  0.000000000000000e+00 0.000000000000000e+00 8.035355564483729e+03 
   vertex  -1.004419445560467e+03 -1.739705511820889e+03 8.035355564483729e+03 
  endloop 
 endfacet 
 facet normal  -4.067366430758002e-01 -9.135454576426010e-01 -0.000000000000000e+00 
  outer loop 
   vertex  -1.004419445560467e+03 -1.739705511820889e+03 0.000000000000000e+00 
   vertex  -6.207653563176930e+02 -1.910519317587693e+03 0.000000000000000e+00 
   vertex  -1.004419445560467e+03 -1.739705511820889e+03 8.035355564483729e+03 
  endloop 
 endfacet 
 facet normal  -4.067366430758002e-01 -9.135454576426010e-01 0.000000000000000e+00 
  outer loop 
   vertex  -6.207653563176930e+02 -1.910519317587693e+03 8.035355564483729e+03 
   vertex  -1.004419445560467e+03 -1.739705511820889e+03 8.035355564483729e+03 
   vertex  -6.207653563176930e+02 -1.910519317587693e+03 0.000000000000000e+00 
  endloop 
 endfacet 
 facet normal  0.000000000000000e+00 0.000000000000000e+00 -1.000000000000000e+00 
  outer loop 
   vertex  -6.207653563176930e+02 -1.910519317587693e+03 0.000000000000000e+00 
   vertex  0.000000000000000e+00 0.000000000000000e+00 0.000000000000000e+00 
   vertex  -2.099808422411696e+02 -1.997834261487090e+03 0.000000000000000e+00 
  endloop 
 endfacet 
 facet normal  -0.000000000000000e+00 0.000000000000000e+00 1.000000000000000e+00 
  outer loop 
   vertex  -2.099808422411696e+02 -1.997834261487090e+03 8.035355564483729e+03 
   vertex  0.000000000000000e+00 0.000000000000000e+00 8.035355564483729e+03 
   vertex  -6.207653563176930e+02 -1.910519317587693e+03 8.035355564483729e+03 
  endloop 
 endfacet 
 facet normal  -2.079116908177600e-01 -9.781476007338055e-01 -0.000000000000000e+00 
  outer loop 
   vertex  -6.207653563176930e+02 -1.910519317587693e+03 0.000000000000000e+00 
   vertex  -2.099808422411696e+02 -1.997834261487090e+03 0.000000000000000e+00 
   vertex  -6.207653563176930e+02 -1.910519317587693e+03 8.035355564483729e+03 
  endloop 
 endfacet 
 facet normal  -2.079116908177600e-01 -9.781476007338055e-01 0.000000000000000e+00 
  outer loop 
   vertex  -2.099808422411696e+02 -1.997834261487090e+03 8.035355564483729e+03 
   vertex  -6.207653563176930e+02 -1.910519317587693e+03 8.035355564483729e+03 
   vertex  -2.099808422411696e+02 -1.997834261487090e+03 0.000000000000000e+00 
  endloop 
 endfacet 
 facet normal  0.000000000000000e+00 0.000000000000000e+00 -1.000000000000000e+00 
  outer loop 
   vertex  -2.099808422411696e+02 -1.997834261487090e+03 0.000000000000000e+00 
   vertex  0.000000000000000e+00 0.000000000000000e+00 0.000000000000000e+00 
   vertex  2.099808422411689e+02 -1.997834261487090e+03 0.000000000000000e+00 
  endloop 
 endfacet 
 facet normal  0.000000000000000e+00 -0.000000000000000e+00 1.000000000000000e+00 
  outer loop 
   vertex  2.099808422411689e+02 -1.997834261487090e+03 8.035355564483729e+03 
   vertex  0.000000000000000e+00 0.000000000000000e+00 8.035355564483729e+03 
   vertex  -2.099808422411696e+02 -1.997834261487090e+03 8.035355564483729e+03 
  endloop 
 endfacet 
 facet normal  0.000000000000000e+00 -1.000000000000000e+00 0.000000000000000e+00 
  outer loop 
   vertex  -2.099808422411696e+02 -1.997834261487090e+03 0.000000000000000e+00 
   vertex  2.099808422411689e+02 -1.997834261487090e+03 0.000000000000000e+00 
   vertex  -2.099808422411696e+02 -1.997834261487090e+03 8.035355564483729e+03 
  endloop 
 endfacet 
 facet normal  0.000000000000000e+00 -1.000000000000000e+00 0.000000000000000e+00 
  outer loop 
   vertex  2.099808422411689e+02 -1.997834261487090e+03 8.035355564483729e+03 
   vertex  -2.099808422411696e+02 -1.997834261487090e+03 8.035355564483729e+03 
   vertex  2.099808422411689e+02 -1.997834261487090e+03 0.000000000000000e+00 
  endloop 
 endfacet 
 facet normal  -0.000000000000000e+00 0.000000000000000e+00 -1.000000000000000e+00 
  outer loop 
   vertex  2.099808422411689e+02 -1.997834261487090e+03 0.000000000000000e+00 
   vertex  0.000000000000000e+00 0.000000000000000e+00 0.000000000000000e+00 
   vertex  6.207653563176923e+02 -1.910519317587693e+03 0.000000000000000e+00 
  endloop 
 endfacet 
 facet normal  0.000000000000000e+00 -0.000000000000000e+00 1.000000000000000e+00 
  outer loop 
   vertex  6.207653563176923e+02 -1.910519317587693e+03 8.035355564483729e+03 
   vertex  0.000000000000000e+00 0.000000000000000e+00 8.035355564483729e+03 
   vertex  2.099808422411689e+02 -1.997834261487090e+03 8.035355564483729e+03 
  endloop 
 endfacet 
 facet normal  2.079116908177595e-01 -9.781476007338056e-01 0.000000000000000e+00 
  outer loop 
   vertex  2.099808422411689e+02 -1.997834261487090e+03 0.000000000000000e+00 
   vertex  6.207653563176923e+02 -1.910519317587693e+03 0.000000000000000e+00 
   vertex  2.099808422411689e+02 -1.997834261487090e+03 8.035355564483729e+03 
  endloop 
 endfacet 
 facet normal  2.079116908177595e-01 -9.781476007338056e-01 0.000000000000000e+00 
  outer loop 
   vertex  6.207653563176923e+02 -1.910519317587693e+03 8.035355564483729e+03 
   vertex  2.099808422411689e+02 -1.997834261487090e+03 8.035355564483729e+03 
   vertex  6.207653563176923e+02 -1.910519317587693e+03 0.000000000000000e+00 
  endloop 
 endfacet 
 facet normal  -0.000000000000000e+00 0.000000000000000e+00 -1.000000000000000e+00 
  outer loop 
   vertex  6.207653563176923e+02 -1.910519317587693e+03 0.000000000000000e+00 
   vertex  0.000000000000000e+00 0.000000000000000e+00 0.000000000000000e+00 
   vertex  1.004419445560466e+03 -1.739705511820889e+03 0.000000000000000e+00 
  endloop 
 endfacet 
 facet normal  0.000000000000000e+00 -0.000000000000000e+00 1.000000000000000e+00 
  outer loop 
   vertex  1.004419445560466e+03 -1.739705511820889e+03 8.035355564483729e+03 
   vertex  0.000000000000000e+00 0.000000000000000e+00 8.035355564483729e+03 
   vertex  6.207653563176923e+02 -1.910519317587693e+03 8.035355564483729e+03 
  endloop 
 endfacet 
 facet normal  4.067366430758002e-01 -9.135454576426010e-01 0.000000000000000e+00 
  outer loop 
   vertex  6.207653563176923e+02 -1.910519317587693e+03 0.000000000000000e+00 
   vertex  1.004419445560466e+03 -1.739705511820889e+03 0.000000000000000e+00 
   vertex  6.207653563176923e+02 -1.910519317587693e+03 8.035355564483729e+03 
  endloop 
 endfacet 
 facet normal  4.067366430758002e-01 -9.135454576426010e-01 0.000000000000000e+00 
  outer loop 
   vertex  1.004419445560466e+03 -1.739705511820889e+03 8.035355564483729e+03 
   vertex  6.207653563176923e+02 -1.910519317587693e+03 8.035355564483729e+03 
   vertex  1.004419445560466e+03 -1.739705511820889e+03 0.000000000000000e+00 
  endloop 
 endfacet 
 facet normal  -0.000000000000000e+00 0.000000000000000e+00 -1.000000000000000e+00 
  outer loop 
   vertex  1.004419445560466e+03 -1.739705511820889e+03 0.000000000000000e+00 
   vertex  0.000000000000000e+00 0.000000000000000e+00 0.000000000000000e+00 
   vertex  1.344175585293006e+03 -1.492858227154267e+03 0.000000000000000e+00 
  endloop 
 endfacet 
 facet normal  0.000000000000000e+00 -0.000000000000000e+00 1.000000000000000e+00 
  outer loop 
   vertex  1.344175585293006e+03 -1.492858227154267e+03 8.035355564483729e+03 
   vertex  0.000000000000000e+00 0.000000000000000e+00 8.035355564483729e+03 
   vertex  1.004419445560466e+03 -1.739705511820889e+03 8.035355564483729e+03 
  endloop 
 endfacet 
 facet normal  5.877852522924734e-01 -8.090169943749473e-01 0.000000000000000e+00 
  outer loop 
   vertex  1.004419445560466e+03 -1.739705511820889e+03 0.000000000000000e+00 
   vertex  1.344175585293006e+03 -1.492858227154267e+03 0.000000000000000e+00 
   vertex  1.004419445560466e+03 -1.739705511820889e+03 8.035355564483729e+03 
  endloop 
 endfacet 
 facet normal  5.877852522924734e-01 -8.090169943749473e-01 0.000000000000000e+00 
  outer loop 
   vertex  1.344175585293006e+03 -1.492858227154267e+03 8.035355564483729e+03 
   vertex  1.004419445560466e+03 -1.739705511820889e+03 8.035355564483729e+03 
   vertex  1.344175585293006e+03 -1.492858227154267e+03 0.000000000000000e+00 
  endloop 
 endfacet 
 facet normal  -0.000000000000000e+00 0.000000000000000e+00 -1.000000000000000e+00 
  outer loop 
   vertex  1.344175585293006e+03 -1.492858227154267e+03 0.000000000000000e+00 
   vertex  0.000000000000000e+00 0.000000000000000e+00 0.000000000000000e+00 
   vertex  1.625184801878159e+03 -1.180765874432450e+03 0.000000000000000e+00 
  endloop 
 endfacet 
 facet normal  0.000000000000000e+00 -0.000000000000000e+00 1.000000000000000e+00 
  outer loop 
   vertex  1.625184801878159e+03 -1.180765874432450e+03 8.035355564483729e+03 
   vertex  0.000000000000000e+00 0.000000000000000e+00 8.035355564483729e+03 
   vertex  1.344175585293006e+03 -1.492858227154267e+03 8.035355564483729e+03 
  endloop 
 endfacet 
 facet normal  7.431448254773939e-01 -6.691306063588586e-01 0.000000000000000e+00 
  outer loop 
   vertex  1.344175585293006e+03 -1.492858227154267e+03 0.000000000000000e+00 
   vertex  1.625184801878159e+03 -1.180765874432450e+03 0.000000000000000e+00 
   vertex  1.344175585293006e+03 -1.492858227154267e+03 8.035355564483729e+03 
  endloop 
 endfacet 
 facet normal  7.431448254773939e-01 -6.691306063588586e-01 0.000000000000000e+00 
  outer loop 
   vertex  1.625184801878159e+03 -1.180765874432450e+03 8.035355564483729e+03 
   vertex  1.344175585293006e+03 -1.492858227154267e+03 8.035355564483729e+03 
   vertex  1.625184801878159e+03 -1.180765874432450e+03 0.000000000000000e+00 
  endloop 
 endfacet 
 facet normal  -0.000000000000000e+00 0.000000000000000e+00 -1.000000000000000e+00 
  outer loop 
   vertex  1.625184801878159e+03 -1.180765874432450e+03 0.000000000000000e+00 
   vertex  0.000000000000000e+00 0.000000000000000e+00 0.000000000000000e+00 
   vertex  1.835165644119327e+03 -8.170683870546408e+02 0.000000000000000e+00 
  endloop 
 endfacet 
 facet normal  0.000000000000000e+00 -0.000000000000000e+00 1.000000000000000e+00 
  outer loop 
   vertex  1.835165644119327e+03 -8.170683870546408e+02 8.035355564483729e+03 
   vertex  0.000000000000000e+00 0.000000000000000e+00 8.035355564483729e+03 
   vertex  1.625184801878159e+03 -1.180765874432450e+03 8.035355564483729e+03 
  endloop 
 endfacet 
 facet normal  8.660254037844387e-01 -4.999999999999997e-01 0.000000000000000e+00 
  outer loop 
   vertex  1.625184801878159e+03 -1.180765874432450e+03 0.000000000000000e+00 
   vertex  1.835165644119327e+03 -8.170683870546408e+02 0.000000000000000e+00 
   vertex  1.625184801878159e+03 -1.180765874432450e+03 8.035355564483729e+03 
  endloop 
 endfacet 
 facet normal  8.660254037844387e-01 -4.999999999999997e-01 0.000000000000000e+00 
  outer loop 
   vertex  1.835165644119327e+03 -8.170683870546408e+02 8.035355564483729e+03 
   vertex  1.625184801878159e+03 -1.180765874432450e+03 8.035355564483729e+03 
   vertex  1.835165644119327e+03 -8.170683870546408e+02 0.000000000000000e+00 
  endloop 
 endfacet 
 facet normal  -0.000000000000000e+00 0.000000000000000e+00 -1.000000000000000e+00 
  outer loop 
   vertex  1.835165644119327e+03 -8.170683870546408e+02 0.000000000000000e+00 
   vertex  0.000000000000000e+00 0.000000000000000e+00 0.000000000000000e+00 
   vertex  1.964940941610698e+03 -4.176610904334269e+02 0.000000000000000e+00 
  endloop 
 endfacet 
 facet normal  0.000000000000000e+00 -0.000000000000000e+00 1.000000000000000e+00 
  outer loop 
   vertex  1.964940941610698e+03 -4.176610904334269e+02 8.035355564483729e+03 
   vertex  0.000000000000000e+00 0.000000000000000e+00 8.035355564483729e+03 
   vertex  1.835165644119327e+03 -8.170683870546408e+02 8.035355564483729e+03 
  endloop 
 endfacet 
 facet normal  9.510565162951536e-01 -3.090169943749477e-01 0.000000000000000e+00 
  outer loop 
   vertex  1.835165644119327e+03 -8.170683870546408e+02 0.000000000000000e+00 
   vertex  1.964940941610698e+03 -4.176610904334269e+02 0.000000000000000e+00 
   vertex  1.835165644119327e+03 -8.170683870546408e+02 8.035355564483729e+03 
  endloop 
 endfacet 
 facet normal  9.510565162951536e-01 -3.090169943749477e-01 0.000000000000000e+00 
  outer loop 
   vertex  1.964940941610698e+03 -4.176610904334269e+02 8.035355564483729e+03 
   vertex  1.835165644119327e+03 -8.170683870546408e+02 8.035355564483729e+03 
   vertex  1.964940941610698e+03 -4.176610904334269e+02 0.000000000000000e+00 
  endloop 
 endfacet 
 facet normal  -0.000000000000000e+00 0.000000000000000e+00 -1.000000000000000e+00 
  outer loop 
   vertex  1.964940941610698e+03 -4.176610904334269e+02 0.000000000000000e+00 
   vertex  0.000000000000000e+00 0.000000000000000e+00 0.000000000000000e+00 
   vertex  2.008838891120932e+03 0.000000000000000e+00 0.000000000000000e+00 
  endloop 
 endfacet 
 facet normal  0.000000000000000e+00 -0.000000000000000e+00 1.000000000000000e+00 
  outer loop 
   vertex  2.008838891120932e+03 0.000000000000000e+00 8.035355564483729e+03 
   vertex  0.000000000000000e+00 0.000000000000000e+00 8.035355564483729e+03 
   vertex  1.964940941610698e+03 -4.176610904334269e+02 8.035355564483729e+03 
  endloop 
 endfacet 
 facet normal  9.945218953682734e-01 -1.045284632676537e-01 0.000000000000000e+00 
  outer loop 
   vertex  1.964940941610698e+03 -4.176610904334269e+02 0.000000000000000e+00 
   vertex  2.008838891120932e+03 0.000000000000000e+00 0.000000000000000e+00 
   vertex  1.964940941610698e+03 -4.176610904334269e+02 8.035355564483729e+03 
  endloop 
 endfacet 
 facet normal  9.945218953682734e-01 -1.045284632676537e-01 0.000000000000000e+00 
  outer loop 
   vertex  2.008838891120932e+03 0.000000000000000e+00 8.035355564483729e+03 
   vertex  1.964940941610698e+03 -4.176610904334269e+02 8.035355564483729e+03 
   vertex  2.008838891120932e+03 0.000000000000000e+00 0.000000000000000e+00 
  endloop 
 endfacet 
endsolid