solid cube
 facet normal  0.000000000000000e+00 -0.000000000000000e+00 -1.000000000000000e+00 
  outer loop 
   vertex  1.999697977195557e+03 9.998489885977783e+02 0.000000000000000e+00 
   vertex  0.000000000000000e+00 0.000000000000000e+00 0.000000000000000e+00 
   vertex  0.000000000000000e+00 1.999697977195557e+03 0.000000000000000e+00 
  endloop 
 endfacet 
 facet normal  0.000000000000000e+00 0.000000000000000e+00 -1.000000000000000e+00 
  outer loop 
   vertex  1.999697977195557e+03 9.998489885977783e+02 0.000000000000000e+00 
   vertex  3.999395954391113e+03 0.000000000000000e+00 0.000000000000000e+00 
   vertex  0.000000000000000e+00 0.000000000000000e+00 0.000000000000000e+00 
  endloop 
 endfacet 
 facet normal  0.000000000000000e+00 0.000000000000000e+00 -1.000000000000000e+00 
  outer loop 
   vertex  1.999697977195557e+03 9.998489885977783e+02 0.000000000000000e+00 
   vertex  3.999395954391113e+03 1.999697977195557e+03 0.000000000000000e+00 
   vertex  3.999395954391113e+03 0.000000000000000e+00 0.000000000000000e+00 
  endloop 
 endfacet 
 facet normal  -0.000000000000000e+00 0.000000000000000e+00 -1.000000000000000e+00 
  outer loop 
   vertex  1.999697977195557e+03 9.998489885977783e+02 0.000000000000000e+00 
   vertex  0.000000000000000e+00 1.999697977195557e+03 0.000000000000000e+00 
   vertex  3.999395954391113e+03 1.999697977195557e+03 0.000000000000000e+00 
  endloop 
 endfacet 
 facet normal  0.000000000000000e+00 0.000000000000000e+00 1.000000000000000e+00 
  outer loop 
   vertex  1.999697977195557e+03 9.998489885977783e+02 2.828427124746190e+03 
   vertex  0.000000000000000e+00 0.000000000000000e+00 2.828427124746190e+03 
   vertex  3.999395954391113e+03 0.000000000000000e+00 2.828427124746190e+03 
  endloop 
 endfacet 
 facet normal  0.000000000000000e+00 0.000000000000000e+00 1.000000000000000e+00 
  outer loop 
   vertex  1.999697977195557e+03 9.998489885977783e+02 2.828427124746190e+03 
   vertex  3.999395954391113e+03 0.000000000000000e+00 2.828427124746190e+03 
   vertex  3.999395954391113e+03 1.999697977195557e+03 2.828427124746190e+03 
  endloop 
 endfacet 
 facet normal  -0.000000000000000e+00 0.000000000000000e+00 1.000000000000000e+00 
  outer loop 
   vertex  1.999697977195557e+03 9.998489885977783e+02 2.828427124746190e+03 
   vertex  3.999395954391113e+03 1.999697977195557e+03 2.828427124746190e+03 
   vertex  0.000000000000000e+00 1.999697977195557e+03 2.828427124746190e+03 
  endloop 
 endfacet 
 facet normal  0.000000000000000e+00 -0.000000000000000e+00 1.000000000000000e+00 
  outer loop 
   vertex  1.999697977195557e+03 9.998489885977783e+02 2.828427124746190e+03 
   vertex  0.000000000000000e+00 1.999697977195557e+03 2.828427124746190e+03 
   vertex  0.000000000000000e+00 0.000000000000000e+00 2.828427124746190e+03 
  endloop 
 endfacet 
 facet normal  0.000000000000000e+00 -1.000000000000000e+00 0.000000000000000e+00 
  outer loop 
   vertex  1.999697977195557e+03 0.000000000000000e+00 1.414213562373095e+03 
   vertex  0.000000000000000e+00 0.000000000000000e+00 2.828427124746190e+03 
   vertex  0.000000000000000e+00 0.000000000000000e+00 0.000000000000000e+00 
  endloop 
 endfacet 
 facet normal  -0.000000000000000e+00 -1.000000000000000e+00 0.000000000000000e+00 
  outer loop 
   vertex  1.999697977195557e+03 0.000000000000000e+00 1.414213562373095e+03 
   vertex  0.000000000000000e+00 0.000000000000000e+00 0.000000000000000e+00 
   vertex  3.999395954391113e+03 0.000000000000000e+00 0.000000000000000e+00 
  endloop 
 endfacet 
 facet normal  0.000000000000000e+00 -1.000000000000000e+00 -0.000000000000000e+00 
  outer loop 
   vertex  1.999697977195557e+03 0.000000000000000e+00 1.414213562373095e+03 
   vertex  3.999395954391113e+03 0.000000000000000e+00 0.000000000000000e+00 
   vertex  3.999395954391113e+03 0.000000000000000e+00 2.828427124746190e+03 
  endloop 
 endfacet 
 facet normal  0.000000000000000e+00 -1.000000000000000e+00 0.000000000000000e+00 
  outer loop 
   vertex  1.999697977195557e+03 0.000000000000000e+00 1.414213562373095e+03 
   vertex  3.999395954391113e+03 0.000000000000000e+00 2.828427124746190e+03 
   vertex  0.000000000000000e+00 0.000000000000000e+00 2.828427124746190e+03 
  endloop 
 endfacet 
 facet normal  -0.000000000000000e+00 1.000000000000000e+00 0.000000000000000e+00 
  outer loop 
   vertex  1.999697977195557e+03 1.999697977195557e+03 1.414213562373095e+03 
   vertex  3.999395954391113e+03 1.999697977195557e+03 0.000000000000000e+00 
   vertex  0.000000000000000e+00 1.999697977195557e+03 0.000000000000000e+00 
  endloop 
 endfacet 
 facet normal  0.000000000000000e+00 1.000000000000000e+00 0.000000000000000e+00 
  outer loop 
   vertex  1.999697977195557e+03 1.999697977195557e+03 1.414213562373095e+03 
   vertex  0.000000000000000e+00 1.999697977195557e+03 0.000000000000000e+00 
   vertex  0.000000000000000e+00 1.999697977195557e+03 2.828427124746190e+03 
  endloop 
 endfacet 
 facet normal  0.000000000000000e+00 1.000000000000000e+00 0.000000000000000e+00 
  outer loop 
   vertex  1.999697977195557e+03 1.999697977195557e+03 1.414213562373095e+03 
   vertex  0.000000000000000e+00 1.999697977195557e+03 2.828427124746190e+03 
   vertex  3.999395954391113e+03 1.999697977195557e+03 2.828427124746190e+03 
  endloop 
 endfacet 
 facet normal  0.000000000000000e+00 1.000000000000000e+00 -0.000000000000000e+00 
  outer loop 
   vertex  1.999697977195557e+03 1.999697977195557e+03 1.414213562373095e+03 
   vertex  3.999395954391113e+03 1.999697977195557e+03 2.828427124746190e+03 
   vertex  3.999395954391113e+03 1.999697977195557e+03 0.000000000000000e+00 
  endloop 
 endfacet 
 facet normal  -1.000000000000000e+00 0.000000000000000e+00 -0.000000000000000e+00 
  outer loop 
   vertex  0.000000000000000e+00 9.998489885977783e+02 1.414213562373095e+03 
   vertex  0.000000000000000e+00 0.000000000000000e+00 0.000000000000000e+00 
   vertex  0.000000000000000e+00 0.000000000000000e+00 2.828427124746190e+03 
  endloop 
 endfacet 
 facet normal  -1.000000000000000e+00 -0.000000000000000e+00 0.000000000000000e+00 
  outer loop 
   vertex  0.000000000000000e+00 9.998489885977783e+02 1.414213562373095e+03 
   vertex  0.000000000000000e+00 0.000000000000000e+00 2.828427124746190e+03 
   vertex  0.000000000000000e+00 1.999697977195557e+03 2.828427124746190e+03 
  endloop 
 endfacet 
 facet normal  -1.000000000000000e+00 0.000000000000000e+00 0.000000000000000e+00 
  outer loop 
   vertex  0.000000000000000e+00 9.998489885977783e+02 1.414213562373095e+03 
   vertex  0.000000000000000e+00 1.999697977195557e+03 2.828427124746190e+03 
   vertex  0.000000000000000e+00 1.999697977195557e+03 0.000000000000000e+00 
  endloop 
 endfacet 
 facet normal  -1.000000000000000e+00 0.000000000000000e+00 0.000000000000000e+00 
  outer loop 
   vertex  0.000000000000000e+00 9.998489885977783e+02 1.414213562373095e+03 
   vertex  0.000000000000000e+00 1.999697977195557e+03 0.000000000000000e+00 
   vertex  0.000000000000000e+00 0.000000000000000e+00 0.000000000000000e+00 
  endloop 
 endfacet 
 facet normal  1.000000000000000e+00 0.000000000000000e+00 0.000000000000000e+00 
  outer loop 
   vertex  3.999395954391113e+03 9.998489885977783e+02 1.414213562373095e+03 
   vertex  3.999395954391113e+03 0.000000000000000e+00 0.000000000000000e+00 
   vertex  3.999395954391113e+03 1.999697977195557e+03 0.000000000000000e+00 
  endloop 
 endfacet 
 facet normal  1.000000000000000e+00 0.000000000000000e+00 0.000000000000000e+00 
  outer loop 
   vertex  3.999395954391113e+03 9.998489885977783e+02 1.414213562373095e+03 
   vertex  3.999395954391113e+03 1.999697977195557e+03 0.000000000000000e+00 
   vertex  3.999395954391113e+03 1.999697977195557e+03 2.828427124746190e+03 
  endloop 
 endfacet 
 facet normal  1.000000000000000e+00 -0.000000000000000e+00 0.000000000000000e+00 
  outer loop 
   vertex  3.999395954391113e+03 9.998489885977783e+02 1.414213562373095e+03 
   vertex  3.999395954391113e+03 1.999697977195557e+03 2.828427124746190e+03 
   vertex  3.999395954391113e+03 0.000000000000000e+00 2.828427124746190e+03 
  endloop 
 endfacet 
 facet normal  1.000000000000000e+00 0.000000000000000e+00 -0.000000000000000e+00 
  outer loop 
   vertex  3.999395954391113e+03 9.998489885977783e+02 1.414213562373095e+03 
   vertex  3.999395954391113e+03 0.000000000000000e+00 2.828427124746190e+03 
   vertex  3.999395954391113e+03 0.000000000000000e+00 0.000000000000000e+00 
  endloop 
 endfacet 
endsolid