solid cube
 facet normal  0.000000000000000e+00 -0.000000000000000e+00 -1.000000000000000e+00 
  outer loop 
   vertex  0.000000000000000e+00 0.000000000000000e+00 0.000000000000000e+00 
   vertex  -6.000000000000000e+03 -6.000000000000000e+03 0.000000000000000e+00 
   vertex  -6.000000000000000e+03 6.000000000000000e+03 0.000000000000000e+00 
  endloop 
 endfacet 
 facet normal  0.000000000000000e+00 0.000000000000000e+00 -1.000000000000000e+00 
  outer loop 
   vertex  0.000000000000000e+00 0.000000000000000e+00 0.000000000000000e+00 
   vertex  6.000000000000000e+03 -6.000000000000000e+03 0.000000000000000e+00 
   vertex  -6.000000000000000e+03 -6.000000000000000e+03 0.000000000000000e+00 
  endloop 
 endfacet 
 facet normal  0.000000000000000e+00 0.000000000000000e+00 -1.000000000000000e+00 
  outer loop 
   vertex  0.000000000000000e+00 0.000000000000000e+00 0.000000000000000e+00 
   vertex  6.000000000000000e+03 6.000000000000000e+03 0.000000000000000e+00 
   vertex  6.000000000000000e+03 -6.000000000000000e+03 0.000000000000000e+00 
  endloop 
 endfacet 
 facet normal  -0.000000000000000e+00 0.000000000000000e+00 -1.000000000000000e+00 
  outer loop 
   vertex  0.000000000000000e+00 0.000000000000000e+00 0.000000000000000e+00 
   vertex  -6.000000000000000e+03 6.000000000000000e+03 0.000000000000000e+00 
   vertex  6.000000000000000e+03 6.000000000000000e+03 0.000000000000000e+00 
  endloop 
 endfacet 
 facet normal  0.000000000000000e+00 0.000000000000000e+00 1.000000000000000e+00 
  outer loop 
   vertex  0.000000000000000e+00 0.000000000000000e+00 1.200000000000000e+04 
   vertex  -6.000000000000000e+03 -6.000000000000000e+03 1.200000000000000e+04 
   vertex  6.000000000000000e+03 -6.000000000000000e+03 1.200000000000000e+04 
  endloop 
 endfacet 
 facet normal  0.000000000000000e+00 0.000000000000000e+00 1.000000000000000e+00 
  outer loop 
   vertex  0.000000000000000e+00 0.000000000000000e+00 1.200000000000000e+04 
   vertex  6.000000000000000e+03 -6.000000000000000e+03 1.200000000000000e+04 
   vertex  6.000000000000000e+03 6.000000000000000e+03 1.200000000000000e+04 
  endloop 
 endfacet 
 facet normal  -0.000000000000000e+00 0.000000000000000e+00 1.000000000000000e+00 
  outer loop 
   vertex  0.000000000000000e+00 0.000000000000000e+00 1.200000000000000e+04 
   vertex  6.000000000000000e+03 6.000000000000000e+03 1.200000000000000e+04 
   vertex  -6.000000000000000e+03 6.000000000000000e+03 1.200000000000000e+04 
  endloop 
 endfacet 
 facet normal  0.000000000000000e+00 -0.000000000000000e+00 1.000000000000000e+00 
  outer loop 
   vertex  0.000000000000000e+00 0.000000000000000e+00 1.200000000000000e+04 
   vertex  -6.000000000000000e+03 6.000000000000000e+03 1.200000000000000e+04 
   vertex  -6.000000000000000e+03 -6.000000000000000e+03 1.200000000000000e+04 
  endloop 
 endfacet 
 facet normal  0.000000000000000e+00 -1.000000000000000e+00 0.000000000000000e+00 
  outer loop 
   vertex  0.000000000000000e+00 -6.000000000000000e+03 6.000000000000000e+03 
   vertex  -6.000000000000000e+03 -6.000000000000000e+03 1.200000000000000e+04 
   vertex  -6.000000000000000e+03 -6.000000000000000e+03 0.000000000000000e+00 
  endloop 
 endfacet 
 facet normal  -0.000000000000000e+00 -1.000000000000000e+00 0.000000000000000e+00 
  outer loop 
   vertex  0.000000000000000e+00 -6.000000000000000e+03 6.000000000000000e+03 
   vertex  -6.000000000000000e+03 -6.000000000000000e+03 0.000000000000000e+00 
   vertex  6.000000000000000e+03 -6.000000000000000e+03 0.000000000000000e+00 
  endloop 
 endfacet 
 facet normal  0.000000000000000e+00 -1.000000000000000e+00 -0.000000000000000e+00 
  outer loop 
   vertex  0.000000000000000e+00 -6.000000000000000e+03 6.000000000000000e+03 
   vertex  6.000000000000000e+03 -6.000000000000000e+03 0.000000000000000e+00 
   vertex  6.000000000000000e+03 -6.000000000000000e+03 1.200000000000000e+04 
  endloop 
 endfacet 
 facet normal  0.000000000000000e+00 -1.000000000000000e+00 0.000000000000000e+00 
  outer loop 
   vertex  0.000000000000000e+00 -6.000000000000000e+03 6.000000000000000e+03 
   vertex  6.000000000000000e+03 -6.000000000000000e+03 1.200000000000000e+04 
   vertex  -6.000000000000000e+03 -6.000000000000000e+03 1.200000000000000e+04 
  endloop 
 endfacet 
 facet normal  -0.000000000000000e+00 1.000000000000000e+00 0.000000000000000e+00 
  outer loop 
   vertex  0.000000000000000e+00 6.000000000000000e+03 6.000000000000000e+03 
   vertex  6.000000000000000e+03 6.000000000000000e+03 0.000000000000000e+00 
   vertex  -6.000000000000000e+03 6.000000000000000e+03 0.000000000000000e+00 
  endloop 
 endfacet 
 facet normal  0.000000000000000e+00 1.000000000000000e+00 0.000000000000000e+00 
  outer loop 
   vertex  0.000000000000000e+00 6.000000000000000e+03 6.000000000000000e+03 
   vertex  -6.000000000000000e+03 6.000000000000000e+03 0.000000000000000e+00 
   vertex  -6.000000000000000e+03 6.000000000000000e+03 1.200000000000000e+04 
  endloop 
 endfacet 
 facet normal  0.000000000000000e+00 1.000000000000000e+00 0.000000000000000e+00 
  outer loop 
   vertex  0.000000000000000e+00 6.000000000000000e+03 6.000000000000000e+03 
   vertex  -6.000000000000000e+03 6.000000000000000e+03 1.200000000000000e+04 
   vertex  6.000000000000000e+03 6.000000000000000e+03 1.200000000000000e+04 
  endloop 
 endfacet 
 facet normal  0.000000000000000e+00 1.000000000000000e+00 -0.000000000000000e+00 
  outer loop 
   vertex  0.000000000000000e+00 6.000000000000000e+03 6.000000000000000e+03 
   vertex  6.000000000000000e+03 6.000000000000000e+03 1.200000000000000e+04 
   vertex  6.000000000000000e+03 6.000000000000000e+03 0.000000000000000e+00 
  endloop 
 endfacet 
 facet normal  -1.000000000000000e+00 0.000000000000000e+00 -0.000000000000000e+00 
  outer loop 
   vertex  -6.000000000000000e+03 0.000000000000000e+00 6.000000000000000e+03 
   vertex  -6.000000000000000e+03 -6.000000000000000e+03 0.000000000000000e+00 
   vertex  -6.000000000000000e+03 -6.000000000000000e+03 1.200000000000000e+04 
  endloop 
 endfacet 
 facet normal  -1.000000000000000e+00 -0.000000000000000e+00 0.000000000000000e+00 
  outer loop 
   vertex  -6.000000000000000e+03 0.000000000000000e+00 6.000000000000000e+03 
   vertex  -6.000000000000000e+03 -6.000000000000000e+03 1.200000000000000e+04 
   vertex  -6.000000000000000e+03 6.000000000000000e+03 1.200000000000000e+04 
  endloop 
 endfacet 
 facet normal  -1.000000000000000e+00 0.000000000000000e+00 0.000000000000000e+00 
  outer loop 
   vertex  -6.000000000000000e+03 0.000000000000000e+00 6.000000000000000e+03 
   vertex  -6.000000000000000e+03 6.000000000000000e+03 1.200000000000000e+04 
   vertex  -6.000000000000000e+03 6.000000000000000e+03 0.000000000000000e+00 
  endloop 
 endfacet 
 facet normal  -1.000000000000000e+00 0.000000000000000e+00 0.000000000000000e+00 
  outer loop 
   vertex  -6.000000000000000e+03 0.000000000000000e+00 6.000000000000000e+03 
   vertex  -6.000000000000000e+03 6.000000000000000e+03 0.000000000000000e+00 
   vertex  -6.000000000000000e+03 -6.000000000000000e+03 0.000000000000000e+00 
  endloop 
 endfacet 
 facet normal  1.000000000000000e+00 0.000000000000000e+00 0.000000000000000e+00 
  outer loop 
   vertex  6.000000000000000e+03 0.000000000000000e+00 6.000000000000000e+03 
   vertex  6.000000000000000e+03 -6.000000000000000e+03 0.000000000000000e+00 
   vertex  6.000000000000000e+03 6.000000000000000e+03 0.000000000000000e+00 
  endloop 
 endfacet 
 facet normal  1.000000000000000e+00 0.000000000000000e+00 0.000000000000000e+00 
  outer loop 
   vertex  6.000000000000000e+03 0.000000000000000e+00 6.000000000000000e+03 
   vertex  6.000000000000000e+03 6.000000000000000e+03 0.000000000000000e+00 
   vertex  6.000000000000000e+03 6.000000000000000e+03 1.200000000000000e+04 
  endloop 
 endfacet 
 facet normal  1.000000000000000e+00 -0.000000000000000e+00 0.000000000000000e+00 
  outer loop 
   vertex  6.000000000000000e+03 0.000000000000000e+00 6.000000000000000e+03 
   vertex  6.000000000000000e+03 6.000000000000000e+03 1.200000000000000e+04 
   vertex  6.000000000000000e+03 -6.000000000000000e+03 1.200000000000000e+04 
  endloop 
 endfacet 
 facet normal  1.000000000000000e+00 0.000000000000000e+00 -0.000000000000000e+00 
  outer loop 
   vertex  6.000000000000000e+03 0.000000000000000e+00 6.000000000000000e+03 
   vertex  6.000000000000000e+03 -6.000000000000000e+03 1.200000000000000e+04 
   vertex  6.000000000000000e+03 -6.000000000000000e+03 0.000000000000000e+00 
  endloop 
 endfacet 
endsolid