solid cylinder
 facet normal  -0.000000000000000e+00 -0.000000000000000e+00 -1.000000000000000e+00 
  outer loop 
   vertex  4.000000000000000e+03 0.000000000000000e+00 0.000000000000000e+00 
   vertex  0.000000000000000e+00 0.000000000000000e+00 0.000000000000000e+00 
   vertex  3.912590402935223e+03 8.316467632710372e+02 0.000000000000000e+00 
  endloop 
 endfacet 
 facet normal  0.000000000000000e+00 0.000000000000000e+00 1.000000000000000e+00 
  outer loop 
   vertex  3.912590402935223e+03 8.316467632710372e+02 1.200000000000000e+04 
   vertex  0.000000000000000e+00 0.000000000000000e+00 1.200000000000000e+04 
   vertex  4.000000000000000e+03 0.000000000000000e+00 1.200000000000000e+04 
  endloop 
 endfacet 
 facet normal  9.945218953682734e-01 1.045284632676532e-01 0.000000000000000e+00 
  outer loop 
   vertex  4.000000000000000e+03 0.000000000000000e+00 0.000000000000000e+00 
   vertex  3.912590402935223e+03 8.316467632710372e+02 0.000000000000000e+00 
   vertex  4.000000000000000e+03 0.000000000000000e+00 1.200000000000000e+04 
  endloop 
 endfacet 
 facet normal  9.945218953682734e-01 1.045284632676532e-01 -0.000000000000000e+00 
  outer loop 
   vertex  3.912590402935223e+03 8.316467632710372e+02 1.200000000000000e+04 
   vertex  4.000000000000000e+03 0.000000000000000e+00 1.200000000000000e+04 
   vertex  3.912590402935223e+03 8.316467632710372e+02 0.000000000000000e+00 
  endloop 
 endfacet 
 facet normal  0.000000000000000e+00 -0.000000000000000e+00 -1.000000000000000e+00 
  outer loop 
   vertex  3.912590402935223e+03 8.316467632710372e+02 0.000000000000000e+00 
   vertex  0.000000000000000e+00 0.000000000000000e+00 0.000000000000000e+00 
   vertex  3.654181830570404e+03 1.626946572303201e+03 0.000000000000000e+00 
  endloop 
 endfacet 
 facet normal  0.000000000000000e+00 0.000000000000000e+00 1.000000000000000e+00 
  outer loop 
   vertex  3.654181830570404e+03 1.626946572303201e+03 1.200000000000000e+04 
   vertex  0.000000000000000e+00 0.000000000000000e+00 1.200000000000000e+04 
   vertex  3.912590402935223e+03 8.316467632710372e+02 1.200000000000000e+04 
  endloop 
 endfacet 
 facet normal  9.510565162951535e-01 3.090169943749476e-01 0.000000000000000e+00 
  outer loop 
   vertex  3.912590402935223e+03 8.316467632710372e+02 0.000000000000000e+00 
   vertex  3.654181830570404e+03 1.626946572303201e+03 0.000000000000000e+00 
   vertex  3.912590402935223e+03 8.316467632710372e+02 1.200000000000000e+04 
  endloop 
 endfacet 
 facet normal  9.510565162951535e-01 3.090169943749476e-01 -0.000000000000000e+00 
  outer loop 
   vertex  3.654181830570404e+03 1.626946572303201e+03 1.200000000000000e+04 
   vertex  3.912590402935223e+03 8.316467632710372e+02 1.200000000000000e+04 
   vertex  3.654181830570404e+03 1.626946572303201e+03 0.000000000000000e+00 
  endloop 
 endfacet 
 facet normal  0.000000000000000e+00 -0.000000000000000e+00 -1.000000000000000e+00 
  outer loop 
   vertex  3.654181830570404e+03 1.626946572303201e+03 0.000000000000000e+00 
   vertex  0.000000000000000e+00 0.000000000000000e+00 0.000000000000000e+00 
   vertex  3.236067977499790e+03 2.351141009169893e+03 0.000000000000000e+00 
  endloop 
 endfacet 
 facet normal  0.000000000000000e+00 0.000000000000000e+00 1.000000000000000e+00 
  outer loop 
   vertex  3.236067977499790e+03 2.351141009169893e+03 1.200000000000000e+04 
   vertex  0.000000000000000e+00 0.000000000000000e+00 1.200000000000000e+04 
   vertex  3.654181830570404e+03 1.626946572303201e+03 1.200000000000000e+04 
  endloop 
 endfacet 
 facet normal  8.660254037844387e-01 4.999999999999998e-01 0.000000000000000e+00 
  outer loop 
   vertex  3.654181830570404e+03 1.626946572303201e+03 0.000000000000000e+00 
   vertex  3.236067977499790e+03 2.351141009169893e+03 0.000000000000000e+00 
   vertex  3.654181830570404e+03 1.626946572303201e+03 1.200000000000000e+04 
  endloop 
 endfacet 
 facet normal  8.660254037844387e-01 4.999999999999998e-01 -0.000000000000000e+00 
  outer loop 
   vertex  3.236067977499790e+03 2.351141009169893e+03 1.200000000000000e+04 
   vertex  3.654181830570404e+03 1.626946572303201e+03 1.200000000000000e+04 
   vertex  3.236067977499790e+03 2.351141009169893e+03 0.000000000000000e+00 
  endloop 
 endfacet 
 facet normal  0.000000000000000e+00 -0.000000000000000e+00 -1.000000000000000e+00 
  outer loop 
   vertex  3.236067977499790e+03 2.351141009169893e+03 0.000000000000000e+00 
   vertex  0.000000000000000e+00 0.000000000000000e+00 0.000000000000000e+00 
   vertex  2.676522425435433e+03 2.972579301909577e+03 0.000000000000000e+00 
  endloop 
 endfacet 
 facet normal  0.000000000000000e+00 0.000000000000000e+00 1.000000000000000e+00 
  outer loop 
   vertex  2.676522425435433e+03 2.972579301909577e+03 1.200000000000000e+04 
   vertex  0.000000000000000e+00 0.000000000000000e+00 1.200000000000000e+04 
   vertex  3.236067977499790e+03 2.351141009169893e+03 1.200000000000000e+04 
  endloop 
 endfacet 
 facet normal  7.431448254773941e-01 6.691306063588583e-01 0.000000000000000e+00 
  outer loop 
   vertex  3.236067977499790e+03 2.351141009169893e+03 0.000000000000000e+00 
   vertex  2.676522425435433e+03 2.972579301909577e+03 0.000000000000000e+00 
   vertex  3.236067977499790e+03 2.351141009169893e+03 1.200000000000000e+04 
  endloop 
 endfacet 
 facet normal  7.431448254773941e-01 6.691306063588583e-01 -0.000000000000000e+00 
  outer loop 
   vertex  2.676522425435433e+03 2.972579301909577e+03 1.200000000000000e+04 
   vertex  3.236067977499790e+03 2.351141009169893e+03 1.200000000000000e+04 
   vertex  2.676522425435433e+03 2.972579301909577e+03 0.000000000000000e+00 
  endloop 
 endfacet 
 facet normal  0.000000000000000e+00 -0.000000000000000e+00 -1.000000000000000e+00 
  outer loop 
   vertex  2.676522425435433e+03 2.972579301909577e+03 0.000000000000000e+00 
   vertex  0.000000000000000e+00 0.000000000000000e+00 0.000000000000000e+00 
   vertex  2.000000000000000e+03 3.464101615137754e+03 0.000000000000000e+00 
  endloop 
 endfacet 
 facet normal  0.000000000000000e+00 0.000000000000000e+00 1.000000000000000e+00 
  outer loop 
   vertex  2.000000000000000e+03 3.464101615137754e+03 1.200000000000000e+04 
   vertex  0.000000000000000e+00 0.000000000000000e+00 1.200000000000000e+04 
   vertex  2.676522425435433e+03 2.972579301909577e+03 1.200000000000000e+04 
  endloop 
 endfacet 
 facet normal  5.877852522924732e-01 8.090169943749472e-01 0.000000000000000e+00 
  outer loop 
   vertex  2.676522425435433e+03 2.972579301909577e+03 0.000000000000000e+00 
   vertex  2.000000000000000e+03 3.464101615137754e+03 0.000000000000000e+00 
   vertex  2.676522425435433e+03 2.972579301909577e+03 1.200000000000000e+04 
  endloop 
 endfacet 
 facet normal  5.877852522924732e-01 8.090169943749472e-01 -0.000000000000000e+00 
  outer loop 
   vertex  2.000000000000000e+03 3.464101615137754e+03 1.200000000000000e+04 
   vertex  2.676522425435433e+03 2.972579301909577e+03 1.200000000000000e+04 
   vertex  2.000000000000000e+03 3.464101615137754e+03 0.000000000000000e+00 
  endloop 
 endfacet 
 facet normal  0.000000000000000e+00 -0.000000000000000e+00 -1.000000000000000e+00 
  outer loop 
   vertex  2.000000000000000e+03 3.464101615137754e+03 0.000000000000000e+00 
   vertex  0.000000000000000e+00 0.000000000000000e+00 0.000000000000000e+00 
   vertex  1.236067977499790e+03 3.804226065180614e+03 0.000000000000000e+00 
  endloop 
 endfacet 
 facet normal  0.000000000000000e+00 0.000000000000000e+00 1.000000000000000e+00 
  outer loop 
   vertex  1.236067977499790e+03 3.804226065180614e+03 1.200000000000000e+04 
   vertex  0.000000000000000e+00 0.000000000000000e+00 1.200000000000000e+04 
   vertex  2.000000000000000e+03 3.464101615137754e+03 1.200000000000000e+04 
  endloop 
 endfacet 
 facet normal  4.067366430758000e-01 9.135454576426010e-01 0.000000000000000e+00 
  outer loop 
   vertex  2.000000000000000e+03 3.464101615137754e+03 0.000000000000000e+00 
   vertex  1.236067977499790e+03 3.804226065180614e+03 0.000000000000000e+00 
   vertex  2.000000000000000e+03 3.464101615137754e+03 1.200000000000000e+04 
  endloop 
 endfacet 
 facet normal  4.067366430758000e-01 9.135454576426010e-01 -0.000000000000000e+00 
  outer loop 
   vertex  1.236067977499790e+03 3.804226065180614e+03 1.200000000000000e+04 
   vertex  2.000000000000000e+03 3.464101615137754e+03 1.200000000000000e+04 
   vertex  1.236067977499790e+03 3.804226065180614e+03 0.000000000000000e+00 
  endloop 
 endfacet 
 facet normal  0.000000000000000e+00 -0.000000000000000e+00 -1.000000000000000e+00 
  outer loop 
   vertex  1.236067977499790e+03 3.804226065180614e+03 0.000000000000000e+00 
   vertex  0.000000000000000e+00 0.000000000000000e+00 0.000000000000000e+00 
   vertex  4.181138530706138e+02 3.978087581473093e+03 0.000000000000000e+00 
  endloop 
 endfacet 
 facet normal  0.000000000000000e+00 0.000000000000000e+00 1.000000000000000e+00 
  outer loop 
   vertex  4.181138530706138e+02 3.978087581473093e+03 1.200000000000000e+04 
   vertex  0.000000000000000e+00 0.000000000000000e+00 1.200000000000000e+04 
   vertex  1.236067977499790e+03 3.804226065180614e+03 1.200000000000000e+04 
  endloop 
 endfacet 
 facet normal  2.079116908177591e-01 9.781476007338057e-01 0.000000000000000e+00 
  outer loop 
   vertex  1.236067977499790e+03 3.804226065180614e+03 0.000000000000000e+00 
   vertex  4.181138530706138e+02 3.978087581473093e+03 0.000000000000000e+00 
   vertex  1.236067977499790e+03 3.804226065180614e+03 1.200000000000000e+04 
  endloop 
 endfacet 
 facet normal  2.079116908177591e-01 9.781476007338057e-01 -0.000000000000000e+00 
  outer loop 
   vertex  4.181138530706138e+02 3.978087581473093e+03 1.200000000000000e+04 
   vertex  1.236067977499790e+03 3.804226065180614e+03 1.200000000000000e+04 
   vertex  4.181138530706138e+02 3.978087581473093e+03 0.000000000000000e+00 
  endloop 
 endfacet 
 facet normal  0.000000000000000e+00 -0.000000000000000e+00 -1.000000000000000e+00 
  outer loop 
   vertex  4.181138530706138e+02 3.978087581473093e+03 0.000000000000000e+00 
   vertex  0.000000000000000e+00 0.000000000000000e+00 0.000000000000000e+00 
   vertex  -4.181138530706133e+02 3.978087581473093e+03 0.000000000000000e+00 
  endloop 
 endfacet 
 facet normal  0.000000000000000e+00 0.000000000000000e+00 1.000000000000000e+00 
  outer loop 
   vertex  -4.181138530706133e+02 3.978087581473093e+03 1.200000000000000e+04 
   vertex  0.000000000000000e+00 0.000000000000000e+00 1.200000000000000e+04 
   vertex  4.181138530706138e+02 3.978087581473093e+03 1.200000000000000e+04 
  endloop 
 endfacet 
 facet normal  5.438080412151086e-16 1.000000000000000e+00 0.000000000000000e+00 
  outer loop 
   vertex  4.181138530706138e+02 3.978087581473093e+03 0.000000000000000e+00 
   vertex  -4.181138530706133e+02 3.978087581473093e+03 0.000000000000000e+00 
   vertex  4.181138530706138e+02 3.978087581473093e+03 1.200000000000000e+04 
  endloop 
 endfacet 
 facet normal  5.438080412151086e-16 1.000000000000000e+00 -0.000000000000000e+00 
  outer loop 
   vertex  -4.181138530706133e+02 3.978087581473093e+03 1.200000000000000e+04 
   vertex  4.181138530706138e+02 3.978087581473093e+03 1.200000000000000e+04 
   vertex  -4.181138530706133e+02 3.978087581473093e+03 0.000000000000000e+00 
  endloop 
 endfacet 
 facet normal  0.000000000000000e+00 0.000000000000000e+00 -1.000000000000000e+00 
  outer loop 
   vertex  -4.181138530706133e+02 3.978087581473093e+03 0.000000000000000e+00 
   vertex  0.000000000000000e+00 0.000000000000000e+00 0.000000000000000e+00 
   vertex  -1.236067977499789e+03 3.804226065180615e+03 0.000000000000000e+00 
  endloop 
 endfacet 
 facet normal  0.000000000000000e+00 0.000000000000000e+00 1.000000000000000e+00 
  outer loop 
   vertex  -1.236067977499789e+03 3.804226065180615e+03 1.200000000000000e+04 
   vertex  0.000000000000000e+00 0.000000000000000e+00 1.200000000000000e+04 
   vertex  -4.181138530706133e+02 3.978087581473093e+03 1.200000000000000e+04 
  endloop 
 endfacet 
 facet normal  -2.079116908177591e-01 9.781476007338057e-01 0.000000000000000e+00 
  outer loop 
   vertex  -4.181138530706133e+02 3.978087581473093e+03 0.000000000000000e+00 
   vertex  -1.236067977499789e+03 3.804226065180615e+03 0.000000000000000e+00 
   vertex  -4.181138530706133e+02 3.978087581473093e+03 1.200000000000000e+04 
  endloop 
 endfacet 
 facet normal  -2.079116908177591e-01 9.781476007338057e-01 0.000000000000000e+00 
  outer loop 
   vertex  -1.236067977499789e+03 3.804226065180615e+03 1.200000000000000e+04 
   vertex  -4.181138530706133e+02 3.978087581473093e+03 1.200000000000000e+04 
   vertex  -1.236067977499789e+03 3.804226065180615e+03 0.000000000000000e+00 
  endloop 
 endfacet 
 facet normal  0.000000000000000e+00 0.000000000000000e+00 -1.000000000000000e+00 
  outer loop 
   vertex  -1.236067977499789e+03 3.804226065180615e+03 0.000000000000000e+00 
   vertex  0.000000000000000e+00 0.000000000000000e+00 0.000000000000000e+00 
   vertex  -1.999999999999999e+03 3.464101615137755e+03 0.000000000000000e+00 
  endloop 
 endfacet 
 facet normal  0.000000000000000e+00 0.000000000000000e+00 1.000000000000000e+00 
  outer loop 
   vertex  -1.999999999999999e+03 3.464101615137755e+03 1.200000000000000e+04 
   vertex  0.000000000000000e+00 0.000000000000000e+00 1.200000000000000e+04 
   vertex  -1.236067977499789e+03 3.804226065180615e+03 1.200000000000000e+04 
  endloop 
 endfacet 
 facet normal  -4.067366430758004e-01 9.135454576426008e-01 0.000000000000000e+00 
  outer loop 
   vertex  -1.236067977499789e+03 3.804226065180615e+03 0.000000000000000e+00 
   vertex  -1.999999999999999e+03 3.464101615137755e+03 0.000000000000000e+00 
   vertex  -1.236067977499789e+03 3.804226065180615e+03 1.200000000000000e+04 
  endloop 
 endfacet 
 facet normal  -4.067366430758004e-01 9.135454576426008e-01 0.000000000000000e+00 
  outer loop 
   vertex  -1.999999999999999e+03 3.464101615137755e+03 1.200000000000000e+04 
   vertex  -1.236067977499789e+03 3.804226065180615e+03 1.200000000000000e+04 
   vertex  -1.999999999999999e+03 3.464101615137755e+03 0.000000000000000e+00 
  endloop 
 endfacet 
 facet normal  0.000000000000000e+00 0.000000000000000e+00 -1.000000000000000e+00 
  outer loop 
   vertex  -1.999999999999999e+03 3.464101615137755e+03 0.000000000000000e+00 
   vertex  0.000000000000000e+00 0.000000000000000e+00 0.000000000000000e+00 
   vertex  -2.676522425435432e+03 2.972579301909578e+03 0.000000000000000e+00 
  endloop 
 endfacet 
 facet normal  0.000000000000000e+00 0.000000000000000e+00 1.000000000000000e+00 
  outer loop 
   vertex  -2.676522425435432e+03 2.972579301909578e+03 1.200000000000000e+04 
   vertex  0.000000000000000e+00 0.000000000000000e+00 1.200000000000000e+04 
   vertex  -1.999999999999999e+03 3.464101615137755e+03 1.200000000000000e+04 
  endloop 
 endfacet 
 facet normal  -5.877852522924729e-01 8.090169943749476e-01 0.000000000000000e+00 
  outer loop 
   vertex  -1.999999999999999e+03 3.464101615137755e+03 0.000000000000000e+00 
   vertex  -2.676522425435432e+03 2.972579301909578e+03 0.000000000000000e+00 
   vertex  -1.999999999999999e+03 3.464101615137755e+03 1.200000000000000e+04 
  endloop 
 endfacet 
 facet normal  -5.877852522924729e-01 8.090169943749476e-01 0.000000000000000e+00 
  outer loop 
   vertex  -2.676522425435432e+03 2.972579301909578e+03 1.200000000000000e+04 
   vertex  -1.999999999999999e+03 3.464101615137755e+03 1.200000000000000e+04 
   vertex  -2.676522425435432e+03 2.972579301909578e+03 0.000000000000000e+00 
  endloop 
 endfacet 
 facet normal  0.000000000000000e+00 0.000000000000000e+00 -1.000000000000000e+00 
  outer loop 
   vertex  -2.676522425435432e+03 2.972579301909578e+03 0.000000000000000e+00 
   vertex  0.000000000000000e+00 0.000000000000000e+00 0.000000000000000e+00 
   vertex  -3.236067977499789e+03 2.351141009169893e+03 0.000000000000000e+00 
  endloop 
 endfacet 
 facet normal  0.000000000000000e+00 0.000000000000000e+00 1.000000000000000e+00 
  outer loop 
   vertex  -3.236067977499789e+03 2.351141009169893e+03 1.200000000000000e+04 
   vertex  0.000000000000000e+00 0.000000000000000e+00 1.200000000000000e+04 
   vertex  -2.676522425435432e+03 2.972579301909578e+03 1.200000000000000e+04 
  endloop 
 endfacet 
 facet normal  -7.431448254773938e-01 6.691306063588587e-01 0.000000000000000e+00 
  outer loop 
   vertex  -2.676522425435432e+03 2.972579301909578e+03 0.000000000000000e+00 
   vertex  -3.236067977499789e+03 2.351141009169893e+03 0.000000000000000e+00 
   vertex  -2.676522425435432e+03 2.972579301909578e+03 1.200000000000000e+04 
  endloop 
 endfacet 
 facet normal  -7.431448254773938e-01 6.691306063588587e-01 0.000000000000000e+00 
  outer loop 
   vertex  -3.236067977499789e+03 2.351141009169893e+03 1.200000000000000e+04 
   vertex  -2.676522425435432e+03 2.972579301909578e+03 1.200000000000000e+04 
   vertex  -3.236067977499789e+03 2.351141009169893e+03 0.000000000000000e+00 
  endloop 
 endfacet 
 facet normal  0.000000000000000e+00 0.000000000000000e+00 -1.000000000000000e+00 
  outer loop 
   vertex  -3.236067977499789e+03 2.351141009169893e+03 0.000000000000000e+00 
   vertex  0.000000000000000e+00 0.000000000000000e+00 0.000000000000000e+00 
   vertex  -3.654181830570404e+03 1.626946572303200e+03 0.000000000000000e+00 
  endloop 
 endfacet 
 facet normal  0.000000000000000e+00 0.000000000000000e+00 1.000000000000000e+00 
  outer loop 
   vertex  -3.654181830570404e+03 1.626946572303200e+03 1.200000000000000e+04 
   vertex  0.000000000000000e+00 0.000000000000000e+00 1.200000000000000e+04 
   vertex  -3.236067977499789e+03 2.351141009169893e+03 1.200000000000000e+04 
  endloop 
 endfacet 
 facet normal  -8.660254037844387e-01 4.999999999999997e-01 0.000000000000000e+00 
  outer loop 
   vertex  -3.236067977499789e+03 2.351141009169893e+03 0.000000000000000e+00 
   vertex  -3.654181830570404e+03 1.626946572303200e+03 0.000000000000000e+00 
   vertex  -3.236067977499789e+03 2.351141009169893e+03 1.200000000000000e+04 
  endloop 
 endfacet 
 facet normal  -8.660254037844387e-01 4.999999999999997e-01 0.000000000000000e+00 
  outer loop 
   vertex  -3.654181830570404e+03 1.626946572303200e+03 1.200000000000000e+04 
   vertex  -3.236067977499789e+03 2.351141009169893e+03 1.200000000000000e+04 
   vertex  -3.654181830570404e+03 1.626946572303200e+03 0.000000000000000e+00 
  endloop 
 endfacet 
 facet normal  0.000000000000000e+00 0.000000000000000e+00 -1.000000000000000e+00 
  outer loop 
   vertex  -3.654181830570404e+03 1.626946572303200e+03 0.000000000000000e+00 
   vertex  0.000000000000000e+00 0.000000000000000e+00 0.000000000000000e+00 
   vertex  -3.912590402935223e+03 8.316467632710372e+02 0.000000000000000e+00 
  endloop 
 endfacet 
 facet normal  0.000000000000000e+00 0.000000000000000e+00 1.000000000000000e+00 
  outer loop 
   vertex  -3.912590402935223e+03 8.316467632710372e+02 1.200000000000000e+04 
   vertex  0.000000000000000e+00 0.000000000000000e+00 1.200000000000000e+04 
   vertex  -3.654181830570404e+03 1.626946572303200e+03 1.200000000000000e+04 
  endloop 
 endfacet 
 facet normal  -9.510565162951535e-01 3.090169943749477e-01 0.000000000000000e+00 
  outer loop 
   vertex  -3.654181830570404e+03 1.626946572303200e+03 0.000000000000000e+00 
   vertex  -3.912590402935223e+03 8.316467632710372e+02 0.000000000000000e+00 
   vertex  -3.654181830570404e+03 1.626946572303200e+03 1.200000000000000e+04 
  endloop 
 endfacet 
 facet normal  -9.510565162951535e-01 3.090169943749477e-01 0.000000000000000e+00 
  outer loop 
   vertex  -3.912590402935223e+03 8.316467632710372e+02 1.200000000000000e+04 
   vertex  -3.654181830570404e+03 1.626946572303200e+03 1.200000000000000e+04 
   vertex  -3.912590402935223e+03 8.316467632710372e+02 0.000000000000000e+00 
  endloop 
 endfacet 
 facet normal  0.000000000000000e+00 0.000000000000000e+00 -1.000000000000000e+00 
  outer loop 
   vertex  -3.912590402935223e+03 8.316467632710372e+02 0.000000000000000e+00 
   vertex  0.000000000000000e+00 0.000000000000000e+00 0.000000000000000e+00 
   vertex  -4.000000000000000e+03 4.898587196589413e-13 0.000000000000000e+00 
  endloop 
 endfacet 
 facet normal  0.000000000000000e+00 0.000000000000000e+00 1.000000000000000e+00 
  outer loop 
   vertex  -4.000000000000000e+03 4.898587196589413e-13 1.200000000000000e+04 
   vertex  0.000000000000000e+00 0.000000000000000e+00 1.200000000000000e+04 
   vertex  -3.912590402935223e+03 8.316467632710372e+02 1.200000000000000e+04 
  endloop 
 endfacet 
 facet normal  -9.945218953682734e-01 1.045284632676533e-01 0.000000000000000e+00 
  outer loop 
   vertex  -3.912590402935223e+03 8.316467632710372e+02 0.000000000000000e+00 
   vertex  -4.000000000000000e+03 4.898587196589413e-13 0.000000000000000e+00 
   vertex  -3.912590402935223e+03 8.316467632710372e+02 1.200000000000000e+04 
  endloop 
 endfacet 
 facet normal  -9.945218953682734e-01 1.045284632676533e-01 0.000000000000000e+00 
  outer loop 
   vertex  -4.000000000000000e+03 4.898587196589413e-13 1.200000000000000e+04 
   vertex  -3.912590402935223e+03 8.316467632710372e+02 1.200000000000000e+04 
   vertex  -4.000000000000000e+03 4.898587196589413e-13 0.000000000000000e+00 
  endloop 
 endfacet 
 facet normal  0.000000000000000e+00 0.000000000000000e+00 -1.000000000000000e+00 
  outer loop 
   vertex  -4.000000000000000e+03 4.898587196589413e-13 0.000000000000000e+00 
   vertex  0.000000000000000e+00 0.000000000000000e+00 0.000000000000000e+00 
   vertex  -3.912590402935223e+03 -8.316467632710362e+02 0.000000000000000e+00 
  endloop 
 endfacet 
 facet normal  -0.000000000000000e+00 0.000000000000000e+00 1.000000000000000e+00 
  outer loop 
   vertex  -3.912590402935223e+03 -8.316467632710362e+02 1.200000000000000e+04 
   vertex  0.000000000000000e+00 0.000000000000000e+00 1.200000000000000e+04 
   vertex  -4.000000000000000e+03 4.898587196589413e-13 1.200000000000000e+04 
  endloop 
 endfacet 
 facet normal  -9.945218953682734e-01 -1.045284632676533e-01 -0.000000000000000e+00 
  outer loop 
   vertex  -4.000000000000000e+03 4.898587196589413e-13 0.000000000000000e+00 
   vertex  -3.912590402935223e+03 -8.316467632710362e+02 0.000000000000000e+00 
   vertex  -4.000000000000000e+03 4.898587196589413e-13 1.200000000000000e+04 
  endloop 
 endfacet 
 facet normal  -9.945218953682734e-01 -1.045284632676533e-01 0.000000000000000e+00 
  outer loop 
   vertex  -3.912590402935223e+03 -8.316467632710362e+02 1.200000000000000e+04 
   vertex  -4.000000000000000e+03 4.898587196589413e-13 1.200000000000000e+04 
   vertex  -3.912590402935223e+03 -8.316467632710362e+02 0.000000000000000e+00 
  endloop 
 endfacet 
 facet normal  0.000000000000000e+00 0.000000000000000e+00 -1.000000000000000e+00 
  outer loop 
   vertex  -3.912590402935223e+03 -8.316467632710362e+02 0.000000000000000e+00 
   vertex  0.000000000000000e+00 0.000000000000000e+00 0.000000000000000e+00 
   vertex  -3.654181830570404e+03 -1.626946572303199e+03 0.000000000000000e+00 
  endloop 
 endfacet 
 facet normal  -0.000000000000000e+00 0.000000000000000e+00 1.000000000000000e+00 
  outer loop 
   vertex  -3.654181830570404e+03 -1.626946572303199e+03 1.200000000000000e+04 
   vertex  0.000000000000000e+00 0.000000000000000e+00 1.200000000000000e+04 
   vertex  -3.912590402935223e+03 -8.316467632710362e+02 1.200000000000000e+04 
  endloop 
 endfacet 
 facet normal  -9.510565162951535e-01 -3.090169943749472e-01 -0.000000000000000e+00 
  outer loop 
   vertex  -3.912590402935223e+03 -8.316467632710362e+02 0.000000000000000e+00 
   vertex  -3.654181830570404e+03 -1.626946572303199e+03 0.000000000000000e+00 
   vertex  -3.912590402935223e+03 -8.316467632710362e+02 1.200000000000000e+04 
  endloop 
 endfacet 
 facet normal  -9.510565162951535e-01 -3.090169943749472e-01 0.000000000000000e+00 
  outer loop 
   vertex  -3.654181830570404e+03 -1.626946572303199e+03 1.200000000000000e+04 
   vertex  -3.912590402935223e+03 -8.316467632710362e+02 1.200000000000000e+04 
   vertex  -3.654181830570404e+03 -1.626946572303199e+03 0.000000000000000e+00 
  endloop 
 endfacet 
 facet normal  0.000000000000000e+00 0.000000000000000e+00 -1.000000000000000e+00 
  outer loop 
   vertex  -3.654181830570404e+03 -1.626946572303199e+03 0.000000000000000e+00 
   vertex  0.000000000000000e+00 0.000000000000000e+00 0.000000000000000e+00 
   vertex  -3.236067977499790e+03 -2.351141009169892e+03 0.000000000000000e+00 
  endloop 
 endfacet 
 facet normal  -0.000000000000000e+00 0.000000000000000e+00 1.000000000000000e+00 
  outer loop 
   vertex  -3.236067977499790e+03 -2.351141009169892e+03 1.200000000000000e+04 
   vertex  0.000000000000000e+00 0.000000000000000e+00 1.200000000000000e+04 
   vertex  -3.654181830570404e+03 -1.626946572303199e+03 1.200000000000000e+04 
  endloop 
 endfacet 
 facet normal  -8.660254037844387e-01 -4.999999999999997e-01 -0.000000000000000e+00 
  outer loop 
   vertex  -3.654181830570404e+03 -1.626946572303199e+03 0.000000000000000e+00 
   vertex  -3.236067977499790e+03 -2.351141009169892e+03 0.000000000000000e+00 
   vertex  -3.654181830570404e+03 -1.626946572303199e+03 1.200000000000000e+04 
  endloop 
 endfacet 
 facet normal  -8.660254037844387e-01 -4.999999999999997e-01 0.000000000000000e+00 
  outer loop 
   vertex  -3.236067977499790e+03 -2.351141009169892e+03 1.200000000000000e+04 
   vertex  -3.654181830570404e+03 -1.626946572303199e+03 1.200000000000000e+04 
   vertex  -3.236067977499790e+03 -2.351141009169892e+03 0.000000000000000e+00 
  endloop 
 endfacet 
 facet normal  0.000000000000000e+00 0.000000000000000e+00 -1.000000000000000e+00 
  outer loop 
   vertex  -3.236067977499790e+03 -2.351141009169892e+03 0.000000000000000e+00 
   vertex  0.000000000000000e+00 0.000000000000000e+00 0.000000000000000e+00 
   vertex  -2.676522425435434e+03 -2.972579301909576e+03 0.000000000000000e+00 
  endloop 
 endfacet 
 facet normal  -0.000000000000000e+00 0.000000000000000e+00 1.000000000000000e+00 
  outer loop 
   vertex  -2.676522425435434e+03 -2.972579301909576e+03 1.200000000000000e+04 
   vertex  0.000000000000000e+00 0.000000000000000e+00 1.200000000000000e+04 
   vertex  -3.236067977499790e+03 -2.351141009169892e+03 1.200000000000000e+04 
  endloop 
 endfacet 
 facet normal  -7.431448254773947e-01 -6.691306063588577e-01 -0.000000000000000e+00 
  outer loop 
   vertex  -3.236067977499790e+03 -2.351141009169892e+03 0.000000000000000e+00 
   vertex  -2.676522425435434e+03 -2.972579301909576e+03 0.000000000000000e+00 
   vertex  -3.236067977499790e+03 -2.351141009169892e+03 1.200000000000000e+04 
  endloop 
 endfacet 
 facet normal  -7.431448254773947e-01 -6.691306063588577e-01 0.000000000000000e+00 
  outer loop 
   vertex  -2.676522425435434e+03 -2.972579301909576e+03 1.200000000000000e+04 
   vertex  -3.236067977499790e+03 -2.351141009169892e+03 1.200000000000000e+04 
   vertex  -2.676522425435434e+03 -2.972579301909576e+03 0.000000000000000e+00 
  endloop 
 endfacet 
 facet normal  0.000000000000000e+00 0.000000000000000e+00 -1.000000000000000e+00 
  outer loop 
   vertex  -2.676522425435434e+03 -2.972579301909576e+03 0.000000000000000e+00 
   vertex  0.000000000000000e+00 0.000000000000000e+00 0.000000000000000e+00 
   vertex  -2.000000000000002e+03 -3.464101615137754e+03 0.000000000000000e+00 
  endloop 
 endfacet 
 facet normal  -0.000000000000000e+00 0.000000000000000e+00 1.000000000000000e+00 
  outer loop 
   vertex  -2.000000000000002e+03 -3.464101615137754e+03 1.200000000000000e+04 
   vertex  0.000000000000000e+00 0.000000000000000e+00 1.200000000000000e+04 
   vertex  -2.676522425435434e+03 -2.972579301909576e+03 1.200000000000000e+04 
  endloop 
 endfacet 
 facet normal  -5.877852522924736e-01 -8.090169943749471e-01 -0.000000000000000e+00 
  outer loop 
   vertex  -2.676522425435434e+03 -2.972579301909576e+03 0.000000000000000e+00 
   vertex  -2.000000000000002e+03 -3.464101615137754e+03 0.000000000000000e+00 
   vertex  -2.676522425435434e+03 -2.972579301909576e+03 1.200000000000000e+04 
  endloop 
 endfacet 
 facet normal  -5.877852522924736e-01 -8.090169943749471e-01 0.000000000000000e+00 
  outer loop 
   vertex  -2.000000000000002e+03 -3.464101615137754e+03 1.200000000000000e+04 
   vertex  -2.676522425435434e+03 -2.972579301909576e+03 1.200000000000000e+04 
   vertex  -2.000000000000002e+03 -3.464101615137754e+03 0.000000000000000e+00 
  endloop 
 endfacet 
 facet normal  0.000000000000000e+00 0.000000000000000e+00 -1.000000000000000e+00 
  outer loop 
   vertex  -2.000000000000002e+03 -3.464101615137754e+03 0.000000000000000e+00 
   vertex  0.000000000000000e+00 0.000000000000000e+00 0.000000000000000e+00 
   vertex  -1.236067977499790e+03 -3.804226065180614e+03 0.000000000000000e+00 
  endloop 
 endfacet 
 facet normal  -0.000000000000000e+00 0.000000000000000e+00 1.000000000000000e+00 
  outer loop 
   vertex  -1.236067977499790e+03 -3.804226065180614e+03 1.200000000000000e+04 
   vertex  0.000000000000000e+00 0.000000000000000e+00 1.200000000000000e+04 
   vertex  -2.000000000000002e+03 -3.464101615137754e+03 1.200000000000000e+04 
  endloop 
 endfacet 
 facet normal  -4.067366430758002e-01 -9.135454576426009e-01 -0.000000000000000e+00 
  outer loop 
   vertex  -2.000000000000002e+03 -3.464101615137754e+03 0.000000000000000e+00 
   vertex  -1.236067977499790e+03 -3.804226065180614e+03 0.000000000000000e+00 
   vertex  -2.000000000000002e+03 -3.464101615137754e+03 1.200000000000000e+04 
  endloop 
 endfacet 
 facet normal  -4.067366430758002e-01 -9.135454576426009e-01 0.000000000000000e+00 
  outer loop 
   vertex  -1.236067977499790e+03 -3.804226065180614e+03 1.200000000000000e+04 
   vertex  -2.000000000000002e+03 -3.464101615137754e+03 1.200000000000000e+04 
   vertex  -1.236067977499790e+03 -3.804226065180614e+03 0.000000000000000e+00 
  endloop 
 endfacet 
 facet normal  0.000000000000000e+00 0.000000000000000e+00 -1.000000000000000e+00 
  outer loop 
   vertex  -1.236067977499790e+03 -3.804226065180614e+03 0.000000000000000e+00 
   vertex  0.000000000000000e+00 0.000000000000000e+00 0.000000000000000e+00 
   vertex  -4.181138530706169e+02 -3.978087581473093e+03 0.000000000000000e+00 
  endloop 
 endfacet 
 facet normal  -0.000000000000000e+00 0.000000000000000e+00 1.000000000000000e+00 
  outer loop 
   vertex  -4.181138530706169e+02 -3.978087581473093e+03 1.200000000000000e+04 
   vertex  0.000000000000000e+00 0.000000000000000e+00 1.200000000000000e+04 
   vertex  -1.236067977499790e+03 -3.804226065180614e+03 1.200000000000000e+04 
  endloop 
 endfacet 
 facet normal  -2.079116908177598e-01 -9.781476007338056e-01 -0.000000000000000e+00 
  outer loop 
   vertex  -1.236067977499790e+03 -3.804226065180614e+03 0.000000000000000e+00 
   vertex  -4.181138530706169e+02 -3.978087581473093e+03 0.000000000000000e+00 
   vertex  -1.236067977499790e+03 -3.804226065180614e+03 1.200000000000000e+04 
  endloop 
 endfacet 
 facet normal  -2.079116908177598e-01 -9.781476007338056e-01 0.000000000000000e+00 
  outer loop 
   vertex  -4.181138530706169e+02 -3.978087581473093e+03 1.200000000000000e+04 
   vertex  -1.236067977499790e+03 -3.804226065180614e+03 1.200000000000000e+04 
   vertex  -4.181138530706169e+02 -3.978087581473093e+03 0.000000000000000e+00 
  endloop 
 endfacet 
 facet normal  0.000000000000000e+00 0.000000000000000e+00 -1.000000000000000e+00 
  outer loop 
   vertex  -4.181138530706169e+02 -3.978087581473093e+03 0.000000000000000e+00 
   vertex  0.000000000000000e+00 0.000000000000000e+00 0.000000000000000e+00 
   vertex  4.181138530706155e+02 -3.978087581473093e+03 0.000000000000000e+00 
  endloop 
 endfacet 
 facet normal  0.000000000000000e+00 -0.000000000000000e+00 1.000000000000000e+00 
  outer loop 
   vertex  4.181138530706155e+02 -3.978087581473093e+03 1.200000000000000e+04 
   vertex  0.000000000000000e+00 0.000000000000000e+00 1.200000000000000e+04 
   vertex  -4.181138530706169e+02 -3.978087581473093e+03 1.200000000000000e+04 
  endloop 
 endfacet 
 facet normal  0.000000000000000e+00 -1.000000000000000e+00 0.000000000000000e+00 
  outer loop 
   vertex  -4.181138530706169e+02 -3.978087581473093e+03 0.000000000000000e+00 
   vertex  4.181138530706155e+02 -3.978087581473093e+03 0.000000000000000e+00 
   vertex  -4.181138530706169e+02 -3.978087581473093e+03 1.200000000000000e+04 
  endloop 
 endfacet 
 facet normal  0.000000000000000e+00 -1.000000000000000e+00 0.000000000000000e+00 
  outer loop 
   vertex  4.181138530706155e+02 -3.978087581473093e+03 1.200000000000000e+04 
   vertex  -4.181138530706169e+02 -3.978087581473093e+03 1.200000000000000e+04 
   vertex  4.181138530706155e+02 -3.978087581473093e+03 0.000000000000000e+00 
  endloop 
 endfacet 
 facet normal  -0.000000000000000e+00 0.000000000000000e+00 -1.000000000000000e+00 
  outer loop 
   vertex  4.181138530706155e+02 -3.978087581473093e+03 0.000000000000000e+00 
   vertex  0.000000000000000e+00 0.000000000000000e+00 0.000000000000000e+00 
   vertex  1.236067977499789e+03 -3.804226065180615e+03 0.000000000000000e+00 
  endloop 
 endfacet 
 facet normal  0.000000000000000e+00 -0.000000000000000e+00 1.000000000000000e+00 
  outer loop 
   vertex  1.236067977499789e+03 -3.804226065180615e+03 1.200000000000000e+04 
   vertex  0.000000000000000e+00 0.000000000000000e+00 1.200000000000000e+04 
   vertex  4.181138530706155e+02 -3.978087581473093e+03 1.200000000000000e+04 
  endloop 
 endfacet 
 facet normal  2.079116908177592e-01 -9.781476007338056e-01 0.000000000000000e+00 
  outer loop 
   vertex  4.181138530706155e+02 -3.978087581473093e+03 0.000000000000000e+00 
   vertex  1.236067977499789e+03 -3.804226065180615e+03 0.000000000000000e+00 
   vertex  4.181138530706155e+02 -3.978087581473093e+03 1.200000000000000e+04 
  endloop 
 endfacet 
 facet normal  2.079116908177592e-01 -9.781476007338056e-01 0.000000000000000e+00 
  outer loop 
   vertex  1.236067977499789e+03 -3.804226065180615e+03 1.200000000000000e+04 
   vertex  4.181138530706155e+02 -3.978087581473093e+03 1.200000000000000e+04 
   vertex  1.236067977499789e+03 -3.804226065180615e+03 0.000000000000000e+00 
  endloop 
 endfacet 
 facet normal  -0.000000000000000e+00 0.000000000000000e+00 -1.000000000000000e+00 
  outer loop 
   vertex  1.236067977499789e+03 -3.804226065180615e+03 0.000000000000000e+00 
   vertex  0.000000000000000e+00 0.000000000000000e+00 0.000000000000000e+00 
   vertex  2.000000000000000e+03 -3.464101615137754e+03 0.000000000000000e+00 
  endloop 
 endfacet 
 facet normal  0.000000000000000e+00 -0.000000000000000e+00 1.000000000000000e+00 
  outer loop 
   vertex  2.000000000000000e+03 -3.464101615137754e+03 1.200000000000000e+04 
   vertex  0.000000000000000e+00 0.000000000000000e+00 1.200000000000000e+04 
   vertex  1.236067977499789e+03 -3.804226065180615e+03 1.200000000000000e+04 
  endloop 
 endfacet 
 facet normal  4.067366430758002e-01 -9.135454576426009e-01 0.000000000000000e+00 
  outer loop 
   vertex  1.236067977499789e+03 -3.804226065180615e+03 0.000000000000000e+00 
   vertex  2.000000000000000e+03 -3.464101615137754e+03 0.000000000000000e+00 
   vertex  1.236067977499789e+03 -3.804226065180615e+03 1.200000000000000e+04 
  endloop 
 endfacet 
 facet normal  4.067366430758002e-01 -9.135454576426009e-01 0.000000000000000e+00 
  outer loop 
   vertex  2.000000000000000e+03 -3.464101615137754e+03 1.200000000000000e+04 
   vertex  1.236067977499789e+03 -3.804226065180615e+03 1.200000000000000e+04 
   vertex  2.000000000000000e+03 -3.464101615137754e+03 0.000000000000000e+00 
  endloop 
 endfacet 
 facet normal  -0.000000000000000e+00 0.000000000000000e+00 -1.000000000000000e+00 
  outer loop 
   vertex  2.000000000000000e+03 -3.464101615137754e+03 0.000000000000000e+00 
   vertex  0.000000000000000e+00 0.000000000000000e+00 0.000000000000000e+00 
   vertex  2.676522425435434e+03 -2.972579301909576e+03 0.000000000000000e+00 
  endloop 
 endfacet 
 facet normal  0.000000000000000e+00 -0.000000000000000e+00 1.000000000000000e+00 
  outer loop 
   vertex  2.676522425435434e+03 -2.972579301909576e+03 1.200000000000000e+04 
   vertex  0.000000000000000e+00 0.000000000000000e+00 1.200000000000000e+04 
   vertex  2.000000000000000e+03 -3.464101615137754e+03 1.200000000000000e+04 
  endloop 
 endfacet 
 facet normal  5.877852522924731e-01 -8.090169943749473e-01 0.000000000000000e+00 
  outer loop 
   vertex  2.000000000000000e+03 -3.464101615137754e+03 0.000000000000000e+00 
   vertex  2.676522425435434e+03 -2.972579301909576e+03 0.000000000000000e+00 
   vertex  2.000000000000000e+03 -3.464101615137754e+03 1.200000000000000e+04 
  endloop 
 endfacet 
 facet normal  5.877852522924731e-01 -8.090169943749473e-01 0.000000000000000e+00 
  outer loop 
   vertex  2.676522425435434e+03 -2.972579301909576e+03 1.200000000000000e+04 
   vertex  2.000000000000000e+03 -3.464101615137754e+03 1.200000000000000e+04 
   vertex  2.676522425435434e+03 -2.972579301909576e+03 0.000000000000000e+00 
  endloop 
 endfacet 
 facet normal  -0.000000000000000e+00 0.000000000000000e+00 -1.000000000000000e+00 
  outer loop 
   vertex  2.676522425435434e+03 -2.972579301909576e+03 0.000000000000000e+00 
   vertex  0.000000000000000e+00 0.000000000000000e+00 0.000000000000000e+00 
   vertex  3.236067977499789e+03 -2.351141009169894e+03 0.000000000000000e+00 
  endloop 
 endfacet 
 facet normal  0.000000000000000e+00 -0.000000000000000e+00 1.000000000000000e+00 
  outer loop 
   vertex  3.236067977499789e+03 -2.351141009169894e+03 1.200000000000000e+04 
   vertex  0.000000000000000e+00 0.000000000000000e+00 1.200000000000000e+04 
   vertex  2.676522425435434e+03 -2.972579301909576e+03 1.200000000000000e+04 
  endloop 
 endfacet 
 facet normal  7.431448254773941e-01 -6.691306063588582e-01 0.000000000000000e+00 
  outer loop 
   vertex  2.676522425435434e+03 -2.972579301909576e+03 0.000000000000000e+00 
   vertex  3.236067977499789e+03 -2.351141009169894e+03 0.000000000000000e+00 
   vertex  2.676522425435434e+03 -2.972579301909576e+03 1.200000000000000e+04 
  endloop 
 endfacet 
 facet normal  7.431448254773941e-01 -6.691306063588582e-01 0.000000000000000e+00 
  outer loop 
   vertex  3.236067977499789e+03 -2.351141009169894e+03 1.200000000000000e+04 
   vertex  2.676522425435434e+03 -2.972579301909576e+03 1.200000000000000e+04 
   vertex  3.236067977499789e+03 -2.351141009169894e+03 0.000000000000000e+00 
  endloop 
 endfacet 
 facet normal  -0.000000000000000e+00 0.000000000000000e+00 -1.000000000000000e+00 
  outer loop 
   vertex  3.236067977499789e+03 -2.351141009169894e+03 0.000000000000000e+00 
   vertex  0.000000000000000e+00 0.000000000000000e+00 0.000000000000000e+00 
   vertex  3.654181830570404e+03 -1.626946572303201e+03 0.000000000000000e+00 
  endloop 
 endfacet 
 facet normal  0.000000000000000e+00 -0.000000000000000e+00 1.000000000000000e+00 
  outer loop 
   vertex  3.654181830570404e+03 -1.626946572303201e+03 1.200000000000000e+04 
   vertex  0.000000000000000e+00 0.000000000000000e+00 1.200000000000000e+04 
   vertex  3.236067977499789e+03 -2.351141009169894e+03 1.200000000000000e+04 
  endloop 
 endfacet 
 facet normal  8.660254037844387e-01 -4.999999999999997e-01 0.000000000000000e+00 
  outer loop 
   vertex  3.236067977499789e+03 -2.351141009169894e+03 0.000000000000000e+00 
   vertex  3.654181830570404e+03 -1.626946572303201e+03 0.000000000000000e+00 
   vertex  3.236067977499789e+03 -2.351141009169894e+03 1.200000000000000e+04 
  endloop 
 endfacet 
 facet normal  8.660254037844387e-01 -4.999999999999997e-01 0.000000000000000e+00 
  outer loop 
   vertex  3.654181830570404e+03 -1.626946572303201e+03 1.200000000000000e+04 
   vertex  3.236067977499789e+03 -2.351141009169894e+03 1.200000000000000e+04 
   vertex  3.654181830570404e+03 -1.626946572303201e+03 0.000000000000000e+00 
  endloop 
 endfacet 
 facet normal  -0.000000000000000e+00 0.000000000000000e+00 -1.000000000000000e+00 
  outer loop 
   vertex  3.654181830570404e+03 -1.626946572303201e+03 0.000000000000000e+00 
   vertex  0.000000000000000e+00 0.000000000000000e+00 0.000000000000000e+00 
   vertex  3.912590402935222e+03 -8.316467632710395e+02 0.000000000000000e+00 
  endloop 
 endfacet 
 facet normal  0.000000000000000e+00 -0.000000000000000e+00 1.000000000000000e+00 
  outer loop 
   vertex  3.912590402935222e+03 -8.316467632710395e+02 1.200000000000000e+04 
   vertex  0.000000000000000e+00 0.000000000000000e+00 1.200000000000000e+04 
   vertex  3.654181830570404e+03 -1.626946572303201e+03 1.200000000000000e+04 
  endloop 
 endfacet 
 facet normal  9.510565162951534e-01 -3.090169943749479e-01 0.000000000000000e+00 
  outer loop 
   vertex  3.654181830570404e+03 -1.626946572303201e+03 0.000000000000000e+00 
   vertex  3.912590402935222e+03 -8.316467632710395e+02 0.000000000000000e+00 
   vertex  3.654181830570404e+03 -1.626946572303201e+03 1.200000000000000e+04 
  endloop 
 endfacet 
 facet normal  9.510565162951534e-01 -3.090169943749479e-01 0.000000000000000e+00 
  outer loop 
   vertex  3.912590402935222e+03 -8.316467632710395e+02 1.200000000000000e+04 
   vertex  3.654181830570404e+03 -1.626946572303201e+03 1.200000000000000e+04 
   vertex  3.912590402935222e+03 -8.316467632710395e+02 0.000000000000000e+00 
  endloop 
 endfacet 
 facet normal  -0.000000000000000e+00 0.000000000000000e+00 -1.000000000000000e+00 
  outer loop 
   vertex  3.912590402935222e+03 -8.316467632710395e+02 0.000000000000000e+00 
   vertex  0.000000000000000e+00 0.000000000000000e+00 0.000000000000000e+00 
   vertex  4.000000000000000e+03 0.000000000000000e+00 0.000000000000000e+00 
  endloop 
 endfacet 
 facet normal  0.000000000000000e+00 -0.000000000000000e+00 1.000000000000000e+00 
  outer loop 
   vertex  4.000000000000000e+03 0.000000000000000e+00 1.200000000000000e+04 
   vertex  0.000000000000000e+00 0.000000000000000e+00 1.200000000000000e+04 
   vertex  3.912590402935222e+03 -8.316467632710395e+02 1.200000000000000e+04 
  endloop 
 endfacet 
 facet normal  9.945218953682734e-01 -1.045284632676535e-01 0.000000000000000e+00 
  outer loop 
   vertex  3.912590402935222e+03 -8.316467632710395e+02 0.000000000000000e+00 
   vertex  4.000000000000000e+03 0.000000000000000e+00 0.000000000000000e+00 
   vertex  3.912590402935222e+03 -8.316467632710395e+02 1.200000000000000e+04 
  endloop 
 endfacet 
 facet normal  9.945218953682734e-01 -1.045284632676535e-01 0.000000000000000e+00 
  outer loop 
   vertex  4.000000000000000e+03 0.000000000000000e+00 1.200000000000000e+04 
   vertex  3.912590402935222e+03 -8.316467632710395e+02 1.200000000000000e+04 
   vertex  4.000000000000000e+03 0.000000000000000e+00 0.000000000000000e+00 
  endloop 
 endfacet 
endsolid